G04 #@! TF.FileFunction,Other,Fab,Top*
%FSLAX46Y46*%
G04 Gerber Fmt 4.6, Leading zero omitted, Abs format (unit mm)*
G04 Created by KiCad (PCBNEW 4.0.7) date Sunday 11 February 2018 15:33:06*
%MOMM*%
%LPD*%
G01*
G04 APERTURE LIST*
%ADD10C,0.100000*%
%ADD11C,0.150000*%
G04 APERTURE END LIST*
D10*
X172720000Y-99060000D02*
X172720000Y-95250000D01*
X172720000Y-95250000D02*
X223520000Y-95250000D01*
X223520000Y-95250000D02*
X223520000Y-100330000D01*
X223520000Y-100330000D02*
X173990000Y-100330000D01*
X173990000Y-100330000D02*
X172720000Y-99060000D01*
X243840000Y-150140000D02*
X242840000Y-151140000D01*
X242840000Y-151140000D02*
X235590000Y-151140000D01*
X235590000Y-151140000D02*
X235590000Y-128640000D01*
X235590000Y-128640000D02*
X252090000Y-128640000D01*
X252090000Y-128640000D02*
X252090000Y-151140000D01*
X252090000Y-151140000D02*
X244840000Y-151140000D01*
X244840000Y-151140000D02*
X243840000Y-150140000D01*
X248340000Y-146590000D02*
X239340000Y-146590000D01*
X246140000Y-155670000D02*
X241540000Y-155670000D01*
X241540000Y-155670000D02*
X241540000Y-151670000D01*
X246140000Y-151670000D02*
X246140000Y-155670000D01*
X246140000Y-151670000D02*
X241540000Y-151670000D01*
X243190560Y-153671020D02*
X242288860Y-153671020D01*
X244341180Y-153671020D02*
X245339400Y-153671020D01*
X243190560Y-152870920D02*
X243190560Y-154471120D01*
X244341180Y-154420320D02*
X244341180Y-152870920D01*
X243190560Y-153671020D02*
X244341180Y-154420320D01*
X243190560Y-153671020D02*
X244341180Y-152870920D01*
X228360000Y-155670000D02*
X223760000Y-155670000D01*
X223760000Y-155670000D02*
X223760000Y-151670000D01*
X228360000Y-151670000D02*
X228360000Y-155670000D01*
X228360000Y-151670000D02*
X223760000Y-151670000D01*
X225410560Y-153671020D02*
X224508860Y-153671020D01*
X226561180Y-153671020D02*
X227559400Y-153671020D01*
X225410560Y-152870920D02*
X225410560Y-154471120D01*
X226561180Y-154420320D02*
X226561180Y-152870920D01*
X225410560Y-153671020D02*
X226561180Y-154420320D01*
X225410560Y-153671020D02*
X226561180Y-152870920D01*
X226060000Y-150140000D02*
X225060000Y-151140000D01*
X225060000Y-151140000D02*
X217810000Y-151140000D01*
X217810000Y-151140000D02*
X217810000Y-128640000D01*
X217810000Y-128640000D02*
X234310000Y-128640000D01*
X234310000Y-128640000D02*
X234310000Y-151140000D01*
X234310000Y-151140000D02*
X227060000Y-151140000D01*
X227060000Y-151140000D02*
X226060000Y-150140000D01*
X230560000Y-146590000D02*
X221560000Y-146590000D01*
X231160000Y-94220000D02*
X231160000Y-128220000D01*
X231160000Y-128220000D02*
X251760000Y-128220000D01*
X231160000Y-94220000D02*
X251760000Y-94220000D01*
X251760000Y-94220000D02*
X251760000Y-128220000D01*
X166497000Y-144907000D02*
X166497000Y-155067000D01*
X166497000Y-155067000D02*
X169037000Y-155067000D01*
X169037000Y-155067000D02*
X169037000Y-144907000D01*
X169037000Y-144907000D02*
X166497000Y-144907000D01*
X166751000Y-124587000D02*
X168656000Y-124587000D01*
X168656000Y-124587000D02*
X168656000Y-127127000D01*
X168656000Y-127127000D02*
X166116000Y-127127000D01*
X166116000Y-127127000D02*
X166116000Y-125222000D01*
X166116000Y-125222000D02*
X166751000Y-124587000D01*
D11*
X197786667Y-97242381D02*
X197786667Y-97956667D01*
X197739047Y-98099524D01*
X197643809Y-98194762D01*
X197500952Y-98242381D01*
X197405714Y-98242381D01*
X198786667Y-98242381D02*
X198215238Y-98242381D01*
X198500952Y-98242381D02*
X198500952Y-97242381D01*
X198405714Y-97385238D01*
X198310476Y-97480476D01*
X198215238Y-97528095D01*
X249959905Y-130246381D02*
X249959905Y-129246381D01*
X250531334Y-130246381D02*
X250102762Y-129674952D01*
X250531334Y-129246381D02*
X249959905Y-129817810D01*
X251483715Y-130246381D02*
X250912286Y-130246381D01*
X251198000Y-130246381D02*
X251198000Y-129246381D01*
X251102762Y-129389238D01*
X251007524Y-129484476D01*
X250912286Y-129532095D01*
X243101905Y-151122381D02*
X243101905Y-150122381D01*
X243340000Y-150122381D01*
X243482858Y-150170000D01*
X243578096Y-150265238D01*
X243625715Y-150360476D01*
X243673334Y-150550952D01*
X243673334Y-150693810D01*
X243625715Y-150884286D01*
X243578096Y-150979524D01*
X243482858Y-151074762D01*
X243340000Y-151122381D01*
X243101905Y-151122381D01*
X244625715Y-151122381D02*
X244054286Y-151122381D01*
X244340000Y-151122381D02*
X244340000Y-150122381D01*
X244244762Y-150265238D01*
X244149524Y-150360476D01*
X244054286Y-150408095D01*
X225321905Y-151122381D02*
X225321905Y-150122381D01*
X225560000Y-150122381D01*
X225702858Y-150170000D01*
X225798096Y-150265238D01*
X225845715Y-150360476D01*
X225893334Y-150550952D01*
X225893334Y-150693810D01*
X225845715Y-150884286D01*
X225798096Y-150979524D01*
X225702858Y-151074762D01*
X225560000Y-151122381D01*
X225321905Y-151122381D01*
X226274286Y-150217619D02*
X226321905Y-150170000D01*
X226417143Y-150122381D01*
X226655239Y-150122381D01*
X226750477Y-150170000D01*
X226798096Y-150217619D01*
X226845715Y-150312857D01*
X226845715Y-150408095D01*
X226798096Y-150550952D01*
X226226667Y-151122381D01*
X226845715Y-151122381D01*
X232052905Y-130246381D02*
X232052905Y-129246381D01*
X232624334Y-130246381D02*
X232195762Y-129674952D01*
X232624334Y-129246381D02*
X232052905Y-129817810D01*
X233005286Y-129341619D02*
X233052905Y-129294000D01*
X233148143Y-129246381D01*
X233386239Y-129246381D01*
X233481477Y-129294000D01*
X233529096Y-129341619D01*
X233576715Y-129436857D01*
X233576715Y-129532095D01*
X233529096Y-129674952D01*
X232957667Y-130246381D01*
X233576715Y-130246381D01*
X240538095Y-111212381D02*
X240538095Y-112021905D01*
X240585714Y-112117143D01*
X240633333Y-112164762D01*
X240728571Y-112212381D01*
X240919048Y-112212381D01*
X241014286Y-112164762D01*
X241061905Y-112117143D01*
X241109524Y-112021905D01*
X241109524Y-111212381D01*
X242109524Y-112212381D02*
X241538095Y-112212381D01*
X241823809Y-112212381D02*
X241823809Y-111212381D01*
X241728571Y-111355238D01*
X241633333Y-111450476D01*
X241538095Y-111498095D01*
X167433667Y-143299381D02*
X167433667Y-144013667D01*
X167386047Y-144156524D01*
X167290809Y-144251762D01*
X167147952Y-144299381D01*
X167052714Y-144299381D01*
X168386048Y-143299381D02*
X167909857Y-143299381D01*
X167862238Y-143775571D01*
X167909857Y-143727952D01*
X168005095Y-143680333D01*
X168243191Y-143680333D01*
X168338429Y-143727952D01*
X168386048Y-143775571D01*
X168433667Y-143870810D01*
X168433667Y-144108905D01*
X168386048Y-144204143D01*
X168338429Y-144251762D01*
X168243191Y-144299381D01*
X168005095Y-144299381D01*
X167909857Y-144251762D01*
X167862238Y-144204143D01*
X166076476Y-124023381D02*
X166076476Y-123023381D01*
X166409810Y-123737667D01*
X166743143Y-123023381D01*
X166743143Y-124023381D01*
X167219333Y-124023381D02*
X167219333Y-123023381D01*
X167790762Y-124023381D02*
X167362190Y-123451952D01*
X167790762Y-123023381D02*
X167219333Y-123594810D01*
X168743143Y-124023381D02*
X168171714Y-124023381D01*
X168457428Y-124023381D02*
X168457428Y-123023381D01*
X168362190Y-123166238D01*
X168266952Y-123261476D01*
X168171714Y-123309095D01*
M02*
