G04 #@! TF.FileFunction,Soldermask,Bot*
%FSLAX46Y46*%
G04 Gerber Fmt 4.6, Leading zero omitted, Abs format (unit mm)*
G04 Created by KiCad (PCBNEW 4.0.7) date Sunday 11 February 2018 15:39:25*
%MOMM*%
%LPD*%
G01*
G04 APERTURE LIST*
%ADD10C,0.100000*%
%ADD11C,3.400000*%
%ADD12C,3.150000*%
%ADD13R,2.100000X2.100000*%
%ADD14O,2.100000X2.100000*%
%ADD15R,2.900000X2.900000*%
%ADD16O,2.900000X2.900000*%
%ADD17R,1.200000X1.300000*%
%ADD18R,1.100000X1.700000*%
%ADD19C,2.900000*%
%ADD20R,1.370000X1.670000*%
%ADD21R,3.399740X3.399740*%
%ADD22C,3.399740*%
G04 APERTURE END LIST*
D10*
D11*
X200660000Y-106680000D03*
X200660000Y-116840000D03*
X200660000Y-111760000D03*
X198120000Y-114300000D03*
X198120000Y-109220000D03*
X195580000Y-106680000D03*
X190500000Y-106680000D03*
X185420000Y-106680000D03*
X187960000Y-109220000D03*
X193040000Y-109220000D03*
X195580000Y-111760000D03*
X195580000Y-116840000D03*
X193040000Y-114300000D03*
X190500000Y-111760000D03*
X190500000Y-116840000D03*
X187960000Y-114300000D03*
X185420000Y-111760000D03*
D12*
X227120000Y-120790000D03*
X227120000Y-97790000D03*
X169120000Y-120790000D03*
X169120000Y-97790000D03*
D13*
X173990000Y-99060000D03*
D14*
X173990000Y-96520000D03*
X176530000Y-99060000D03*
X176530000Y-96520000D03*
X179070000Y-99060000D03*
X179070000Y-96520000D03*
X181610000Y-99060000D03*
X181610000Y-96520000D03*
X184150000Y-99060000D03*
X184150000Y-96520000D03*
X186690000Y-99060000D03*
X186690000Y-96520000D03*
X189230000Y-99060000D03*
X189230000Y-96520000D03*
X191770000Y-99060000D03*
X191770000Y-96520000D03*
X194310000Y-99060000D03*
X194310000Y-96520000D03*
X196850000Y-99060000D03*
X196850000Y-96520000D03*
X199390000Y-99060000D03*
X199390000Y-96520000D03*
X201930000Y-99060000D03*
X201930000Y-96520000D03*
X204470000Y-99060000D03*
X204470000Y-96520000D03*
X207010000Y-99060000D03*
X207010000Y-96520000D03*
X209550000Y-99060000D03*
X209550000Y-96520000D03*
X212090000Y-99060000D03*
X212090000Y-96520000D03*
X214630000Y-99060000D03*
X214630000Y-96520000D03*
X217170000Y-99060000D03*
X217170000Y-96520000D03*
X219710000Y-99060000D03*
X219710000Y-96520000D03*
X222250000Y-99060000D03*
X222250000Y-96520000D03*
D12*
X169120000Y-97790000D03*
D11*
X185420000Y-116840000D03*
D15*
X243840000Y-148590000D03*
D16*
X249840000Y-146590000D03*
X249840000Y-134390000D03*
X237840000Y-134390000D03*
X237840000Y-146590000D03*
D15*
X226060000Y-148590000D03*
D16*
X232060000Y-146590000D03*
X232060000Y-134390000D03*
X220060000Y-134390000D03*
X220060000Y-146590000D03*
D17*
X246700000Y-141240000D03*
X248600000Y-141240000D03*
X247650000Y-143240000D03*
X228920000Y-141240000D03*
X230820000Y-141240000D03*
X229870000Y-143240000D03*
D18*
X246700000Y-138430000D03*
X248600000Y-138430000D03*
X228920000Y-138430000D03*
X230820000Y-138430000D03*
D15*
X243760000Y-96520000D03*
D19*
X238760000Y-96520000D03*
X248960000Y-125920000D03*
X233560000Y-125920000D03*
D20*
X245110000Y-125857000D03*
X243840000Y-125857000D03*
X242570000Y-125857000D03*
D13*
X167767000Y-146177000D03*
D14*
X167767000Y-148717000D03*
X167767000Y-151257000D03*
X167767000Y-153797000D03*
D13*
X167386000Y-125857000D03*
D21*
X180975000Y-148844000D03*
D22*
X180975000Y-143764000D03*
X180975000Y-138684000D03*
X180975000Y-133604000D03*
M02*
