G04 #@! TF.FileFunction,Other,Fab,Bot*
%FSLAX46Y46*%
G04 Gerber Fmt 4.6, Leading zero omitted, Abs format (unit mm)*
G04 Created by KiCad (PCBNEW 4.0.7) date Sunday 11 February 2018 15:33:06*
%MOMM*%
%LPD*%
G01*
G04 APERTURE LIST*
%ADD10C,0.100000*%
%ADD11C,0.075000*%
G04 APERTURE END LIST*
D10*
X246700000Y-141540000D02*
X249150000Y-141540000D01*
X246130000Y-142090000D02*
X246130000Y-142940000D01*
X246700000Y-141540000D02*
X246130000Y-142090000D01*
X246130000Y-142940000D02*
X249170000Y-142940000D01*
X249170000Y-141540000D02*
X249170000Y-142940000D01*
X228920000Y-141540000D02*
X231370000Y-141540000D01*
X228350000Y-142090000D02*
X228350000Y-142940000D01*
X228920000Y-141540000D02*
X228350000Y-142090000D01*
X228350000Y-142940000D02*
X231390000Y-142940000D01*
X231390000Y-141540000D02*
X231390000Y-142940000D01*
X246650000Y-137810000D02*
X246650000Y-139050000D01*
X248650000Y-137810000D02*
X246650000Y-137810000D01*
X248650000Y-139050000D02*
X248650000Y-137810000D01*
X246650000Y-139050000D02*
X248650000Y-139050000D01*
X228870000Y-137810000D02*
X228870000Y-139050000D01*
X230870000Y-137810000D02*
X228870000Y-137810000D01*
X230870000Y-139050000D02*
X230870000Y-137810000D01*
X228870000Y-139050000D02*
X230870000Y-139050000D01*
D11*
X247697619Y-142513810D02*
X247745238Y-142490000D01*
X247792857Y-142442381D01*
X247864286Y-142370952D01*
X247911905Y-142347143D01*
X247959524Y-142347143D01*
X247935714Y-142466190D02*
X247983333Y-142442381D01*
X248030952Y-142394762D01*
X248054762Y-142299524D01*
X248054762Y-142132857D01*
X248030952Y-142037619D01*
X247983333Y-141990000D01*
X247935714Y-141966190D01*
X247840476Y-141966190D01*
X247792857Y-141990000D01*
X247745238Y-142037619D01*
X247721429Y-142132857D01*
X247721429Y-142299524D01*
X247745238Y-142394762D01*
X247792857Y-142442381D01*
X247840476Y-142466190D01*
X247935714Y-142466190D01*
X247245238Y-142466190D02*
X247530952Y-142466190D01*
X247388095Y-142466190D02*
X247388095Y-141966190D01*
X247435714Y-142037619D01*
X247483333Y-142085238D01*
X247530952Y-142109048D01*
X229917619Y-142513810D02*
X229965238Y-142490000D01*
X230012857Y-142442381D01*
X230084286Y-142370952D01*
X230131905Y-142347143D01*
X230179524Y-142347143D01*
X230155714Y-142466190D02*
X230203333Y-142442381D01*
X230250952Y-142394762D01*
X230274762Y-142299524D01*
X230274762Y-142132857D01*
X230250952Y-142037619D01*
X230203333Y-141990000D01*
X230155714Y-141966190D01*
X230060476Y-141966190D01*
X230012857Y-141990000D01*
X229965238Y-142037619D01*
X229941429Y-142132857D01*
X229941429Y-142299524D01*
X229965238Y-142394762D01*
X230012857Y-142442381D01*
X230060476Y-142466190D01*
X230155714Y-142466190D01*
X229750952Y-142013810D02*
X229727142Y-141990000D01*
X229679523Y-141966190D01*
X229560476Y-141966190D01*
X229512857Y-141990000D01*
X229489047Y-142013810D01*
X229465238Y-142061429D01*
X229465238Y-142109048D01*
X229489047Y-142180476D01*
X229774761Y-142466190D01*
X229465238Y-142466190D01*
X247733333Y-138656190D02*
X247900000Y-138418095D01*
X248019047Y-138656190D02*
X248019047Y-138156190D01*
X247828571Y-138156190D01*
X247780952Y-138180000D01*
X247757143Y-138203810D01*
X247733333Y-138251429D01*
X247733333Y-138322857D01*
X247757143Y-138370476D01*
X247780952Y-138394286D01*
X247828571Y-138418095D01*
X248019047Y-138418095D01*
X247257143Y-138656190D02*
X247542857Y-138656190D01*
X247400000Y-138656190D02*
X247400000Y-138156190D01*
X247447619Y-138227619D01*
X247495238Y-138275238D01*
X247542857Y-138299048D01*
X229953333Y-138656190D02*
X230120000Y-138418095D01*
X230239047Y-138656190D02*
X230239047Y-138156190D01*
X230048571Y-138156190D01*
X230000952Y-138180000D01*
X229977143Y-138203810D01*
X229953333Y-138251429D01*
X229953333Y-138322857D01*
X229977143Y-138370476D01*
X230000952Y-138394286D01*
X230048571Y-138418095D01*
X230239047Y-138418095D01*
X229762857Y-138203810D02*
X229739047Y-138180000D01*
X229691428Y-138156190D01*
X229572381Y-138156190D01*
X229524762Y-138180000D01*
X229500952Y-138203810D01*
X229477143Y-138251429D01*
X229477143Y-138299048D01*
X229500952Y-138370476D01*
X229786666Y-138656190D01*
X229477143Y-138656190D01*
M02*
