G04 #@! TF.FileFunction,Other,User*
%FSLAX46Y46*%
G04 Gerber Fmt 4.6, Leading zero omitted, Abs format (unit mm)*
G04 Created by KiCad (PCBNEW 4.0.7) date Sunday 11 February 2018 15:39:25*
%MOMM*%
%LPD*%
G01*
G04 APERTURE LIST*
%ADD10C,0.100000*%
%ADD11C,0.050000*%
G04 APERTURE END LIST*
D10*
D11*
X172190000Y-100860000D02*
X224040000Y-100860000D01*
X224040000Y-100860000D02*
X224040000Y-94710000D01*
X224040000Y-94710000D02*
X172190000Y-94710000D01*
X172190000Y-94710000D02*
X172190000Y-100860000D01*
X235340000Y-128390000D02*
X235340000Y-151390000D01*
X235340000Y-151390000D02*
X252340000Y-151390000D01*
X252340000Y-151390000D02*
X252340000Y-128390000D01*
X252340000Y-128390000D02*
X235340000Y-128390000D01*
X240190000Y-151420000D02*
X247490000Y-151420000D01*
X247490000Y-151420000D02*
X247490000Y-155920000D01*
X247490000Y-155920000D02*
X240190000Y-155920000D01*
X240190000Y-155920000D02*
X240190000Y-151420000D01*
X222410000Y-151420000D02*
X229710000Y-151420000D01*
X229710000Y-151420000D02*
X229710000Y-155920000D01*
X229710000Y-155920000D02*
X222410000Y-155920000D01*
X222410000Y-155920000D02*
X222410000Y-151420000D01*
X217560000Y-128390000D02*
X217560000Y-151390000D01*
X217560000Y-151390000D02*
X234560000Y-151390000D01*
X234560000Y-151390000D02*
X234560000Y-128390000D01*
X234560000Y-128390000D02*
X217560000Y-128390000D01*
X251760000Y-94220000D02*
X251760000Y-128220000D01*
X231160000Y-128220000D02*
X251760000Y-128220000D01*
X231160000Y-94220000D02*
X231160000Y-128220000D01*
X231160000Y-94220000D02*
X251760000Y-94220000D01*
X165967000Y-144377000D02*
X165967000Y-155577000D01*
X165967000Y-155577000D02*
X169567000Y-155577000D01*
X169567000Y-155577000D02*
X169567000Y-144377000D01*
X169567000Y-144377000D02*
X165967000Y-144377000D01*
X165586000Y-124057000D02*
X165586000Y-127657000D01*
X165586000Y-127657000D02*
X169186000Y-127657000D01*
X169186000Y-127657000D02*
X169186000Y-124057000D01*
X169186000Y-124057000D02*
X165586000Y-124057000D01*
M02*
