<?xml version='1.0' encoding='UTF-8' standalone='no'?>
<!-- Created with Fritzing (http://www.fritzing.org/) -->
<svg xmlns="http://www.w3.org/2000/svg" y="0in" viewBox="0 0 276 196" baseProfile="tiny" xmlns:svg="http://www.w3.org/2000/svg" x="0in" width="3.83333in" version="1.2"  height="2.72222in">
 <g partID="58240">
  <g transform="matrix(1, 0, 0, 1, -4.70032, 0.817434)">
   <g id="board">
    <g>
     <path d="m37.575,2.825,0,128.65C21.3237,131.65,8.19999,144.882,8.19999,161.175c0,16.402,13.298,29.7,29.7,29.7,16.2674,0,29.4593,-13.0838,29.675,-29.3l23.85,0,0,-65.1999,93.5499,0,0,65.1999,93.5499,0,0,-158.75,-240.95,0z" stroke="black" fill="none" id="boardoutline" stroke-width="0.5"/>
    </g>
   </g>
  </g>
 </g>
 <g partID="854664581">
  <g transform="translate(216.716,130.119)">
   <g id="copper1" >
    <g stroke="black" fill="none" cx="3.01733" cy="3.01733" id="0" r="0.992124"  stroke-width="0.850392"/>
   </g>
  </g>
 </g>
 <g partID="854623341">
  <g transform="translate(264.062,130.482)">
   <g id="copper1" >
    <g stroke="black" fill="none" cx="3.01733" cy="3.01733" id="1" r="0.992124"  stroke-width="0.850392"/>
   </g>
  </g>
 </g>
 <g partID="854628251">
  <g transform="translate(38.1405,26.0798)">
   <g id="copper1" >
    <g stroke="black" fill="none" cx="3.01733" cy="3.01733" id="2" r="0.992124"  stroke-width="0.850392"/>
   </g>
  </g>
 </g>
 <g partID="854629621">
  <g transform="translate(52.1207,53.9792)">
   <g id="copper1" >
    <g stroke="black" fill="none" cx="3.01733" cy="3.01733" id="3" r="0.992124"  stroke-width="0.850392"/>
   </g>
  </g>
 </g>
 <g partID="854631021">
  <g transform="translate(44.7734,37.2687)">
   <g id="copper1" >
    <g stroke="black" fill="none" cx="3.01733" cy="3.01733" id="4" r="0.992124"  stroke-width="0.850392"/>
   </g>
  </g>
 </g>
 <g partID="854643541">
  <g transform="translate(32.649,7.95644)">
   <g id="copper1" >
    <g stroke="black" fill="none" cx="3.01733" cy="3.01733" id="5" r="0.992124"  stroke-width="0.850392"/>
   </g>
  </g>
 </g>
 <g partID="854643711">
  <g transform="translate(43.607,8.88148)">
   <g id="copper1" >
    <g stroke="black" fill="none" cx="3.01733" cy="3.01733" id="6" r="0.992124"  stroke-width="0.850392"/>
   </g>
  </g>
 </g>
 <g partID="854598941">
  <g transform="translate(6.7076,166.583)">
   <g transform="matrix(0.707107,-0.707107,0.707107,0.707107,0,0)">
    <g id="copper1"  gorn="0.3">
     <g id="copper0"  gorn="0.3.0">
      <g stroke="black" fill="none" cx="5.04" cy="5.04" id="7" r="2.088"  gorn="0.3.0.0" stroke-width="1.44"/>
      <g stroke="black" fill="none" cx="5.04" cy="12.24" id="8" r="2.088"  gorn="0.3.0.1" stroke-width="1.44"/>
      <g stroke="black" fill="none" cx="5.04" cy="19.44" id="9" r="2.088"  gorn="0.3.0.2" stroke-width="1.44"/>
      <g stroke="black" fill="none" cx="5.04" cy="26.64" id="10" r="2.088"  gorn="0.3.0.3" stroke-width="1.44"/>
     </g>
    </g>
   </g>
  </g>
 </g>
 <g partID="854599431">
  <g transform="translate(32.9169,56.2477)">
   <g id="copper1" >
    <g stroke="black" fill="none" cx="3.01733" cy="3.01733" id="11" r="0.992124"  stroke-width="0.850392"/>
   </g>
  </g>
 </g>
 <g partID="854597790">
  <g transform="translate(38.5586,167.367)">
   <g transform="matrix(-0.707107,-0.707107,0.707107,-0.707107,0,0)">
    <g id="copper1" >
     <rect y="0.566929" stroke="none" fill="black" id="12" fill-opacity="1" x="0.566929" width="4.53543"  height="5.38583" stroke-width="0"/>
     <rect y="0.566929" stroke="none" fill="black" id="13" fill-opacity="1" x="9.35433" width="4.53543"  height="5.38583" stroke-width="0"/>
    </g>
   </g>
  </g>
 </g>
 <g partID="109391">
  <g transform="translate(10.7411,164.783)">
   <g transform="matrix(0.707107,-0.707107,0.707107,0.707107,0,0)">
    <g id="copper1" >
     <g stroke="black" fill="none" cx="13.029" cy="32.333" id="14" r="2.16"  stroke-width="0.999999"/>
     <g stroke="black" fill="none" cx="13.029" cy="25.134" id="15" r="2.16"  stroke-width="0.999999"/>
     <g stroke="black" fill="none" cx="13.029" cy="17.934" id="16" r="2.16"  stroke-width="0.999999"/>
     <g stroke="black" fill="none" cx="13.029" cy="10.734" id="17" r="2.16"  stroke-width="0.999999"/>
    </g>
   </g>
  </g>
 </g>
 <g partID="109791">
  <g transform="translate(50.8713,165.962)">
   <g id="copper1" >
    <g stroke="black" fill="none" cx="4.31559" cy="4.31559" id="18" r="1.99559"  stroke-width="1.44"/>
   </g>
  </g>
 </g>
 <g partID="111581">
  <g transform="translate(217.413,90.2978)">
   <g id="copper1" >
    <g stroke="black" fill="none" cx="4.31559" cy="4.31559" id="19" r="1.99559"  stroke-width="1.44"/>
   </g>
  </g>
 </g>
 <g partID="111561">
  <g transform="translate(261.046,90.265)">
   <g id="copper1" >
    <g stroke="black" fill="none" cx="4.31559" cy="4.31559" id="20" r="1.99559"  stroke-width="1.44"/>
   </g>
  </g>
 </g>
 <g partID="111541">
  <g transform="translate(232.606,6.69631)">
   <g id="copper1" >
    <g stroke="black" fill="none" cx="4.31559" cy="4.31559" id="21" r="1.99559"  stroke-width="1.44"/>
   </g>
  </g>
 </g>
 <g partID="111461">
  <g transform="translate(246.792,6.66491)">
   <g id="copper1" >
    <g stroke="black" fill="none" cx="4.31559" cy="4.31559" id="22" r="1.99559"  stroke-width="1.44"/>
   </g>
  </g>
 </g>
 <g partID="117681">
  <g transform="translate(166.154,59.8725)">
   <g id="copper1" >
    <g stroke="black" fill="none" cx="3.01733" cy="3.01733" id="23" r="0.992124"  stroke-width="0.850392"/>
   </g>
  </g>
 </g>
 <g partID="119311">
  <g transform="translate(81.8584,24.1815)">
   <g id="copper1" >
    <g stroke="black" fill="none" cx="3.01733" cy="3.01733" id="24" r="0.992124"  stroke-width="0.850392"/>
   </g>
  </g>
 </g>
 <g partID="120591">
  <g transform="translate(200.874,90.0146)">
   <g id="copper1" >
    <g stroke="black" fill="none" cx="3.01733" cy="3.01733" id="25" r="0.992124"  stroke-width="0.850392"/>
   </g>
  </g>
 </g>
 <g partID="120721">
  <g transform="translate(242.913,53.053)">
   <g id="copper1" >
    <g stroke="black" fill="none" cx="3.01733" cy="3.01733" id="26" r="0.992124"  stroke-width="0.850392"/>
   </g>
  </g>
 </g>
 <g partID="121991">
  <g transform="translate(222.886,99.137)">
   <g id="copper1" >
    <g stroke="black" fill="none" cx="3.01733" cy="3.01733" id="27" r="0.992124"  stroke-width="0.850392"/>
   </g>
  </g>
 </g>
 <g partID="854584881">
  <g transform="translate(256.336,65.4201)">
   <g id="copper1" >
    <g stroke="black" fill="none" cx="3.01733" cy="3.01733" id="28" r="0.992124"  stroke-width="0.850392"/>
   </g>
  </g>
 </g>
 <g partID="854586381">
  <g transform="translate(265.74,76.4326)">
   <g id="copper1" >
    <g stroke="black" fill="none" cx="3.01733" cy="3.01733" id="29" r="0.992124"  stroke-width="0.850392"/>
   </g>
  </g>
 </g>
 <g partID="854586481">
  <g transform="translate(239.806,89.8714)">
   <g id="copper1" >
    <g stroke="black" fill="none" cx="3.01733" cy="3.01733" id="30" r="0.992124"  stroke-width="0.850392"/>
   </g>
  </g>
 </g>
 <g partID="62851">
  <g transform="translate(81.9994,161.635)">
   <g transform="matrix(-1,0,0,-1,0,0)">
    <g transform="matrix(1, 0, 0, 1, -10.08, -1.08)">
     <g id="copper1" gorn="0.1">
      <g id="copper0" gorn="0.1.0">
       <g stroke-opacity="1" y="6.84" stroke="black" fill="none" id="31" x="12.24" width="4.32" gorn="0.1.0.0" height="4.32" stroke-width="1.44"/>
       <g stroke-opacity="1" stroke="black" fill="none" id="32" cy="9" cx="14.4" r="2.16" gorn="0.1.0.1" stroke-width="1.44"/>
       <g stroke-opacity="1" stroke="black" fill="none" id="33" cy="23.4" cx="14.4" r="2.16" gorn="0.1.0.2" stroke-width="1.44"/>
       <g stroke-opacity="1" stroke="black" fill="none" id="34" cy="37.8" cx="14.4" r="2.16" gorn="0.1.0.3" stroke-width="1.44"/>
       <g stroke-opacity="1" stroke="black" fill="none" id="35" cy="52.2" cx="14.4" r="2.16" gorn="0.1.0.4" stroke-width="1.44"/>
      </g>
     </g>
    </g>
   </g>
  </g>
 </g>
 <g partID="70201">
  <g transform="translate(273.311,103.857)">
   <g transform="matrix(0,1,-1,0,0,0)">
    <g transform="matrix(1, 0, 0, 1, 0, -795.118)">
     <g id="copper1">
      <g>
       <g transform="matrix(1, 0, 0, 1, 0, 795.118)">
        <g id="0.3.1.0">
         <g stroke-opacity="1" d="m10.4882,23.3858a3.25984,3.25984,0,1,1,-6.51969,0,3.25984,3.25984,0,1,1,6.51969,0z" stroke="black" fill="none" id="36" style="opacity:0.98000004;stroke-miterlimit:4;stroke-dasharray:none" stroke-width="2.83465"/>
        </g>
       </g>
       <g transform="matrix(1, 0, 0, 1, 5.81102, 812.126)">
        <g id="0.3.1.1">
         <g stroke-opacity="1" d="m10.4882,23.3858a3.25984,3.25984,0,1,1,-6.51969,0,3.25984,3.25984,0,1,1,6.51969,0z" stroke="black" fill="none" id="37" style="opacity:0.98000004;stroke-miterlimit:4;stroke-dasharray:none" stroke-width="2.83465"/>
        </g>
       </g>
       <g transform="matrix(1, 0, 0, 1, 40.252, 812.126)">
        <g id="0.3.1.2">
         <g stroke-opacity="1" d="m10.4882,23.3858a3.25984,3.25984,0,1,1,-6.51969,0,3.25984,3.25984,0,1,1,6.51969,0z" stroke="black" fill="none" id="38" style="opacity:0.98000004;stroke-miterlimit:4;stroke-dasharray:none" stroke-width="2.83465"/>
        </g>
       </g>
       <g transform="matrix(1, 0, 0, 1, 5.81102, 812.126)">
        <g id="0.3.1.3">
         <g stroke-opacity="1" d="m10.4882,23.3858a3.25984,3.25984,0,1,1,-6.51969,0,3.25984,3.25984,0,1,1,6.51969,0z" stroke="black" fill="none" id="39" style="opacity:0.98000004;stroke-miterlimit:4;stroke-dasharray:none" stroke-width="2.83465"/>
        </g>
       </g>
       <g transform="matrix(1, 0, 0, 1, 40.252, 812.126)">
        <g id="0.3.1.4">
         <g stroke-opacity="1" d="m10.4882,23.3858a3.25984,3.25984,0,1,1,-6.51969,0,3.25984,3.25984,0,1,1,6.51969,0z" stroke="black" fill="none" id="40" style="opacity:0.98000004;stroke-miterlimit:4;stroke-dasharray:none" stroke-width="2.83465"/>
        </g>
       </g>
       <g transform="matrix(1, 0, 0, -1, 5.81102, 824.882)">
        <g id="0.3.1.5">
         <g stroke-opacity="1" d="m10.4882,23.3858a3.25984,3.25984,0,1,1,-6.51969,0,3.25984,3.25984,0,1,1,6.51969,0z" stroke="black" fill="none" id="41" style="opacity:0.98000004;stroke-miterlimit:4;stroke-dasharray:none" stroke-width="2.83465"/>
        </g>
       </g>
       <g transform="matrix(1, 0, 0, -1, 40.252, 824.882)">
        <g id="0.3.1.6">
         <g stroke-opacity="1" d="m10.4882,23.3858a3.25984,3.25984,0,1,1,-6.51969,0,3.25984,3.25984,0,1,1,6.51969,0z" stroke="black" fill="none" id="42" style="opacity:0.98000004;stroke-miterlimit:4;stroke-dasharray:none" stroke-width="2.83465"/>
        </g>
       </g>
      </g>
     </g>
    </g>
   </g>
  </g>
 </g>
 <g partID="70181">
  <g transform="translate(226.476,103.913)">
   <g transform="matrix(0,1,-1,0,0,0)">
    <g transform="matrix(1, 0, 0, 1, 0, -795.118)">
     <g id="copper1">
      <g>
       <g transform="matrix(1, 0, 0, 1, 0, 795.118)">
        <g id="0.3.1.0">
         <g stroke-opacity="1" d="m10.4882,23.3858a3.25984,3.25984,0,1,1,-6.51969,0,3.25984,3.25984,0,1,1,6.51969,0z" stroke="black" fill="none" id="43" style="opacity:0.98000004;stroke-miterlimit:4;stroke-dasharray:none" stroke-width="2.83465"/>
        </g>
       </g>
       <g transform="matrix(1, 0, 0, 1, 5.81102, 812.126)">
        <g id="0.3.1.1">
         <g stroke-opacity="1" d="m10.4882,23.3858a3.25984,3.25984,0,1,1,-6.51969,0,3.25984,3.25984,0,1,1,6.51969,0z" stroke="black" fill="none" id="44" style="opacity:0.98000004;stroke-miterlimit:4;stroke-dasharray:none" stroke-width="2.83465"/>
        </g>
       </g>
       <g transform="matrix(1, 0, 0, 1, 40.252, 812.126)">
        <g id="0.3.1.2">
         <g stroke-opacity="1" d="m10.4882,23.3858a3.25984,3.25984,0,1,1,-6.51969,0,3.25984,3.25984,0,1,1,6.51969,0z" stroke="black" fill="none" id="45" style="opacity:0.98000004;stroke-miterlimit:4;stroke-dasharray:none" stroke-width="2.83465"/>
        </g>
       </g>
       <g transform="matrix(1, 0, 0, 1, 5.81102, 812.126)">
        <g id="0.3.1.3">
         <g stroke-opacity="1" d="m10.4882,23.3858a3.25984,3.25984,0,1,1,-6.51969,0,3.25984,3.25984,0,1,1,6.51969,0z" stroke="black" fill="none" id="46" style="opacity:0.98000004;stroke-miterlimit:4;stroke-dasharray:none" stroke-width="2.83465"/>
        </g>
       </g>
       <g transform="matrix(1, 0, 0, 1, 40.252, 812.126)">
        <g id="0.3.1.4">
         <g stroke-opacity="1" d="m10.4882,23.3858a3.25984,3.25984,0,1,1,-6.51969,0,3.25984,3.25984,0,1,1,6.51969,0z" stroke="black" fill="none" id="47" style="opacity:0.98000004;stroke-miterlimit:4;stroke-dasharray:none" stroke-width="2.83465"/>
        </g>
       </g>
       <g transform="matrix(1, 0, 0, -1, 5.81102, 824.882)">
        <g id="0.3.1.5">
         <g stroke-opacity="1" d="m10.4882,23.3858a3.25984,3.25984,0,1,1,-6.51969,0,3.25984,3.25984,0,1,1,6.51969,0z" stroke="black" fill="none" id="48" style="opacity:0.98000004;stroke-miterlimit:4;stroke-dasharray:none" stroke-width="2.83465"/>
        </g>
       </g>
       <g transform="matrix(1, 0, 0, -1, 40.252, 824.882)">
        <g id="0.3.1.6">
         <g stroke-opacity="1" d="m10.4882,23.3858a3.25984,3.25984,0,1,1,-6.51969,0,3.25984,3.25984,0,1,1,6.51969,0z" stroke="black" fill="none" id="49" style="opacity:0.98000004;stroke-miterlimit:4;stroke-dasharray:none" stroke-width="2.83465"/>
        </g>
       </g>
      </g>
     </g>
    </g>
   </g>
  </g>
 </g>
 <g partID="67811">
  <g transform="translate(41.9856,28.809)">
   <g transform="matrix(0,-1,1,0,0,0)">
    <g id="copper1" >
     <g y="12.1752" stroke="black" fill="none" id="50" x="6.7392" r="285" width="4.104"  height="4.104" stroke-width="1.224"/>
     <g stroke="black" fill="none" id="51" cx="15.9912" cy="14.2272" r="2.052"  stroke-width="1.224"/>
     <g stroke="black" fill="none" id="52" cx="15.9912" cy="21.4272" r="2.052"  stroke-width="1.224"/>
     <g stroke="black" fill="none" id="53" cx="15.9912" cy="28.6272" r="2.052"  stroke-width="1.224"/>
     <g stroke="black" fill="none" id="54" cx="15.9912" cy="35.8272" r="2.052"  stroke-width="1.224"/>
     <g stroke="black" fill="none" id="55" cx="15.9912" cy="43.0272" r="2.052"  stroke-width="1.224"/>
     <g stroke="black" fill="none" id="56" cx="15.9912" cy="50.2272" r="2.052"  stroke-width="1.224"/>
     <g stroke="black" fill="none" id="57" cx="15.9912" cy="57.4272" r="2.052"  stroke-width="1.224"/>
     <g stroke="black" fill="none" id="58" cx="15.9912" cy="64.6272" r="2.052"  stroke-width="1.224"/>
     <g stroke="black" fill="none" id="59" cx="15.9912" cy="71.8272" r="2.052"  stroke-width="1.224"/>
     <g stroke="black" fill="none" id="60" cx="15.9912" cy="79.0272" r="2.052"  stroke-width="1.224"/>
     <g stroke="black" fill="none" id="61" cx="15.9912" cy="86.2272" r="2.052"  stroke-width="1.224"/>
     <g stroke="black" fill="none" id="62" cx="15.9912" cy="93.4272" r="2.052"  stroke-width="1.224"/>
     <g stroke="black" fill="none" id="63" cx="15.9912" cy="100.627" r="2.052"  stroke-width="1.224"/>
     <g stroke="black" fill="none" id="64" cx="15.9912" cy="107.827" r="2.052"  stroke-width="1.224"/>
     <g stroke="black" fill="none" id="65" cx="15.9912" cy="115.027" r="2.052"  stroke-width="1.224"/>
     <g stroke="black" fill="none" id="66" cx="15.9912" cy="122.227" r="2.052"  stroke-width="1.224"/>
     <g stroke="black" fill="none" id="67" cx="15.9912" cy="129.427" r="2.052"  stroke-width="1.224"/>
     <g stroke="black" fill="none" id="68" cx="15.9912" cy="136.627" r="2.052"  stroke-width="1.224"/>
     <g stroke="black" fill="none" id="69" cx="8.7912" cy="14.2272" r="2.052"  stroke-width="1.224"/>
     <g stroke="black" fill="none" id="70" cx="8.7912" cy="21.4272" r="2.052"  stroke-width="1.224"/>
     <g stroke="black" fill="none" id="71" cx="8.7912" cy="28.6272" r="2.052"  stroke-width="1.224"/>
     <g stroke="black" fill="none" id="72" cx="8.7912" cy="35.8272" r="2.052"  stroke-width="1.224"/>
     <g stroke="black" fill="none" id="73" cx="8.7912" cy="43.0272" r="2.052"  stroke-width="1.224"/>
     <g stroke="black" fill="none" id="74" cx="8.7912" cy="50.2272" r="2.052"  stroke-width="1.224"/>
     <g stroke="black" fill="none" id="75" cx="8.7912" cy="57.4272" r="2.052"  stroke-width="1.224"/>
     <g stroke="black" fill="none" id="76" cx="8.7912" cy="64.6272" r="2.052"  stroke-width="1.224"/>
     <g stroke="black" fill="none" id="77" cx="8.7912" cy="71.8272" r="2.052"  stroke-width="1.224"/>
     <g stroke="black" fill="none" id="78" cx="8.7912" cy="79.0272" r="2.052"  stroke-width="1.224"/>
     <g stroke="black" fill="none" id="79" cx="8.7912" cy="86.2272" r="2.052"  stroke-width="1.224"/>
     <g stroke="black" fill="none" id="80" cx="8.7912" cy="93.4272" r="2.052"  stroke-width="1.224"/>
     <g stroke="black" fill="none" id="81" cx="8.7912" cy="100.627" r="2.052"  stroke-width="1.224"/>
     <g stroke="black" fill="none" id="82" cx="8.7912" cy="107.827" r="2.052"  stroke-width="1.224"/>
     <g stroke="black" fill="none" id="83" cx="8.7912" cy="115.027" r="2.052"  stroke-width="1.224"/>
     <g stroke="black" fill="none" id="84" cx="8.7912" cy="122.227" r="2.052"  stroke-width="1.224"/>
     <g stroke="black" fill="none" id="85" cx="8.7912" cy="129.427" r="2.052"  stroke-width="1.224"/>
     <g stroke="black" fill="none" id="86" cx="8.7912" cy="136.627" r="2.052"  stroke-width="1.224"/>
    </g>
   </g>
  </g>
 </g>
</svg>
