%TF.GenerationSoftware,KiCad,Pcbnew,6.0.11+dfsg-1*%
%TF.CreationDate,2024-07-29T18:25:12-05:00*%
%TF.ProjectId,HestiaPiOneUniversal,48657374-6961-4506-994f-6e65556e6976,rev?*%
%TF.SameCoordinates,Original*%
%TF.FileFunction,Legend,Top*%
%TF.FilePolarity,Positive*%
%FSLAX46Y46*%
G04 Gerber Fmt 4.6, Leading zero omitted, Abs format (unit mm)*
G04 Created by KiCad (PCBNEW 6.0.11+dfsg-1) date 2024-07-29 18:25:12*
%MOMM*%
%LPD*%
G01*
G04 APERTURE LIST*
%ADD10C,0.150000*%
%ADD11C,0.120000*%
G04 APERTURE END LIST*
D10*
X73100000Y-76600000D02*
X119100000Y-76600000D01*
X119100000Y-76600000D02*
X119100000Y-106600000D01*
X119100000Y-106600000D02*
X73100000Y-106600000D01*
X73100000Y-106600000D02*
X73100000Y-76600000D01*
X159040357Y-74122380D02*
X159659404Y-74122380D01*
X159326071Y-74503333D01*
X159468928Y-74503333D01*
X159564166Y-74550952D01*
X159611785Y-74598571D01*
X159659404Y-74693809D01*
X159659404Y-74931904D01*
X159611785Y-75027142D01*
X159564166Y-75074761D01*
X159468928Y-75122380D01*
X159183214Y-75122380D01*
X159087976Y-75074761D01*
X159040357Y-75027142D01*
X160087976Y-75027142D02*
X160135595Y-75074761D01*
X160087976Y-75122380D01*
X160040357Y-75074761D01*
X160087976Y-75027142D01*
X160087976Y-75122380D01*
X160468928Y-74122380D02*
X161087976Y-74122380D01*
X160754642Y-74503333D01*
X160897500Y-74503333D01*
X160992738Y-74550952D01*
X161040357Y-74598571D01*
X161087976Y-74693809D01*
X161087976Y-74931904D01*
X161040357Y-75027142D01*
X160992738Y-75074761D01*
X160897500Y-75122380D01*
X160611785Y-75122380D01*
X160516547Y-75074761D01*
X160468928Y-75027142D01*
X161373690Y-74122380D02*
X161707023Y-75122380D01*
X162040357Y-74122380D01*
X159659404Y-77390000D02*
X159564166Y-77342380D01*
X159421309Y-77342380D01*
X159278452Y-77390000D01*
X159183214Y-77485238D01*
X159135595Y-77580476D01*
X159087976Y-77770952D01*
X159087976Y-77913809D01*
X159135595Y-78104285D01*
X159183214Y-78199523D01*
X159278452Y-78294761D01*
X159421309Y-78342380D01*
X159516547Y-78342380D01*
X159659404Y-78294761D01*
X159707023Y-78247142D01*
X159707023Y-77913809D01*
X159516547Y-77913809D01*
X160135595Y-78342380D02*
X160135595Y-77342380D01*
X160707023Y-78342380D01*
X160707023Y-77342380D01*
X161183214Y-78342380D02*
X161183214Y-77342380D01*
X161421309Y-77342380D01*
X161564166Y-77390000D01*
X161659404Y-77485238D01*
X161707023Y-77580476D01*
X161754642Y-77770952D01*
X161754642Y-77913809D01*
X161707023Y-78104285D01*
X161659404Y-78199523D01*
X161564166Y-78294761D01*
X161421309Y-78342380D01*
X161183214Y-78342380D01*
X159087976Y-81514761D02*
X159230833Y-81562380D01*
X159468928Y-81562380D01*
X159564166Y-81514761D01*
X159611785Y-81467142D01*
X159659404Y-81371904D01*
X159659404Y-81276666D01*
X159611785Y-81181428D01*
X159564166Y-81133809D01*
X159468928Y-81086190D01*
X159278452Y-81038571D01*
X159183214Y-80990952D01*
X159135595Y-80943333D01*
X159087976Y-80848095D01*
X159087976Y-80752857D01*
X159135595Y-80657619D01*
X159183214Y-80610000D01*
X159278452Y-80562380D01*
X159516547Y-80562380D01*
X159659404Y-80610000D01*
X160659404Y-81467142D02*
X160611785Y-81514761D01*
X160468928Y-81562380D01*
X160373690Y-81562380D01*
X160230833Y-81514761D01*
X160135595Y-81419523D01*
X160087976Y-81324285D01*
X160040357Y-81133809D01*
X160040357Y-80990952D01*
X160087976Y-80800476D01*
X160135595Y-80705238D01*
X160230833Y-80610000D01*
X160373690Y-80562380D01*
X160468928Y-80562380D01*
X160611785Y-80610000D01*
X160659404Y-80657619D01*
X161564166Y-81562380D02*
X161087976Y-81562380D01*
X161087976Y-80562380D01*
X159087976Y-84734761D02*
X159230833Y-84782380D01*
X159468928Y-84782380D01*
X159564166Y-84734761D01*
X159611785Y-84687142D01*
X159659404Y-84591904D01*
X159659404Y-84496666D01*
X159611785Y-84401428D01*
X159564166Y-84353809D01*
X159468928Y-84306190D01*
X159278452Y-84258571D01*
X159183214Y-84210952D01*
X159135595Y-84163333D01*
X159087976Y-84068095D01*
X159087976Y-83972857D01*
X159135595Y-83877619D01*
X159183214Y-83830000D01*
X159278452Y-83782380D01*
X159516547Y-83782380D01*
X159659404Y-83830000D01*
X160087976Y-84782380D02*
X160087976Y-83782380D01*
X160326071Y-83782380D01*
X160468928Y-83830000D01*
X160564166Y-83925238D01*
X160611785Y-84020476D01*
X160659404Y-84210952D01*
X160659404Y-84353809D01*
X160611785Y-84544285D01*
X160564166Y-84639523D01*
X160468928Y-84734761D01*
X160326071Y-84782380D01*
X160087976Y-84782380D01*
X161040357Y-84496666D02*
X161516547Y-84496666D01*
X160945119Y-84782380D02*
X161278452Y-83782380D01*
X161611785Y-84782380D01*
%TO.C,BME280*%
X156619047Y-73128571D02*
X156761904Y-73176190D01*
X156809523Y-73223809D01*
X156857142Y-73319047D01*
X156857142Y-73461904D01*
X156809523Y-73557142D01*
X156761904Y-73604761D01*
X156666666Y-73652380D01*
X156285714Y-73652380D01*
X156285714Y-72652380D01*
X156619047Y-72652380D01*
X156714285Y-72700000D01*
X156761904Y-72747619D01*
X156809523Y-72842857D01*
X156809523Y-72938095D01*
X156761904Y-73033333D01*
X156714285Y-73080952D01*
X156619047Y-73128571D01*
X156285714Y-73128571D01*
X157285714Y-73652380D02*
X157285714Y-72652380D01*
X157619047Y-73366666D01*
X157952380Y-72652380D01*
X157952380Y-73652380D01*
X158428571Y-73128571D02*
X158761904Y-73128571D01*
X158904761Y-73652380D02*
X158428571Y-73652380D01*
X158428571Y-72652380D01*
X158904761Y-72652380D01*
X159285714Y-72747619D02*
X159333333Y-72700000D01*
X159428571Y-72652380D01*
X159666666Y-72652380D01*
X159761904Y-72700000D01*
X159809523Y-72747619D01*
X159857142Y-72842857D01*
X159857142Y-72938095D01*
X159809523Y-73080952D01*
X159238095Y-73652380D01*
X159857142Y-73652380D01*
X160428571Y-73080952D02*
X160333333Y-73033333D01*
X160285714Y-72985714D01*
X160238095Y-72890476D01*
X160238095Y-72842857D01*
X160285714Y-72747619D01*
X160333333Y-72700000D01*
X160428571Y-72652380D01*
X160619047Y-72652380D01*
X160714285Y-72700000D01*
X160761904Y-72747619D01*
X160809523Y-72842857D01*
X160809523Y-72890476D01*
X160761904Y-72985714D01*
X160714285Y-73033333D01*
X160619047Y-73080952D01*
X160428571Y-73080952D01*
X160333333Y-73128571D01*
X160285714Y-73176190D01*
X160238095Y-73271428D01*
X160238095Y-73461904D01*
X160285714Y-73557142D01*
X160333333Y-73604761D01*
X160428571Y-73652380D01*
X160619047Y-73652380D01*
X160714285Y-73604761D01*
X160761904Y-73557142D01*
X160809523Y-73461904D01*
X160809523Y-73271428D01*
X160761904Y-73176190D01*
X160714285Y-73128571D01*
X160619047Y-73080952D01*
X161428571Y-72652380D02*
X161523809Y-72652380D01*
X161619047Y-72700000D01*
X161666666Y-72747619D01*
X161714285Y-72842857D01*
X161761904Y-73033333D01*
X161761904Y-73271428D01*
X161714285Y-73461904D01*
X161666666Y-73557142D01*
X161619047Y-73604761D01*
X161523809Y-73652380D01*
X161428571Y-73652380D01*
X161333333Y-73604761D01*
X161285714Y-73557142D01*
X161238095Y-73461904D01*
X161190476Y-73271428D01*
X161190476Y-73033333D01*
X161238095Y-72842857D01*
X161285714Y-72747619D01*
X161333333Y-72700000D01*
X161428571Y-72652380D01*
%TO.C,RL2*%
X148137619Y-52768571D02*
X148613809Y-52435238D01*
X148137619Y-52197142D02*
X149137619Y-52197142D01*
X149137619Y-52578095D01*
X149090000Y-52673333D01*
X149042380Y-52720952D01*
X148947142Y-52768571D01*
X148804285Y-52768571D01*
X148709047Y-52720952D01*
X148661428Y-52673333D01*
X148613809Y-52578095D01*
X148613809Y-52197142D01*
X148137619Y-53673333D02*
X148137619Y-53197142D01*
X149137619Y-53197142D01*
X149042380Y-53959047D02*
X149090000Y-54006666D01*
X149137619Y-54101904D01*
X149137619Y-54340000D01*
X149090000Y-54435238D01*
X149042380Y-54482857D01*
X148947142Y-54530476D01*
X148851904Y-54530476D01*
X148709047Y-54482857D01*
X148137619Y-53911428D01*
X148137619Y-54530476D01*
%TO.C,RL4*%
X160033619Y-52676571D02*
X160509809Y-52343238D01*
X160033619Y-52105142D02*
X161033619Y-52105142D01*
X161033619Y-52486095D01*
X160986000Y-52581333D01*
X160938380Y-52628952D01*
X160843142Y-52676571D01*
X160700285Y-52676571D01*
X160605047Y-52628952D01*
X160557428Y-52581333D01*
X160509809Y-52486095D01*
X160509809Y-52105142D01*
X160033619Y-53581333D02*
X160033619Y-53105142D01*
X161033619Y-53105142D01*
X160700285Y-54343238D02*
X160033619Y-54343238D01*
X161081238Y-54105142D02*
X160366952Y-53867047D01*
X160366952Y-54486095D01*
%TO.C,RL3*%
X154191619Y-52751571D02*
X154667809Y-52418238D01*
X154191619Y-52180142D02*
X155191619Y-52180142D01*
X155191619Y-52561095D01*
X155144000Y-52656333D01*
X155096380Y-52703952D01*
X155001142Y-52751571D01*
X154858285Y-52751571D01*
X154763047Y-52703952D01*
X154715428Y-52656333D01*
X154667809Y-52561095D01*
X154667809Y-52180142D01*
X154191619Y-53656333D02*
X154191619Y-53180142D01*
X155191619Y-53180142D01*
X155191619Y-53894428D02*
X155191619Y-54513476D01*
X154810666Y-54180142D01*
X154810666Y-54323000D01*
X154763047Y-54418238D01*
X154715428Y-54465857D01*
X154620190Y-54513476D01*
X154382095Y-54513476D01*
X154286857Y-54465857D01*
X154239238Y-54418238D01*
X154191619Y-54323000D01*
X154191619Y-54037285D01*
X154239238Y-53942047D01*
X154286857Y-53894428D01*
%TO.C,RL1*%
X143015619Y-52751571D02*
X143491809Y-52418238D01*
X143015619Y-52180142D02*
X144015619Y-52180142D01*
X144015619Y-52561095D01*
X143968000Y-52656333D01*
X143920380Y-52703952D01*
X143825142Y-52751571D01*
X143682285Y-52751571D01*
X143587047Y-52703952D01*
X143539428Y-52656333D01*
X143491809Y-52561095D01*
X143491809Y-52180142D01*
X143015619Y-53656333D02*
X143015619Y-53180142D01*
X144015619Y-53180142D01*
X143015619Y-54513476D02*
X143015619Y-53942047D01*
X143015619Y-54227761D02*
X144015619Y-54227761D01*
X143872761Y-54132523D01*
X143777523Y-54037285D01*
X143729904Y-53942047D01*
%TO.C,PSU-EU_100-240V_AC1*%
X81371428Y-88952380D02*
X81371428Y-87952380D01*
X81752380Y-87952380D01*
X81847619Y-88000000D01*
X81895238Y-88047619D01*
X81942857Y-88142857D01*
X81942857Y-88285714D01*
X81895238Y-88380952D01*
X81847619Y-88428571D01*
X81752380Y-88476190D01*
X81371428Y-88476190D01*
X82323809Y-88904761D02*
X82466666Y-88952380D01*
X82704761Y-88952380D01*
X82800000Y-88904761D01*
X82847619Y-88857142D01*
X82895238Y-88761904D01*
X82895238Y-88666666D01*
X82847619Y-88571428D01*
X82800000Y-88523809D01*
X82704761Y-88476190D01*
X82514285Y-88428571D01*
X82419047Y-88380952D01*
X82371428Y-88333333D01*
X82323809Y-88238095D01*
X82323809Y-88142857D01*
X82371428Y-88047619D01*
X82419047Y-88000000D01*
X82514285Y-87952380D01*
X82752380Y-87952380D01*
X82895238Y-88000000D01*
X83323809Y-87952380D02*
X83323809Y-88761904D01*
X83371428Y-88857142D01*
X83419047Y-88904761D01*
X83514285Y-88952380D01*
X83704761Y-88952380D01*
X83800000Y-88904761D01*
X83847619Y-88857142D01*
X83895238Y-88761904D01*
X83895238Y-87952380D01*
X84371428Y-88571428D02*
X85133333Y-88571428D01*
X85609523Y-88428571D02*
X85942857Y-88428571D01*
X86085714Y-88952380D02*
X85609523Y-88952380D01*
X85609523Y-87952380D01*
X86085714Y-87952380D01*
X86514285Y-87952380D02*
X86514285Y-88761904D01*
X86561904Y-88857142D01*
X86609523Y-88904761D01*
X86704761Y-88952380D01*
X86895238Y-88952380D01*
X86990476Y-88904761D01*
X87038095Y-88857142D01*
X87085714Y-88761904D01*
X87085714Y-87952380D01*
X87323809Y-89047619D02*
X88085714Y-89047619D01*
X88847619Y-88952380D02*
X88276190Y-88952380D01*
X88561904Y-88952380D02*
X88561904Y-87952380D01*
X88466666Y-88095238D01*
X88371428Y-88190476D01*
X88276190Y-88238095D01*
X89466666Y-87952380D02*
X89561904Y-87952380D01*
X89657142Y-88000000D01*
X89704761Y-88047619D01*
X89752380Y-88142857D01*
X89800000Y-88333333D01*
X89800000Y-88571428D01*
X89752380Y-88761904D01*
X89704761Y-88857142D01*
X89657142Y-88904761D01*
X89561904Y-88952380D01*
X89466666Y-88952380D01*
X89371428Y-88904761D01*
X89323809Y-88857142D01*
X89276190Y-88761904D01*
X89228571Y-88571428D01*
X89228571Y-88333333D01*
X89276190Y-88142857D01*
X89323809Y-88047619D01*
X89371428Y-88000000D01*
X89466666Y-87952380D01*
X90419047Y-87952380D02*
X90514285Y-87952380D01*
X90609523Y-88000000D01*
X90657142Y-88047619D01*
X90704761Y-88142857D01*
X90752380Y-88333333D01*
X90752380Y-88571428D01*
X90704761Y-88761904D01*
X90657142Y-88857142D01*
X90609523Y-88904761D01*
X90514285Y-88952380D01*
X90419047Y-88952380D01*
X90323809Y-88904761D01*
X90276190Y-88857142D01*
X90228571Y-88761904D01*
X90180952Y-88571428D01*
X90180952Y-88333333D01*
X90228571Y-88142857D01*
X90276190Y-88047619D01*
X90323809Y-88000000D01*
X90419047Y-87952380D01*
X91180952Y-88571428D02*
X91942857Y-88571428D01*
X92371428Y-88047619D02*
X92419047Y-88000000D01*
X92514285Y-87952380D01*
X92752380Y-87952380D01*
X92847619Y-88000000D01*
X92895238Y-88047619D01*
X92942857Y-88142857D01*
X92942857Y-88238095D01*
X92895238Y-88380952D01*
X92323809Y-88952380D01*
X92942857Y-88952380D01*
X93800000Y-88285714D02*
X93800000Y-88952380D01*
X93561904Y-87904761D02*
X93323809Y-88619047D01*
X93942857Y-88619047D01*
X94514285Y-87952380D02*
X94609523Y-87952380D01*
X94704761Y-88000000D01*
X94752380Y-88047619D01*
X94800000Y-88142857D01*
X94847619Y-88333333D01*
X94847619Y-88571428D01*
X94800000Y-88761904D01*
X94752380Y-88857142D01*
X94704761Y-88904761D01*
X94609523Y-88952380D01*
X94514285Y-88952380D01*
X94419047Y-88904761D01*
X94371428Y-88857142D01*
X94323809Y-88761904D01*
X94276190Y-88571428D01*
X94276190Y-88333333D01*
X94323809Y-88142857D01*
X94371428Y-88047619D01*
X94419047Y-88000000D01*
X94514285Y-87952380D01*
X95133333Y-87952380D02*
X95466666Y-88952380D01*
X95799999Y-87952380D01*
X95895238Y-89047619D02*
X96657142Y-89047619D01*
X96847619Y-88666666D02*
X97323809Y-88666666D01*
X96752380Y-88952380D02*
X97085714Y-87952380D01*
X97419047Y-88952380D01*
X98323809Y-88857142D02*
X98276190Y-88904761D01*
X98133333Y-88952380D01*
X98038095Y-88952380D01*
X97895238Y-88904761D01*
X97799999Y-88809523D01*
X97752380Y-88714285D01*
X97704761Y-88523809D01*
X97704761Y-88380952D01*
X97752380Y-88190476D01*
X97799999Y-88095238D01*
X97895238Y-88000000D01*
X98038095Y-87952380D01*
X98133333Y-87952380D01*
X98276190Y-88000000D01*
X98323809Y-88047619D01*
X99276190Y-88952380D02*
X98704761Y-88952380D01*
X98990476Y-88952380D02*
X98990476Y-87952380D01*
X98895238Y-88095238D01*
X98799999Y-88190476D01*
X98704761Y-88238095D01*
%TO.C,SW1*%
X153466666Y-69304761D02*
X153609523Y-69352380D01*
X153847619Y-69352380D01*
X153942857Y-69304761D01*
X153990476Y-69257142D01*
X154038095Y-69161904D01*
X154038095Y-69066666D01*
X153990476Y-68971428D01*
X153942857Y-68923809D01*
X153847619Y-68876190D01*
X153657142Y-68828571D01*
X153561904Y-68780952D01*
X153514285Y-68733333D01*
X153466666Y-68638095D01*
X153466666Y-68542857D01*
X153514285Y-68447619D01*
X153561904Y-68400000D01*
X153657142Y-68352380D01*
X153895238Y-68352380D01*
X154038095Y-68400000D01*
X154371428Y-68352380D02*
X154609523Y-69352380D01*
X154800000Y-68638095D01*
X154990476Y-69352380D01*
X155228571Y-68352380D01*
X156133333Y-69352380D02*
X155561904Y-69352380D01*
X155847619Y-69352380D02*
X155847619Y-68352380D01*
X155752380Y-68495238D01*
X155657142Y-68590476D01*
X155561904Y-68638095D01*
%TO.C,J0*%
X103766666Y-74952380D02*
X103766666Y-75666666D01*
X103719047Y-75809523D01*
X103623809Y-75904761D01*
X103480952Y-75952380D01*
X103385714Y-75952380D01*
X104433333Y-74952380D02*
X104528571Y-74952380D01*
X104623809Y-75000000D01*
X104671428Y-75047619D01*
X104719047Y-75142857D01*
X104766666Y-75333333D01*
X104766666Y-75571428D01*
X104719047Y-75761904D01*
X104671428Y-75857142D01*
X104623809Y-75904761D01*
X104528571Y-75952380D01*
X104433333Y-75952380D01*
X104338095Y-75904761D01*
X104290476Y-75857142D01*
X104242857Y-75761904D01*
X104195238Y-75571428D01*
X104195238Y-75333333D01*
X104242857Y-75142857D01*
X104290476Y-75047619D01*
X104338095Y-75000000D01*
X104433333Y-74952380D01*
%TO.C,J3*%
X78910380Y-38941333D02*
X79624666Y-38941333D01*
X79767523Y-38988952D01*
X79862761Y-39084190D01*
X79910380Y-39227047D01*
X79910380Y-39322285D01*
X78910380Y-38560380D02*
X78910380Y-37941333D01*
X79291333Y-38274666D01*
X79291333Y-38131809D01*
X79338952Y-38036571D01*
X79386571Y-37988952D01*
X79481809Y-37941333D01*
X79719904Y-37941333D01*
X79815142Y-37988952D01*
X79862761Y-38036571D01*
X79910380Y-38131809D01*
X79910380Y-38417523D01*
X79862761Y-38512761D01*
X79815142Y-38560380D01*
%TO.C,C(N)  R(L)  W(W)  Y(H)  G(Hum)  W2*%
X123552380Y-76657142D02*
X123504761Y-76704761D01*
X123361904Y-76752380D01*
X123266666Y-76752380D01*
X123123809Y-76704761D01*
X123028571Y-76609523D01*
X122980952Y-76514285D01*
X122933333Y-76323809D01*
X122933333Y-76180952D01*
X122980952Y-75990476D01*
X123028571Y-75895238D01*
X123123809Y-75800000D01*
X123266666Y-75752380D01*
X123361904Y-75752380D01*
X123504761Y-75800000D01*
X123552380Y-75847619D01*
X124266666Y-77133333D02*
X124219047Y-77085714D01*
X124123809Y-76942857D01*
X124076190Y-76847619D01*
X124028571Y-76704761D01*
X123980952Y-76466666D01*
X123980952Y-76276190D01*
X124028571Y-76038095D01*
X124076190Y-75895238D01*
X124123809Y-75800000D01*
X124219047Y-75657142D01*
X124266666Y-75609523D01*
X124647619Y-76752380D02*
X124647619Y-75752380D01*
X125219047Y-76752380D01*
X125219047Y-75752380D01*
X125599999Y-77133333D02*
X125647619Y-77085714D01*
X125742857Y-76942857D01*
X125790476Y-76847619D01*
X125838095Y-76704761D01*
X125885714Y-76466666D01*
X125885714Y-76276190D01*
X125838095Y-76038095D01*
X125790476Y-75895238D01*
X125742857Y-75800000D01*
X125647619Y-75657142D01*
X125599999Y-75609523D01*
X128457142Y-76752380D02*
X128123809Y-76276190D01*
X127885714Y-76752380D02*
X127885714Y-75752380D01*
X128266666Y-75752380D01*
X128361904Y-75800000D01*
X128409523Y-75847619D01*
X128457142Y-75942857D01*
X128457142Y-76085714D01*
X128409523Y-76180952D01*
X128361904Y-76228571D01*
X128266666Y-76276190D01*
X127885714Y-76276190D01*
X129171428Y-77133333D02*
X129123809Y-77085714D01*
X129028571Y-76942857D01*
X128980952Y-76847619D01*
X128933333Y-76704761D01*
X128885714Y-76466666D01*
X128885714Y-76276190D01*
X128933333Y-76038095D01*
X128980952Y-75895238D01*
X129028571Y-75800000D01*
X129123809Y-75657142D01*
X129171428Y-75609523D01*
X130028571Y-76752380D02*
X129552380Y-76752380D01*
X129552380Y-75752380D01*
X130266666Y-77133333D02*
X130314285Y-77085714D01*
X130409523Y-76942857D01*
X130457142Y-76847619D01*
X130504761Y-76704761D01*
X130552380Y-76466666D01*
X130552380Y-76276190D01*
X130504761Y-76038095D01*
X130457142Y-75895238D01*
X130409523Y-75800000D01*
X130314285Y-75657142D01*
X130266666Y-75609523D01*
X132457142Y-75752380D02*
X132695238Y-76752380D01*
X132885714Y-76038095D01*
X133076190Y-76752380D01*
X133314285Y-75752380D01*
X133980952Y-77133333D02*
X133933333Y-77085714D01*
X133838095Y-76942857D01*
X133790476Y-76847619D01*
X133742857Y-76704761D01*
X133695238Y-76466666D01*
X133695238Y-76276190D01*
X133742857Y-76038095D01*
X133790476Y-75895238D01*
X133838095Y-75800000D01*
X133933333Y-75657142D01*
X133980952Y-75609523D01*
X134266666Y-75752380D02*
X134504761Y-76752380D01*
X134695238Y-76038095D01*
X134885714Y-76752380D01*
X135123809Y-75752380D01*
X135409523Y-77133333D02*
X135457142Y-77085714D01*
X135552380Y-76942857D01*
X135600000Y-76847619D01*
X135647619Y-76704761D01*
X135695238Y-76466666D01*
X135695238Y-76276190D01*
X135647619Y-76038095D01*
X135600000Y-75895238D01*
X135552380Y-75800000D01*
X135457142Y-75657142D01*
X135409523Y-75609523D01*
X137885714Y-76276190D02*
X137885714Y-76752380D01*
X137552380Y-75752380D02*
X137885714Y-76276190D01*
X138219047Y-75752380D01*
X138838095Y-77133333D02*
X138790476Y-77085714D01*
X138695238Y-76942857D01*
X138647619Y-76847619D01*
X138600000Y-76704761D01*
X138552380Y-76466666D01*
X138552380Y-76276190D01*
X138600000Y-76038095D01*
X138647619Y-75895238D01*
X138695238Y-75800000D01*
X138790476Y-75657142D01*
X138838095Y-75609523D01*
X139219047Y-76752380D02*
X139219047Y-75752380D01*
X139219047Y-76228571D02*
X139790476Y-76228571D01*
X139790476Y-76752380D02*
X139790476Y-75752380D01*
X140171428Y-77133333D02*
X140219047Y-77085714D01*
X140314285Y-76942857D01*
X140361904Y-76847619D01*
X140409523Y-76704761D01*
X140457142Y-76466666D01*
X140457142Y-76276190D01*
X140409523Y-76038095D01*
X140361904Y-75895238D01*
X140314285Y-75800000D01*
X140219047Y-75657142D01*
X140171428Y-75609523D01*
X142980952Y-75800000D02*
X142885714Y-75752380D01*
X142742857Y-75752380D01*
X142600000Y-75800000D01*
X142504761Y-75895238D01*
X142457142Y-75990476D01*
X142409523Y-76180952D01*
X142409523Y-76323809D01*
X142457142Y-76514285D01*
X142504761Y-76609523D01*
X142600000Y-76704761D01*
X142742857Y-76752380D01*
X142838095Y-76752380D01*
X142980952Y-76704761D01*
X143028571Y-76657142D01*
X143028571Y-76323809D01*
X142838095Y-76323809D01*
X143742857Y-77133333D02*
X143695238Y-77085714D01*
X143600000Y-76942857D01*
X143552380Y-76847619D01*
X143504761Y-76704761D01*
X143457142Y-76466666D01*
X143457142Y-76276190D01*
X143504761Y-76038095D01*
X143552380Y-75895238D01*
X143600000Y-75800000D01*
X143695238Y-75657142D01*
X143742857Y-75609523D01*
X144123809Y-76752380D02*
X144123809Y-75752380D01*
X144123809Y-76228571D02*
X144695238Y-76228571D01*
X144695238Y-76752380D02*
X144695238Y-75752380D01*
X145600000Y-76085714D02*
X145600000Y-76752380D01*
X145171428Y-76085714D02*
X145171428Y-76609523D01*
X145219047Y-76704761D01*
X145314285Y-76752380D01*
X145457142Y-76752380D01*
X145552380Y-76704761D01*
X145600000Y-76657142D01*
X146076190Y-76752380D02*
X146076190Y-76085714D01*
X146076190Y-76180952D02*
X146123809Y-76133333D01*
X146219047Y-76085714D01*
X146361904Y-76085714D01*
X146457142Y-76133333D01*
X146504761Y-76228571D01*
X146504761Y-76752380D01*
X146504761Y-76228571D02*
X146552380Y-76133333D01*
X146647619Y-76085714D01*
X146790476Y-76085714D01*
X146885714Y-76133333D01*
X146933333Y-76228571D01*
X146933333Y-76752380D01*
X147314285Y-77133333D02*
X147361904Y-77085714D01*
X147457142Y-76942857D01*
X147504761Y-76847619D01*
X147552380Y-76704761D01*
X147600000Y-76466666D01*
X147600000Y-76276190D01*
X147552380Y-76038095D01*
X147504761Y-75895238D01*
X147457142Y-75800000D01*
X147361904Y-75657142D01*
X147314285Y-75609523D01*
X149504761Y-75752380D02*
X149742857Y-76752380D01*
X149933333Y-76038095D01*
X150123809Y-76752380D01*
X150361904Y-75752380D01*
X150695238Y-75847619D02*
X150742857Y-75800000D01*
X150838095Y-75752380D01*
X151076190Y-75752380D01*
X151171428Y-75800000D01*
X151219047Y-75847619D01*
X151266666Y-75942857D01*
X151266666Y-76038095D01*
X151219047Y-76180952D01*
X150647619Y-76752380D01*
X151266666Y-76752380D01*
D11*
%TO.C,BME280*%
X158230000Y-84630000D02*
X156900000Y-84630000D01*
X158230000Y-83300000D02*
X158230000Y-84630000D01*
X158230000Y-74350000D02*
X155570000Y-74350000D01*
X158230000Y-82030000D02*
X158230000Y-74350000D01*
X158230000Y-82030000D02*
X155570000Y-82030000D01*
X155570000Y-82030000D02*
X155570000Y-74350000D01*
%TO.C,RL2*%
X150706000Y-41223000D02*
X146156000Y-41223000D01*
X146156000Y-41223000D02*
X146156000Y-66663000D01*
X146156000Y-66663000D02*
X150706000Y-66663000D01*
X150706000Y-66663000D02*
X150706000Y-41223000D01*
%TO.C,J6*%
X119380000Y-105280000D02*
X119320000Y-105280000D01*
X119380000Y-102620000D02*
X119380000Y-105280000D01*
X120650000Y-102620000D02*
X121980000Y-102620000D01*
X121980000Y-102620000D02*
X121980000Y-103950000D01*
X119380000Y-102620000D02*
X119320000Y-102620000D01*
X119320000Y-102620000D02*
X119320000Y-105280000D01*
%TO.C,RL4*%
X162136000Y-41148000D02*
X157586000Y-41148000D01*
X157586000Y-41148000D02*
X157586000Y-66588000D01*
X157586000Y-66588000D02*
X162136000Y-66588000D01*
X162136000Y-66588000D02*
X162136000Y-41148000D01*
%TO.C,RL3*%
X156294000Y-41223000D02*
X151744000Y-41223000D01*
X151744000Y-41223000D02*
X151744000Y-66663000D01*
X151744000Y-66663000D02*
X156294000Y-66663000D01*
X156294000Y-66663000D02*
X156294000Y-41223000D01*
%TO.C,J7*%
X119380000Y-97970000D02*
X119380000Y-100630000D01*
X119320000Y-97970000D02*
X119320000Y-100630000D01*
X121980000Y-97970000D02*
X121980000Y-99300000D01*
X120650000Y-97970000D02*
X121980000Y-97970000D01*
X119380000Y-97970000D02*
X119320000Y-97970000D01*
X119380000Y-100630000D02*
X119320000Y-100630000D01*
%TO.C,RL1*%
X145118000Y-41223000D02*
X140568000Y-41223000D01*
X140568000Y-41223000D02*
X140568000Y-66663000D01*
X140568000Y-66663000D02*
X145118000Y-66663000D01*
X145118000Y-66663000D02*
X145118000Y-41223000D01*
%TO.C,PSU-EU_100-240V_AC1*%
X73562500Y-106100000D02*
X107762500Y-106100000D01*
X108152500Y-99500000D02*
X108152500Y-97490000D01*
X73562500Y-85900000D02*
X73562500Y-106100000D01*
X107762500Y-85900000D02*
X73562500Y-85900000D01*
X107762500Y-106100000D02*
X107762500Y-85900000D01*
%TO.C,J5*%
X119470000Y-93670000D02*
X119470000Y-96330000D01*
X119530000Y-96330000D02*
X119470000Y-96330000D01*
X119530000Y-93670000D02*
X119470000Y-93670000D01*
X119530000Y-93670000D02*
X119530000Y-96330000D01*
X122130000Y-93670000D02*
X122130000Y-95000000D01*
X120800000Y-93670000D02*
X122130000Y-93670000D01*
%TO.C,J4*%
X119530000Y-89770000D02*
X119470000Y-89770000D01*
X120800000Y-89770000D02*
X122130000Y-89770000D01*
X122130000Y-89770000D02*
X122130000Y-91100000D01*
X119470000Y-89770000D02*
X119470000Y-92430000D01*
X119530000Y-92430000D02*
X119470000Y-92430000D01*
X119530000Y-89770000D02*
X119530000Y-92430000D01*
%TO.C,J0*%
X135201000Y-74251000D02*
X76201000Y-74251000D01*
X118661000Y-44131000D02*
X118661000Y-42331000D01*
X80241000Y-70691000D02*
X82841000Y-70691000D01*
X131261000Y-44131000D02*
X131261000Y-42331000D01*
X138261000Y-67751000D02*
X139461000Y-67751000D01*
X80241000Y-69421000D02*
X80241000Y-68091000D01*
X131261000Y-42331000D02*
X123141000Y-42331000D01*
X118661000Y-42331000D02*
X110541000Y-42331000D01*
X123141000Y-44131000D02*
X118661000Y-44131000D01*
X135201000Y-44131000D02*
X131261000Y-44131000D01*
X138261000Y-50631000D02*
X138261000Y-47191000D01*
X80241000Y-73291000D02*
X131161000Y-73291000D01*
X80241000Y-68091000D02*
X81571000Y-68091000D01*
X80241000Y-73291000D02*
X80241000Y-70691000D01*
X82841000Y-70691000D02*
X82841000Y-68091000D01*
X91311000Y-44131000D02*
X91311000Y-43431000D01*
X79891000Y-44131000D02*
X76201000Y-44131000D01*
X123141000Y-42331000D02*
X123141000Y-44131000D01*
X79891000Y-43431000D02*
X79891000Y-44131000D01*
X138261000Y-67751000D02*
X138261000Y-71191000D01*
X110541000Y-44131000D02*
X91311000Y-44131000D01*
X82841000Y-68091000D02*
X131161000Y-68091000D01*
X91311000Y-43431000D02*
X79891000Y-43431000D01*
X139461000Y-50631000D02*
X138261000Y-50631000D01*
X139461000Y-67751000D02*
X139461000Y-50631000D01*
X110541000Y-42331000D02*
X110541000Y-44131000D01*
X131161000Y-73291000D02*
X131161000Y-68091000D01*
X73141000Y-71191000D02*
X73141000Y-47191000D01*
X73141000Y-71191000D02*
G75*
G03*
X76201000Y-74251000I3059999J-1D01*
G01*
X138261000Y-47191000D02*
G75*
G03*
X135201000Y-44131000I-3060000J0D01*
G01*
X76201000Y-44131000D02*
G75*
G03*
X73141000Y-47191000I0J-3060000D01*
G01*
X135201000Y-74251000D02*
G75*
G03*
X138261000Y-71191000I1J3059999D01*
G01*
%TO.C,J3*%
X80458000Y-41208000D02*
X80458000Y-39878000D01*
X83058000Y-38608000D02*
X80458000Y-38608000D01*
X83058000Y-41208000D02*
X113598000Y-41208000D01*
X80458000Y-36008000D02*
X113598000Y-36008000D01*
X80458000Y-38608000D02*
X80458000Y-36008000D01*
X81788000Y-41208000D02*
X80458000Y-41208000D01*
X83058000Y-41208000D02*
X83058000Y-38608000D01*
X113598000Y-41208000D02*
X113598000Y-36008000D01*
%TO.C,C(N)  R(L)  W(W)  Y(H)  G(Hum)  W2*%
X133793000Y-80774000D02*
X133413000Y-81154000D01*
X122240000Y-83000000D02*
X152360000Y-83000000D01*
X146454000Y-78112000D02*
X146059000Y-78508000D01*
X138542000Y-80492000D02*
X138147000Y-80888000D01*
X128793000Y-80774000D02*
X128413000Y-81154000D01*
X143793000Y-80774000D02*
X143413000Y-81154000D01*
X122000000Y-84800000D02*
X122400000Y-84800000D01*
X133542000Y-80492000D02*
X133147000Y-80888000D01*
X123252000Y-80781000D02*
X123146000Y-80888000D01*
X126188000Y-77846000D02*
X126081000Y-77953000D01*
X122240000Y-75440000D02*
X122240000Y-84560000D01*
X122240000Y-75440000D02*
X152360000Y-75440000D01*
X148793000Y-80774000D02*
X148413000Y-81154000D01*
X136454000Y-78112000D02*
X136059000Y-78508000D01*
X141454000Y-78112000D02*
X141059000Y-78508000D01*
X126454000Y-78112000D02*
X126347000Y-78219000D01*
X151188000Y-77846000D02*
X150808000Y-78226000D01*
X122240000Y-84560000D02*
X152360000Y-84560000D01*
X143542000Y-80492000D02*
X143147000Y-80888000D01*
X131454000Y-78112000D02*
X131059000Y-78508000D01*
X122000000Y-84160000D02*
X122000000Y-84800000D01*
X138793000Y-80774000D02*
X138413000Y-81154000D01*
X152360000Y-75440000D02*
X152360000Y-84560000D01*
X146188000Y-77846000D02*
X145808000Y-78226000D01*
X148542000Y-80492000D02*
X148147000Y-80888000D01*
X141188000Y-77846000D02*
X140808000Y-78226000D01*
X122240000Y-84100000D02*
X152360000Y-84100000D01*
X151454000Y-78112000D02*
X151059000Y-78508000D01*
X136188000Y-77846000D02*
X135808000Y-78226000D01*
X123518000Y-81047000D02*
X123412000Y-81154000D01*
X128542000Y-80492000D02*
X128147000Y-80888000D01*
X131188000Y-77846000D02*
X130808000Y-78226000D01*
X151980000Y-79500000D02*
G75*
G03*
X151980000Y-79500000I-2180000J0D01*
G01*
X141980000Y-79500000D02*
G75*
G03*
X141980000Y-79500000I-2180000J0D01*
G01*
X146980000Y-79500000D02*
G75*
G03*
X146980000Y-79500000I-2180000J0D01*
G01*
X136980000Y-79500000D02*
G75*
G03*
X136980000Y-79500000I-2180000J0D01*
G01*
X126980000Y-79500000D02*
G75*
G03*
X126980000Y-79500000I-2180000J0D01*
G01*
X131980000Y-79500000D02*
G75*
G03*
X131980000Y-79500000I-2180000J0D01*
G01*
%TD*%
M02*
