M48
; DRILL file {KiCad 6.0.11+dfsg-1} date Mon 29 Jul 2024 06:25:08 PM CDT
; FORMAT={-:-/ absolute / inch / decimal}
; #@! TF.CreationDate,2024-07-29T18:25:08-05:00
; #@! TF.GenerationSoftware,Kicad,Pcbnew,6.0.11+dfsg-1
; #@! TF.FileFunction,Plated,1,2,PTH
FMAT,2
INCH
; #@! TA.AperFunction,Plated,PTH,ViaDrill
T1C0.0157
; #@! TA.AperFunction,Plated,PTH,ComponentDrill
T2C0.0300
; #@! TA.AperFunction,Plated,PTH,ComponentDrill
T3C0.0354
; #@! TA.AperFunction,Plated,PTH,ComponentDrill
T4C0.0394
; #@! TA.AperFunction,Plated,PTH,ComponentDrill
T5C0.0472
; #@! TA.AperFunction,Plated,PTH,ComponentDrill
T6C0.0512
%
G90
G05
T1
X5.8268Y-3.0364
T2
X5.5814Y-1.723
X5.5814Y-1.823
X5.5814Y-2.223
X5.5814Y-2.523
X5.8014Y-1.723
X5.8014Y-1.823
X5.8014Y-2.223
X5.8014Y-2.523
X6.0214Y-1.723
X6.0214Y-1.823
X6.0214Y-2.223
X6.0214Y-2.523
X6.2514Y-1.72
X6.2514Y-1.82
X6.2514Y-2.22
X6.2514Y-2.52
T3
X5.9961Y-2.7835
X6.0945Y-2.7835
X6.1929Y-2.7835
T4
X2.9906Y-3.4764
X2.9906Y-4.0827
X3.2115Y-2.7331
X3.2115Y-2.8331
X3.22Y-1.47
X3.22Y-1.57
X3.3115Y-2.7331
X3.3115Y-2.8331
X3.32Y-1.47
X3.32Y-1.57
X3.4115Y-2.7331
X3.4115Y-2.8331
X3.42Y-1.47
X3.42Y-1.57
X3.5115Y-2.7331
X3.5115Y-2.8331
X3.52Y-1.47
X3.52Y-1.57
X3.6115Y-2.7331
X3.6115Y-2.8331
X3.62Y-1.47
X3.62Y-1.57
X3.7115Y-2.7331
X3.7115Y-2.8331
X3.72Y-1.47
X3.72Y-1.57
X3.8115Y-2.7331
X3.8115Y-2.8331
X3.82Y-1.47
X3.82Y-1.57
X3.9115Y-2.7331
X3.9115Y-2.8331
X3.92Y-1.47
X3.92Y-1.57
X4.0115Y-2.7331
X4.0115Y-2.8331
X4.02Y-1.47
X4.02Y-1.57
X4.1115Y-2.7331
X4.1115Y-2.8331
X4.12Y-1.47
X4.12Y-1.57
X4.1481Y-3.6811
X4.1481Y-3.878
X4.2115Y-2.7331
X4.2115Y-2.8331
X4.22Y-1.47
X4.22Y-1.57
X4.3115Y-2.7331
X4.3115Y-2.8331
X4.32Y-1.47
X4.32Y-1.57
X4.4115Y-2.7331
X4.4115Y-2.8331
X4.42Y-1.47
X4.42Y-1.57
X4.5115Y-2.7331
X4.5115Y-2.8331
X4.6115Y-2.7331
X4.6115Y-2.8331
X4.7115Y-2.7331
X4.7115Y-2.8331
X4.75Y-3.9094
X4.75Y-4.0925
X4.7559Y-3.5866
X4.7559Y-3.7402
X4.8115Y-2.7331
X4.8115Y-2.8331
X4.9115Y-2.7331
X4.9115Y-2.8331
X5.0115Y-2.7331
X5.0115Y-2.8331
X5.1115Y-2.7331
X5.1115Y-2.8331
X6.1772Y-2.9795
X6.1772Y-3.0795
X6.1772Y-3.1795
X6.1772Y-3.2795
T5
X5.874Y-2.874
X6.315Y-2.6929
T6
X4.9134Y-3.1299
X5.1102Y-3.1299
X5.3071Y-3.1299
X5.5039Y-3.1299
X5.7008Y-3.1299
X5.8976Y-3.1299
T0
M30
