%TF.GenerationSoftware,KiCad,Pcbnew,9.0.2+dfsg-1*%
%TF.CreationDate,2026-04-27T13:43:53-05:00*%
%TF.ProjectId,HestiaPiOneUniversal,48657374-6961-4506-994f-6e65556e6976,rev?*%
%TF.SameCoordinates,Original*%
%TF.FileFunction,Copper,L2,Bot*%
%TF.FilePolarity,Positive*%
%FSLAX46Y46*%
G04 Gerber Fmt 4.6, Leading zero omitted, Abs format (unit mm)*
G04 Created by KiCad (PCBNEW 9.0.2+dfsg-1) date 2026-04-27 13:43:53*
%MOMM*%
%LPD*%
G01*
G04 APERTURE LIST*
%TA.AperFunction,ComponentPad*%
%ADD10R,1.700000X1.700000*%
%TD*%
%TA.AperFunction,ComponentPad*%
%ADD11O,1.700000X1.700000*%
%TD*%
%TA.AperFunction,ComponentPad*%
%ADD12C,1.524000*%
%TD*%
%TA.AperFunction,ComponentPad*%
%ADD13R,2.300000X2.300000*%
%TD*%
%TA.AperFunction,ComponentPad*%
%ADD14R,2.300000X2.000000*%
%TD*%
%TA.AperFunction,ComponentPad*%
%ADD15C,2.300000*%
%TD*%
%TA.AperFunction,ComponentPad*%
%ADD16C,1.700000*%
%TD*%
%TA.AperFunction,ComponentPad*%
%ADD17R,2.600000X2.600000*%
%TD*%
%TA.AperFunction,ComponentPad*%
%ADD18C,2.600000*%
%TD*%
%TA.AperFunction,ViaPad*%
%ADD19C,0.800000*%
%TD*%
%TA.AperFunction,Conductor*%
%ADD20C,0.500000*%
%TD*%
%TA.AperFunction,Conductor*%
%ADD21C,0.250000*%
%TD*%
G04 APERTURE END LIST*
D10*
%TO.P,BME280,1,Pin_1*%
%TO.N,Net-(BME280-Pad1)*%
X160274000Y-83429000D03*
D11*
%TO.P,BME280,2,Pin_2*%
%TO.N,Net-(BME280-Pad2)*%
X160274000Y-80889000D03*
%TO.P,BME280,3,Pin_3*%
%TO.N,GND*%
X160274000Y-78349000D03*
%TO.P,BME280,4,Pin_4*%
%TO.N,Net-(BME280-Pad4)*%
X160274000Y-75809000D03*
%TD*%
D12*
%TO.P,RL2,1,load1*%
%TO.N,/Net-(TerminalBlock1-Pad4)*%
X147356000Y-64083000D03*
%TO.P,RL2,2,load2*%
%TO.N,A{slash}C-L*%
X147356000Y-56463000D03*
%TO.P,RL2,3,Input+*%
%TO.N,Net-(J0-Pad16)*%
X147356000Y-46303000D03*
%TO.P,RL2,4,Input-*%
%TO.N,GND*%
X147356000Y-43763000D03*
%TD*%
D13*
%TO.P,J6,1,Pin_1*%
%TO.N,GND*%
X120650000Y-103950000D03*
%TD*%
D12*
%TO.P,RL4,1,load1*%
%TO.N,Net-(RL4-Pad1)*%
X158786000Y-64008000D03*
%TO.P,RL4,2,load2*%
%TO.N,A{slash}C-L*%
X158786000Y-56388000D03*
%TO.P,RL4,3,Input+*%
%TO.N,Net-(J0-Pad36)*%
X158786000Y-46228000D03*
%TO.P,RL4,4,Input-*%
%TO.N,GND*%
X158786000Y-43688000D03*
%TD*%
%TO.P,RL3,1,load1*%
%TO.N,Net-(RL3-Pad1)*%
X152944000Y-64083000D03*
%TO.P,RL3,2,load2*%
%TO.N,A{slash}C-L*%
X152944000Y-56463000D03*
%TO.P,RL3,3,Input+*%
%TO.N,Net-(J0-Pad12)*%
X152944000Y-46303000D03*
%TO.P,RL3,4,Input-*%
%TO.N,GND*%
X152944000Y-43763000D03*
%TD*%
%TO.P,RL5,1,load1*%
%TO.N,/Net-(TerminalBlock1-Pad7)*%
X159512000Y-39186000D03*
%TO.P,RL5,2,load2*%
%TO.N,A{slash}C-L*%
X151892000Y-39186000D03*
%TO.P,RL5,3,Input+*%
%TO.N,unconnected-(RL5-Pad3)*%
X141732000Y-39186000D03*
%TO.P,RL5,4,Input-*%
%TO.N,GND*%
X139192000Y-39186000D03*
%TD*%
D13*
%TO.P,J7,1,Pin_1*%
%TO.N,Net-(J7-Pad1)*%
X120650000Y-99300000D03*
%TD*%
D12*
%TO.P,RL1,1,load1*%
%TO.N,/Net-(TerminalBlock1-Pad3)*%
X141768000Y-64083000D03*
%TO.P,RL1,2,load2*%
%TO.N,A{slash}C-L*%
X141768000Y-56463000D03*
%TO.P,RL1,3,Input+*%
%TO.N,Net-(J0-Pad32)*%
X141768000Y-46303000D03*
%TO.P,RL1,4,Input-*%
%TO.N,GND*%
X141768000Y-43763000D03*
%TD*%
D14*
%TO.P,PSU-EU_100-240V_AC1,1,AC/L*%
%TO.N,A{slash}C-L*%
X105362500Y-98500000D03*
D15*
%TO.P,PSU-EU_100-240V_AC1,2,AC/N*%
%TO.N,/Net-(TerminalBlock1-Pad1)*%
X105362500Y-93500000D03*
%TO.P,PSU-EU_100-240V_AC1,3,-Vout*%
%TO.N,GND*%
X75962500Y-103700000D03*
%TO.P,PSU-EU_100-240V_AC1,4,+Vout*%
%TO.N,Net-(J7-Pad1)*%
X75962500Y-88300000D03*
%TD*%
D13*
%TO.P,J5,1,Pin_1*%
%TO.N,A{slash}C-L*%
X120800000Y-95000000D03*
%TD*%
%TO.P,J4,1,Pin_1*%
%TO.N,/Net-(TerminalBlock1-Pad1)*%
X120800000Y-91100000D03*
%TD*%
D16*
%TO.P,SW1,1,A*%
%TO.N,Net-(J0-Pad2)*%
X140500000Y-73562000D03*
%TO.P,SW1,2,B*%
%TO.N,Net-(J7-Pad1)*%
X143000000Y-73562000D03*
%TO.P,SW1,3,C*%
%TO.N,unconnected-(SW1-Pad3)*%
X140500000Y-67662000D03*
%TO.P,SW1,4*%
%TO.N,N/C*%
X143000000Y-67662000D03*
%TD*%
D10*
%TO.P,J0,1,3.3V*%
%TO.N,Net-(BME280-Pad4)*%
X81571000Y-69421000D03*
D11*
%TO.P,J0,2,5V*%
%TO.N,Net-(J0-Pad2)*%
X81571000Y-71961000D03*
%TO.P,J0,3,GPIO02_SDA1_I2C*%
%TO.N,Net-(BME280-Pad1)*%
X84111000Y-69421000D03*
%TO.P,J0,4,5V*%
%TO.N,Net-(J0-Pad4)*%
X84111000Y-71961000D03*
%TO.P,J0,5,GPIO03_SCL1_I2C*%
%TO.N,Net-(BME280-Pad2)*%
X86651000Y-69421000D03*
%TO.P,J0,6,GND*%
%TO.N,GND*%
X86651000Y-71961000D03*
%TO.P,J0,7,GPIO04_GCLK*%
%TO.N,unconnected-(J0-Pad7)*%
X89191000Y-69421000D03*
%TO.P,J0,8,GPIO14_TXD0*%
%TO.N,unconnected-(J0-Pad8)*%
X89191000Y-71961000D03*
%TO.P,J0,9,GND*%
%TO.N,GND*%
X91731000Y-69421000D03*
%TO.P,J0,10,GPIO15_RXD0*%
%TO.N,Net-(J0-Pad10)*%
X91731000Y-71961000D03*
%TO.P,J0,11,GPIO17*%
%TO.N,Net-(J0-Pad11)*%
X94271000Y-69421000D03*
%TO.P,J0,12,GPIO18*%
%TO.N,Net-(J0-Pad12)*%
X94271000Y-71961000D03*
%TO.P,J0,13,GPIO27*%
%TO.N,unconnected-(J0-Pad13)*%
X96811000Y-69421000D03*
%TO.P,J0,14,GND*%
%TO.N,GND*%
X96811000Y-71961000D03*
%TO.P,J0,15,GPIO22*%
%TO.N,unconnected-(J0-Pad15)*%
X99351000Y-69421000D03*
%TO.P,J0,16,GPIO23*%
%TO.N,Net-(J0-Pad16)*%
X99351000Y-71961000D03*
%TO.P,J0,17,3.3V*%
%TO.N,Net-(J0-Pad17)*%
X101891000Y-69421000D03*
%TO.P,J0,18,GPIO24*%
%TO.N,Net-(J0-Pad18)*%
X101891000Y-71961000D03*
%TO.P,J0,19,GPIO10_SPI_MOSI*%
%TO.N,Net-(J0-Pad19)*%
X104431000Y-69421000D03*
%TO.P,J0,20,GND*%
%TO.N,GND*%
X104431000Y-71961000D03*
%TO.P,J0,21,GPIO09_SPI_MISO*%
%TO.N,Net-(J0-Pad21)*%
X106971000Y-69421000D03*
%TO.P,J0,22,GPIO25*%
%TO.N,Net-(J0-Pad22)*%
X106971000Y-71961000D03*
%TO.P,J0,23,GPIO11_SPI_CLK*%
%TO.N,Net-(J0-Pad23)*%
X109511000Y-69421000D03*
%TO.P,J0,24,GPIO08_SPI_CE0_N*%
%TO.N,Net-(J0-Pad24)*%
X109511000Y-71961000D03*
%TO.P,J0,25,GND*%
%TO.N,GND*%
X112051000Y-69421000D03*
%TO.P,J0,26,GPIO07_SPI_CE1_N*%
%TO.N,Net-(J0-Pad26)*%
X112051000Y-71961000D03*
%TO.P,J0,27,ID_SD*%
%TO.N,unconnected-(J0-Pad27)*%
X114591000Y-69421000D03*
%TO.P,J0,28,ID_SC*%
%TO.N,unconnected-(J0-Pad28)*%
X114591000Y-71961000D03*
%TO.P,J0,29,GPIO05*%
%TO.N,unconnected-(J0-Pad29)*%
X117131000Y-69421000D03*
%TO.P,J0,30,GND*%
%TO.N,unconnected-(J0-Pad30)*%
X117131000Y-71961000D03*
%TO.P,J0,31,GPIO06*%
%TO.N,unconnected-(J0-Pad31)*%
X119671000Y-69421000D03*
%TO.P,J0,32,GPIO12*%
%TO.N,Net-(J0-Pad32)*%
X119671000Y-71961000D03*
%TO.P,J0,33,GPIO13*%
%TO.N,unconnected-(J0-Pad33)*%
X122211000Y-69421000D03*
%TO.P,J0,34,GND*%
%TO.N,GND*%
X122211000Y-71961000D03*
%TO.P,J0,35,GPIO19*%
%TO.N,unconnected-(J0-Pad35)*%
X124751000Y-69421000D03*
%TO.P,J0,36,GPIO16*%
%TO.N,Net-(J0-Pad36)*%
X124751000Y-71961000D03*
%TO.P,J0,37,GPIO26*%
%TO.N,unconnected-(J0-Pad37)*%
X127291000Y-69421000D03*
%TO.P,J0,38,GPIO20*%
%TO.N,unconnected-(J0-Pad38)*%
X127291000Y-71961000D03*
%TO.P,J0,39,GND*%
%TO.N,unconnected-(J0-Pad39)*%
X129831000Y-69421000D03*
%TO.P,J0,40,GPIO21*%
%TO.N,unconnected-(J0-Pad40)*%
X129831000Y-71961000D03*
%TD*%
D10*
%TO.P,J3,1,Pin_1*%
%TO.N,Net-(J0-Pad2)*%
X81549000Y-64013000D03*
D11*
%TO.P,J3,2,Pin_2*%
%TO.N,Net-(BME280-Pad4)*%
X81549000Y-61473000D03*
%TO.P,J3,3,Pin_3*%
%TO.N,Net-(J0-Pad4)*%
X84089000Y-64013000D03*
%TO.P,J3,4,Pin_4*%
%TO.N,unconnected-(J3-Pad4)*%
X84089000Y-61473000D03*
%TO.P,J3,5,Pin_5*%
%TO.N,GND*%
X86629000Y-64013000D03*
%TO.P,J3,6,Pin_6*%
%TO.N,unconnected-(J3-Pad6)*%
X86629000Y-61473000D03*
%TO.P,J3,7,Pin_7*%
%TO.N,unconnected-(J3-Pad7)*%
X89169000Y-64013000D03*
%TO.P,J3,8,Pin_8*%
%TO.N,unconnected-(J3-Pad8)*%
X89169000Y-61473000D03*
%TO.P,J3,9,Pin_9*%
%TO.N,unconnected-(J3-Pad9)*%
X91709000Y-64013000D03*
%TO.P,J3,10,Pin_10*%
%TO.N,GND*%
X91709000Y-61473000D03*
%TO.P,J3,11,Pin_11*%
%TO.N,Net-(J0-Pad10)*%
X94249000Y-64013000D03*
%TO.P,J3,12,Pin_12*%
%TO.N,Net-(J0-Pad11)*%
X94249000Y-61473000D03*
%TO.P,J3,13,Pin_13*%
%TO.N,GND*%
X96789000Y-64013000D03*
%TO.P,J3,14,Pin_14*%
%TO.N,unconnected-(J3-Pad14)*%
X96789000Y-61473000D03*
%TO.P,J3,15,Pin_15*%
%TO.N,unconnected-(J3-Pad15)*%
X99329000Y-64013000D03*
%TO.P,J3,16,Pin_16*%
%TO.N,unconnected-(J3-Pad16)*%
X99329000Y-61473000D03*
%TO.P,J3,17,Pin_17*%
%TO.N,Net-(J0-Pad18)*%
X101869000Y-64013000D03*
%TO.P,J3,18,Pin_18*%
%TO.N,Net-(J0-Pad17)*%
X101869000Y-61473000D03*
%TO.P,J3,19,Pin_19*%
%TO.N,GND*%
X104409000Y-64013000D03*
%TO.P,J3,20,Pin_20*%
%TO.N,Net-(J0-Pad19)*%
X104409000Y-61473000D03*
%TO.P,J3,21,Pin_21*%
%TO.N,Net-(J0-Pad22)*%
X106949000Y-64013000D03*
%TO.P,J3,22,Pin_22*%
%TO.N,Net-(J0-Pad21)*%
X106949000Y-61473000D03*
%TO.P,J3,23,Pin_23*%
%TO.N,Net-(J0-Pad24)*%
X109489000Y-64013000D03*
%TO.P,J3,24,Pin_24*%
%TO.N,Net-(J0-Pad23)*%
X109489000Y-61473000D03*
%TO.P,J3,25,Pin_25*%
%TO.N,Net-(J0-Pad26)*%
X112029000Y-64013000D03*
%TO.P,J3,26,Pin_26*%
%TO.N,GND*%
X112029000Y-61473000D03*
%TD*%
D17*
%TO.P,TerminalBlock1,1,Pin_1*%
%TO.N,/Net-(TerminalBlock1-Pad1)*%
X124800000Y-79500000D03*
D18*
%TO.P,TerminalBlock1,2,Pin_2*%
%TO.N,A{slash}C-L*%
X129800000Y-79500000D03*
%TO.P,TerminalBlock1,3,Pin_3*%
%TO.N,/Net-(TerminalBlock1-Pad3)*%
X134800000Y-79500000D03*
%TO.P,TerminalBlock1,4,Pin_4*%
%TO.N,/Net-(TerminalBlock1-Pad4)*%
X139800000Y-79500000D03*
%TO.P,TerminalBlock1,5,Pin_5*%
%TO.N,Net-(RL3-Pad1)*%
X144800000Y-79500000D03*
%TO.P,TerminalBlock1,6,Pin_6*%
%TO.N,Net-(RL4-Pad1)*%
X149800000Y-79500000D03*
%TO.P,TerminalBlock1,7,Pin_7*%
%TO.N,/Net-(TerminalBlock1-Pad7)*%
X154800000Y-79500000D03*
%TD*%
D19*
%TO.N,A{slash}C-L*%
X131699000Y-74422000D03*
%TO.N,GND*%
X91567000Y-66548000D03*
X99314000Y-66929000D03*
X88900000Y-66802000D03*
X149606000Y-70104000D03*
X131445000Y-83058000D03*
X137668000Y-58547000D03*
X98171000Y-58674000D03*
X154432000Y-83566000D03*
X120777000Y-87630000D03*
X141986000Y-70739000D03*
X83820000Y-66929000D03*
X158500000Y-82000000D03*
X106807000Y-66802000D03*
X151500000Y-76500000D03*
X109601000Y-66802000D03*
X80772000Y-66802000D03*
X159639000Y-69723000D03*
X94361000Y-66802000D03*
%TO.N,Net-(J7-Pad1)*%
X137414000Y-77470000D03*
%TO.N,Net-(J0-Pad2)*%
X136017000Y-76924500D03*
%TD*%
D20*
%TO.N,/Net-(TerminalBlock1-Pad1)*%
X118800000Y-91100000D02*
X120800000Y-91100000D01*
X104862500Y-93500000D02*
X116400000Y-93500000D01*
X116400000Y-93500000D02*
X118800000Y-91100000D01*
%TO.N,/Net-(TerminalBlock1-Pad3)*%
X141022000Y-64083000D02*
X141768000Y-64083000D01*
X134800000Y-76700000D02*
X138811000Y-72689000D01*
X134800000Y-79500000D02*
X134800000Y-76700000D01*
X138811000Y-72689000D02*
X138811000Y-66294000D01*
X138811000Y-66294000D02*
X141022000Y-64083000D01*
%TO.N,/Net-(TerminalBlock1-Pad4)*%
X147320000Y-64119000D02*
X147356000Y-64083000D01*
X140814082Y-79500000D02*
X147320000Y-72994082D01*
X147320000Y-72994082D02*
X147320000Y-64119000D01*
X139800000Y-79500000D02*
X140814082Y-79500000D01*
%TO.N,A{slash}C-L*%
X104862500Y-98500000D02*
X115700000Y-98500000D01*
X147356000Y-56463000D02*
X152944000Y-56463000D01*
X115700000Y-98500000D02*
X119200000Y-95000000D01*
X147356000Y-56463000D02*
X141768000Y-56463000D01*
X119200000Y-95000000D02*
X120800000Y-95000000D01*
X131699000Y-77601000D02*
X129800000Y-79500000D01*
X158786000Y-56388000D02*
X153019000Y-56388000D01*
X131699000Y-74422000D02*
X131699000Y-77601000D01*
D21*
%TO.N,GND*%
X105664000Y-70728000D02*
X104431000Y-71961000D01*
X96789000Y-64013000D02*
X98044000Y-65268000D01*
X98044000Y-65268000D02*
X98044000Y-70728000D01*
X104409000Y-64013000D02*
X105664000Y-65268000D01*
X105664000Y-65268000D02*
X105664000Y-70728000D01*
X87884000Y-65268000D02*
X87884000Y-70728000D01*
X86629000Y-64013000D02*
X87884000Y-65268000D01*
X98044000Y-70728000D02*
X96811000Y-71961000D01*
X87884000Y-70728000D02*
X86651000Y-71961000D01*
D20*
%TO.N,/Net-(TerminalBlock1-Pad7)*%
X154800000Y-78626000D02*
X154800000Y-79500000D01*
X160782000Y-40456000D02*
X160782000Y-72644000D01*
X160782000Y-72644000D02*
X154800000Y-78626000D01*
X159512000Y-39186000D02*
X160782000Y-40456000D01*
D21*
%TO.N,Net-(J0-Pad36)*%
X153814000Y-51200000D02*
X158786000Y-46228000D01*
X127006000Y-66294000D02*
X142100000Y-51200000D01*
X142100000Y-51200000D02*
X153814000Y-51200000D01*
X127000000Y-66294000D02*
X127006000Y-66294000D01*
X124751000Y-71961000D02*
X125984000Y-70728000D01*
X125984000Y-67310000D02*
X127000000Y-66294000D01*
X125984000Y-70728000D02*
X125984000Y-67310000D01*
D20*
%TO.N,Net-(RL4-Pad1)*%
X158600000Y-71651000D02*
X158600000Y-64194000D01*
X150851000Y-79400000D02*
X158600000Y-71651000D01*
X149800000Y-79400000D02*
X150851000Y-79400000D01*
D21*
%TO.N,Net-(J7-Pad1)*%
X143000000Y-73562000D02*
X139854000Y-76708000D01*
X139854000Y-76708000D02*
X138176000Y-76708000D01*
X138176000Y-76708000D02*
X137414000Y-77470000D01*
%TO.N,Net-(J0-Pad32)*%
X120846000Y-67225000D02*
X141768000Y-46303000D01*
X119671000Y-71961000D02*
X120846000Y-70786000D01*
X120846000Y-70786000D02*
X120846000Y-67225000D01*
%TO.N,Net-(J0-Pad12)*%
X152944000Y-46303000D02*
X148482000Y-41841000D01*
X95504000Y-59180604D02*
X95504000Y-70728000D01*
X95504000Y-70728000D02*
X94271000Y-71961000D01*
X112843604Y-41841000D02*
X95504000Y-59180604D01*
X148482000Y-41841000D02*
X112843604Y-41841000D01*
%TO.N,Net-(J0-Pad10)*%
X92964000Y-70728000D02*
X91731000Y-71961000D01*
X92964000Y-65298000D02*
X92964000Y-70728000D01*
X94249000Y-64013000D02*
X92964000Y-65298000D01*
%TO.N,Net-(J0-Pad4)*%
X85344000Y-70728000D02*
X85344000Y-65268000D01*
X85344000Y-65268000D02*
X84089000Y-64013000D01*
X84111000Y-71961000D02*
X85344000Y-70728000D01*
%TO.N,Net-(J0-Pad2)*%
X140500000Y-74257000D02*
X140500000Y-73562000D01*
X137249500Y-75692000D02*
X139065000Y-75692000D01*
X139065000Y-75692000D02*
X140500000Y-74257000D01*
X136017000Y-76924500D02*
X137249500Y-75692000D01*
D20*
%TO.N,Net-(RL3-Pad1)*%
X144800000Y-79482000D02*
X151892000Y-72390000D01*
X151892000Y-65135000D02*
X152944000Y-64083000D01*
X151892000Y-72390000D02*
X151892000Y-65135000D01*
X144800000Y-79500000D02*
X144800000Y-79482000D01*
D21*
%TO.N,Net-(BME280-Pad4)*%
X156210000Y-82042000D02*
X157480000Y-80772000D01*
X157480000Y-80772000D02*
X157480000Y-77724000D01*
X81571000Y-69421000D02*
X82804000Y-70654000D01*
X157480000Y-77724000D02*
X159395000Y-75809000D01*
X159395000Y-75809000D02*
X160274000Y-75809000D01*
X82804000Y-70654000D02*
X82804000Y-72898000D01*
X82804000Y-72898000D02*
X91948000Y-82042000D01*
X91948000Y-82042000D02*
X156210000Y-82042000D01*
%TO.N,Net-(J0-Pad26)*%
X113416000Y-70596000D02*
X112051000Y-71961000D01*
X112029000Y-64013000D02*
X113416000Y-65400000D01*
X113416000Y-65400000D02*
X113416000Y-70596000D01*
%TO.N,Net-(J0-Pad24)*%
X109511000Y-71961000D02*
X110876000Y-70596000D01*
X110876000Y-65400000D02*
X109489000Y-64013000D01*
X110876000Y-70596000D02*
X110876000Y-65400000D01*
%TO.N,Net-(J0-Pad22)*%
X106949000Y-64013000D02*
X108204000Y-65268000D01*
X108204000Y-65268000D02*
X108204000Y-70728000D01*
X108204000Y-70728000D02*
X106971000Y-71961000D01*
%TO.N,Net-(J0-Pad18)*%
X103124000Y-65268000D02*
X103124000Y-70728000D01*
X101869000Y-64013000D02*
X103124000Y-65268000D01*
X103124000Y-70728000D02*
X101891000Y-71961000D01*
%TO.N,Net-(J0-Pad16)*%
X147356000Y-46303000D02*
X143344000Y-42291000D01*
X143344000Y-42291000D02*
X113284000Y-42291000D01*
X99351000Y-71961000D02*
X100584000Y-70728000D01*
X100584000Y-54991000D02*
X100584000Y-70739000D01*
X113284000Y-42291000D02*
X100584000Y-54991000D01*
%TD*%
%TA.AperFunction,Conductor*%
%TO.N,GND*%
G36*
X159985314Y-46983659D02*
G01*
X160020225Y-47045479D01*
X160023500Y-47074018D01*
X160023500Y-55541981D01*
X160003498Y-55610102D01*
X159949842Y-55656595D01*
X159879568Y-55666699D01*
X159814988Y-55637205D01*
X159795564Y-55616042D01*
X159755081Y-55560322D01*
X159613680Y-55418921D01*
X159613677Y-55418919D01*
X159613675Y-55418917D01*
X159555116Y-55376371D01*
X159451890Y-55301372D01*
X159326481Y-55237473D01*
X159273703Y-55210581D01*
X159273700Y-55210580D01*
X159273698Y-55210579D01*
X159083513Y-55148785D01*
X159083517Y-55148785D01*
X159046743Y-55142960D01*
X158885991Y-55117500D01*
X158686009Y-55117500D01*
X158488490Y-55148784D01*
X158488484Y-55148785D01*
X158298301Y-55210579D01*
X158298295Y-55210582D01*
X158120109Y-55301372D01*
X157958322Y-55418919D01*
X157958319Y-55418921D01*
X157816921Y-55560319D01*
X157804393Y-55577563D01*
X157748170Y-55620916D01*
X157702458Y-55629500D01*
X153959448Y-55629500D01*
X153891327Y-55609498D01*
X153870357Y-55592599D01*
X153771675Y-55493917D01*
X153609890Y-55376372D01*
X153462692Y-55301371D01*
X153431703Y-55285581D01*
X153431700Y-55285580D01*
X153431698Y-55285579D01*
X153241513Y-55223785D01*
X153241517Y-55223785D01*
X153195514Y-55216499D01*
X153043991Y-55192500D01*
X152844009Y-55192500D01*
X152646490Y-55223784D01*
X152646484Y-55223785D01*
X152456301Y-55285579D01*
X152456295Y-55285582D01*
X152278109Y-55376372D01*
X152116322Y-55493919D01*
X152116319Y-55493921D01*
X151974921Y-55635319D01*
X151962393Y-55652563D01*
X151906170Y-55695916D01*
X151860458Y-55704500D01*
X148439542Y-55704500D01*
X148371421Y-55684498D01*
X148337607Y-55652563D01*
X148325083Y-55635325D01*
X148325080Y-55635322D01*
X148325078Y-55635319D01*
X148183680Y-55493921D01*
X148183677Y-55493919D01*
X148183675Y-55493917D01*
X148132428Y-55456683D01*
X148021890Y-55376372D01*
X147874692Y-55301371D01*
X147843703Y-55285581D01*
X147843700Y-55285580D01*
X147843698Y-55285579D01*
X147653513Y-55223785D01*
X147653517Y-55223785D01*
X147607514Y-55216499D01*
X147455991Y-55192500D01*
X147256009Y-55192500D01*
X147058490Y-55223784D01*
X147058484Y-55223785D01*
X146868301Y-55285579D01*
X146868295Y-55285582D01*
X146690109Y-55376372D01*
X146528322Y-55493919D01*
X146528319Y-55493921D01*
X146386921Y-55635319D01*
X146374393Y-55652563D01*
X146318170Y-55695916D01*
X146272458Y-55704500D01*
X142851542Y-55704500D01*
X142783421Y-55684498D01*
X142749607Y-55652563D01*
X142737083Y-55635325D01*
X142737080Y-55635322D01*
X142737078Y-55635319D01*
X142595680Y-55493921D01*
X142595677Y-55493919D01*
X142595675Y-55493917D01*
X142544428Y-55456683D01*
X142433890Y-55376372D01*
X142286692Y-55301371D01*
X142255703Y-55285581D01*
X142255700Y-55285580D01*
X142255698Y-55285579D01*
X142065513Y-55223785D01*
X142065517Y-55223785D01*
X142019514Y-55216499D01*
X141867991Y-55192500D01*
X141668009Y-55192500D01*
X141470490Y-55223784D01*
X141470484Y-55223785D01*
X141280301Y-55285579D01*
X141280295Y-55285582D01*
X141102109Y-55376372D01*
X140940322Y-55493919D01*
X140940319Y-55493921D01*
X140798921Y-55635319D01*
X140798919Y-55635322D01*
X140681372Y-55797109D01*
X140590582Y-55975295D01*
X140590579Y-55975301D01*
X140528785Y-56165484D01*
X140528784Y-56165489D01*
X140528784Y-56165490D01*
X140497500Y-56363009D01*
X140497500Y-56562991D01*
X140517742Y-56690791D01*
X140528785Y-56760515D01*
X140566212Y-56875703D01*
X140590581Y-56950703D01*
X140590582Y-56950704D01*
X140681372Y-57128890D01*
X140744430Y-57215680D01*
X140798917Y-57290675D01*
X140798919Y-57290677D01*
X140798921Y-57290680D01*
X140940319Y-57432078D01*
X140940322Y-57432080D01*
X140940325Y-57432083D01*
X141017195Y-57487932D01*
X141102109Y-57549627D01*
X141102113Y-57549629D01*
X141280297Y-57640419D01*
X141470484Y-57702214D01*
X141470485Y-57702214D01*
X141470490Y-57702216D01*
X141668009Y-57733500D01*
X141668012Y-57733500D01*
X141867988Y-57733500D01*
X141867991Y-57733500D01*
X142065510Y-57702216D01*
X142255703Y-57640419D01*
X142433887Y-57549629D01*
X142595675Y-57432083D01*
X142737083Y-57290675D01*
X142749607Y-57273436D01*
X142805830Y-57230084D01*
X142851542Y-57221500D01*
X146272458Y-57221500D01*
X146340579Y-57241502D01*
X146374393Y-57273437D01*
X146386921Y-57290680D01*
X146528319Y-57432078D01*
X146528322Y-57432080D01*
X146528325Y-57432083D01*
X146605195Y-57487932D01*
X146690109Y-57549627D01*
X146690113Y-57549629D01*
X146868297Y-57640419D01*
X147058484Y-57702214D01*
X147058485Y-57702214D01*
X147058490Y-57702216D01*
X147256009Y-57733500D01*
X147256012Y-57733500D01*
X147455988Y-57733500D01*
X147455991Y-57733500D01*
X147653510Y-57702216D01*
X147843703Y-57640419D01*
X148021887Y-57549629D01*
X148183675Y-57432083D01*
X148325083Y-57290675D01*
X148337607Y-57273436D01*
X148393830Y-57230084D01*
X148439542Y-57221500D01*
X151860458Y-57221500D01*
X151928579Y-57241502D01*
X151962393Y-57273437D01*
X151974921Y-57290680D01*
X152116319Y-57432078D01*
X152116322Y-57432080D01*
X152116325Y-57432083D01*
X152193195Y-57487932D01*
X152278109Y-57549627D01*
X152278113Y-57549629D01*
X152456297Y-57640419D01*
X152646484Y-57702214D01*
X152646485Y-57702214D01*
X152646490Y-57702216D01*
X152844009Y-57733500D01*
X152844012Y-57733500D01*
X153043988Y-57733500D01*
X153043991Y-57733500D01*
X153241510Y-57702216D01*
X153431703Y-57640419D01*
X153609887Y-57549629D01*
X153771675Y-57432083D01*
X153913083Y-57290675D01*
X153980096Y-57198438D01*
X154036318Y-57155085D01*
X154082032Y-57146500D01*
X157702458Y-57146500D01*
X157770579Y-57166502D01*
X157804393Y-57198437D01*
X157816921Y-57215680D01*
X157958319Y-57357078D01*
X157958322Y-57357080D01*
X157958325Y-57357083D01*
X158035195Y-57412932D01*
X158120109Y-57474627D01*
X158120113Y-57474629D01*
X158298297Y-57565419D01*
X158488484Y-57627214D01*
X158488485Y-57627214D01*
X158488490Y-57627216D01*
X158686009Y-57658500D01*
X158686012Y-57658500D01*
X158885988Y-57658500D01*
X158885991Y-57658500D01*
X159083510Y-57627216D01*
X159273703Y-57565419D01*
X159451887Y-57474629D01*
X159613675Y-57357083D01*
X159755083Y-57215675D01*
X159795565Y-57159956D01*
X159851786Y-57116603D01*
X159922522Y-57110528D01*
X159985314Y-57143659D01*
X160020225Y-57205479D01*
X160023500Y-57234018D01*
X160023500Y-63161981D01*
X160003498Y-63230102D01*
X159949842Y-63276595D01*
X159879568Y-63286699D01*
X159814988Y-63257205D01*
X159795564Y-63236042D01*
X159755081Y-63180322D01*
X159613680Y-63038921D01*
X159613677Y-63038919D01*
X159613675Y-63038917D01*
X159555116Y-62996371D01*
X159451890Y-62921372D01*
X159313245Y-62850729D01*
X159273703Y-62830581D01*
X159273700Y-62830580D01*
X159273698Y-62830579D01*
X159083513Y-62768785D01*
X159083517Y-62768785D01*
X159046743Y-62762960D01*
X158885991Y-62737500D01*
X158686009Y-62737500D01*
X158488490Y-62768784D01*
X158488484Y-62768785D01*
X158298301Y-62830579D01*
X158298295Y-62830582D01*
X158120109Y-62921372D01*
X157958322Y-63038919D01*
X157958319Y-63038921D01*
X157816921Y-63180319D01*
X157816919Y-63180322D01*
X157699372Y-63342109D01*
X157608582Y-63520295D01*
X157608579Y-63520301D01*
X157546785Y-63710484D01*
X157546784Y-63710489D01*
X157546784Y-63710490D01*
X157515500Y-63908009D01*
X157515500Y-64107991D01*
X157546784Y-64305510D01*
X157546785Y-64305515D01*
X157608579Y-64495698D01*
X157608581Y-64495703D01*
X157628341Y-64534483D01*
X157699372Y-64673889D01*
X157817436Y-64836389D01*
X157841294Y-64903257D01*
X157841500Y-64910450D01*
X157841500Y-71284628D01*
X157821498Y-71352749D01*
X157804595Y-71373723D01*
X151099120Y-78079197D01*
X151036808Y-78113223D01*
X150965993Y-78108158D01*
X150933321Y-78090064D01*
X150806907Y-77993063D01*
X150806900Y-77993058D01*
X150601607Y-77874532D01*
X150601599Y-77874528D01*
X150601595Y-77874526D01*
X150382570Y-77783803D01*
X150382567Y-77783802D01*
X150382565Y-77783801D01*
X150194483Y-77733404D01*
X150153578Y-77722444D01*
X150153576Y-77722443D01*
X150153570Y-77722442D01*
X149918537Y-77691500D01*
X149918535Y-77691500D01*
X149681465Y-77691500D01*
X149681462Y-77691500D01*
X149446429Y-77722442D01*
X149217434Y-77783801D01*
X149217430Y-77783803D01*
X149041502Y-77856675D01*
X148998403Y-77874527D01*
X148998392Y-77874532D01*
X148793099Y-77993058D01*
X148793093Y-77993062D01*
X148605020Y-78137376D01*
X148604999Y-78137395D01*
X148437395Y-78304999D01*
X148437376Y-78305020D01*
X148293062Y-78493093D01*
X148293058Y-78493099D01*
X148174532Y-78698392D01*
X148174527Y-78698403D01*
X148083803Y-78917430D01*
X148083801Y-78917434D01*
X148022442Y-79146429D01*
X147991500Y-79381462D01*
X147991500Y-79618537D01*
X148022442Y-79853570D01*
X148083801Y-80082565D01*
X148083802Y-80082567D01*
X148083803Y-80082570D01*
X148174526Y-80301595D01*
X148174527Y-80301596D01*
X148174532Y-80301607D01*
X148293058Y-80506900D01*
X148293062Y-80506906D01*
X148437376Y-80694979D01*
X148437395Y-80695000D01*
X148604999Y-80862604D01*
X148605009Y-80862613D01*
X148605015Y-80862619D01*
X148605018Y-80862621D01*
X148605020Y-80862623D01*
X148793093Y-81006937D01*
X148793099Y-81006941D01*
X148998392Y-81125467D01*
X148998396Y-81125468D01*
X148998405Y-81125474D01*
X149096464Y-81166091D01*
X149151745Y-81210639D01*
X149174166Y-81278003D01*
X149156608Y-81346794D01*
X149104646Y-81395172D01*
X149048246Y-81408500D01*
X145551754Y-81408500D01*
X145483633Y-81388498D01*
X145437140Y-81334842D01*
X145427036Y-81264568D01*
X145456530Y-81199988D01*
X145503534Y-81166091D01*
X145601595Y-81125474D01*
X145806904Y-81006939D01*
X145994985Y-80862619D01*
X146162619Y-80694985D01*
X146306939Y-80506904D01*
X146425474Y-80301595D01*
X146516197Y-80082570D01*
X146577556Y-79853578D01*
X146608500Y-79618535D01*
X146608500Y-79381465D01*
X146577556Y-79146422D01*
X146518341Y-78925431D01*
X146520031Y-78854456D01*
X146550951Y-78803728D01*
X152481166Y-72873515D01*
X152522269Y-72811999D01*
X153397422Y-72811999D01*
X153398854Y-72826083D01*
X153399500Y-72838828D01*
X153399500Y-72910543D01*
X153414580Y-72986353D01*
X153414580Y-72986355D01*
X153415749Y-72992233D01*
X153417944Y-73013818D01*
X153423675Y-73032085D01*
X153425001Y-73038750D01*
X153437947Y-73103829D01*
X153437950Y-73103838D01*
X153469777Y-73180675D01*
X153469777Y-73180676D01*
X153471919Y-73185849D01*
X153478673Y-73207373D01*
X153487194Y-73222726D01*
X153489945Y-73229366D01*
X153489948Y-73229373D01*
X153513368Y-73285914D01*
X153513370Y-73285918D01*
X153563039Y-73360254D01*
X153563040Y-73360254D01*
X153565925Y-73364573D01*
X153577120Y-73384741D01*
X153587413Y-73396731D01*
X153591632Y-73403045D01*
X153622860Y-73449781D01*
X153622861Y-73449782D01*
X153690798Y-73517719D01*
X153694189Y-73521110D01*
X153709257Y-73538662D01*
X153720250Y-73547171D01*
X153762218Y-73589139D01*
X153851782Y-73648984D01*
X153869672Y-73662832D01*
X153880336Y-73668063D01*
X153926086Y-73698632D01*
X154032587Y-73742745D01*
X154051799Y-73752170D01*
X154061236Y-73754612D01*
X154108165Y-73774051D01*
X154229606Y-73798207D01*
X154248182Y-73803017D01*
X154255699Y-73803397D01*
X154301459Y-73812500D01*
X154301464Y-73812500D01*
X154435164Y-73812500D01*
X154450780Y-73813292D01*
X154455950Y-73812500D01*
X154498536Y-73812500D01*
X154498541Y-73812500D01*
X154641278Y-73784107D01*
X154651299Y-73782573D01*
X154653971Y-73781582D01*
X154691835Y-73774051D01*
X154839854Y-73712739D01*
X154841530Y-73712120D01*
X154841880Y-73711900D01*
X154873914Y-73698632D01*
X155037782Y-73589139D01*
X155177139Y-73449782D01*
X155286632Y-73285914D01*
X155362051Y-73103835D01*
X155400500Y-72910541D01*
X155400500Y-72713459D01*
X155362051Y-72520165D01*
X155286632Y-72338086D01*
X155177139Y-72174218D01*
X155037782Y-72034861D01*
X154873914Y-71925368D01*
X154842836Y-71912495D01*
X154841885Y-71912101D01*
X154841530Y-71911880D01*
X154839842Y-71911254D01*
X154837615Y-71910332D01*
X154837613Y-71910331D01*
X154691842Y-71849951D01*
X154691830Y-71849947D01*
X154662458Y-71844104D01*
X154662458Y-71844105D01*
X154653972Y-71842417D01*
X154651299Y-71841427D01*
X154641273Y-71839891D01*
X154638528Y-71839345D01*
X154638527Y-71839344D01*
X154498546Y-71811500D01*
X154498541Y-71811500D01*
X154455950Y-71811500D01*
X154450780Y-71810708D01*
X154435164Y-71811500D01*
X154301454Y-71811500D01*
X154264717Y-71818808D01*
X154264716Y-71818808D01*
X154255696Y-71820601D01*
X154248182Y-71820983D01*
X154229635Y-71825785D01*
X154226106Y-71826487D01*
X154226086Y-71826492D01*
X154108162Y-71849949D01*
X154108162Y-71849950D01*
X154069362Y-71866021D01*
X154061237Y-71869386D01*
X154051799Y-71871830D01*
X154032599Y-71881247D01*
X154028898Y-71882781D01*
X154028896Y-71882781D01*
X153926083Y-71925369D01*
X153887309Y-71951276D01*
X153880325Y-71955942D01*
X153869672Y-71961168D01*
X153851794Y-71975005D01*
X153848143Y-71977446D01*
X153848124Y-71977460D01*
X153762215Y-72034862D01*
X153725895Y-72071182D01*
X153725894Y-72071181D01*
X153720233Y-72076841D01*
X153709257Y-72085338D01*
X153694213Y-72102861D01*
X153690816Y-72106259D01*
X153690804Y-72106273D01*
X153622861Y-72174218D01*
X153622855Y-72174225D01*
X153591627Y-72220957D01*
X153591628Y-72220958D01*
X153587404Y-72227279D01*
X153577120Y-72239259D01*
X153565937Y-72259406D01*
X153563047Y-72263732D01*
X153563044Y-72263738D01*
X153513366Y-72338089D01*
X153489945Y-72394630D01*
X153487188Y-72401284D01*
X153478673Y-72416627D01*
X153471922Y-72438142D01*
X153469780Y-72443315D01*
X153437950Y-72520162D01*
X153437947Y-72520169D01*
X153425001Y-72585247D01*
X153423673Y-72591920D01*
X153417944Y-72610182D01*
X153415750Y-72631757D01*
X153414581Y-72637635D01*
X153414580Y-72637644D01*
X153399500Y-72713453D01*
X153399500Y-72785171D01*
X153398854Y-72797915D01*
X153397422Y-72811999D01*
X152522269Y-72811999D01*
X152564174Y-72749284D01*
X152621351Y-72611246D01*
X152629696Y-72569295D01*
X152650500Y-72464706D01*
X152650500Y-68411999D01*
X153397422Y-68411999D01*
X153398854Y-68426083D01*
X153399500Y-68438828D01*
X153399500Y-68510543D01*
X153414580Y-68586353D01*
X153414580Y-68586355D01*
X153415749Y-68592233D01*
X153417944Y-68613818D01*
X153423675Y-68632085D01*
X153425001Y-68638750D01*
X153437947Y-68703829D01*
X153437950Y-68703838D01*
X153469777Y-68780675D01*
X153469777Y-68780676D01*
X153471919Y-68785849D01*
X153478673Y-68807373D01*
X153487194Y-68822726D01*
X153489945Y-68829366D01*
X153489948Y-68829373D01*
X153513368Y-68885914D01*
X153513370Y-68885918D01*
X153563039Y-68960254D01*
X153563040Y-68960254D01*
X153565925Y-68964573D01*
X153577120Y-68984741D01*
X153587413Y-68996731D01*
X153591632Y-69003045D01*
X153622860Y-69049781D01*
X153622861Y-69049782D01*
X153690798Y-69117719D01*
X153694189Y-69121110D01*
X153709257Y-69138662D01*
X153720250Y-69147171D01*
X153762218Y-69189139D01*
X153851782Y-69248984D01*
X153869672Y-69262832D01*
X153880336Y-69268063D01*
X153926086Y-69298632D01*
X154032587Y-69342745D01*
X154051799Y-69352170D01*
X154061236Y-69354612D01*
X154108165Y-69374051D01*
X154229606Y-69398207D01*
X154248182Y-69403017D01*
X154255699Y-69403397D01*
X154301459Y-69412500D01*
X154301464Y-69412500D01*
X154435164Y-69412500D01*
X154450780Y-69413292D01*
X154455950Y-69412500D01*
X154498536Y-69412500D01*
X154498541Y-69412500D01*
X154641278Y-69384107D01*
X154651299Y-69382573D01*
X154653971Y-69381582D01*
X154691835Y-69374051D01*
X154839854Y-69312739D01*
X154841530Y-69312120D01*
X154841880Y-69311900D01*
X154873914Y-69298632D01*
X155037782Y-69189139D01*
X155177139Y-69049782D01*
X155286632Y-68885914D01*
X155362051Y-68703835D01*
X155400500Y-68510541D01*
X155400500Y-68313459D01*
X155362051Y-68120165D01*
X155286632Y-67938086D01*
X155177139Y-67774218D01*
X155037782Y-67634861D01*
X154873914Y-67525368D01*
X154842836Y-67512495D01*
X154841885Y-67512101D01*
X154841530Y-67511880D01*
X154839842Y-67511254D01*
X154837615Y-67510332D01*
X154837613Y-67510331D01*
X154691842Y-67449951D01*
X154691830Y-67449947D01*
X154662458Y-67444104D01*
X154662458Y-67444105D01*
X154653972Y-67442417D01*
X154651299Y-67441427D01*
X154641273Y-67439891D01*
X154638528Y-67439345D01*
X154638527Y-67439344D01*
X154498546Y-67411500D01*
X154498541Y-67411500D01*
X154455950Y-67411500D01*
X154450780Y-67410708D01*
X154435164Y-67411500D01*
X154301454Y-67411500D01*
X154264717Y-67418808D01*
X154264716Y-67418808D01*
X154255696Y-67420601D01*
X154248182Y-67420983D01*
X154229635Y-67425785D01*
X154226106Y-67426487D01*
X154226086Y-67426492D01*
X154108162Y-67449949D01*
X154108162Y-67449950D01*
X154069362Y-67466021D01*
X154061237Y-67469386D01*
X154051799Y-67471830D01*
X154032599Y-67481247D01*
X154028898Y-67482781D01*
X154028896Y-67482781D01*
X153926083Y-67525369D01*
X153887309Y-67551276D01*
X153880325Y-67555942D01*
X153869672Y-67561168D01*
X153851794Y-67575005D01*
X153848143Y-67577446D01*
X153848124Y-67577460D01*
X153762215Y-67634862D01*
X153725895Y-67671182D01*
X153725894Y-67671181D01*
X153720233Y-67676841D01*
X153709257Y-67685338D01*
X153694213Y-67702861D01*
X153690816Y-67706259D01*
X153690804Y-67706273D01*
X153622861Y-67774218D01*
X153622855Y-67774225D01*
X153591627Y-67820957D01*
X153591628Y-67820958D01*
X153587404Y-67827279D01*
X153577120Y-67839259D01*
X153565937Y-67859406D01*
X153563047Y-67863732D01*
X153563044Y-67863738D01*
X153513366Y-67938089D01*
X153489945Y-67994630D01*
X153487188Y-68001284D01*
X153478673Y-68016627D01*
X153471922Y-68038142D01*
X153469780Y-68043315D01*
X153437950Y-68120162D01*
X153437947Y-68120169D01*
X153425001Y-68185247D01*
X153423673Y-68191920D01*
X153417944Y-68210182D01*
X153415750Y-68231757D01*
X153414581Y-68237635D01*
X153414580Y-68237644D01*
X153399500Y-68313453D01*
X153399500Y-68385171D01*
X153398854Y-68397915D01*
X153397422Y-68411999D01*
X152650500Y-68411999D01*
X152650500Y-65501371D01*
X152659283Y-65471457D01*
X152665911Y-65440988D01*
X152669726Y-65435890D01*
X152670502Y-65433250D01*
X152687400Y-65412280D01*
X152714161Y-65385519D01*
X152776469Y-65351495D01*
X152822965Y-65350167D01*
X152844009Y-65353500D01*
X152844010Y-65353500D01*
X153043988Y-65353500D01*
X153043991Y-65353500D01*
X153241510Y-65322216D01*
X153431703Y-65260419D01*
X153609887Y-65169629D01*
X153771675Y-65052083D01*
X153913083Y-64910675D01*
X154030629Y-64748887D01*
X154121419Y-64570703D01*
X154183216Y-64380510D01*
X154214500Y-64182991D01*
X154214500Y-63983009D01*
X154183216Y-63785490D01*
X154121419Y-63595297D01*
X154030629Y-63417113D01*
X154030627Y-63417109D01*
X153949107Y-63304908D01*
X153913083Y-63255325D01*
X153913080Y-63255322D01*
X153913078Y-63255319D01*
X153771680Y-63113921D01*
X153771677Y-63113919D01*
X153771675Y-63113917D01*
X153705976Y-63066184D01*
X153609890Y-62996372D01*
X153453715Y-62916797D01*
X153431703Y-62905581D01*
X153431700Y-62905580D01*
X153431698Y-62905579D01*
X153241513Y-62843785D01*
X153241517Y-62843785D01*
X153204743Y-62837960D01*
X153043991Y-62812500D01*
X152844009Y-62812500D01*
X152646490Y-62843784D01*
X152646484Y-62843785D01*
X152456301Y-62905579D01*
X152456295Y-62905582D01*
X152278109Y-62996372D01*
X152116322Y-63113919D01*
X152116319Y-63113921D01*
X151974921Y-63255319D01*
X151974919Y-63255322D01*
X151857372Y-63417109D01*
X151766582Y-63595295D01*
X151766579Y-63595301D01*
X151704785Y-63785484D01*
X151704784Y-63785489D01*
X151704784Y-63785490D01*
X151673500Y-63983009D01*
X151673500Y-64182991D01*
X151675768Y-64197313D01*
X151676833Y-64204038D01*
X151667730Y-64274449D01*
X151641479Y-64312838D01*
X151302836Y-64651482D01*
X151302835Y-64651483D01*
X151219826Y-64775715D01*
X151194988Y-64835680D01*
X151165062Y-64907929D01*
X151163924Y-64910677D01*
X151162648Y-64913755D01*
X151133500Y-65060290D01*
X151133500Y-72023628D01*
X151113498Y-72091749D01*
X151096595Y-72112723D01*
X145467879Y-77741438D01*
X145405567Y-77775464D01*
X145346173Y-77774050D01*
X145153571Y-77722442D01*
X144918537Y-77691500D01*
X144918535Y-77691500D01*
X144681465Y-77691500D01*
X144681462Y-77691500D01*
X144446429Y-77722442D01*
X144217434Y-77783801D01*
X144217430Y-77783803D01*
X144041502Y-77856675D01*
X143998403Y-77874527D01*
X143998392Y-77874532D01*
X143793099Y-77993058D01*
X143793093Y-77993062D01*
X143648485Y-78104025D01*
X143607063Y-78135810D01*
X143601743Y-78139892D01*
X143600597Y-78138399D01*
X143542777Y-78164772D01*
X143472508Y-78154635D01*
X143418875Y-78108116D01*
X143398905Y-78039986D01*
X143418940Y-77971875D01*
X143435804Y-77950957D01*
X147909165Y-73477598D01*
X147959344Y-73402500D01*
X147992174Y-73353366D01*
X148041963Y-73233165D01*
X148041964Y-73233165D01*
X148049348Y-73215336D01*
X148049347Y-73215336D01*
X148049351Y-73215329D01*
X148066818Y-73127515D01*
X148078500Y-73068788D01*
X148078500Y-65192697D01*
X148098502Y-65124576D01*
X148130439Y-65090761D01*
X148140825Y-65083215D01*
X148183675Y-65052083D01*
X148325083Y-64910675D01*
X148442629Y-64748887D01*
X148533419Y-64570703D01*
X148595216Y-64380510D01*
X148626500Y-64182991D01*
X148626500Y-63983009D01*
X148595216Y-63785490D01*
X148533419Y-63595297D01*
X148442629Y-63417113D01*
X148442627Y-63417109D01*
X148361107Y-63304908D01*
X148325083Y-63255325D01*
X148325080Y-63255322D01*
X148325078Y-63255319D01*
X148183680Y-63113921D01*
X148183677Y-63113919D01*
X148183675Y-63113917D01*
X148117976Y-63066184D01*
X148021890Y-62996372D01*
X147865715Y-62916797D01*
X147843703Y-62905581D01*
X147843700Y-62905580D01*
X147843698Y-62905579D01*
X147653513Y-62843785D01*
X147653517Y-62843785D01*
X147616743Y-62837960D01*
X147455991Y-62812500D01*
X147256009Y-62812500D01*
X147058490Y-62843784D01*
X147058484Y-62843785D01*
X146868301Y-62905579D01*
X146868295Y-62905582D01*
X146690109Y-62996372D01*
X146528322Y-63113919D01*
X146528319Y-63113921D01*
X146386921Y-63255319D01*
X146386919Y-63255322D01*
X146269372Y-63417109D01*
X146178582Y-63595295D01*
X146178579Y-63595301D01*
X146116785Y-63785484D01*
X146116784Y-63785489D01*
X146116784Y-63785490D01*
X146085500Y-63983009D01*
X146085500Y-64182991D01*
X146116784Y-64380510D01*
X146116785Y-64380515D01*
X146155784Y-64500541D01*
X146178581Y-64570703D01*
X146178582Y-64570704D01*
X146269372Y-64748890D01*
X146332430Y-64835680D01*
X146386917Y-64910675D01*
X146386919Y-64910677D01*
X146386921Y-64910680D01*
X146524595Y-65048354D01*
X146558621Y-65110666D01*
X146561500Y-65137449D01*
X146561500Y-72627710D01*
X146541498Y-72695831D01*
X146524595Y-72716805D01*
X141134813Y-78106586D01*
X141072501Y-78140612D01*
X141001686Y-78135547D01*
X140969014Y-78117453D01*
X140963501Y-78113223D01*
X140892788Y-78058962D01*
X140806906Y-77993062D01*
X140806900Y-77993058D01*
X140601607Y-77874532D01*
X140601599Y-77874528D01*
X140601595Y-77874526D01*
X140382570Y-77783803D01*
X140382567Y-77783802D01*
X140382565Y-77783801D01*
X140194483Y-77733404D01*
X140153578Y-77722444D01*
X140153576Y-77722443D01*
X140153570Y-77722442D01*
X139918537Y-77691500D01*
X139918535Y-77691500D01*
X139681465Y-77691500D01*
X139681462Y-77691500D01*
X139446429Y-77722442D01*
X139217434Y-77783801D01*
X139217430Y-77783803D01*
X139041502Y-77856675D01*
X138998403Y-77874527D01*
X138998392Y-77874532D01*
X138793099Y-77993058D01*
X138793093Y-77993062D01*
X138605020Y-78137376D01*
X138604999Y-78137395D01*
X138437395Y-78304999D01*
X138437376Y-78305020D01*
X138293062Y-78493093D01*
X138293058Y-78493099D01*
X138174532Y-78698392D01*
X138174527Y-78698403D01*
X138083803Y-78917430D01*
X138083801Y-78917434D01*
X138022442Y-79146429D01*
X137991500Y-79381462D01*
X137991500Y-79618537D01*
X138022442Y-79853570D01*
X138083801Y-80082565D01*
X138083802Y-80082567D01*
X138083803Y-80082570D01*
X138174526Y-80301595D01*
X138174527Y-80301596D01*
X138174532Y-80301607D01*
X138293058Y-80506900D01*
X138293062Y-80506906D01*
X138437376Y-80694979D01*
X138437395Y-80695000D01*
X138604999Y-80862604D01*
X138605009Y-80862613D01*
X138605015Y-80862619D01*
X138605018Y-80862621D01*
X138605020Y-80862623D01*
X138793093Y-81006937D01*
X138793099Y-81006941D01*
X138998392Y-81125467D01*
X138998396Y-81125468D01*
X138998405Y-81125474D01*
X139096464Y-81166091D01*
X139151745Y-81210639D01*
X139174166Y-81278003D01*
X139156608Y-81346794D01*
X139104646Y-81395172D01*
X139048246Y-81408500D01*
X135551754Y-81408500D01*
X135483633Y-81388498D01*
X135437140Y-81334842D01*
X135427036Y-81264568D01*
X135456530Y-81199988D01*
X135503534Y-81166091D01*
X135601595Y-81125474D01*
X135806904Y-81006939D01*
X135994985Y-80862619D01*
X136162619Y-80694985D01*
X136306939Y-80506904D01*
X136425474Y-80301595D01*
X136516197Y-80082570D01*
X136577556Y-79853578D01*
X136608500Y-79618535D01*
X136608500Y-79381465D01*
X136577556Y-79146422D01*
X136516197Y-78917430D01*
X136425474Y-78698405D01*
X136425468Y-78698396D01*
X136425467Y-78698392D01*
X136306941Y-78493099D01*
X136306937Y-78493093D01*
X136162623Y-78305020D01*
X136162621Y-78305018D01*
X136162619Y-78305015D01*
X136162613Y-78305009D01*
X136162604Y-78304999D01*
X135995000Y-78137395D01*
X135994979Y-78137376D01*
X135892788Y-78058962D01*
X135850921Y-78001624D01*
X135846699Y-77930753D01*
X135881463Y-77868850D01*
X135944176Y-77835569D01*
X135969492Y-77833000D01*
X136106478Y-77833000D01*
X136106479Y-77833000D01*
X136282000Y-77798087D01*
X136408465Y-77745702D01*
X136479053Y-77738113D01*
X136542540Y-77769891D01*
X136573091Y-77813892D01*
X136608898Y-77900336D01*
X136708322Y-78049135D01*
X136834865Y-78175678D01*
X136983664Y-78275102D01*
X137149000Y-78343587D01*
X137324521Y-78378500D01*
X137324522Y-78378500D01*
X137503478Y-78378500D01*
X137503479Y-78378500D01*
X137679000Y-78343587D01*
X137844336Y-78275102D01*
X137993135Y-78175678D01*
X138119678Y-78049135D01*
X138219102Y-77900336D01*
X138287587Y-77735000D01*
X138322500Y-77559479D01*
X138322500Y-77509595D01*
X138331284Y-77479677D01*
X138337913Y-77449208D01*
X138341727Y-77444113D01*
X138342502Y-77441474D01*
X138359406Y-77420498D01*
X138401502Y-77378403D01*
X138463814Y-77344379D01*
X138490596Y-77341500D01*
X139916393Y-77341500D01*
X139916394Y-77341500D01*
X140038785Y-77317155D01*
X140154075Y-77269400D01*
X140257833Y-77200071D01*
X142543487Y-74914415D01*
X142605796Y-74880393D01*
X142671515Y-74883679D01*
X142681884Y-74887049D01*
X142893084Y-74920500D01*
X142893087Y-74920500D01*
X143106913Y-74920500D01*
X143106916Y-74920500D01*
X143318116Y-74887049D01*
X143521483Y-74820972D01*
X143712009Y-74723894D01*
X143885004Y-74598206D01*
X144036206Y-74447004D01*
X144161894Y-74274009D01*
X144258972Y-74083483D01*
X144325049Y-73880116D01*
X144358500Y-73668916D01*
X144358500Y-73455084D01*
X144325049Y-73243884D01*
X144258972Y-73040517D01*
X144161894Y-72849991D01*
X144161892Y-72849988D01*
X144161891Y-72849986D01*
X144088726Y-72749284D01*
X144036206Y-72676996D01*
X144036203Y-72676993D01*
X144036198Y-72676987D01*
X143885009Y-72525798D01*
X143885006Y-72525796D01*
X143885004Y-72525794D01*
X143728000Y-72411724D01*
X143712012Y-72400108D01*
X143712011Y-72400107D01*
X143712009Y-72400106D01*
X143521483Y-72303028D01*
X143521480Y-72303027D01*
X143521478Y-72303026D01*
X143318120Y-72236952D01*
X143318123Y-72236952D01*
X143278801Y-72230724D01*
X143106916Y-72203500D01*
X142893084Y-72203500D01*
X142681884Y-72236951D01*
X142681878Y-72236952D01*
X142478521Y-72303026D01*
X142478515Y-72303029D01*
X142287987Y-72400108D01*
X142114993Y-72525796D01*
X142114990Y-72525798D01*
X141963802Y-72676987D01*
X141963796Y-72676993D01*
X141851936Y-72830955D01*
X141795714Y-72874309D01*
X141724977Y-72880384D01*
X141662186Y-72847252D01*
X141648064Y-72830955D01*
X141588726Y-72749284D01*
X141536206Y-72676996D01*
X141536203Y-72676993D01*
X141536198Y-72676987D01*
X141385009Y-72525798D01*
X141385006Y-72525796D01*
X141385004Y-72525794D01*
X141228000Y-72411724D01*
X141212012Y-72400108D01*
X141212011Y-72400107D01*
X141212009Y-72400106D01*
X141021483Y-72303028D01*
X141021480Y-72303027D01*
X141021478Y-72303026D01*
X140818120Y-72236952D01*
X140818123Y-72236952D01*
X140778801Y-72230724D01*
X140606916Y-72203500D01*
X140393084Y-72203500D01*
X140181884Y-72236951D01*
X140181878Y-72236952D01*
X139978521Y-72303026D01*
X139978515Y-72303029D01*
X139787987Y-72400108D01*
X139769561Y-72413496D01*
X139702693Y-72437355D01*
X139633542Y-72421274D01*
X139584061Y-72370360D01*
X139569500Y-72311560D01*
X139569500Y-68912439D01*
X139589502Y-68844318D01*
X139643158Y-68797825D01*
X139713432Y-68787721D01*
X139769560Y-68810503D01*
X139787991Y-68823894D01*
X139978517Y-68920972D01*
X140181878Y-68987047D01*
X140181879Y-68987047D01*
X140181884Y-68987049D01*
X140393084Y-69020500D01*
X140393087Y-69020500D01*
X140606913Y-69020500D01*
X140606916Y-69020500D01*
X140818116Y-68987049D01*
X141021483Y-68920972D01*
X141212009Y-68823894D01*
X141385004Y-68698206D01*
X141536206Y-68547004D01*
X141648064Y-68393043D01*
X141704286Y-68349690D01*
X141775022Y-68343615D01*
X141837814Y-68376746D01*
X141851934Y-68393041D01*
X141963794Y-68547004D01*
X141963796Y-68547006D01*
X141963798Y-68547009D01*
X142114990Y-68698201D01*
X142114993Y-68698203D01*
X142114996Y-68698206D01*
X142287991Y-68823894D01*
X142478517Y-68920972D01*
X142681878Y-68987047D01*
X142681879Y-68987047D01*
X142681884Y-68987049D01*
X142893084Y-69020500D01*
X142893087Y-69020500D01*
X143106913Y-69020500D01*
X143106916Y-69020500D01*
X143318116Y-68987049D01*
X143521483Y-68920972D01*
X143712009Y-68823894D01*
X143885004Y-68698206D01*
X144036206Y-68547004D01*
X144161894Y-68374009D01*
X144258972Y-68183483D01*
X144325049Y-67980116D01*
X144358500Y-67768916D01*
X144358500Y-67555084D01*
X144325049Y-67343884D01*
X144258972Y-67140517D01*
X144161894Y-66949991D01*
X144036206Y-66776996D01*
X144036203Y-66776993D01*
X144036201Y-66776990D01*
X143885009Y-66625798D01*
X143885006Y-66625796D01*
X143885004Y-66625794D01*
X143712009Y-66500106D01*
X143521483Y-66403028D01*
X143521480Y-66403027D01*
X143521478Y-66403026D01*
X143318120Y-66336952D01*
X143318123Y-66336952D01*
X143278801Y-66330724D01*
X143106916Y-66303500D01*
X142893084Y-66303500D01*
X142681884Y-66336951D01*
X142681878Y-66336952D01*
X142478521Y-66403026D01*
X142478515Y-66403029D01*
X142287987Y-66500108D01*
X142114993Y-66625796D01*
X142114990Y-66625798D01*
X141963798Y-66776990D01*
X141963796Y-66776993D01*
X141851936Y-66930955D01*
X141795714Y-66974309D01*
X141724977Y-66980384D01*
X141662186Y-66947252D01*
X141648064Y-66930955D01*
X141609079Y-66877298D01*
X141536206Y-66776996D01*
X141536203Y-66776993D01*
X141536201Y-66776990D01*
X141385009Y-66625798D01*
X141385006Y-66625796D01*
X141385004Y-66625794D01*
X141212009Y-66500106D01*
X141021483Y-66403028D01*
X141021480Y-66403027D01*
X141021478Y-66403026D01*
X140818120Y-66336952D01*
X140818123Y-66336952D01*
X140778801Y-66330724D01*
X140606916Y-66303500D01*
X140393084Y-66303500D01*
X140181884Y-66336951D01*
X140181878Y-66336952D01*
X140175658Y-66338973D01*
X140104690Y-66340994D01*
X140043896Y-66304326D01*
X140012576Y-66240611D01*
X140020676Y-66170077D01*
X140047632Y-66130048D01*
X140975071Y-65202608D01*
X141037381Y-65168585D01*
X141108197Y-65173650D01*
X141121360Y-65179435D01*
X141280297Y-65260419D01*
X141470484Y-65322214D01*
X141470485Y-65322214D01*
X141470490Y-65322216D01*
X141668009Y-65353500D01*
X141668012Y-65353500D01*
X141867988Y-65353500D01*
X141867991Y-65353500D01*
X142065510Y-65322216D01*
X142255703Y-65260419D01*
X142433887Y-65169629D01*
X142595675Y-65052083D01*
X142737083Y-64910675D01*
X142854629Y-64748887D01*
X142945419Y-64570703D01*
X143007216Y-64380510D01*
X143038500Y-64182991D01*
X143038500Y-63983009D01*
X143007216Y-63785490D01*
X142945419Y-63595297D01*
X142854629Y-63417113D01*
X142854627Y-63417109D01*
X142773107Y-63304908D01*
X142737083Y-63255325D01*
X142737080Y-63255322D01*
X142737078Y-63255319D01*
X142595680Y-63113921D01*
X142595677Y-63113919D01*
X142595675Y-63113917D01*
X142529976Y-63066184D01*
X142433890Y-62996372D01*
X142277715Y-62916797D01*
X142255703Y-62905581D01*
X142255700Y-62905580D01*
X142255698Y-62905579D01*
X142065513Y-62843785D01*
X142065517Y-62843785D01*
X142028743Y-62837960D01*
X141867991Y-62812500D01*
X141668009Y-62812500D01*
X141470490Y-62843784D01*
X141470484Y-62843785D01*
X141280301Y-62905579D01*
X141280295Y-62905582D01*
X141102109Y-62996372D01*
X140940322Y-63113919D01*
X140940319Y-63113921D01*
X140798916Y-63255324D01*
X140716821Y-63368318D01*
X140682722Y-63400436D01*
X140673361Y-63406416D01*
X140662716Y-63410826D01*
X140582164Y-63464649D01*
X140581119Y-63465346D01*
X140581099Y-63465360D01*
X140538488Y-63493832D01*
X140538481Y-63493837D01*
X138221838Y-65810480D01*
X138221834Y-65810485D01*
X138161020Y-65901500D01*
X138138826Y-65934716D01*
X138081650Y-66072750D01*
X138081649Y-66072753D01*
X138052500Y-66219290D01*
X138052500Y-72322629D01*
X138032498Y-72390750D01*
X138015595Y-72411724D01*
X134210838Y-76216480D01*
X134210833Y-76216486D01*
X134127824Y-76340717D01*
X134115532Y-76370397D01*
X134115531Y-76370401D01*
X134070650Y-76478751D01*
X134070649Y-76478752D01*
X134041500Y-76625290D01*
X134041500Y-77776899D01*
X134021498Y-77845020D01*
X133978500Y-77886018D01*
X133793099Y-77993058D01*
X133793093Y-77993062D01*
X133605020Y-78137376D01*
X133604999Y-78137395D01*
X133437395Y-78304999D01*
X133437376Y-78305020D01*
X133293062Y-78493093D01*
X133293058Y-78493099D01*
X133174532Y-78698392D01*
X133174527Y-78698403D01*
X133083803Y-78917430D01*
X133083801Y-78917434D01*
X133022442Y-79146429D01*
X132991500Y-79381462D01*
X132991500Y-79618537D01*
X133022442Y-79853570D01*
X133083801Y-80082565D01*
X133083802Y-80082567D01*
X133083803Y-80082570D01*
X133174526Y-80301595D01*
X133174527Y-80301596D01*
X133174532Y-80301607D01*
X133293058Y-80506900D01*
X133293062Y-80506906D01*
X133437376Y-80694979D01*
X133437395Y-80695000D01*
X133604999Y-80862604D01*
X133605009Y-80862613D01*
X133605015Y-80862619D01*
X133605018Y-80862621D01*
X133605020Y-80862623D01*
X133793093Y-81006937D01*
X133793099Y-81006941D01*
X133998392Y-81125467D01*
X133998396Y-81125468D01*
X133998405Y-81125474D01*
X134096464Y-81166091D01*
X134151745Y-81210639D01*
X134174166Y-81278003D01*
X134156608Y-81346794D01*
X134104646Y-81395172D01*
X134048246Y-81408500D01*
X130551754Y-81408500D01*
X130483633Y-81388498D01*
X130437140Y-81334842D01*
X130427036Y-81264568D01*
X130456530Y-81199988D01*
X130503534Y-81166091D01*
X130601595Y-81125474D01*
X130806904Y-81006939D01*
X130994985Y-80862619D01*
X131162619Y-80694985D01*
X131306939Y-80506904D01*
X131425474Y-80301595D01*
X131516197Y-80082570D01*
X131577556Y-79853578D01*
X131608500Y-79618535D01*
X131608500Y-79381465D01*
X131577556Y-79146422D01*
X131522145Y-78939628D01*
X131523835Y-78868653D01*
X131554755Y-78817924D01*
X132288166Y-78084515D01*
X132371174Y-77960284D01*
X132428351Y-77822246D01*
X132442899Y-77749111D01*
X132457500Y-77675706D01*
X132457500Y-74960302D01*
X132477502Y-74892181D01*
X132478735Y-74890300D01*
X132504102Y-74852336D01*
X132572587Y-74687000D01*
X132607500Y-74511479D01*
X132607500Y-74332521D01*
X132572587Y-74157000D01*
X132504102Y-73991664D01*
X132404678Y-73842865D01*
X132278135Y-73716322D01*
X132129336Y-73616898D01*
X132012429Y-73568473D01*
X131964003Y-73548414D01*
X131964001Y-73548413D01*
X131964000Y-73548413D01*
X131875645Y-73530838D01*
X131788481Y-73513500D01*
X131788479Y-73513500D01*
X131609521Y-73513500D01*
X131609518Y-73513500D01*
X131483022Y-73538662D01*
X131434000Y-73548413D01*
X131433999Y-73548413D01*
X131433996Y-73548414D01*
X131268662Y-73616899D01*
X131119869Y-73716319D01*
X131119862Y-73716324D01*
X130993324Y-73842862D01*
X130993319Y-73842869D01*
X130893899Y-73991662D01*
X130825414Y-74156996D01*
X130790500Y-74332518D01*
X130790500Y-74332521D01*
X130790500Y-74511479D01*
X130825413Y-74687000D01*
X130893898Y-74852336D01*
X130919265Y-74890300D01*
X130940480Y-74958053D01*
X130940500Y-74960302D01*
X130940500Y-77234627D01*
X130920498Y-77302748D01*
X130903595Y-77323723D01*
X130482074Y-77745243D01*
X130419762Y-77779268D01*
X130360368Y-77777854D01*
X130351449Y-77775464D01*
X130153578Y-77722444D01*
X130153576Y-77722443D01*
X130153570Y-77722442D01*
X129918537Y-77691500D01*
X129918535Y-77691500D01*
X129681465Y-77691500D01*
X129681462Y-77691500D01*
X129446429Y-77722442D01*
X129217434Y-77783801D01*
X129217430Y-77783803D01*
X129041502Y-77856675D01*
X128998403Y-77874527D01*
X128998392Y-77874532D01*
X128793099Y-77993058D01*
X128793093Y-77993062D01*
X128605020Y-78137376D01*
X128604999Y-78137395D01*
X128437395Y-78304999D01*
X128437376Y-78305020D01*
X128293062Y-78493093D01*
X128293058Y-78493099D01*
X128174532Y-78698392D01*
X128174527Y-78698403D01*
X128083803Y-78917430D01*
X128083801Y-78917434D01*
X128022442Y-79146429D01*
X127991500Y-79381462D01*
X127991500Y-79618537D01*
X128022442Y-79853570D01*
X128083801Y-80082565D01*
X128083802Y-80082567D01*
X128083803Y-80082570D01*
X128174526Y-80301595D01*
X128174527Y-80301596D01*
X128174532Y-80301607D01*
X128293058Y-80506900D01*
X128293062Y-80506906D01*
X128437376Y-80694979D01*
X128437395Y-80695000D01*
X128604999Y-80862604D01*
X128605009Y-80862613D01*
X128605015Y-80862619D01*
X128605018Y-80862621D01*
X128605020Y-80862623D01*
X128793093Y-81006937D01*
X128793099Y-81006941D01*
X128998392Y-81125467D01*
X128998396Y-81125468D01*
X128998405Y-81125474D01*
X129096464Y-81166091D01*
X129151745Y-81210639D01*
X129174166Y-81278003D01*
X129156608Y-81346794D01*
X129104646Y-81395172D01*
X129048246Y-81408500D01*
X126514230Y-81408500D01*
X126446109Y-81388498D01*
X126399616Y-81334842D01*
X126389512Y-81264568D01*
X126419006Y-81199988D01*
X126438720Y-81181632D01*
X126463261Y-81163261D01*
X126550889Y-81046204D01*
X126601989Y-80909201D01*
X126608500Y-80848638D01*
X126608500Y-78151362D01*
X126608005Y-78146759D01*
X126601990Y-78090803D01*
X126601988Y-78090795D01*
X126565535Y-77993063D01*
X126550889Y-77953796D01*
X126550888Y-77953794D01*
X126550887Y-77953792D01*
X126463261Y-77836738D01*
X126346207Y-77749112D01*
X126346202Y-77749110D01*
X126209204Y-77698011D01*
X126209196Y-77698009D01*
X126148649Y-77691500D01*
X126148638Y-77691500D01*
X123451362Y-77691500D01*
X123451350Y-77691500D01*
X123390803Y-77698009D01*
X123390795Y-77698011D01*
X123253797Y-77749110D01*
X123253792Y-77749112D01*
X123136738Y-77836738D01*
X123049112Y-77953792D01*
X123049110Y-77953797D01*
X122998011Y-78090795D01*
X122998009Y-78090803D01*
X122991500Y-78151350D01*
X122991500Y-80848649D01*
X122998009Y-80909196D01*
X122998011Y-80909204D01*
X123049110Y-81046202D01*
X123049112Y-81046207D01*
X123136737Y-81163259D01*
X123136738Y-81163259D01*
X123136739Y-81163261D01*
X123153536Y-81175835D01*
X123161280Y-81181632D01*
X123203826Y-81238468D01*
X123208890Y-81309284D01*
X123174865Y-81371596D01*
X123112553Y-81405621D01*
X123085770Y-81408500D01*
X92262594Y-81408500D01*
X92194473Y-81388498D01*
X92173499Y-81371595D01*
X84309458Y-73507554D01*
X84275432Y-73445242D01*
X84280497Y-73374427D01*
X84323044Y-73317591D01*
X84378838Y-73294012D01*
X84429116Y-73286049D01*
X84632483Y-73219972D01*
X84823009Y-73122894D01*
X84996004Y-72997206D01*
X85147206Y-72846004D01*
X85272894Y-72673009D01*
X85272902Y-72672992D01*
X85273854Y-72671441D01*
X85274377Y-72670967D01*
X85275804Y-72669004D01*
X85276216Y-72669303D01*
X85326497Y-72623804D01*
X85396537Y-72612189D01*
X85461738Y-72640285D01*
X85486484Y-72668843D01*
X85486624Y-72668742D01*
X85487801Y-72670362D01*
X85488729Y-72671433D01*
X85489535Y-72672749D01*
X85615177Y-72845679D01*
X85766320Y-72996822D01*
X85939249Y-73122463D01*
X86129707Y-73219506D01*
X86129713Y-73219509D01*
X86332998Y-73285560D01*
X86397000Y-73295696D01*
X86397000Y-72391702D01*
X86458007Y-72426925D01*
X86585174Y-72461000D01*
X86716826Y-72461000D01*
X86843993Y-72426925D01*
X86905000Y-72391702D01*
X86905000Y-73295696D01*
X86969001Y-73285560D01*
X87172286Y-73219509D01*
X87172292Y-73219506D01*
X87362750Y-73122463D01*
X87535679Y-72996822D01*
X87686822Y-72845679D01*
X87812460Y-72672754D01*
X87813261Y-72671448D01*
X87813695Y-72671054D01*
X87815376Y-72668742D01*
X87815861Y-72669094D01*
X87865900Y-72623807D01*
X87935940Y-72612188D01*
X88001142Y-72640280D01*
X88026097Y-72669075D01*
X88026196Y-72669004D01*
X88027025Y-72670145D01*
X88028136Y-72671427D01*
X88029103Y-72673006D01*
X88084519Y-72749279D01*
X88154794Y-72846004D01*
X88154796Y-72846006D01*
X88154798Y-72846009D01*
X88305990Y-72997201D01*
X88305993Y-72997203D01*
X88305996Y-72997206D01*
X88478991Y-73122894D01*
X88669517Y-73219972D01*
X88872878Y-73286047D01*
X88872879Y-73286047D01*
X88872884Y-73286049D01*
X89084084Y-73319500D01*
X89084087Y-73319500D01*
X89297913Y-73319500D01*
X89297916Y-73319500D01*
X89509116Y-73286049D01*
X89712483Y-73219972D01*
X89903009Y-73122894D01*
X90076004Y-72997206D01*
X90227206Y-72846004D01*
X90352894Y-72673009D01*
X90352899Y-72672997D01*
X90353561Y-72671920D01*
X90353924Y-72671591D01*
X90355804Y-72669004D01*
X90356347Y-72669398D01*
X90406204Y-72624283D01*
X90476244Y-72612670D01*
X90541445Y-72640766D01*
X90566021Y-72669130D01*
X90566196Y-72669004D01*
X90567668Y-72671030D01*
X90568439Y-72671920D01*
X90569108Y-72673012D01*
X90572003Y-72676996D01*
X90694794Y-72846004D01*
X90694796Y-72846006D01*
X90694798Y-72846009D01*
X90845990Y-72997201D01*
X90845993Y-72997203D01*
X90845996Y-72997206D01*
X91018991Y-73122894D01*
X91209517Y-73219972D01*
X91412878Y-73286047D01*
X91412879Y-73286047D01*
X91412884Y-73286049D01*
X91624084Y-73319500D01*
X91624087Y-73319500D01*
X91837913Y-73319500D01*
X91837916Y-73319500D01*
X92049116Y-73286049D01*
X92252483Y-73219972D01*
X92443009Y-73122894D01*
X92616004Y-72997206D01*
X92767206Y-72846004D01*
X92892894Y-72673009D01*
X92892899Y-72672997D01*
X92893561Y-72671920D01*
X92893924Y-72671591D01*
X92895804Y-72669004D01*
X92896347Y-72669398D01*
X92946204Y-72624283D01*
X93016244Y-72612670D01*
X93081445Y-72640766D01*
X93106021Y-72669130D01*
X93106196Y-72669004D01*
X93107668Y-72671030D01*
X93108439Y-72671920D01*
X93109108Y-72673012D01*
X93112003Y-72676996D01*
X93234794Y-72846004D01*
X93234796Y-72846006D01*
X93234798Y-72846009D01*
X93385990Y-72997201D01*
X93385993Y-72997203D01*
X93385996Y-72997206D01*
X93558991Y-73122894D01*
X93749517Y-73219972D01*
X93952878Y-73286047D01*
X93952879Y-73286047D01*
X93952884Y-73286049D01*
X94164084Y-73319500D01*
X94164087Y-73319500D01*
X94377913Y-73319500D01*
X94377916Y-73319500D01*
X94589116Y-73286049D01*
X94792483Y-73219972D01*
X94983009Y-73122894D01*
X95156004Y-72997206D01*
X95307206Y-72846004D01*
X95432894Y-72673009D01*
X95432902Y-72672992D01*
X95433854Y-72671441D01*
X95434377Y-72670967D01*
X95435804Y-72669004D01*
X95436216Y-72669303D01*
X95486497Y-72623804D01*
X95556537Y-72612189D01*
X95621738Y-72640285D01*
X95646484Y-72668843D01*
X95646624Y-72668742D01*
X95647801Y-72670362D01*
X95648729Y-72671433D01*
X95649535Y-72672749D01*
X95775177Y-72845679D01*
X95926320Y-72996822D01*
X96099249Y-73122463D01*
X96289707Y-73219506D01*
X96289713Y-73219509D01*
X96492998Y-73285560D01*
X96557000Y-73295696D01*
X96557000Y-72391702D01*
X96618007Y-72426925D01*
X96745174Y-72461000D01*
X96876826Y-72461000D01*
X97003993Y-72426925D01*
X97065000Y-72391702D01*
X97065000Y-73295696D01*
X97129001Y-73285560D01*
X97332286Y-73219509D01*
X97332292Y-73219506D01*
X97522750Y-73122463D01*
X97695679Y-72996822D01*
X97846822Y-72845679D01*
X97972460Y-72672754D01*
X97973261Y-72671448D01*
X97973695Y-72671054D01*
X97975376Y-72668742D01*
X97975861Y-72669094D01*
X98025900Y-72623807D01*
X98095940Y-72612188D01*
X98161142Y-72640280D01*
X98186097Y-72669075D01*
X98186196Y-72669004D01*
X98187025Y-72670145D01*
X98188136Y-72671427D01*
X98189103Y-72673006D01*
X98244519Y-72749279D01*
X98314794Y-72846004D01*
X98314796Y-72846006D01*
X98314798Y-72846009D01*
X98465990Y-72997201D01*
X98465993Y-72997203D01*
X98465996Y-72997206D01*
X98638991Y-73122894D01*
X98829517Y-73219972D01*
X99032878Y-73286047D01*
X99032879Y-73286047D01*
X99032884Y-73286049D01*
X99244084Y-73319500D01*
X99244087Y-73319500D01*
X99457913Y-73319500D01*
X99457916Y-73319500D01*
X99669116Y-73286049D01*
X99872483Y-73219972D01*
X100063009Y-73122894D01*
X100236004Y-72997206D01*
X100387206Y-72846004D01*
X100512894Y-72673009D01*
X100512899Y-72672997D01*
X100513561Y-72671920D01*
X100513924Y-72671591D01*
X100515804Y-72669004D01*
X100516347Y-72669398D01*
X100566204Y-72624283D01*
X100636244Y-72612670D01*
X100701445Y-72640766D01*
X100726021Y-72669130D01*
X100726196Y-72669004D01*
X100727668Y-72671030D01*
X100728439Y-72671920D01*
X100729108Y-72673012D01*
X100732003Y-72676996D01*
X100854794Y-72846004D01*
X100854796Y-72846006D01*
X100854798Y-72846009D01*
X101005990Y-72997201D01*
X101005993Y-72997203D01*
X101005996Y-72997206D01*
X101178991Y-73122894D01*
X101369517Y-73219972D01*
X101572878Y-73286047D01*
X101572879Y-73286047D01*
X101572884Y-73286049D01*
X101784084Y-73319500D01*
X101784087Y-73319500D01*
X101997913Y-73319500D01*
X101997916Y-73319500D01*
X102209116Y-73286049D01*
X102412483Y-73219972D01*
X102603009Y-73122894D01*
X102776004Y-72997206D01*
X102927206Y-72846004D01*
X103052894Y-72673009D01*
X103052902Y-72672992D01*
X103053854Y-72671441D01*
X103054377Y-72670967D01*
X103055804Y-72669004D01*
X103056216Y-72669303D01*
X103106497Y-72623804D01*
X103176537Y-72612189D01*
X103241738Y-72640285D01*
X103266484Y-72668843D01*
X103266624Y-72668742D01*
X103267801Y-72670362D01*
X103268729Y-72671433D01*
X103269535Y-72672749D01*
X103395177Y-72845679D01*
X103546320Y-72996822D01*
X103719249Y-73122463D01*
X103909707Y-73219506D01*
X103909713Y-73219509D01*
X104112998Y-73285560D01*
X104177000Y-73295696D01*
X104177000Y-72391702D01*
X104238007Y-72426925D01*
X104365174Y-72461000D01*
X104496826Y-72461000D01*
X104623993Y-72426925D01*
X104685000Y-72391702D01*
X104685000Y-73295696D01*
X104749001Y-73285560D01*
X104952286Y-73219509D01*
X104952292Y-73219506D01*
X105142750Y-73122463D01*
X105315679Y-72996822D01*
X105466822Y-72845679D01*
X105592460Y-72672754D01*
X105593261Y-72671448D01*
X105593695Y-72671054D01*
X105595376Y-72668742D01*
X105595861Y-72669094D01*
X105645900Y-72623807D01*
X105715940Y-72612188D01*
X105781142Y-72640280D01*
X105806097Y-72669075D01*
X105806196Y-72669004D01*
X105807025Y-72670145D01*
X105808136Y-72671427D01*
X105809103Y-72673006D01*
X105864519Y-72749279D01*
X105934794Y-72846004D01*
X105934796Y-72846006D01*
X105934798Y-72846009D01*
X106085990Y-72997201D01*
X106085993Y-72997203D01*
X106085996Y-72997206D01*
X106258991Y-73122894D01*
X106449517Y-73219972D01*
X106652878Y-73286047D01*
X106652879Y-73286047D01*
X106652884Y-73286049D01*
X106864084Y-73319500D01*
X106864087Y-73319500D01*
X107077913Y-73319500D01*
X107077916Y-73319500D01*
X107289116Y-73286049D01*
X107492483Y-73219972D01*
X107683009Y-73122894D01*
X107856004Y-72997206D01*
X108007206Y-72846004D01*
X108132894Y-72673009D01*
X108132899Y-72672997D01*
X108133561Y-72671920D01*
X108133924Y-72671591D01*
X108135804Y-72669004D01*
X108136347Y-72669398D01*
X108186204Y-72624283D01*
X108256244Y-72612670D01*
X108321445Y-72640766D01*
X108346021Y-72669130D01*
X108346196Y-72669004D01*
X108347668Y-72671030D01*
X108348439Y-72671920D01*
X108349108Y-72673012D01*
X108352003Y-72676996D01*
X108474794Y-72846004D01*
X108474796Y-72846006D01*
X108474798Y-72846009D01*
X108625990Y-72997201D01*
X108625993Y-72997203D01*
X108625996Y-72997206D01*
X108798991Y-73122894D01*
X108989517Y-73219972D01*
X109192878Y-73286047D01*
X109192879Y-73286047D01*
X109192884Y-73286049D01*
X109404084Y-73319500D01*
X109404087Y-73319500D01*
X109617913Y-73319500D01*
X109617916Y-73319500D01*
X109829116Y-73286049D01*
X110032483Y-73219972D01*
X110223009Y-73122894D01*
X110396004Y-72997206D01*
X110547206Y-72846004D01*
X110672894Y-72673009D01*
X110672899Y-72672997D01*
X110673561Y-72671920D01*
X110673924Y-72671591D01*
X110675804Y-72669004D01*
X110676347Y-72669398D01*
X110726204Y-72624283D01*
X110796244Y-72612670D01*
X110861445Y-72640766D01*
X110886021Y-72669130D01*
X110886196Y-72669004D01*
X110887668Y-72671030D01*
X110888439Y-72671920D01*
X110889108Y-72673012D01*
X110892003Y-72676996D01*
X111014794Y-72846004D01*
X111014796Y-72846006D01*
X111014798Y-72846009D01*
X111165990Y-72997201D01*
X111165993Y-72997203D01*
X111165996Y-72997206D01*
X111338991Y-73122894D01*
X111529517Y-73219972D01*
X111732878Y-73286047D01*
X111732879Y-73286047D01*
X111732884Y-73286049D01*
X111944084Y-73319500D01*
X111944087Y-73319500D01*
X112157913Y-73319500D01*
X112157916Y-73319500D01*
X112369116Y-73286049D01*
X112572483Y-73219972D01*
X112763009Y-73122894D01*
X112936004Y-72997206D01*
X113087206Y-72846004D01*
X113212894Y-72673009D01*
X113212899Y-72672997D01*
X113213561Y-72671920D01*
X113213924Y-72671591D01*
X113215804Y-72669004D01*
X113216347Y-72669398D01*
X113266204Y-72624283D01*
X113336244Y-72612670D01*
X113401445Y-72640766D01*
X113426021Y-72669130D01*
X113426196Y-72669004D01*
X113427668Y-72671030D01*
X113428439Y-72671920D01*
X113429108Y-72673012D01*
X113432003Y-72676996D01*
X113554794Y-72846004D01*
X113554796Y-72846006D01*
X113554798Y-72846009D01*
X113705990Y-72997201D01*
X113705993Y-72997203D01*
X113705996Y-72997206D01*
X113878991Y-73122894D01*
X114069517Y-73219972D01*
X114272878Y-73286047D01*
X114272879Y-73286047D01*
X114272884Y-73286049D01*
X114484084Y-73319500D01*
X114484087Y-73319500D01*
X114697913Y-73319500D01*
X114697916Y-73319500D01*
X114909116Y-73286049D01*
X115112483Y-73219972D01*
X115303009Y-73122894D01*
X115476004Y-72997206D01*
X115627206Y-72846004D01*
X115752894Y-72673009D01*
X115752899Y-72672997D01*
X115753561Y-72671920D01*
X115753924Y-72671591D01*
X115755804Y-72669004D01*
X115756347Y-72669398D01*
X115806204Y-72624283D01*
X115876244Y-72612670D01*
X115941445Y-72640766D01*
X115966021Y-72669130D01*
X115966196Y-72669004D01*
X115967668Y-72671030D01*
X115968439Y-72671920D01*
X115969108Y-72673012D01*
X115972003Y-72676996D01*
X116094794Y-72846004D01*
X116094796Y-72846006D01*
X116094798Y-72846009D01*
X116245990Y-72997201D01*
X116245993Y-72997203D01*
X116245996Y-72997206D01*
X116418991Y-73122894D01*
X116609517Y-73219972D01*
X116812878Y-73286047D01*
X116812879Y-73286047D01*
X116812884Y-73286049D01*
X117024084Y-73319500D01*
X117024087Y-73319500D01*
X117237913Y-73319500D01*
X117237916Y-73319500D01*
X117449116Y-73286049D01*
X117652483Y-73219972D01*
X117843009Y-73122894D01*
X118016004Y-72997206D01*
X118167206Y-72846004D01*
X118292894Y-72673009D01*
X118292899Y-72672997D01*
X118293561Y-72671920D01*
X118293924Y-72671591D01*
X118295804Y-72669004D01*
X118296347Y-72669398D01*
X118346204Y-72624283D01*
X118416244Y-72612670D01*
X118481445Y-72640766D01*
X118506021Y-72669130D01*
X118506196Y-72669004D01*
X118507668Y-72671030D01*
X118508439Y-72671920D01*
X118509108Y-72673012D01*
X118512003Y-72676996D01*
X118634794Y-72846004D01*
X118634796Y-72846006D01*
X118634798Y-72846009D01*
X118785990Y-72997201D01*
X118785993Y-72997203D01*
X118785996Y-72997206D01*
X118958991Y-73122894D01*
X119149517Y-73219972D01*
X119352878Y-73286047D01*
X119352879Y-73286047D01*
X119352884Y-73286049D01*
X119564084Y-73319500D01*
X119564087Y-73319500D01*
X119777913Y-73319500D01*
X119777916Y-73319500D01*
X119989116Y-73286049D01*
X120192483Y-73219972D01*
X120383009Y-73122894D01*
X120556004Y-72997206D01*
X120707206Y-72846004D01*
X120832894Y-72673009D01*
X120832902Y-72672992D01*
X120833854Y-72671441D01*
X120834377Y-72670967D01*
X120835804Y-72669004D01*
X120836216Y-72669303D01*
X120886497Y-72623804D01*
X120956537Y-72612189D01*
X121021738Y-72640285D01*
X121046484Y-72668843D01*
X121046624Y-72668742D01*
X121047801Y-72670362D01*
X121048729Y-72671433D01*
X121049535Y-72672749D01*
X121175177Y-72845679D01*
X121326320Y-72996822D01*
X121499249Y-73122463D01*
X121689707Y-73219506D01*
X121689713Y-73219509D01*
X121892998Y-73285560D01*
X121957000Y-73295696D01*
X121957000Y-72391702D01*
X122018007Y-72426925D01*
X122145174Y-72461000D01*
X122276826Y-72461000D01*
X122403993Y-72426925D01*
X122465000Y-72391702D01*
X122465000Y-73295696D01*
X122529001Y-73285560D01*
X122732286Y-73219509D01*
X122732292Y-73219506D01*
X122922750Y-73122463D01*
X123095679Y-72996822D01*
X123246822Y-72845679D01*
X123372460Y-72672754D01*
X123373261Y-72671448D01*
X123373695Y-72671054D01*
X123375376Y-72668742D01*
X123375861Y-72669094D01*
X123425900Y-72623807D01*
X123495940Y-72612188D01*
X123561142Y-72640280D01*
X123586097Y-72669075D01*
X123586196Y-72669004D01*
X123587025Y-72670145D01*
X123588136Y-72671427D01*
X123589103Y-72673006D01*
X123644519Y-72749279D01*
X123714794Y-72846004D01*
X123714796Y-72846006D01*
X123714798Y-72846009D01*
X123865990Y-72997201D01*
X123865993Y-72997203D01*
X123865996Y-72997206D01*
X124038991Y-73122894D01*
X124229517Y-73219972D01*
X124432878Y-73286047D01*
X124432879Y-73286047D01*
X124432884Y-73286049D01*
X124644084Y-73319500D01*
X124644087Y-73319500D01*
X124857913Y-73319500D01*
X124857916Y-73319500D01*
X125069116Y-73286049D01*
X125272483Y-73219972D01*
X125463009Y-73122894D01*
X125636004Y-72997206D01*
X125787206Y-72846004D01*
X125912894Y-72673009D01*
X125912899Y-72672997D01*
X125913561Y-72671920D01*
X125913924Y-72671591D01*
X125915804Y-72669004D01*
X125916347Y-72669398D01*
X125966204Y-72624283D01*
X126036244Y-72612670D01*
X126101445Y-72640766D01*
X126126021Y-72669130D01*
X126126196Y-72669004D01*
X126127668Y-72671030D01*
X126128439Y-72671920D01*
X126129108Y-72673012D01*
X126132003Y-72676996D01*
X126254794Y-72846004D01*
X126254796Y-72846006D01*
X126254798Y-72846009D01*
X126405990Y-72997201D01*
X126405993Y-72997203D01*
X126405996Y-72997206D01*
X126578991Y-73122894D01*
X126769517Y-73219972D01*
X126972878Y-73286047D01*
X126972879Y-73286047D01*
X126972884Y-73286049D01*
X127184084Y-73319500D01*
X127184087Y-73319500D01*
X127397913Y-73319500D01*
X127397916Y-73319500D01*
X127609116Y-73286049D01*
X127812483Y-73219972D01*
X128003009Y-73122894D01*
X128176004Y-72997206D01*
X128327206Y-72846004D01*
X128452894Y-72673009D01*
X128452899Y-72672997D01*
X128453561Y-72671920D01*
X128453924Y-72671591D01*
X128455804Y-72669004D01*
X128456347Y-72669398D01*
X128506204Y-72624283D01*
X128576244Y-72612670D01*
X128641445Y-72640766D01*
X128666021Y-72669130D01*
X128666196Y-72669004D01*
X128667668Y-72671030D01*
X128668439Y-72671920D01*
X128669108Y-72673012D01*
X128672003Y-72676996D01*
X128794794Y-72846004D01*
X128794796Y-72846006D01*
X128794798Y-72846009D01*
X128945990Y-72997201D01*
X128945993Y-72997203D01*
X128945996Y-72997206D01*
X129118991Y-73122894D01*
X129309517Y-73219972D01*
X129512878Y-73286047D01*
X129512879Y-73286047D01*
X129512884Y-73286049D01*
X129724084Y-73319500D01*
X129724087Y-73319500D01*
X129937913Y-73319500D01*
X129937916Y-73319500D01*
X130149116Y-73286049D01*
X130352483Y-73219972D01*
X130543009Y-73122894D01*
X130716004Y-72997206D01*
X130867206Y-72846004D01*
X130992894Y-72673009D01*
X131089972Y-72482483D01*
X131156049Y-72279116D01*
X131189500Y-72067916D01*
X131189500Y-71854084D01*
X131156049Y-71642884D01*
X131089972Y-71439517D01*
X130992894Y-71248991D01*
X130867206Y-71075996D01*
X130867203Y-71075993D01*
X130867201Y-71075990D01*
X130716009Y-70924798D01*
X130716006Y-70924796D01*
X130716004Y-70924794D01*
X130585781Y-70830182D01*
X130543012Y-70799108D01*
X130541920Y-70798439D01*
X130541591Y-70798075D01*
X130539004Y-70796196D01*
X130539398Y-70795652D01*
X130519457Y-70773615D01*
X130496179Y-70749559D01*
X130495749Y-70747416D01*
X130494283Y-70745796D01*
X130488806Y-70712766D01*
X130482230Y-70679946D01*
X130483027Y-70677911D01*
X130482670Y-70675756D01*
X130495919Y-70645009D01*
X130508131Y-70613843D01*
X130510115Y-70612064D01*
X130510766Y-70610555D01*
X130533904Y-70588904D01*
X130540317Y-70584265D01*
X130543009Y-70582894D01*
X130570294Y-70563070D01*
X133075500Y-70563070D01*
X133075500Y-70818930D01*
X133099552Y-70970785D01*
X133115527Y-71071643D01*
X133192910Y-71309807D01*
X133194590Y-71314975D01*
X133310748Y-71542947D01*
X133461138Y-71749942D01*
X133461140Y-71749944D01*
X133461142Y-71749947D01*
X133642052Y-71930857D01*
X133642055Y-71930859D01*
X133642058Y-71930862D01*
X133849053Y-72081252D01*
X134077025Y-72197410D01*
X134320361Y-72276474D01*
X134573070Y-72316500D01*
X134573073Y-72316500D01*
X134828927Y-72316500D01*
X134828930Y-72316500D01*
X135081639Y-72276474D01*
X135324975Y-72197410D01*
X135552947Y-72081252D01*
X135759942Y-71930862D01*
X135940862Y-71749942D01*
X136091252Y-71542947D01*
X136207410Y-71314975D01*
X136286474Y-71071639D01*
X136326500Y-70818930D01*
X136326500Y-70563070D01*
X136286474Y-70310361D01*
X136207410Y-70067025D01*
X136091252Y-69839053D01*
X135940862Y-69632058D01*
X135940859Y-69632055D01*
X135940857Y-69632052D01*
X135759947Y-69451142D01*
X135759944Y-69451140D01*
X135759942Y-69451138D01*
X135565804Y-69310089D01*
X135552950Y-69300750D01*
X135552949Y-69300749D01*
X135552947Y-69300748D01*
X135324975Y-69184590D01*
X135324972Y-69184589D01*
X135324970Y-69184588D01*
X135081643Y-69105527D01*
X135081641Y-69105526D01*
X135081639Y-69105526D01*
X134828930Y-69065500D01*
X134573070Y-69065500D01*
X134320361Y-69105526D01*
X134320359Y-69105526D01*
X134320356Y-69105527D01*
X134077029Y-69184588D01*
X134077023Y-69184591D01*
X133849049Y-69300750D01*
X133642055Y-69451140D01*
X133642052Y-69451142D01*
X133461142Y-69632052D01*
X133461140Y-69632055D01*
X133310750Y-69839049D01*
X133194591Y-70067023D01*
X133194588Y-70067029D01*
X133115527Y-70310356D01*
X133115526Y-70310359D01*
X133115526Y-70310361D01*
X133075500Y-70563070D01*
X130570294Y-70563070D01*
X130716004Y-70457206D01*
X130867206Y-70306004D01*
X130992894Y-70133009D01*
X131089972Y-69942483D01*
X131156049Y-69739116D01*
X131189500Y-69527916D01*
X131189500Y-69314084D01*
X131156049Y-69102884D01*
X131089972Y-68899517D01*
X130992894Y-68708991D01*
X130867206Y-68535996D01*
X130867203Y-68535993D01*
X130867201Y-68535990D01*
X130716009Y-68384798D01*
X130716006Y-68384796D01*
X130716004Y-68384794D01*
X130543009Y-68259106D01*
X130352483Y-68162028D01*
X130352480Y-68162027D01*
X130352478Y-68162026D01*
X130149120Y-68095952D01*
X130149123Y-68095952D01*
X130088195Y-68086302D01*
X129937916Y-68062500D01*
X129724084Y-68062500D01*
X129512884Y-68095951D01*
X129512878Y-68095952D01*
X129309521Y-68162026D01*
X129309515Y-68162029D01*
X129118987Y-68259108D01*
X128945993Y-68384796D01*
X128945990Y-68384798D01*
X128794798Y-68535990D01*
X128794796Y-68535993D01*
X128669108Y-68708987D01*
X128668434Y-68710088D01*
X128668068Y-68710418D01*
X128666196Y-68712996D01*
X128665654Y-68712602D01*
X128615787Y-68757721D01*
X128545745Y-68769328D01*
X128480547Y-68741226D01*
X128455976Y-68712870D01*
X128455804Y-68712996D01*
X128454341Y-68710982D01*
X128453566Y-68710088D01*
X128452896Y-68708996D01*
X128452894Y-68708991D01*
X128327206Y-68535996D01*
X128327203Y-68535993D01*
X128327201Y-68535990D01*
X128176009Y-68384798D01*
X128176006Y-68384796D01*
X128176004Y-68384794D01*
X128003009Y-68259106D01*
X127812483Y-68162028D01*
X127812480Y-68162027D01*
X127812478Y-68162026D01*
X127609120Y-68095952D01*
X127609123Y-68095952D01*
X127548195Y-68086302D01*
X127397916Y-68062500D01*
X127184084Y-68062500D01*
X126972884Y-68095951D01*
X126972878Y-68095952D01*
X126782436Y-68157830D01*
X126711468Y-68159857D01*
X126650670Y-68123195D01*
X126619345Y-68059482D01*
X126617500Y-68037997D01*
X126617500Y-67624594D01*
X126637502Y-67556473D01*
X126654400Y-67535503D01*
X127382977Y-66806925D01*
X127402072Y-66791256D01*
X127409833Y-66786071D01*
X142325500Y-51870405D01*
X142387812Y-51836379D01*
X142414595Y-51833500D01*
X153876393Y-51833500D01*
X153876394Y-51833500D01*
X153998785Y-51809155D01*
X154114075Y-51761400D01*
X154217833Y-51692071D01*
X158403555Y-47506347D01*
X158465865Y-47472324D01*
X158512351Y-47470995D01*
X158686009Y-47498500D01*
X158686012Y-47498500D01*
X158885988Y-47498500D01*
X158885991Y-47498500D01*
X159083510Y-47467216D01*
X159273703Y-47405419D01*
X159451887Y-47314629D01*
X159457762Y-47310361D01*
X159510446Y-47272083D01*
X159613675Y-47197083D01*
X159755083Y-47055675D01*
X159795565Y-46999956D01*
X159851786Y-46956603D01*
X159922522Y-46950528D01*
X159985314Y-46983659D01*
G37*
%TD.AperFunction*%
%TA.AperFunction,Conductor*%
G36*
X159985314Y-64763659D02*
G01*
X160020225Y-64825479D01*
X160023500Y-64854018D01*
X160023500Y-72277628D01*
X160003498Y-72345749D01*
X159986595Y-72366723D01*
X154689084Y-77664233D01*
X154626772Y-77698259D01*
X154616436Y-77700060D01*
X154446428Y-77722442D01*
X154217434Y-77783801D01*
X154217430Y-77783803D01*
X154041502Y-77856675D01*
X153998403Y-77874527D01*
X153998392Y-77874532D01*
X153793099Y-77993058D01*
X153793093Y-77993062D01*
X153605020Y-78137376D01*
X153604999Y-78137395D01*
X153437395Y-78304999D01*
X153437376Y-78305020D01*
X153293062Y-78493093D01*
X153293058Y-78493099D01*
X153174532Y-78698392D01*
X153174527Y-78698403D01*
X153083803Y-78917430D01*
X153083801Y-78917434D01*
X153022442Y-79146429D01*
X152991500Y-79381462D01*
X152991500Y-79618537D01*
X153022442Y-79853570D01*
X153083801Y-80082565D01*
X153083802Y-80082567D01*
X153083803Y-80082570D01*
X153174526Y-80301595D01*
X153174527Y-80301596D01*
X153174532Y-80301607D01*
X153293058Y-80506900D01*
X153293062Y-80506906D01*
X153437376Y-80694979D01*
X153437395Y-80695000D01*
X153604999Y-80862604D01*
X153605009Y-80862613D01*
X153605015Y-80862619D01*
X153605018Y-80862621D01*
X153605020Y-80862623D01*
X153793093Y-81006937D01*
X153793099Y-81006941D01*
X153998392Y-81125467D01*
X153998396Y-81125468D01*
X153998405Y-81125474D01*
X154096464Y-81166091D01*
X154151745Y-81210639D01*
X154174166Y-81278003D01*
X154156608Y-81346794D01*
X154104646Y-81395172D01*
X154048246Y-81408500D01*
X150551754Y-81408500D01*
X150483633Y-81388498D01*
X150437140Y-81334842D01*
X150427036Y-81264568D01*
X150456530Y-81199988D01*
X150503534Y-81166091D01*
X150601595Y-81125474D01*
X150806904Y-81006939D01*
X150994985Y-80862619D01*
X151162619Y-80694985D01*
X151306939Y-80506904D01*
X151425474Y-80301595D01*
X151516197Y-80082570D01*
X151577556Y-79853578D01*
X151588264Y-79772236D01*
X151616985Y-79707311D01*
X151624079Y-79699600D01*
X159189166Y-72134515D01*
X159272174Y-72010284D01*
X159329351Y-71872247D01*
X159358500Y-71725705D01*
X159358500Y-71576295D01*
X159358500Y-65219424D01*
X159378502Y-65151303D01*
X159427295Y-65107158D01*
X159451887Y-65094629D01*
X159613675Y-64977083D01*
X159755083Y-64835675D01*
X159795565Y-64779956D01*
X159851786Y-64736603D01*
X159922522Y-64730528D01*
X159985314Y-64763659D01*
G37*
%TD.AperFunction*%
%TA.AperFunction,Conductor*%
G36*
X88001445Y-70100766D02*
G01*
X88026021Y-70129130D01*
X88026196Y-70129004D01*
X88027668Y-70131030D01*
X88028439Y-70131920D01*
X88029105Y-70133007D01*
X88029106Y-70133009D01*
X88154794Y-70306004D01*
X88154796Y-70306006D01*
X88154798Y-70306009D01*
X88305990Y-70457201D01*
X88305993Y-70457203D01*
X88305996Y-70457206D01*
X88478991Y-70582894D01*
X88478996Y-70582896D01*
X88480088Y-70583566D01*
X88480418Y-70583931D01*
X88482996Y-70585804D01*
X88482602Y-70586345D01*
X88527721Y-70636213D01*
X88539328Y-70706255D01*
X88511226Y-70771453D01*
X88482870Y-70796023D01*
X88482996Y-70796196D01*
X88480982Y-70797658D01*
X88480088Y-70798434D01*
X88478987Y-70799108D01*
X88305993Y-70924796D01*
X88305990Y-70924798D01*
X88154798Y-71075990D01*
X88154796Y-71075993D01*
X88029100Y-71248998D01*
X88028131Y-71250580D01*
X88027606Y-71251054D01*
X88026196Y-71252996D01*
X88025787Y-71252699D01*
X87975479Y-71298206D01*
X87905437Y-71309807D01*
X87840242Y-71281697D01*
X87815515Y-71253156D01*
X87815376Y-71253258D01*
X87814194Y-71251631D01*
X87813266Y-71250560D01*
X87812460Y-71249244D01*
X87686822Y-71076320D01*
X87535679Y-70925177D01*
X87362749Y-70799535D01*
X87361433Y-70798729D01*
X87361037Y-70798291D01*
X87358742Y-70796624D01*
X87359092Y-70796141D01*
X87313800Y-70746084D01*
X87302190Y-70676043D01*
X87330291Y-70610844D01*
X87359076Y-70585903D01*
X87359004Y-70585804D01*
X87360158Y-70584965D01*
X87361441Y-70583854D01*
X87362992Y-70582902D01*
X87363009Y-70582894D01*
X87536004Y-70457206D01*
X87687206Y-70306004D01*
X87812894Y-70133009D01*
X87812899Y-70132997D01*
X87813561Y-70131920D01*
X87813924Y-70131591D01*
X87815804Y-70129004D01*
X87816347Y-70129398D01*
X87866204Y-70084283D01*
X87936244Y-70072670D01*
X88001445Y-70100766D01*
G37*
%TD.AperFunction*%
%TA.AperFunction,Conductor*%
G36*
X98161445Y-70100766D02*
G01*
X98186021Y-70129130D01*
X98186196Y-70129004D01*
X98187668Y-70131030D01*
X98188439Y-70131920D01*
X98189105Y-70133007D01*
X98189106Y-70133009D01*
X98314794Y-70306004D01*
X98314796Y-70306006D01*
X98314798Y-70306009D01*
X98465990Y-70457201D01*
X98465993Y-70457203D01*
X98465996Y-70457206D01*
X98638991Y-70582894D01*
X98638996Y-70582896D01*
X98640088Y-70583566D01*
X98640418Y-70583931D01*
X98642996Y-70585804D01*
X98642602Y-70586345D01*
X98687721Y-70636213D01*
X98699328Y-70706255D01*
X98671226Y-70771453D01*
X98642870Y-70796023D01*
X98642996Y-70796196D01*
X98640982Y-70797658D01*
X98640088Y-70798434D01*
X98638987Y-70799108D01*
X98465993Y-70924796D01*
X98465990Y-70924798D01*
X98314798Y-71075990D01*
X98314796Y-71075993D01*
X98189100Y-71248998D01*
X98188131Y-71250580D01*
X98187606Y-71251054D01*
X98186196Y-71252996D01*
X98185787Y-71252699D01*
X98135479Y-71298206D01*
X98065437Y-71309807D01*
X98000242Y-71281697D01*
X97975515Y-71253156D01*
X97975376Y-71253258D01*
X97974194Y-71251631D01*
X97973266Y-71250560D01*
X97972460Y-71249244D01*
X97846822Y-71076320D01*
X97695679Y-70925177D01*
X97522749Y-70799535D01*
X97521433Y-70798729D01*
X97521037Y-70798291D01*
X97518742Y-70796624D01*
X97519092Y-70796141D01*
X97473800Y-70746084D01*
X97462190Y-70676043D01*
X97490291Y-70610844D01*
X97519076Y-70585903D01*
X97519004Y-70585804D01*
X97520158Y-70584965D01*
X97521441Y-70583854D01*
X97522992Y-70582902D01*
X97523009Y-70582894D01*
X97696004Y-70457206D01*
X97847206Y-70306004D01*
X97972894Y-70133009D01*
X97972899Y-70132997D01*
X97973561Y-70131920D01*
X97973924Y-70131591D01*
X97975804Y-70129004D01*
X97976347Y-70129398D01*
X98026204Y-70084283D01*
X98096244Y-70072670D01*
X98161445Y-70100766D01*
G37*
%TD.AperFunction*%
%TA.AperFunction,Conductor*%
G36*
X105781445Y-70100766D02*
G01*
X105806021Y-70129130D01*
X105806196Y-70129004D01*
X105807668Y-70131030D01*
X105808439Y-70131920D01*
X105809105Y-70133007D01*
X105809106Y-70133009D01*
X105934794Y-70306004D01*
X105934796Y-70306006D01*
X105934798Y-70306009D01*
X106085990Y-70457201D01*
X106085993Y-70457203D01*
X106085996Y-70457206D01*
X106258991Y-70582894D01*
X106258996Y-70582896D01*
X106260088Y-70583566D01*
X106260418Y-70583931D01*
X106262996Y-70585804D01*
X106262602Y-70586345D01*
X106307721Y-70636213D01*
X106319328Y-70706255D01*
X106291226Y-70771453D01*
X106262870Y-70796023D01*
X106262996Y-70796196D01*
X106260982Y-70797658D01*
X106260088Y-70798434D01*
X106258987Y-70799108D01*
X106085993Y-70924796D01*
X106085990Y-70924798D01*
X105934798Y-71075990D01*
X105934796Y-71075993D01*
X105809100Y-71248998D01*
X105808131Y-71250580D01*
X105807606Y-71251054D01*
X105806196Y-71252996D01*
X105805787Y-71252699D01*
X105755479Y-71298206D01*
X105685437Y-71309807D01*
X105620242Y-71281697D01*
X105595515Y-71253156D01*
X105595376Y-71253258D01*
X105594194Y-71251631D01*
X105593266Y-71250560D01*
X105592460Y-71249244D01*
X105466822Y-71076320D01*
X105315679Y-70925177D01*
X105142749Y-70799535D01*
X105141433Y-70798729D01*
X105141037Y-70798291D01*
X105138742Y-70796624D01*
X105139092Y-70796141D01*
X105093800Y-70746084D01*
X105082190Y-70676043D01*
X105110291Y-70610844D01*
X105139076Y-70585903D01*
X105139004Y-70585804D01*
X105140158Y-70584965D01*
X105141441Y-70583854D01*
X105142992Y-70582902D01*
X105143009Y-70582894D01*
X105316004Y-70457206D01*
X105467206Y-70306004D01*
X105592894Y-70133009D01*
X105592899Y-70132997D01*
X105593561Y-70131920D01*
X105593924Y-70131591D01*
X105595804Y-70129004D01*
X105596347Y-70129398D01*
X105646204Y-70084283D01*
X105716244Y-70072670D01*
X105781445Y-70100766D01*
G37*
%TD.AperFunction*%
%TA.AperFunction,Conductor*%
G36*
X86883000Y-65347696D02*
G01*
X86947001Y-65337560D01*
X87150286Y-65271509D01*
X87150292Y-65271506D01*
X87340750Y-65174463D01*
X87513679Y-65048822D01*
X87664822Y-64897679D01*
X87790460Y-64724754D01*
X87791261Y-64723448D01*
X87791695Y-64723054D01*
X87793376Y-64720742D01*
X87793861Y-64721094D01*
X87843900Y-64675807D01*
X87913940Y-64664188D01*
X87979142Y-64692280D01*
X88004097Y-64721075D01*
X88004196Y-64721004D01*
X88005025Y-64722145D01*
X88006136Y-64723427D01*
X88007103Y-64725006D01*
X88044101Y-64775929D01*
X88132794Y-64898004D01*
X88132796Y-64898006D01*
X88132798Y-64898009D01*
X88283990Y-65049201D01*
X88283993Y-65049203D01*
X88283996Y-65049206D01*
X88456991Y-65174894D01*
X88647517Y-65271972D01*
X88850878Y-65338047D01*
X88850879Y-65338047D01*
X88850884Y-65338049D01*
X89062084Y-65371500D01*
X89062087Y-65371500D01*
X89275913Y-65371500D01*
X89275916Y-65371500D01*
X89487116Y-65338049D01*
X89690483Y-65271972D01*
X89881009Y-65174894D01*
X90054004Y-65049206D01*
X90205206Y-64898004D01*
X90330894Y-64725009D01*
X90330899Y-64724997D01*
X90331561Y-64723920D01*
X90331924Y-64723591D01*
X90333804Y-64721004D01*
X90334347Y-64721398D01*
X90384204Y-64676283D01*
X90454244Y-64664670D01*
X90519445Y-64692766D01*
X90544021Y-64721130D01*
X90544196Y-64721004D01*
X90545668Y-64723030D01*
X90546439Y-64723920D01*
X90547108Y-64725012D01*
X90575187Y-64763659D01*
X90672794Y-64898004D01*
X90672796Y-64898006D01*
X90672798Y-64898009D01*
X90823990Y-65049201D01*
X90823993Y-65049203D01*
X90823996Y-65049206D01*
X90996991Y-65174894D01*
X91187517Y-65271972D01*
X91390878Y-65338047D01*
X91390879Y-65338047D01*
X91390884Y-65338049D01*
X91602084Y-65371500D01*
X91602087Y-65371500D01*
X91815913Y-65371500D01*
X91815916Y-65371500D01*
X92027116Y-65338049D01*
X92165564Y-65293064D01*
X92236532Y-65291038D01*
X92297329Y-65327700D01*
X92328655Y-65391412D01*
X92330500Y-65412898D01*
X92330500Y-68014479D01*
X92310498Y-68082600D01*
X92256842Y-68129093D01*
X92186568Y-68139197D01*
X92165565Y-68134312D01*
X92049006Y-68096440D01*
X91985000Y-68086302D01*
X91985000Y-68990297D01*
X91923993Y-68955075D01*
X91796826Y-68921000D01*
X91665174Y-68921000D01*
X91538007Y-68955075D01*
X91477000Y-68990297D01*
X91477000Y-68086302D01*
X91412995Y-68096440D01*
X91209713Y-68162490D01*
X91209707Y-68162493D01*
X91019249Y-68259536D01*
X90846320Y-68385177D01*
X90695177Y-68536320D01*
X90569532Y-68709255D01*
X90568724Y-68710574D01*
X90568286Y-68710969D01*
X90566624Y-68713258D01*
X90566143Y-68712908D01*
X90516075Y-68758203D01*
X90446033Y-68769807D01*
X90380836Y-68741702D01*
X90355901Y-68712924D01*
X90355804Y-68712996D01*
X90354975Y-68711855D01*
X90353859Y-68710567D01*
X90352899Y-68709001D01*
X90352894Y-68708991D01*
X90227206Y-68535996D01*
X90227203Y-68535993D01*
X90227201Y-68535990D01*
X90076009Y-68384798D01*
X90076006Y-68384796D01*
X90076004Y-68384794D01*
X89903009Y-68259106D01*
X89712483Y-68162028D01*
X89712480Y-68162027D01*
X89712478Y-68162026D01*
X89509120Y-68095952D01*
X89509123Y-68095952D01*
X89448195Y-68086302D01*
X89297916Y-68062500D01*
X89084084Y-68062500D01*
X88872884Y-68095951D01*
X88872878Y-68095952D01*
X88669521Y-68162026D01*
X88669515Y-68162029D01*
X88478987Y-68259108D01*
X88305993Y-68384796D01*
X88305990Y-68384798D01*
X88154798Y-68535990D01*
X88154796Y-68535993D01*
X88029108Y-68708987D01*
X88028434Y-68710088D01*
X88028068Y-68710418D01*
X88026196Y-68712996D01*
X88025654Y-68712602D01*
X87975787Y-68757721D01*
X87905745Y-68769328D01*
X87840547Y-68741226D01*
X87815976Y-68712870D01*
X87815804Y-68712996D01*
X87814341Y-68710982D01*
X87813566Y-68710088D01*
X87812896Y-68708996D01*
X87812894Y-68708991D01*
X87687206Y-68535996D01*
X87687203Y-68535993D01*
X87687201Y-68535990D01*
X87536009Y-68384798D01*
X87536006Y-68384796D01*
X87536004Y-68384794D01*
X87363009Y-68259106D01*
X87172483Y-68162028D01*
X87172480Y-68162027D01*
X87172478Y-68162026D01*
X86969120Y-68095952D01*
X86969123Y-68095952D01*
X86908195Y-68086302D01*
X86757916Y-68062500D01*
X86544084Y-68062500D01*
X86332884Y-68095951D01*
X86332878Y-68095952D01*
X86142436Y-68157830D01*
X86071468Y-68159857D01*
X86010670Y-68123195D01*
X85979345Y-68059482D01*
X85977500Y-68037997D01*
X85977500Y-65402624D01*
X85997502Y-65334503D01*
X86051158Y-65288010D01*
X86121432Y-65277906D01*
X86142436Y-65282791D01*
X86310998Y-65337560D01*
X86375000Y-65347696D01*
X86375000Y-64443702D01*
X86436007Y-64478925D01*
X86563174Y-64513000D01*
X86694826Y-64513000D01*
X86821993Y-64478925D01*
X86883000Y-64443702D01*
X86883000Y-65347696D01*
G37*
%TD.AperFunction*%
%TA.AperFunction,Conductor*%
G36*
X111649488Y-65321887D02*
G01*
X111653432Y-65321321D01*
X111674425Y-65326203D01*
X111710884Y-65338049D01*
X111922084Y-65371500D01*
X111922087Y-65371500D01*
X112135913Y-65371500D01*
X112135916Y-65371500D01*
X112347116Y-65338049D01*
X112357475Y-65334682D01*
X112428442Y-65332650D01*
X112485514Y-65365418D01*
X112745595Y-65625499D01*
X112779621Y-65687811D01*
X112782500Y-65714594D01*
X112782500Y-68063985D01*
X112762498Y-68132106D01*
X112708842Y-68178599D01*
X112638568Y-68188703D01*
X112599299Y-68176253D01*
X112572293Y-68162493D01*
X112572286Y-68162490D01*
X112369004Y-68096440D01*
X112305000Y-68086302D01*
X112305000Y-68990297D01*
X112243993Y-68955075D01*
X112116826Y-68921000D01*
X111985174Y-68921000D01*
X111858007Y-68955075D01*
X111797000Y-68990297D01*
X111797000Y-68086302D01*
X111732993Y-68096440D01*
X111674435Y-68115467D01*
X111603467Y-68117494D01*
X111542670Y-68080831D01*
X111511345Y-68017119D01*
X111509500Y-67995634D01*
X111509500Y-65446039D01*
X111517554Y-65418608D01*
X111522429Y-65390444D01*
X111527421Y-65385004D01*
X111529502Y-65377918D01*
X111551107Y-65359197D01*
X111570435Y-65338138D01*
X111577577Y-65336260D01*
X111583158Y-65331425D01*
X111611453Y-65327356D01*
X111639100Y-65320090D01*
X111649488Y-65321887D01*
G37*
%TD.AperFunction*%
%TA.AperFunction,Conductor*%
G36*
X97043000Y-65347696D02*
G01*
X97107001Y-65337560D01*
X97310286Y-65271509D01*
X97310292Y-65271506D01*
X97500750Y-65174463D01*
X97673679Y-65048822D01*
X97824822Y-64897679D01*
X97950460Y-64724754D01*
X97951261Y-64723448D01*
X97951695Y-64723054D01*
X97953376Y-64720742D01*
X97953861Y-64721094D01*
X98003900Y-64675807D01*
X98073940Y-64664188D01*
X98139142Y-64692280D01*
X98164097Y-64721075D01*
X98164196Y-64721004D01*
X98165025Y-64722145D01*
X98166136Y-64723427D01*
X98167103Y-64725006D01*
X98204101Y-64775929D01*
X98292794Y-64898004D01*
X98292796Y-64898006D01*
X98292798Y-64898009D01*
X98443990Y-65049201D01*
X98443993Y-65049203D01*
X98443996Y-65049206D01*
X98616991Y-65174894D01*
X98807517Y-65271972D01*
X99010878Y-65338047D01*
X99010879Y-65338047D01*
X99010884Y-65338049D01*
X99222084Y-65371500D01*
X99222087Y-65371500D01*
X99435913Y-65371500D01*
X99435916Y-65371500D01*
X99647116Y-65338049D01*
X99785564Y-65293064D01*
X99856532Y-65291038D01*
X99917329Y-65327700D01*
X99948655Y-65391412D01*
X99950500Y-65412898D01*
X99950500Y-68013953D01*
X99930498Y-68082074D01*
X99876842Y-68128567D01*
X99806568Y-68138671D01*
X99785565Y-68133786D01*
X99669124Y-68095953D01*
X99669123Y-68095952D01*
X99608195Y-68086302D01*
X99457916Y-68062500D01*
X99244084Y-68062500D01*
X99032884Y-68095951D01*
X99032878Y-68095952D01*
X98829521Y-68162026D01*
X98829515Y-68162029D01*
X98638987Y-68259108D01*
X98465993Y-68384796D01*
X98465990Y-68384798D01*
X98314798Y-68535990D01*
X98314796Y-68535993D01*
X98189108Y-68708987D01*
X98188434Y-68710088D01*
X98188068Y-68710418D01*
X98186196Y-68712996D01*
X98185654Y-68712602D01*
X98135787Y-68757721D01*
X98065745Y-68769328D01*
X98000547Y-68741226D01*
X97975976Y-68712870D01*
X97975804Y-68712996D01*
X97974341Y-68710982D01*
X97973566Y-68710088D01*
X97972896Y-68708996D01*
X97972894Y-68708991D01*
X97847206Y-68535996D01*
X97847203Y-68535993D01*
X97847201Y-68535990D01*
X97696009Y-68384798D01*
X97696006Y-68384796D01*
X97696004Y-68384794D01*
X97523009Y-68259106D01*
X97332483Y-68162028D01*
X97332480Y-68162027D01*
X97332478Y-68162026D01*
X97129120Y-68095952D01*
X97129123Y-68095952D01*
X97068195Y-68086302D01*
X96917916Y-68062500D01*
X96704084Y-68062500D01*
X96492884Y-68095951D01*
X96492878Y-68095952D01*
X96302436Y-68157830D01*
X96231468Y-68159857D01*
X96170670Y-68123195D01*
X96139345Y-68059482D01*
X96137500Y-68037997D01*
X96137500Y-65402624D01*
X96157502Y-65334503D01*
X96211158Y-65288010D01*
X96281432Y-65277906D01*
X96302436Y-65282791D01*
X96470998Y-65337560D01*
X96535000Y-65347696D01*
X96535000Y-64443702D01*
X96596007Y-64478925D01*
X96723174Y-64513000D01*
X96854826Y-64513000D01*
X96981993Y-64478925D01*
X97043000Y-64443702D01*
X97043000Y-65347696D01*
G37*
%TD.AperFunction*%
%TA.AperFunction,Conductor*%
G36*
X104663000Y-65347696D02*
G01*
X104727001Y-65337560D01*
X104930286Y-65271509D01*
X104930292Y-65271506D01*
X105120750Y-65174463D01*
X105293679Y-65048822D01*
X105444822Y-64897679D01*
X105570460Y-64724754D01*
X105571261Y-64723448D01*
X105571695Y-64723054D01*
X105573376Y-64720742D01*
X105573861Y-64721094D01*
X105623900Y-64675807D01*
X105693940Y-64664188D01*
X105759142Y-64692280D01*
X105784097Y-64721075D01*
X105784196Y-64721004D01*
X105785025Y-64722145D01*
X105786136Y-64723427D01*
X105787103Y-64725006D01*
X105824101Y-64775929D01*
X105912794Y-64898004D01*
X105912796Y-64898006D01*
X105912798Y-64898009D01*
X106063990Y-65049201D01*
X106063993Y-65049203D01*
X106063996Y-65049206D01*
X106236991Y-65174894D01*
X106427517Y-65271972D01*
X106630878Y-65338047D01*
X106630879Y-65338047D01*
X106630884Y-65338049D01*
X106842084Y-65371500D01*
X106842087Y-65371500D01*
X107055913Y-65371500D01*
X107055916Y-65371500D01*
X107267116Y-65338049D01*
X107277475Y-65334682D01*
X107292935Y-65334240D01*
X107307430Y-65328834D01*
X107327703Y-65333244D01*
X107348442Y-65332650D01*
X107362757Y-65340869D01*
X107376804Y-65343925D01*
X107405514Y-65365418D01*
X107533595Y-65493499D01*
X107567621Y-65555811D01*
X107570500Y-65582594D01*
X107570500Y-68013953D01*
X107550498Y-68082074D01*
X107496842Y-68128567D01*
X107426568Y-68138671D01*
X107405565Y-68133786D01*
X107289124Y-68095953D01*
X107289123Y-68095952D01*
X107228195Y-68086302D01*
X107077916Y-68062500D01*
X106864084Y-68062500D01*
X106652884Y-68095951D01*
X106652878Y-68095952D01*
X106449521Y-68162026D01*
X106449515Y-68162029D01*
X106258987Y-68259108D01*
X106085993Y-68384796D01*
X106085990Y-68384798D01*
X105934798Y-68535990D01*
X105934796Y-68535993D01*
X105809108Y-68708987D01*
X105808434Y-68710088D01*
X105808068Y-68710418D01*
X105806196Y-68712996D01*
X105805654Y-68712602D01*
X105755787Y-68757721D01*
X105685745Y-68769328D01*
X105620547Y-68741226D01*
X105595976Y-68712870D01*
X105595804Y-68712996D01*
X105594341Y-68710982D01*
X105593566Y-68710088D01*
X105592896Y-68708996D01*
X105592894Y-68708991D01*
X105467206Y-68535996D01*
X105467203Y-68535993D01*
X105467201Y-68535990D01*
X105316009Y-68384798D01*
X105316006Y-68384796D01*
X105316004Y-68384794D01*
X105143009Y-68259106D01*
X104952483Y-68162028D01*
X104952480Y-68162027D01*
X104952478Y-68162026D01*
X104749120Y-68095952D01*
X104749123Y-68095952D01*
X104688195Y-68086302D01*
X104537916Y-68062500D01*
X104324084Y-68062500D01*
X104112884Y-68095951D01*
X104112878Y-68095952D01*
X103922436Y-68157830D01*
X103851468Y-68159857D01*
X103790670Y-68123195D01*
X103759345Y-68059482D01*
X103757500Y-68037997D01*
X103757500Y-65402624D01*
X103777502Y-65334503D01*
X103831158Y-65288010D01*
X103901432Y-65277906D01*
X103922436Y-65282791D01*
X104090998Y-65337560D01*
X104155000Y-65347696D01*
X104155000Y-64443702D01*
X104216007Y-64478925D01*
X104343174Y-64513000D01*
X104474826Y-64513000D01*
X104601993Y-64478925D01*
X104663000Y-64443702D01*
X104663000Y-65347696D01*
G37*
%TD.AperFunction*%
%TA.AperFunction,Conductor*%
G36*
X140632391Y-42944502D02*
G01*
X140678884Y-42998158D01*
X140688988Y-43068432D01*
X140676537Y-43107703D01*
X140591046Y-43275487D01*
X140591043Y-43275493D01*
X140529273Y-43465602D01*
X140498000Y-43663052D01*
X140498000Y-43862947D01*
X140529273Y-44060397D01*
X140591043Y-44250506D01*
X140591046Y-44250512D01*
X140681799Y-44428624D01*
X140707622Y-44464166D01*
X140707623Y-44464166D01*
X141283841Y-43887947D01*
X141302075Y-43955993D01*
X141367901Y-44070007D01*
X141460993Y-44163099D01*
X141575007Y-44228925D01*
X141643051Y-44247157D01*
X141066831Y-44823377D01*
X141102373Y-44849199D01*
X141242213Y-44920452D01*
X141293828Y-44969201D01*
X141310894Y-45038115D01*
X141287993Y-45105317D01*
X141242213Y-45144986D01*
X141102110Y-45216372D01*
X140940322Y-45333919D01*
X140940319Y-45333921D01*
X140798921Y-45475319D01*
X140798919Y-45475322D01*
X140681372Y-45637109D01*
X140590582Y-45815295D01*
X140590579Y-45815301D01*
X140528785Y-46005484D01*
X140528784Y-46005489D01*
X140528784Y-46005490D01*
X140497500Y-46203009D01*
X140497500Y-46402991D01*
X140513228Y-46502296D01*
X140525003Y-46576640D01*
X140515903Y-46647051D01*
X140489649Y-46685445D01*
X120442167Y-66732929D01*
X120353931Y-66821164D01*
X120353926Y-66821171D01*
X120284601Y-66924923D01*
X120236846Y-67040212D01*
X120212500Y-67162603D01*
X120212500Y-67995108D01*
X120192498Y-68063229D01*
X120138842Y-68109722D01*
X120068568Y-68119826D01*
X120047565Y-68114941D01*
X119989124Y-68095953D01*
X119989123Y-68095952D01*
X119928195Y-68086302D01*
X119777916Y-68062500D01*
X119564084Y-68062500D01*
X119352884Y-68095951D01*
X119352878Y-68095952D01*
X119149521Y-68162026D01*
X119149515Y-68162029D01*
X118958987Y-68259108D01*
X118785993Y-68384796D01*
X118785990Y-68384798D01*
X118634798Y-68535990D01*
X118634796Y-68535993D01*
X118509108Y-68708987D01*
X118508434Y-68710088D01*
X118508068Y-68710418D01*
X118506196Y-68712996D01*
X118505654Y-68712602D01*
X118455787Y-68757721D01*
X118385745Y-68769328D01*
X118320547Y-68741226D01*
X118295976Y-68712870D01*
X118295804Y-68712996D01*
X118294341Y-68710982D01*
X118293566Y-68710088D01*
X118292896Y-68708996D01*
X118292894Y-68708991D01*
X118167206Y-68535996D01*
X118167203Y-68535993D01*
X118167201Y-68535990D01*
X118016009Y-68384798D01*
X118016006Y-68384796D01*
X118016004Y-68384794D01*
X117843009Y-68259106D01*
X117652483Y-68162028D01*
X117652480Y-68162027D01*
X117652478Y-68162026D01*
X117449120Y-68095952D01*
X117449123Y-68095952D01*
X117388195Y-68086302D01*
X117237916Y-68062500D01*
X117024084Y-68062500D01*
X116812884Y-68095951D01*
X116812878Y-68095952D01*
X116609521Y-68162026D01*
X116609515Y-68162029D01*
X116418987Y-68259108D01*
X116245993Y-68384796D01*
X116245990Y-68384798D01*
X116094798Y-68535990D01*
X116094796Y-68535993D01*
X115969108Y-68708987D01*
X115968434Y-68710088D01*
X115968068Y-68710418D01*
X115966196Y-68712996D01*
X115965654Y-68712602D01*
X115915787Y-68757721D01*
X115845745Y-68769328D01*
X115780547Y-68741226D01*
X115755976Y-68712870D01*
X115755804Y-68712996D01*
X115754341Y-68710982D01*
X115753566Y-68710088D01*
X115752896Y-68708996D01*
X115752894Y-68708991D01*
X115627206Y-68535996D01*
X115627203Y-68535993D01*
X115627201Y-68535990D01*
X115476009Y-68384798D01*
X115476006Y-68384796D01*
X115476004Y-68384794D01*
X115303009Y-68259106D01*
X115112483Y-68162028D01*
X115112480Y-68162027D01*
X115112478Y-68162026D01*
X114909120Y-68095952D01*
X114909123Y-68095952D01*
X114848195Y-68086302D01*
X114697916Y-68062500D01*
X114484084Y-68062500D01*
X114348876Y-68083914D01*
X114272876Y-68095952D01*
X114272875Y-68095953D01*
X114214435Y-68114941D01*
X114143467Y-68116968D01*
X114082670Y-68080305D01*
X114051345Y-68016593D01*
X114049500Y-67995108D01*
X114049500Y-65337607D01*
X114049499Y-65337603D01*
X114025155Y-65215215D01*
X113977400Y-65099925D01*
X113908071Y-64996167D01*
X113819833Y-64907929D01*
X113381418Y-64469514D01*
X113347392Y-64407202D01*
X113350683Y-64341475D01*
X113354047Y-64331122D01*
X113354046Y-64331122D01*
X113354049Y-64331116D01*
X113387500Y-64119916D01*
X113387500Y-63906084D01*
X113354049Y-63694884D01*
X113287972Y-63491517D01*
X113190894Y-63300991D01*
X113065206Y-63127996D01*
X113065203Y-63127993D01*
X113065201Y-63127990D01*
X112914009Y-62976798D01*
X112914006Y-62976796D01*
X112914004Y-62976794D01*
X112815985Y-62905579D01*
X112741006Y-62851103D01*
X112739427Y-62850136D01*
X112738952Y-62849611D01*
X112737004Y-62848196D01*
X112737301Y-62847786D01*
X112691797Y-62797488D01*
X112680191Y-62727446D01*
X112708296Y-62662249D01*
X112736844Y-62637516D01*
X112736742Y-62637376D01*
X112738382Y-62636184D01*
X112739448Y-62635261D01*
X112740754Y-62634460D01*
X112913679Y-62508822D01*
X113064822Y-62357679D01*
X113190463Y-62184750D01*
X113287506Y-61994292D01*
X113287509Y-61994286D01*
X113353559Y-61791004D01*
X113363698Y-61727000D01*
X112459703Y-61727000D01*
X112494925Y-61665993D01*
X112529000Y-61538826D01*
X112529000Y-61407174D01*
X112494925Y-61280007D01*
X112459703Y-61219000D01*
X113363697Y-61219000D01*
X113353559Y-61154995D01*
X113287509Y-60951713D01*
X113287506Y-60951707D01*
X113190463Y-60761249D01*
X113064822Y-60588320D01*
X112913679Y-60437177D01*
X112740750Y-60311536D01*
X112550292Y-60214493D01*
X112550286Y-60214490D01*
X112347004Y-60148440D01*
X112283000Y-60138302D01*
X112283000Y-61042297D01*
X112221993Y-61007075D01*
X112094826Y-60973000D01*
X111963174Y-60973000D01*
X111836007Y-61007075D01*
X111775000Y-61042297D01*
X111775000Y-60138302D01*
X111710995Y-60148440D01*
X111507713Y-60214490D01*
X111507707Y-60214493D01*
X111317249Y-60311536D01*
X111144320Y-60437177D01*
X110993177Y-60588320D01*
X110867532Y-60761255D01*
X110866724Y-60762574D01*
X110866286Y-60762969D01*
X110864624Y-60765258D01*
X110864143Y-60764908D01*
X110814075Y-60810203D01*
X110744033Y-60821807D01*
X110678836Y-60793702D01*
X110653901Y-60764924D01*
X110653804Y-60764996D01*
X110652975Y-60763855D01*
X110651859Y-60762567D01*
X110650899Y-60761001D01*
X110650894Y-60760991D01*
X110525206Y-60587996D01*
X110525203Y-60587993D01*
X110525201Y-60587990D01*
X110374009Y-60436798D01*
X110374006Y-60436796D01*
X110374004Y-60436794D01*
X110201009Y-60311106D01*
X110010483Y-60214028D01*
X110010480Y-60214027D01*
X110010478Y-60214026D01*
X109807120Y-60147952D01*
X109807123Y-60147952D01*
X109746195Y-60138302D01*
X109595916Y-60114500D01*
X109382084Y-60114500D01*
X109170884Y-60147951D01*
X109170878Y-60147952D01*
X108967521Y-60214026D01*
X108967515Y-60214029D01*
X108776987Y-60311108D01*
X108603993Y-60436796D01*
X108603990Y-60436798D01*
X108452798Y-60587990D01*
X108452796Y-60587993D01*
X108327108Y-60760987D01*
X108326434Y-60762088D01*
X108326068Y-60762418D01*
X108324196Y-60764996D01*
X108323654Y-60764602D01*
X108273787Y-60809721D01*
X108203745Y-60821328D01*
X108138547Y-60793226D01*
X108113976Y-60764870D01*
X108113804Y-60764996D01*
X108112341Y-60762982D01*
X108111566Y-60762088D01*
X108110896Y-60760996D01*
X108110894Y-60760991D01*
X107985206Y-60587996D01*
X107985203Y-60587993D01*
X107985201Y-60587990D01*
X107834009Y-60436798D01*
X107834006Y-60436796D01*
X107834004Y-60436794D01*
X107661009Y-60311106D01*
X107470483Y-60214028D01*
X107470480Y-60214027D01*
X107470478Y-60214026D01*
X107267120Y-60147952D01*
X107267123Y-60147952D01*
X107206195Y-60138302D01*
X107055916Y-60114500D01*
X106842084Y-60114500D01*
X106630884Y-60147951D01*
X106630878Y-60147952D01*
X106427521Y-60214026D01*
X106427515Y-60214029D01*
X106236987Y-60311108D01*
X106063993Y-60436796D01*
X106063990Y-60436798D01*
X105912798Y-60587990D01*
X105912796Y-60587993D01*
X105787108Y-60760987D01*
X105786434Y-60762088D01*
X105786068Y-60762418D01*
X105784196Y-60764996D01*
X105783654Y-60764602D01*
X105733787Y-60809721D01*
X105663745Y-60821328D01*
X105598547Y-60793226D01*
X105573976Y-60764870D01*
X105573804Y-60764996D01*
X105572341Y-60762982D01*
X105571566Y-60762088D01*
X105570896Y-60760996D01*
X105570894Y-60760991D01*
X105445206Y-60587996D01*
X105445203Y-60587993D01*
X105445201Y-60587990D01*
X105294009Y-60436798D01*
X105294006Y-60436796D01*
X105294004Y-60436794D01*
X105121009Y-60311106D01*
X104930483Y-60214028D01*
X104930480Y-60214027D01*
X104930478Y-60214026D01*
X104727120Y-60147952D01*
X104727123Y-60147952D01*
X104666195Y-60138302D01*
X104515916Y-60114500D01*
X104302084Y-60114500D01*
X104090884Y-60147951D01*
X104090878Y-60147952D01*
X103887521Y-60214026D01*
X103887515Y-60214029D01*
X103696987Y-60311108D01*
X103523993Y-60436796D01*
X103523990Y-60436798D01*
X103372798Y-60587990D01*
X103372796Y-60587993D01*
X103247108Y-60760987D01*
X103246434Y-60762088D01*
X103246068Y-60762418D01*
X103244196Y-60764996D01*
X103243654Y-60764602D01*
X103193787Y-60809721D01*
X103123745Y-60821328D01*
X103058547Y-60793226D01*
X103033976Y-60764870D01*
X103033804Y-60764996D01*
X103032341Y-60762982D01*
X103031566Y-60762088D01*
X103030896Y-60760996D01*
X103030894Y-60760991D01*
X102905206Y-60587996D01*
X102905203Y-60587993D01*
X102905201Y-60587990D01*
X102754009Y-60436798D01*
X102754006Y-60436796D01*
X102754004Y-60436794D01*
X102581009Y-60311106D01*
X102390483Y-60214028D01*
X102390480Y-60214027D01*
X102390478Y-60214026D01*
X102187120Y-60147952D01*
X102187123Y-60147952D01*
X102126195Y-60138302D01*
X101975916Y-60114500D01*
X101762084Y-60114500D01*
X101550884Y-60147951D01*
X101550878Y-60147952D01*
X101382436Y-60202682D01*
X101311468Y-60204709D01*
X101250670Y-60168047D01*
X101219345Y-60104334D01*
X101217500Y-60082849D01*
X101217500Y-55305594D01*
X101237502Y-55237473D01*
X101254405Y-55216499D01*
X108907834Y-47563070D01*
X133075500Y-47563070D01*
X133075500Y-47818930D01*
X133115526Y-48071639D01*
X133194590Y-48314975D01*
X133310748Y-48542947D01*
X133461138Y-48749942D01*
X133461140Y-48749944D01*
X133461142Y-48749947D01*
X133642052Y-48930857D01*
X133642055Y-48930859D01*
X133642058Y-48930862D01*
X133849053Y-49081252D01*
X134077025Y-49197410D01*
X134320361Y-49276474D01*
X134573070Y-49316500D01*
X134573073Y-49316500D01*
X134828927Y-49316500D01*
X134828930Y-49316500D01*
X135081639Y-49276474D01*
X135324975Y-49197410D01*
X135552947Y-49081252D01*
X135759942Y-48930862D01*
X135940862Y-48749942D01*
X136091252Y-48542947D01*
X136207410Y-48314975D01*
X136286474Y-48071639D01*
X136326500Y-47818930D01*
X136326500Y-47563070D01*
X136286474Y-47310361D01*
X136207410Y-47067025D01*
X136091252Y-46839053D01*
X135940862Y-46632058D01*
X135940859Y-46632055D01*
X135940857Y-46632052D01*
X135759947Y-46451142D01*
X135759944Y-46451140D01*
X135759942Y-46451138D01*
X135552947Y-46300748D01*
X135324975Y-46184590D01*
X135324972Y-46184589D01*
X135324970Y-46184588D01*
X135081643Y-46105527D01*
X135081641Y-46105526D01*
X135081639Y-46105526D01*
X134828930Y-46065500D01*
X134573070Y-46065500D01*
X134320361Y-46105526D01*
X134320359Y-46105526D01*
X134320356Y-46105527D01*
X134077029Y-46184588D01*
X134077023Y-46184591D01*
X133849049Y-46300750D01*
X133642055Y-46451140D01*
X133642052Y-46451142D01*
X133461142Y-46632052D01*
X133461140Y-46632055D01*
X133310750Y-46839049D01*
X133194591Y-47067023D01*
X133194588Y-47067029D01*
X133115527Y-47310356D01*
X133115526Y-47310359D01*
X133115526Y-47310361D01*
X133075500Y-47563070D01*
X108907834Y-47563070D01*
X113509499Y-42961405D01*
X113571811Y-42927379D01*
X113598594Y-42924500D01*
X140564270Y-42924500D01*
X140632391Y-42944502D01*
G37*
%TD.AperFunction*%
%TA.AperFunction,Conductor*%
G36*
X109002428Y-65283315D02*
G01*
X109170884Y-65338049D01*
X109382084Y-65371500D01*
X109382087Y-65371500D01*
X109595913Y-65371500D01*
X109595916Y-65371500D01*
X109807116Y-65338049D01*
X109817475Y-65334682D01*
X109888442Y-65332650D01*
X109945514Y-65365418D01*
X110205595Y-65625499D01*
X110239621Y-65687811D01*
X110242500Y-65714594D01*
X110242500Y-68063423D01*
X110222498Y-68131544D01*
X110168842Y-68178037D01*
X110098568Y-68188141D01*
X110059300Y-68175691D01*
X110032491Y-68162032D01*
X110032485Y-68162029D01*
X110032483Y-68162028D01*
X110032480Y-68162027D01*
X110032478Y-68162026D01*
X109829120Y-68095952D01*
X109829123Y-68095952D01*
X109768195Y-68086302D01*
X109617916Y-68062500D01*
X109404084Y-68062500D01*
X109192884Y-68095951D01*
X109192878Y-68095952D01*
X109002436Y-68157830D01*
X108931468Y-68159857D01*
X108870670Y-68123195D01*
X108839345Y-68059482D01*
X108837500Y-68037997D01*
X108837500Y-65403150D01*
X108857502Y-65335029D01*
X108911158Y-65288536D01*
X108981432Y-65278432D01*
X109002428Y-65283315D01*
G37*
%TD.AperFunction*%
%TA.AperFunction,Conductor*%
G36*
X94837329Y-65327700D02*
G01*
X94868655Y-65391412D01*
X94870500Y-65412898D01*
X94870500Y-68013953D01*
X94850498Y-68082074D01*
X94796842Y-68128567D01*
X94726568Y-68138671D01*
X94705565Y-68133786D01*
X94589124Y-68095953D01*
X94589123Y-68095952D01*
X94528195Y-68086302D01*
X94377916Y-68062500D01*
X94164084Y-68062500D01*
X93952884Y-68095951D01*
X93952878Y-68095952D01*
X93762436Y-68157830D01*
X93691468Y-68159857D01*
X93630670Y-68123195D01*
X93599345Y-68059482D01*
X93597500Y-68037997D01*
X93597500Y-65612594D01*
X93606283Y-65582678D01*
X93612912Y-65552209D01*
X93616726Y-65547112D01*
X93617502Y-65544473D01*
X93634400Y-65523503D01*
X93792486Y-65365416D01*
X93854796Y-65331393D01*
X93920518Y-65334680D01*
X93930884Y-65338049D01*
X94142084Y-65371500D01*
X94142087Y-65371500D01*
X94355913Y-65371500D01*
X94355916Y-65371500D01*
X94567116Y-65338049D01*
X94705564Y-65293064D01*
X94776532Y-65291038D01*
X94837329Y-65327700D01*
G37*
%TD.AperFunction*%
%TA.AperFunction,Conductor*%
G36*
X99868532Y-55816142D02*
G01*
X99925368Y-55858689D01*
X99950179Y-55925209D01*
X99950500Y-55934198D01*
X99950500Y-60073101D01*
X99930498Y-60141222D01*
X99876842Y-60187715D01*
X99806568Y-60197819D01*
X99785565Y-60192934D01*
X99647124Y-60147953D01*
X99647123Y-60147952D01*
X99586195Y-60138302D01*
X99435916Y-60114500D01*
X99222084Y-60114500D01*
X99010884Y-60147951D01*
X99010878Y-60147952D01*
X98807521Y-60214026D01*
X98807515Y-60214029D01*
X98616987Y-60311108D01*
X98443993Y-60436796D01*
X98443990Y-60436798D01*
X98292798Y-60587990D01*
X98292796Y-60587993D01*
X98167108Y-60760987D01*
X98166434Y-60762088D01*
X98166068Y-60762418D01*
X98164196Y-60764996D01*
X98163654Y-60764602D01*
X98113787Y-60809721D01*
X98043745Y-60821328D01*
X97978547Y-60793226D01*
X97953976Y-60764870D01*
X97953804Y-60764996D01*
X97952341Y-60762982D01*
X97951566Y-60762088D01*
X97950896Y-60760996D01*
X97950894Y-60760991D01*
X97825206Y-60587996D01*
X97825203Y-60587993D01*
X97825201Y-60587990D01*
X97674009Y-60436798D01*
X97674006Y-60436796D01*
X97674004Y-60436794D01*
X97501009Y-60311106D01*
X97310483Y-60214028D01*
X97310480Y-60214027D01*
X97310478Y-60214026D01*
X97107120Y-60147952D01*
X97107123Y-60147952D01*
X97046195Y-60138302D01*
X96895916Y-60114500D01*
X96682084Y-60114500D01*
X96470884Y-60147951D01*
X96470878Y-60147952D01*
X96302436Y-60202682D01*
X96231468Y-60204709D01*
X96170670Y-60168047D01*
X96139345Y-60104334D01*
X96137500Y-60082849D01*
X96137500Y-59495198D01*
X96157502Y-59427077D01*
X96174405Y-59406103D01*
X99735405Y-55845103D01*
X99797717Y-55811077D01*
X99868532Y-55816142D01*
G37*
%TD.AperFunction*%
%TA.AperFunction,Conductor*%
G36*
X159846377Y-44389166D02*
G01*
X159887615Y-44385921D01*
X159957095Y-44400518D01*
X160007654Y-44450361D01*
X160023500Y-44511533D01*
X160023500Y-45381981D01*
X160003498Y-45450102D01*
X159949842Y-45496595D01*
X159879568Y-45506699D01*
X159814988Y-45477205D01*
X159795564Y-45456042D01*
X159755081Y-45400322D01*
X159613680Y-45258921D01*
X159613677Y-45258919D01*
X159613675Y-45258917D01*
X159451887Y-45141371D01*
X159311784Y-45069984D01*
X159260171Y-45021237D01*
X159243105Y-44952323D01*
X159266006Y-44885121D01*
X159311787Y-44845452D01*
X159451622Y-44774202D01*
X159451624Y-44774201D01*
X159487166Y-44748377D01*
X158910947Y-44172158D01*
X158978993Y-44153925D01*
X159093007Y-44088099D01*
X159186099Y-43995007D01*
X159251925Y-43880993D01*
X159270158Y-43812947D01*
X159846377Y-44389166D01*
G37*
%TD.AperFunction*%
%TA.AperFunction,Conductor*%
G36*
X146649149Y-42494502D02*
G01*
X146695642Y-42548158D01*
X146705746Y-42618432D01*
X146676252Y-42683012D01*
X146655087Y-42702437D01*
X146654832Y-42702621D01*
X146654832Y-42702623D01*
X147231051Y-43278842D01*
X147163007Y-43297075D01*
X147048993Y-43362901D01*
X146955901Y-43455993D01*
X146890075Y-43570007D01*
X146871841Y-43638052D01*
X146295622Y-43061832D01*
X146269799Y-43097375D01*
X146269798Y-43097376D01*
X146179046Y-43275487D01*
X146179043Y-43275493D01*
X146117273Y-43465602D01*
X146086000Y-43663052D01*
X146086000Y-43832906D01*
X146065998Y-43901027D01*
X146012342Y-43947520D01*
X145942068Y-43957624D01*
X145877488Y-43928130D01*
X145870905Y-43922001D01*
X144638499Y-42689595D01*
X144604473Y-42627283D01*
X144609538Y-42556468D01*
X144652085Y-42499632D01*
X144718605Y-42474821D01*
X144727594Y-42474500D01*
X146581028Y-42474500D01*
X146649149Y-42494502D01*
G37*
%TD.AperFunction*%
%TA.AperFunction,Conductor*%
G36*
X162375121Y-35453002D02*
G01*
X162421614Y-35506658D01*
X162433000Y-35559000D01*
X162433000Y-85091000D01*
X162412998Y-85159121D01*
X162359342Y-85205614D01*
X162307000Y-85217000D01*
X122682000Y-85217000D01*
X122682000Y-89759111D01*
X122661998Y-89827232D01*
X122608342Y-89873725D01*
X122538068Y-89883829D01*
X122473488Y-89854335D01*
X122437945Y-89803144D01*
X122400889Y-89703797D01*
X122400887Y-89703792D01*
X122313261Y-89586738D01*
X122196207Y-89499112D01*
X122196202Y-89499110D01*
X122059204Y-89448011D01*
X122059196Y-89448009D01*
X121998649Y-89441500D01*
X121998638Y-89441500D01*
X119601362Y-89441500D01*
X119601350Y-89441500D01*
X119540803Y-89448009D01*
X119540795Y-89448011D01*
X119403797Y-89499110D01*
X119403792Y-89499112D01*
X119286738Y-89586738D01*
X119199112Y-89703792D01*
X119199110Y-89703797D01*
X119148011Y-89840795D01*
X119148009Y-89840803D01*
X119141500Y-89901350D01*
X119141500Y-90215500D01*
X119121498Y-90283621D01*
X119067842Y-90330114D01*
X119015500Y-90341500D01*
X118725290Y-90341500D01*
X118578753Y-90370649D01*
X118578750Y-90370650D01*
X118440716Y-90427826D01*
X118316486Y-90510833D01*
X118316480Y-90510838D01*
X116122724Y-92704595D01*
X116060412Y-92738621D01*
X116033629Y-92741500D01*
X106914616Y-92741500D01*
X106846495Y-92721498D01*
X106802350Y-92672705D01*
X106780974Y-92630754D01*
X106683220Y-92496207D01*
X106627533Y-92419560D01*
X106627530Y-92419557D01*
X106627528Y-92419554D01*
X106442945Y-92234971D01*
X106442942Y-92234969D01*
X106442940Y-92234967D01*
X106231743Y-92081524D01*
X105999143Y-91963008D01*
X105999140Y-91963007D01*
X105999138Y-91963006D01*
X105750871Y-91882339D01*
X105750867Y-91882338D01*
X105750866Y-91882338D01*
X105493027Y-91841500D01*
X105231973Y-91841500D01*
X104974134Y-91882338D01*
X104974128Y-91882339D01*
X104725861Y-91963006D01*
X104725855Y-91963009D01*
X104493253Y-92081526D01*
X104282057Y-92234969D01*
X104282054Y-92234971D01*
X104097471Y-92419554D01*
X104097469Y-92419557D01*
X103944026Y-92630753D01*
X103825509Y-92863355D01*
X103825506Y-92863361D01*
X103744839Y-93111628D01*
X103744838Y-93111633D01*
X103744838Y-93111634D01*
X103704000Y-93369473D01*
X103704000Y-93630527D01*
X103726681Y-93773725D01*
X103744839Y-93888371D01*
X103824932Y-94134870D01*
X103825508Y-94136643D01*
X103944024Y-94369243D01*
X103944026Y-94369246D01*
X103974242Y-94410835D01*
X104097467Y-94580440D01*
X104097469Y-94580442D01*
X104097471Y-94580445D01*
X104282054Y-94765028D01*
X104282057Y-94765030D01*
X104282060Y-94765033D01*
X104493257Y-94918476D01*
X104725857Y-95036992D01*
X104974134Y-95117662D01*
X105231973Y-95158500D01*
X105231976Y-95158500D01*
X105493024Y-95158500D01*
X105493027Y-95158500D01*
X105750866Y-95117662D01*
X105999143Y-95036992D01*
X106231743Y-94918476D01*
X106442940Y-94765033D01*
X106627533Y-94580440D01*
X106780976Y-94369243D01*
X106802350Y-94327295D01*
X106851099Y-94275681D01*
X106914616Y-94258500D01*
X116474705Y-94258500D01*
X116474706Y-94258500D01*
X116560170Y-94241500D01*
X116621247Y-94229351D01*
X116759284Y-94172174D01*
X116883515Y-94089166D01*
X118926405Y-92046276D01*
X118988717Y-92012250D01*
X119059532Y-92017315D01*
X119116368Y-92059862D01*
X119141179Y-92126382D01*
X119141500Y-92135371D01*
X119141500Y-92298649D01*
X119148009Y-92359196D01*
X119148011Y-92359204D01*
X119199110Y-92496202D01*
X119199112Y-92496207D01*
X119286738Y-92613261D01*
X119403792Y-92700887D01*
X119403794Y-92700888D01*
X119403796Y-92700889D01*
X119459050Y-92721498D01*
X119540795Y-92751988D01*
X119540803Y-92751990D01*
X119601350Y-92758499D01*
X119601355Y-92758499D01*
X119601362Y-92758500D01*
X119601368Y-92758500D01*
X121998632Y-92758500D01*
X121998638Y-92758500D01*
X121998645Y-92758499D01*
X121998649Y-92758499D01*
X122059196Y-92751990D01*
X122059199Y-92751989D01*
X122059201Y-92751989D01*
X122196204Y-92700889D01*
X122233854Y-92672705D01*
X122313261Y-92613261D01*
X122400887Y-92496207D01*
X122400889Y-92496203D01*
X122400890Y-92496202D01*
X122437945Y-92396855D01*
X122480492Y-92340019D01*
X122547012Y-92315209D01*
X122616386Y-92330301D01*
X122666588Y-92380503D01*
X122682000Y-92440888D01*
X122682000Y-93659111D01*
X122661998Y-93727232D01*
X122608342Y-93773725D01*
X122538068Y-93783829D01*
X122473488Y-93754335D01*
X122437945Y-93703144D01*
X122400889Y-93603797D01*
X122400887Y-93603792D01*
X122313261Y-93486738D01*
X122196207Y-93399112D01*
X122196202Y-93399110D01*
X122059204Y-93348011D01*
X122059196Y-93348009D01*
X121998649Y-93341500D01*
X121998638Y-93341500D01*
X119601362Y-93341500D01*
X119601350Y-93341500D01*
X119540803Y-93348009D01*
X119540795Y-93348011D01*
X119403797Y-93399110D01*
X119403792Y-93399112D01*
X119286738Y-93486738D01*
X119199112Y-93603792D01*
X119199110Y-93603797D01*
X119148011Y-93740795D01*
X119148009Y-93740803D01*
X119141500Y-93801350D01*
X119141500Y-94134870D01*
X119121498Y-94202991D01*
X119067842Y-94249484D01*
X119040084Y-94258448D01*
X118978758Y-94270647D01*
X118978749Y-94270650D01*
X118921576Y-94294332D01*
X118840716Y-94327826D01*
X118840715Y-94327827D01*
X118716485Y-94410834D01*
X118716479Y-94410839D01*
X115422724Y-97704595D01*
X115360412Y-97738621D01*
X115333629Y-97741500D01*
X107147000Y-97741500D01*
X107078879Y-97721498D01*
X107032386Y-97667842D01*
X107021000Y-97615500D01*
X107021000Y-97451367D01*
X107020999Y-97451350D01*
X107014490Y-97390803D01*
X107014488Y-97390795D01*
X106963389Y-97253797D01*
X106963387Y-97253792D01*
X106875761Y-97136738D01*
X106758707Y-97049112D01*
X106758702Y-97049110D01*
X106621704Y-96998011D01*
X106621696Y-96998009D01*
X106561149Y-96991500D01*
X106561138Y-96991500D01*
X104163862Y-96991500D01*
X104163850Y-96991500D01*
X104103303Y-96998009D01*
X104103295Y-96998011D01*
X103966297Y-97049110D01*
X103966292Y-97049112D01*
X103849238Y-97136738D01*
X103761612Y-97253792D01*
X103761610Y-97253797D01*
X103710511Y-97390795D01*
X103710509Y-97390803D01*
X103704000Y-97451350D01*
X103704000Y-99548649D01*
X103710509Y-99609196D01*
X103710511Y-99609204D01*
X103761610Y-99746202D01*
X103761612Y-99746207D01*
X103849238Y-99863261D01*
X103966292Y-99950887D01*
X103966294Y-99950888D01*
X103966296Y-99950889D01*
X104025375Y-99972924D01*
X104103295Y-100001988D01*
X104103303Y-100001990D01*
X104163850Y-100008499D01*
X104163855Y-100008499D01*
X104163862Y-100008500D01*
X104163868Y-100008500D01*
X106561132Y-100008500D01*
X106561138Y-100008500D01*
X106561145Y-100008499D01*
X106561149Y-100008499D01*
X106621696Y-100001990D01*
X106621699Y-100001989D01*
X106621701Y-100001989D01*
X106758704Y-99950889D01*
X106875761Y-99863261D01*
X106963389Y-99746204D01*
X107014489Y-99609201D01*
X107021000Y-99548638D01*
X107021000Y-99384500D01*
X107041002Y-99316379D01*
X107094658Y-99269886D01*
X107147000Y-99258500D01*
X115774701Y-99258500D01*
X115774705Y-99258500D01*
X115774706Y-99258500D01*
X115847976Y-99243925D01*
X115921247Y-99229351D01*
X116059284Y-99172174D01*
X116183515Y-99089166D01*
X117171331Y-98101350D01*
X118991500Y-98101350D01*
X118991500Y-100498649D01*
X118998009Y-100559196D01*
X118998011Y-100559204D01*
X119049110Y-100696202D01*
X119049112Y-100696207D01*
X119136738Y-100813261D01*
X119253792Y-100900887D01*
X119253794Y-100900888D01*
X119253796Y-100900889D01*
X119312875Y-100922924D01*
X119390795Y-100951988D01*
X119390803Y-100951990D01*
X119451350Y-100958499D01*
X119451355Y-100958499D01*
X119451362Y-100958500D01*
X119451368Y-100958500D01*
X121848632Y-100958500D01*
X121848638Y-100958500D01*
X121848645Y-100958499D01*
X121848649Y-100958499D01*
X121909196Y-100951990D01*
X121909199Y-100951989D01*
X121909201Y-100951989D01*
X122046204Y-100900889D01*
X122163261Y-100813261D01*
X122250889Y-100696204D01*
X122301989Y-100559201D01*
X122308500Y-100498638D01*
X122308500Y-98101362D01*
X122308499Y-98101350D01*
X122301990Y-98040803D01*
X122301988Y-98040795D01*
X122250889Y-97903797D01*
X122250887Y-97903792D01*
X122163261Y-97786738D01*
X122046207Y-97699112D01*
X122046202Y-97699110D01*
X121909204Y-97648011D01*
X121909196Y-97648009D01*
X121848649Y-97641500D01*
X121848638Y-97641500D01*
X119451362Y-97641500D01*
X119451350Y-97641500D01*
X119390803Y-97648009D01*
X119390795Y-97648011D01*
X119253797Y-97699110D01*
X119253792Y-97699112D01*
X119136738Y-97786738D01*
X119049112Y-97903792D01*
X119049110Y-97903797D01*
X118998011Y-98040795D01*
X118998009Y-98040803D01*
X118991500Y-98101350D01*
X117171331Y-98101350D01*
X118972831Y-96299849D01*
X119035141Y-96265826D01*
X119105956Y-96270890D01*
X119162792Y-96313437D01*
X119179979Y-96344911D01*
X119199112Y-96396206D01*
X119199112Y-96396207D01*
X119286738Y-96513261D01*
X119403792Y-96600887D01*
X119403794Y-96600888D01*
X119403796Y-96600889D01*
X119462875Y-96622924D01*
X119540795Y-96651988D01*
X119540803Y-96651990D01*
X119601350Y-96658499D01*
X119601355Y-96658499D01*
X119601362Y-96658500D01*
X119601368Y-96658500D01*
X121998632Y-96658500D01*
X121998638Y-96658500D01*
X121998645Y-96658499D01*
X121998649Y-96658499D01*
X122059196Y-96651990D01*
X122059199Y-96651989D01*
X122059201Y-96651989D01*
X122196204Y-96600889D01*
X122313261Y-96513261D01*
X122400889Y-96396204D01*
X122419755Y-96345622D01*
X122437945Y-96296855D01*
X122480492Y-96240019D01*
X122547012Y-96215209D01*
X122616386Y-96230301D01*
X122666588Y-96280503D01*
X122682000Y-96340888D01*
X122682000Y-106681000D01*
X122661998Y-106749121D01*
X122608342Y-106795614D01*
X122556000Y-106807000D01*
X73151000Y-106807000D01*
X73082879Y-106786998D01*
X73036386Y-106733342D01*
X73025000Y-106681000D01*
X73025000Y-103569516D01*
X74304500Y-103569516D01*
X74304500Y-103830483D01*
X74345326Y-104088254D01*
X74425969Y-104336446D01*
X74425972Y-104336452D01*
X74544453Y-104568984D01*
X74624343Y-104678944D01*
X74624345Y-104678944D01*
X75478341Y-103824947D01*
X75496575Y-103892993D01*
X75562401Y-104007007D01*
X75655493Y-104100099D01*
X75769507Y-104165925D01*
X75837551Y-104184157D01*
X74983554Y-105038153D01*
X74983554Y-105038155D01*
X75093515Y-105118046D01*
X75326047Y-105236527D01*
X75326053Y-105236530D01*
X75574245Y-105317173D01*
X75832016Y-105358000D01*
X76092984Y-105358000D01*
X76350754Y-105317173D01*
X76598946Y-105236530D01*
X76598952Y-105236527D01*
X76831483Y-105118046D01*
X76941444Y-105038155D01*
X76941444Y-105038153D01*
X76087448Y-104184157D01*
X76155493Y-104165925D01*
X76269507Y-104100099D01*
X76362599Y-104007007D01*
X76428425Y-103892993D01*
X76446657Y-103824948D01*
X77300653Y-104678944D01*
X77300655Y-104678944D01*
X77380546Y-104568983D01*
X77499027Y-104336452D01*
X77499030Y-104336446D01*
X77571674Y-104112873D01*
X77571674Y-104112871D01*
X77579674Y-104088250D01*
X77620500Y-103830483D01*
X77620500Y-103569516D01*
X77579673Y-103311745D01*
X77499030Y-103063553D01*
X77499027Y-103063547D01*
X77380546Y-102831014D01*
X77374067Y-102822097D01*
X77374066Y-102822096D01*
X77322704Y-102751402D01*
X118992000Y-102751402D01*
X118992000Y-103696000D01*
X119943416Y-103696000D01*
X119928822Y-103731233D01*
X119900000Y-103876131D01*
X119900000Y-104023869D01*
X119928822Y-104168767D01*
X119943416Y-104204000D01*
X118992000Y-104204000D01*
X118992000Y-105148597D01*
X118998505Y-105209093D01*
X119049555Y-105345964D01*
X119049555Y-105345965D01*
X119137095Y-105462904D01*
X119254034Y-105550444D01*
X119390906Y-105601494D01*
X119451402Y-105607999D01*
X119451415Y-105608000D01*
X120396000Y-105608000D01*
X120396000Y-104656583D01*
X120431233Y-104671178D01*
X120576131Y-104700000D01*
X120723869Y-104700000D01*
X120868767Y-104671178D01*
X120904000Y-104656583D01*
X120904000Y-105608000D01*
X121848585Y-105608000D01*
X121848597Y-105607999D01*
X121909093Y-105601494D01*
X122045964Y-105550444D01*
X122045965Y-105550444D01*
X122162904Y-105462904D01*
X122250444Y-105345965D01*
X122250444Y-105345964D01*
X122301494Y-105209093D01*
X122307999Y-105148597D01*
X122308000Y-105148585D01*
X122308000Y-104204000D01*
X121356584Y-104204000D01*
X121371178Y-104168767D01*
X121400000Y-104023869D01*
X121400000Y-103876131D01*
X121371178Y-103731233D01*
X121356584Y-103696000D01*
X122308000Y-103696000D01*
X122308000Y-102751414D01*
X122307999Y-102751402D01*
X122301494Y-102690906D01*
X122250444Y-102554035D01*
X122250444Y-102554034D01*
X122162904Y-102437095D01*
X122045965Y-102349555D01*
X121909093Y-102298505D01*
X121848597Y-102292000D01*
X120904000Y-102292000D01*
X120904000Y-103243416D01*
X120868767Y-103228822D01*
X120723869Y-103200000D01*
X120576131Y-103200000D01*
X120431233Y-103228822D01*
X120396000Y-103243416D01*
X120396000Y-102292000D01*
X119451402Y-102292000D01*
X119390906Y-102298505D01*
X119254035Y-102349555D01*
X119254034Y-102349555D01*
X119137095Y-102437095D01*
X119049555Y-102554034D01*
X119049555Y-102554035D01*
X118998505Y-102690906D01*
X118992000Y-102751402D01*
X77322704Y-102751402D01*
X77300655Y-102721054D01*
X77300653Y-102721054D01*
X76446657Y-103575050D01*
X76428425Y-103507007D01*
X76362599Y-103392993D01*
X76269507Y-103299901D01*
X76155493Y-103234075D01*
X76087448Y-103215842D01*
X76941444Y-102361845D01*
X76941444Y-102361843D01*
X76831484Y-102281953D01*
X76598952Y-102163472D01*
X76598946Y-102163469D01*
X76350754Y-102082826D01*
X76092984Y-102042000D01*
X75832016Y-102042000D01*
X75574245Y-102082826D01*
X75326053Y-102163469D01*
X75326047Y-102163472D01*
X75093520Y-102281950D01*
X75093519Y-102281951D01*
X74983554Y-102361844D01*
X74983554Y-102361845D01*
X75837551Y-103215842D01*
X75769507Y-103234075D01*
X75655493Y-103299901D01*
X75562401Y-103392993D01*
X75496575Y-103507007D01*
X75478342Y-103575051D01*
X74624345Y-102721054D01*
X74624344Y-102721054D01*
X74544451Y-102831019D01*
X74544450Y-102831020D01*
X74425972Y-103063547D01*
X74425969Y-103063553D01*
X74345326Y-103311745D01*
X74304500Y-103569516D01*
X73025000Y-103569516D01*
X73025000Y-88169473D01*
X74304000Y-88169473D01*
X74304000Y-88430527D01*
X74344838Y-88688366D01*
X74344839Y-88688371D01*
X74425506Y-88936638D01*
X74425508Y-88936643D01*
X74544024Y-89169243D01*
X74697467Y-89380440D01*
X74697469Y-89380442D01*
X74697471Y-89380445D01*
X74882054Y-89565028D01*
X74882057Y-89565030D01*
X74882060Y-89565033D01*
X75093257Y-89718476D01*
X75325857Y-89836992D01*
X75574134Y-89917662D01*
X75831973Y-89958500D01*
X75831976Y-89958500D01*
X76093024Y-89958500D01*
X76093027Y-89958500D01*
X76350866Y-89917662D01*
X76599143Y-89836992D01*
X76831743Y-89718476D01*
X77042940Y-89565033D01*
X77227533Y-89380440D01*
X77380976Y-89169243D01*
X77499492Y-88936643D01*
X77580162Y-88688366D01*
X77621000Y-88430527D01*
X77621000Y-88169473D01*
X77580162Y-87911634D01*
X77499492Y-87663357D01*
X77380976Y-87430757D01*
X77227533Y-87219560D01*
X77227530Y-87219557D01*
X77227528Y-87219554D01*
X77042945Y-87034971D01*
X77042942Y-87034969D01*
X77042940Y-87034967D01*
X76831743Y-86881524D01*
X76599143Y-86763008D01*
X76599140Y-86763007D01*
X76599138Y-86763006D01*
X76350871Y-86682339D01*
X76350867Y-86682338D01*
X76350866Y-86682338D01*
X76093027Y-86641500D01*
X75831973Y-86641500D01*
X75574134Y-86682338D01*
X75574128Y-86682339D01*
X75325861Y-86763006D01*
X75325855Y-86763009D01*
X75093253Y-86881526D01*
X74882057Y-87034969D01*
X74882054Y-87034971D01*
X74697471Y-87219554D01*
X74697469Y-87219557D01*
X74544026Y-87430753D01*
X74425509Y-87663355D01*
X74425506Y-87663361D01*
X74344839Y-87911628D01*
X74344838Y-87911633D01*
X74344838Y-87911634D01*
X74304000Y-88169473D01*
X73025000Y-88169473D01*
X73025000Y-70563070D01*
X75075500Y-70563070D01*
X75075500Y-70818930D01*
X75099552Y-70970785D01*
X75115527Y-71071643D01*
X75192910Y-71309807D01*
X75194590Y-71314975D01*
X75310748Y-71542947D01*
X75461138Y-71749942D01*
X75461140Y-71749944D01*
X75461142Y-71749947D01*
X75642052Y-71930857D01*
X75642055Y-71930859D01*
X75642058Y-71930862D01*
X75849053Y-72081252D01*
X76077025Y-72197410D01*
X76320361Y-72276474D01*
X76573070Y-72316500D01*
X76573073Y-72316500D01*
X76828927Y-72316500D01*
X76828930Y-72316500D01*
X77081639Y-72276474D01*
X77324975Y-72197410D01*
X77552947Y-72081252D01*
X77759942Y-71930862D01*
X77940862Y-71749942D01*
X78091252Y-71542947D01*
X78207410Y-71314975D01*
X78286474Y-71071639D01*
X78326500Y-70818930D01*
X78326500Y-70563070D01*
X78286474Y-70310361D01*
X78207410Y-70067025D01*
X78091252Y-69839053D01*
X77940862Y-69632058D01*
X77940859Y-69632055D01*
X77940857Y-69632052D01*
X77759947Y-69451142D01*
X77759944Y-69451140D01*
X77759942Y-69451138D01*
X77565804Y-69310089D01*
X77552950Y-69300750D01*
X77552949Y-69300749D01*
X77552947Y-69300748D01*
X77324975Y-69184590D01*
X77324972Y-69184589D01*
X77324970Y-69184588D01*
X77081643Y-69105527D01*
X77081641Y-69105526D01*
X77081639Y-69105526D01*
X76828930Y-69065500D01*
X76573070Y-69065500D01*
X76320361Y-69105526D01*
X76320359Y-69105526D01*
X76320356Y-69105527D01*
X76077029Y-69184588D01*
X76077023Y-69184591D01*
X75849049Y-69300750D01*
X75642055Y-69451140D01*
X75642052Y-69451142D01*
X75461142Y-69632052D01*
X75461140Y-69632055D01*
X75310750Y-69839049D01*
X75194591Y-70067023D01*
X75194588Y-70067029D01*
X75115527Y-70310356D01*
X75115526Y-70310359D01*
X75115526Y-70310361D01*
X75075500Y-70563070D01*
X73025000Y-70563070D01*
X73025000Y-61366084D01*
X80190500Y-61366084D01*
X80190500Y-61579916D01*
X80223933Y-61791004D01*
X80223952Y-61791121D01*
X80289964Y-61994286D01*
X80290028Y-61994483D01*
X80387106Y-62185009D01*
X80512794Y-62358004D01*
X80512796Y-62358006D01*
X80512798Y-62358009D01*
X80615770Y-62460981D01*
X80649796Y-62523293D01*
X80644731Y-62594108D01*
X80602184Y-62650944D01*
X80570708Y-62668131D01*
X80452797Y-62712110D01*
X80452792Y-62712112D01*
X80335738Y-62799738D01*
X80248112Y-62916792D01*
X80248110Y-62916797D01*
X80197011Y-63053795D01*
X80197009Y-63053803D01*
X80190500Y-63114350D01*
X80190500Y-64911649D01*
X80197009Y-64972196D01*
X80197011Y-64972204D01*
X80248110Y-65109202D01*
X80248112Y-65109207D01*
X80335738Y-65226261D01*
X80452792Y-65313887D01*
X80452794Y-65313888D01*
X80452796Y-65313889D01*
X80503096Y-65332650D01*
X80589795Y-65364988D01*
X80589803Y-65364990D01*
X80650350Y-65371499D01*
X80650355Y-65371499D01*
X80650362Y-65371500D01*
X80650368Y-65371500D01*
X82447632Y-65371500D01*
X82447638Y-65371500D01*
X82447645Y-65371499D01*
X82447649Y-65371499D01*
X82508196Y-65364990D01*
X82508199Y-65364989D01*
X82508201Y-65364989D01*
X82645204Y-65313889D01*
X82672612Y-65293372D01*
X82762261Y-65226261D01*
X82849887Y-65109207D01*
X82849887Y-65109206D01*
X82849889Y-65109204D01*
X82893869Y-64991288D01*
X82936414Y-64934456D01*
X83002934Y-64909645D01*
X83072308Y-64924736D01*
X83101018Y-64946229D01*
X83203990Y-65049201D01*
X83203993Y-65049203D01*
X83203996Y-65049206D01*
X83376991Y-65174894D01*
X83567517Y-65271972D01*
X83770878Y-65338047D01*
X83770879Y-65338047D01*
X83770884Y-65338049D01*
X83982084Y-65371500D01*
X83982087Y-65371500D01*
X84195913Y-65371500D01*
X84195916Y-65371500D01*
X84407116Y-65338049D01*
X84417475Y-65334682D01*
X84432935Y-65334240D01*
X84447430Y-65328834D01*
X84467703Y-65333244D01*
X84488442Y-65332650D01*
X84502757Y-65340869D01*
X84516804Y-65343925D01*
X84545514Y-65365418D01*
X84673595Y-65493499D01*
X84707621Y-65555811D01*
X84710500Y-65582594D01*
X84710500Y-68013953D01*
X84690498Y-68082074D01*
X84636842Y-68128567D01*
X84566568Y-68138671D01*
X84545565Y-68133786D01*
X84429124Y-68095953D01*
X84429123Y-68095952D01*
X84368195Y-68086302D01*
X84217916Y-68062500D01*
X84004084Y-68062500D01*
X83792884Y-68095951D01*
X83792878Y-68095952D01*
X83589521Y-68162026D01*
X83589515Y-68162029D01*
X83398987Y-68259108D01*
X83225995Y-68384794D01*
X83123018Y-68487771D01*
X83060706Y-68521796D01*
X82989890Y-68516730D01*
X82933054Y-68474184D01*
X82915871Y-68442715D01*
X82871889Y-68324796D01*
X82871886Y-68324792D01*
X82871886Y-68324791D01*
X82784261Y-68207738D01*
X82667207Y-68120112D01*
X82667202Y-68120110D01*
X82530204Y-68069011D01*
X82530196Y-68069009D01*
X82469649Y-68062500D01*
X82469638Y-68062500D01*
X80672362Y-68062500D01*
X80672350Y-68062500D01*
X80611803Y-68069009D01*
X80611795Y-68069011D01*
X80474797Y-68120110D01*
X80474792Y-68120112D01*
X80357738Y-68207738D01*
X80270112Y-68324792D01*
X80270110Y-68324797D01*
X80219011Y-68461795D01*
X80219009Y-68461803D01*
X80212500Y-68522350D01*
X80212500Y-70319649D01*
X80219009Y-70380196D01*
X80219011Y-70380204D01*
X80270110Y-70517202D01*
X80270112Y-70517207D01*
X80357738Y-70634261D01*
X80474791Y-70721886D01*
X80474792Y-70721886D01*
X80474796Y-70721889D01*
X80592711Y-70765869D01*
X80649543Y-70808414D01*
X80674354Y-70874934D01*
X80659263Y-70944308D01*
X80637771Y-70973018D01*
X80534794Y-71075995D01*
X80409108Y-71248987D01*
X80312029Y-71439515D01*
X80312026Y-71439521D01*
X80245952Y-71642878D01*
X80245951Y-71642883D01*
X80245951Y-71642884D01*
X80212500Y-71854084D01*
X80212500Y-72067916D01*
X80245951Y-72279116D01*
X80245952Y-72279121D01*
X80306251Y-72464704D01*
X80312028Y-72482483D01*
X80409106Y-72673009D01*
X80409108Y-72673012D01*
X80412003Y-72676996D01*
X80534794Y-72846004D01*
X80534796Y-72846006D01*
X80534798Y-72846009D01*
X80685990Y-72997201D01*
X80685993Y-72997203D01*
X80685996Y-72997206D01*
X80858991Y-73122894D01*
X81049517Y-73219972D01*
X81252878Y-73286047D01*
X81252879Y-73286047D01*
X81252884Y-73286049D01*
X81464084Y-73319500D01*
X81464087Y-73319500D01*
X81677913Y-73319500D01*
X81677916Y-73319500D01*
X81889116Y-73286049D01*
X82092483Y-73219972D01*
X82115625Y-73208180D01*
X82185399Y-73195076D01*
X82251184Y-73221775D01*
X82277591Y-73250443D01*
X82311929Y-73301833D01*
X91455929Y-82445833D01*
X91544167Y-82534071D01*
X91647925Y-82603400D01*
X91763215Y-82651155D01*
X91885606Y-82675500D01*
X91885607Y-82675500D01*
X156272393Y-82675500D01*
X156272394Y-82675500D01*
X156394785Y-82651155D01*
X156510075Y-82603400D01*
X156613833Y-82534071D01*
X157972071Y-81175833D01*
X158041400Y-81072075D01*
X158089155Y-80956785D01*
X158113500Y-80834394D01*
X158113500Y-80709606D01*
X158113500Y-78038594D01*
X158133502Y-77970473D01*
X158150405Y-77949499D01*
X158679406Y-77420498D01*
X159235119Y-76864784D01*
X159297429Y-76830761D01*
X159368244Y-76835825D01*
X159398267Y-76851941D01*
X159561991Y-76970894D01*
X159562001Y-76970899D01*
X159563567Y-76971859D01*
X159564042Y-76972384D01*
X159565996Y-76973804D01*
X159565697Y-76974214D01*
X159611200Y-77024505D01*
X159622808Y-77094546D01*
X159594707Y-77159745D01*
X159566157Y-77184485D01*
X159566258Y-77184624D01*
X159564644Y-77185796D01*
X159563574Y-77186724D01*
X159562255Y-77187532D01*
X159389320Y-77313177D01*
X159238177Y-77464320D01*
X159112536Y-77637249D01*
X159015493Y-77827707D01*
X159015490Y-77827713D01*
X158949440Y-78030995D01*
X158939302Y-78095000D01*
X159843297Y-78095000D01*
X159808075Y-78156007D01*
X159774000Y-78283174D01*
X159774000Y-78414826D01*
X159808075Y-78541993D01*
X159843297Y-78603000D01*
X158939302Y-78603000D01*
X158949440Y-78667004D01*
X159015490Y-78870286D01*
X159015493Y-78870292D01*
X159112536Y-79060750D01*
X159238177Y-79233679D01*
X159389320Y-79384822D01*
X159562244Y-79510460D01*
X159563560Y-79511266D01*
X159563955Y-79511703D01*
X159566258Y-79513376D01*
X159565906Y-79513859D01*
X159611196Y-79563910D01*
X159622809Y-79633950D01*
X159594712Y-79699150D01*
X159565925Y-79724098D01*
X159565996Y-79724196D01*
X159564862Y-79725019D01*
X159563580Y-79726131D01*
X159561998Y-79727100D01*
X159388993Y-79852796D01*
X159388990Y-79852798D01*
X159237798Y-80003990D01*
X159237796Y-80003993D01*
X159112108Y-80176987D01*
X159015029Y-80367515D01*
X159015026Y-80367521D01*
X158948952Y-80570878D01*
X158948951Y-80570883D01*
X158948951Y-80570884D01*
X158915500Y-80782084D01*
X158915500Y-80995916D01*
X158943997Y-81175835D01*
X158948952Y-81207121D01*
X159015026Y-81410478D01*
X159015028Y-81410483D01*
X159112106Y-81601009D01*
X159237794Y-81774004D01*
X159237796Y-81774006D01*
X159237798Y-81774009D01*
X159340770Y-81876981D01*
X159374796Y-81939293D01*
X159369731Y-82010108D01*
X159327184Y-82066944D01*
X159295708Y-82084131D01*
X159177797Y-82128110D01*
X159177792Y-82128112D01*
X159060738Y-82215738D01*
X158973112Y-82332792D01*
X158973110Y-82332797D01*
X158922011Y-82469795D01*
X158922009Y-82469803D01*
X158915500Y-82530350D01*
X158915500Y-84327649D01*
X158922009Y-84388196D01*
X158922011Y-84388204D01*
X158973110Y-84525202D01*
X158973112Y-84525207D01*
X159060738Y-84642261D01*
X159177792Y-84729887D01*
X159177794Y-84729888D01*
X159177796Y-84729889D01*
X159236875Y-84751924D01*
X159314795Y-84780988D01*
X159314803Y-84780990D01*
X159375350Y-84787499D01*
X159375355Y-84787499D01*
X159375362Y-84787500D01*
X159375368Y-84787500D01*
X161172632Y-84787500D01*
X161172638Y-84787500D01*
X161172645Y-84787499D01*
X161172649Y-84787499D01*
X161233196Y-84780990D01*
X161233199Y-84780989D01*
X161233201Y-84780989D01*
X161370204Y-84729889D01*
X161487261Y-84642261D01*
X161574889Y-84525204D01*
X161625989Y-84388201D01*
X161632500Y-84327638D01*
X161632500Y-82530362D01*
X161632499Y-82530350D01*
X161625990Y-82469803D01*
X161625988Y-82469795D01*
X161574889Y-82332797D01*
X161574887Y-82332792D01*
X161487261Y-82215738D01*
X161370207Y-82128112D01*
X161370203Y-82128110D01*
X161252291Y-82084131D01*
X161195455Y-82041585D01*
X161170645Y-81975064D01*
X161185737Y-81905690D01*
X161207226Y-81876983D01*
X161310206Y-81774004D01*
X161435894Y-81601009D01*
X161532972Y-81410483D01*
X161599049Y-81207116D01*
X161632500Y-80995916D01*
X161632500Y-80782084D01*
X161599049Y-80570884D01*
X161532972Y-80367517D01*
X161435894Y-80176991D01*
X161310206Y-80003996D01*
X161310203Y-80003993D01*
X161310201Y-80003990D01*
X161159009Y-79852798D01*
X161159006Y-79852796D01*
X161159004Y-79852794D01*
X161048128Y-79772238D01*
X160986006Y-79727103D01*
X160984427Y-79726136D01*
X160983952Y-79725611D01*
X160982004Y-79724196D01*
X160982301Y-79723786D01*
X160936797Y-79673488D01*
X160925191Y-79603446D01*
X160953296Y-79538249D01*
X160981844Y-79513516D01*
X160981742Y-79513376D01*
X160983382Y-79512184D01*
X160984448Y-79511261D01*
X160985754Y-79510460D01*
X161158679Y-79384822D01*
X161309822Y-79233679D01*
X161435463Y-79060750D01*
X161532506Y-78870292D01*
X161532509Y-78870286D01*
X161598559Y-78667004D01*
X161608698Y-78603000D01*
X160704703Y-78603000D01*
X160739925Y-78541993D01*
X160774000Y-78414826D01*
X160774000Y-78283174D01*
X160739925Y-78156007D01*
X160704703Y-78095000D01*
X161608697Y-78095000D01*
X161598559Y-78030995D01*
X161532509Y-77827713D01*
X161532506Y-77827707D01*
X161435463Y-77637249D01*
X161309822Y-77464320D01*
X161158679Y-77313177D01*
X160985749Y-77187535D01*
X160984433Y-77186729D01*
X160984037Y-77186291D01*
X160981742Y-77184624D01*
X160982092Y-77184141D01*
X160936800Y-77134084D01*
X160925190Y-77064043D01*
X160953291Y-76998844D01*
X160982076Y-76973903D01*
X160982004Y-76973804D01*
X160983158Y-76972965D01*
X160984441Y-76971854D01*
X160985992Y-76970902D01*
X160986009Y-76970894D01*
X161159004Y-76845206D01*
X161310206Y-76694004D01*
X161435894Y-76521009D01*
X161532972Y-76330483D01*
X161599049Y-76127116D01*
X161632500Y-75915916D01*
X161632500Y-75702084D01*
X161599049Y-75490884D01*
X161532972Y-75287517D01*
X161435894Y-75096991D01*
X161310206Y-74923996D01*
X161310203Y-74923993D01*
X161310201Y-74923990D01*
X161159009Y-74772798D01*
X161159006Y-74772796D01*
X161159004Y-74772794D01*
X160986009Y-74647106D01*
X160795483Y-74550028D01*
X160795480Y-74550027D01*
X160795478Y-74550026D01*
X160592120Y-74483952D01*
X160592123Y-74483952D01*
X160552801Y-74477724D01*
X160380916Y-74450500D01*
X160352370Y-74450500D01*
X160284249Y-74430498D01*
X160237756Y-74376842D01*
X160227652Y-74306568D01*
X160257146Y-74241988D01*
X160263275Y-74235405D01*
X160695663Y-73803017D01*
X161371166Y-73127515D01*
X161454174Y-73003284D01*
X161511351Y-72865246D01*
X161514385Y-72849991D01*
X161540500Y-72718706D01*
X161540500Y-40381294D01*
X161511351Y-40234754D01*
X161454174Y-40096716D01*
X161371165Y-39972484D01*
X161265516Y-39866835D01*
X160814520Y-39415839D01*
X160780494Y-39353527D01*
X160779167Y-39307033D01*
X160782500Y-39285991D01*
X160782500Y-39086009D01*
X160751216Y-38888490D01*
X160689419Y-38698297D01*
X160598763Y-38520376D01*
X160598627Y-38520109D01*
X160536932Y-38435195D01*
X160481083Y-38358325D01*
X160481080Y-38358322D01*
X160481078Y-38358319D01*
X160339680Y-38216921D01*
X160339677Y-38216919D01*
X160339675Y-38216917D01*
X160288428Y-38179683D01*
X160177890Y-38099372D01*
X160085464Y-38052279D01*
X159999703Y-38008581D01*
X159999700Y-38008580D01*
X159999698Y-38008579D01*
X159809513Y-37946785D01*
X159809517Y-37946785D01*
X159772743Y-37940960D01*
X159611991Y-37915500D01*
X159412009Y-37915500D01*
X159214490Y-37946784D01*
X159214484Y-37946785D01*
X159024301Y-38008579D01*
X159024295Y-38008582D01*
X158846109Y-38099372D01*
X158684322Y-38216919D01*
X158684319Y-38216921D01*
X158542921Y-38358319D01*
X158542919Y-38358322D01*
X158425372Y-38520109D01*
X158334582Y-38698295D01*
X158334579Y-38698301D01*
X158272785Y-38888484D01*
X158272784Y-38888489D01*
X158272784Y-38888490D01*
X158241500Y-39086009D01*
X158241500Y-39285991D01*
X158262066Y-39415839D01*
X158272785Y-39483515D01*
X158334517Y-39673506D01*
X158334581Y-39673703D01*
X158353986Y-39711787D01*
X158425372Y-39851890D01*
X158505683Y-39962428D01*
X158542917Y-40013675D01*
X158542919Y-40013677D01*
X158542921Y-40013680D01*
X158684319Y-40155078D01*
X158684322Y-40155080D01*
X158684325Y-40155083D01*
X158761195Y-40210932D01*
X158846109Y-40272627D01*
X158846113Y-40272629D01*
X159024297Y-40363419D01*
X159214484Y-40425214D01*
X159214485Y-40425214D01*
X159214490Y-40425216D01*
X159412009Y-40456500D01*
X159412012Y-40456500D01*
X159611990Y-40456500D01*
X159611991Y-40456500D01*
X159633032Y-40453167D01*
X159703441Y-40462264D01*
X159741839Y-40488520D01*
X159986595Y-40733276D01*
X160020621Y-40795588D01*
X160023500Y-40822371D01*
X160023500Y-42864465D01*
X160003498Y-42932586D01*
X159949842Y-42979079D01*
X159887615Y-42990077D01*
X159846377Y-42986831D01*
X159270157Y-43563051D01*
X159251925Y-43495007D01*
X159186099Y-43380993D01*
X159093007Y-43287901D01*
X158978993Y-43222075D01*
X158910947Y-43203841D01*
X159487166Y-42627622D01*
X159451624Y-42601799D01*
X159273512Y-42511046D01*
X159273506Y-42511043D01*
X159083395Y-42449273D01*
X159083399Y-42449273D01*
X158885948Y-42418000D01*
X158686052Y-42418000D01*
X158488602Y-42449273D01*
X158298493Y-42511043D01*
X158298487Y-42511046D01*
X158120376Y-42601798D01*
X158120375Y-42601799D01*
X158084832Y-42627622D01*
X158084832Y-42627623D01*
X158661051Y-43203842D01*
X158593007Y-43222075D01*
X158478993Y-43287901D01*
X158385901Y-43380993D01*
X158320075Y-43495007D01*
X158301842Y-43563051D01*
X157725623Y-42986832D01*
X157725622Y-42986832D01*
X157699799Y-43022375D01*
X157699798Y-43022376D01*
X157609046Y-43200487D01*
X157609043Y-43200493D01*
X157547273Y-43390602D01*
X157516000Y-43588052D01*
X157516000Y-43787947D01*
X157547273Y-43985397D01*
X157609043Y-44175506D01*
X157609046Y-44175512D01*
X157699799Y-44353624D01*
X157725622Y-44389166D01*
X158301841Y-43812947D01*
X158320075Y-43880993D01*
X158385901Y-43995007D01*
X158478993Y-44088099D01*
X158593007Y-44153925D01*
X158661051Y-44172157D01*
X158084831Y-44748377D01*
X158120373Y-44774199D01*
X158260213Y-44845452D01*
X158311828Y-44894201D01*
X158328894Y-44963115D01*
X158305993Y-45030317D01*
X158260213Y-45069986D01*
X158120110Y-45141372D01*
X157958322Y-45258919D01*
X157958319Y-45258921D01*
X157816921Y-45400319D01*
X157816919Y-45400322D01*
X157699372Y-45562109D01*
X157608582Y-45740295D01*
X157608579Y-45740301D01*
X157546785Y-45930484D01*
X157546784Y-45930489D01*
X157546784Y-45930490D01*
X157525401Y-46065500D01*
X157515500Y-46128012D01*
X157515500Y-46327988D01*
X157543003Y-46501640D01*
X157533903Y-46572051D01*
X157507649Y-46610445D01*
X153588501Y-50529595D01*
X153526189Y-50563620D01*
X153499406Y-50566500D01*
X142037600Y-50566500D01*
X141915217Y-50590844D01*
X141915209Y-50590846D01*
X141881447Y-50604830D01*
X141881447Y-50604831D01*
X141799925Y-50638599D01*
X141696171Y-50707925D01*
X141696164Y-50707930D01*
X126623025Y-65781069D01*
X126603944Y-65796731D01*
X126596172Y-65801925D01*
X126596158Y-65801936D01*
X125580167Y-66817929D01*
X125491931Y-66906164D01*
X125491926Y-66906171D01*
X125422601Y-67009923D01*
X125375801Y-67122908D01*
X125374845Y-67125215D01*
X125365028Y-67174568D01*
X125350500Y-67247603D01*
X125350500Y-68013953D01*
X125330498Y-68082074D01*
X125276842Y-68128567D01*
X125206568Y-68138671D01*
X125185565Y-68133786D01*
X125069124Y-68095953D01*
X125069123Y-68095952D01*
X125008195Y-68086302D01*
X124857916Y-68062500D01*
X124644084Y-68062500D01*
X124432884Y-68095951D01*
X124432878Y-68095952D01*
X124229521Y-68162026D01*
X124229515Y-68162029D01*
X124038987Y-68259108D01*
X123865993Y-68384796D01*
X123865990Y-68384798D01*
X123714798Y-68535990D01*
X123714796Y-68535993D01*
X123589108Y-68708987D01*
X123588434Y-68710088D01*
X123588068Y-68710418D01*
X123586196Y-68712996D01*
X123585654Y-68712602D01*
X123535787Y-68757721D01*
X123465745Y-68769328D01*
X123400547Y-68741226D01*
X123375976Y-68712870D01*
X123375804Y-68712996D01*
X123374341Y-68710982D01*
X123373566Y-68710088D01*
X123372896Y-68708996D01*
X123372894Y-68708991D01*
X123247206Y-68535996D01*
X123247203Y-68535993D01*
X123247201Y-68535990D01*
X123096009Y-68384798D01*
X123096006Y-68384796D01*
X123096004Y-68384794D01*
X122923009Y-68259106D01*
X122732483Y-68162028D01*
X122732480Y-68162027D01*
X122732478Y-68162026D01*
X122529120Y-68095952D01*
X122529123Y-68095952D01*
X122468195Y-68086302D01*
X122317916Y-68062500D01*
X122104084Y-68062500D01*
X121892884Y-68095951D01*
X121892878Y-68095952D01*
X121689521Y-68162026D01*
X121689508Y-68162032D01*
X121662700Y-68175691D01*
X121592923Y-68188794D01*
X121527139Y-68162092D01*
X121486234Y-68104063D01*
X121479500Y-68063423D01*
X121479500Y-67539593D01*
X121499502Y-67471472D01*
X121516400Y-67450503D01*
X141385555Y-47581347D01*
X141447865Y-47547323D01*
X141494351Y-47545995D01*
X141668009Y-47573500D01*
X141668012Y-47573500D01*
X141867988Y-47573500D01*
X141867991Y-47573500D01*
X142065510Y-47542216D01*
X142255703Y-47480419D01*
X142433887Y-47389629D01*
X142595675Y-47272083D01*
X142737083Y-47130675D01*
X142854629Y-46968887D01*
X142945419Y-46790703D01*
X143007216Y-46600510D01*
X143038500Y-46402991D01*
X143038500Y-46203009D01*
X143007216Y-46005490D01*
X142945419Y-45815297D01*
X142854629Y-45637113D01*
X142854627Y-45637109D01*
X142792932Y-45552195D01*
X142737083Y-45475325D01*
X142737080Y-45475322D01*
X142737078Y-45475319D01*
X142595680Y-45333921D01*
X142595677Y-45333919D01*
X142595675Y-45333917D01*
X142433887Y-45216371D01*
X142293784Y-45144984D01*
X142242171Y-45096237D01*
X142225105Y-45027323D01*
X142248006Y-44960121D01*
X142293787Y-44920452D01*
X142433622Y-44849202D01*
X142433624Y-44849201D01*
X142469166Y-44823377D01*
X141892947Y-44247158D01*
X141960993Y-44228925D01*
X142075007Y-44163099D01*
X142168099Y-44070007D01*
X142233925Y-43955993D01*
X142252157Y-43887947D01*
X142828376Y-44464166D01*
X142828377Y-44464166D01*
X142854200Y-44428626D01*
X142944953Y-44250512D01*
X142944956Y-44250506D01*
X143006726Y-44060397D01*
X143038000Y-43862947D01*
X143038000Y-43663052D01*
X143006726Y-43465602D01*
X142944956Y-43275493D01*
X142944953Y-43275487D01*
X142859463Y-43107703D01*
X142858946Y-43104955D01*
X142857116Y-43102842D01*
X142852431Y-43070262D01*
X142846359Y-43037926D01*
X142847410Y-43035336D01*
X142847012Y-43032568D01*
X142860683Y-43002632D01*
X142873059Y-42972142D01*
X142875344Y-42970530D01*
X142876506Y-42967988D01*
X142904185Y-42950199D01*
X142931087Y-42931235D01*
X142934599Y-42930652D01*
X142936232Y-42929604D01*
X142971730Y-42924500D01*
X143029406Y-42924500D01*
X143097527Y-42944502D01*
X143118501Y-42961405D01*
X146077649Y-45920553D01*
X146111675Y-45982865D01*
X146113003Y-46029358D01*
X146097379Y-46128009D01*
X146085500Y-46203009D01*
X146085500Y-46402991D01*
X146116784Y-46600510D01*
X146116785Y-46600515D01*
X146154212Y-46715703D01*
X146178581Y-46790703D01*
X146178582Y-46790704D01*
X146269372Y-46968890D01*
X146340675Y-47067029D01*
X146386917Y-47130675D01*
X146386919Y-47130677D01*
X146386921Y-47130680D01*
X146528319Y-47272078D01*
X146528322Y-47272080D01*
X146528325Y-47272083D01*
X146605195Y-47327932D01*
X146690109Y-47389627D01*
X146690113Y-47389629D01*
X146868297Y-47480419D01*
X147058484Y-47542214D01*
X147058485Y-47542214D01*
X147058490Y-47542216D01*
X147256009Y-47573500D01*
X147256012Y-47573500D01*
X147455988Y-47573500D01*
X147455991Y-47573500D01*
X147653510Y-47542216D01*
X147843703Y-47480419D01*
X148021887Y-47389629D01*
X148183675Y-47272083D01*
X148325083Y-47130675D01*
X148442629Y-46968887D01*
X148533419Y-46790703D01*
X148595216Y-46600510D01*
X148626500Y-46402991D01*
X148626500Y-46203009D01*
X148595216Y-46005490D01*
X148533419Y-45815297D01*
X148442629Y-45637113D01*
X148442627Y-45637109D01*
X148380932Y-45552195D01*
X148325083Y-45475325D01*
X148325080Y-45475322D01*
X148325078Y-45475319D01*
X148183680Y-45333921D01*
X148183677Y-45333919D01*
X148183675Y-45333917D01*
X148021887Y-45216371D01*
X147881784Y-45144984D01*
X147830171Y-45096237D01*
X147813105Y-45027323D01*
X147836006Y-44960121D01*
X147881787Y-44920452D01*
X148021622Y-44849202D01*
X148021624Y-44849201D01*
X148057166Y-44823377D01*
X148057166Y-44823376D01*
X147480947Y-44247157D01*
X147548993Y-44228925D01*
X147663007Y-44163099D01*
X147756099Y-44070007D01*
X147821925Y-43955993D01*
X147840158Y-43887947D01*
X148416377Y-44464166D01*
X148442200Y-44428626D01*
X148532953Y-44250512D01*
X148532956Y-44250506D01*
X148594726Y-44060397D01*
X148626000Y-43862947D01*
X148626000Y-43663052D01*
X148594726Y-43465602D01*
X148532956Y-43275493D01*
X148532953Y-43275487D01*
X148442199Y-43097373D01*
X148416377Y-43061831D01*
X147840157Y-43638051D01*
X147821925Y-43570007D01*
X147756099Y-43455993D01*
X147663007Y-43362901D01*
X147548993Y-43297075D01*
X147480947Y-43278841D01*
X148057166Y-42702622D01*
X148056910Y-42702436D01*
X148013557Y-42646213D01*
X148007482Y-42575477D01*
X148040614Y-42512685D01*
X148102434Y-42477774D01*
X148130972Y-42474500D01*
X148167406Y-42474500D01*
X148235527Y-42494502D01*
X148256501Y-42511405D01*
X151665649Y-45920553D01*
X151699675Y-45982865D01*
X151701003Y-46029358D01*
X151685379Y-46128009D01*
X151673500Y-46203009D01*
X151673500Y-46402991D01*
X151704784Y-46600510D01*
X151704785Y-46600515D01*
X151742212Y-46715703D01*
X151766581Y-46790703D01*
X151766582Y-46790704D01*
X151857372Y-46968890D01*
X151928675Y-47067029D01*
X151974917Y-47130675D01*
X151974919Y-47130677D01*
X151974921Y-47130680D01*
X152116319Y-47272078D01*
X152116322Y-47272080D01*
X152116325Y-47272083D01*
X152193195Y-47327932D01*
X152278109Y-47389627D01*
X152278113Y-47389629D01*
X152456297Y-47480419D01*
X152646484Y-47542214D01*
X152646485Y-47542214D01*
X152646490Y-47542216D01*
X152844009Y-47573500D01*
X152844012Y-47573500D01*
X153043988Y-47573500D01*
X153043991Y-47573500D01*
X153241510Y-47542216D01*
X153431703Y-47480419D01*
X153609887Y-47389629D01*
X153771675Y-47272083D01*
X153913083Y-47130675D01*
X154030629Y-46968887D01*
X154121419Y-46790703D01*
X154183216Y-46600510D01*
X154214500Y-46402991D01*
X154214500Y-46203009D01*
X154183216Y-46005490D01*
X154121419Y-45815297D01*
X154030629Y-45637113D01*
X154030627Y-45637109D01*
X153968932Y-45552195D01*
X153913083Y-45475325D01*
X153913080Y-45475322D01*
X153913078Y-45475319D01*
X153771680Y-45333921D01*
X153771677Y-45333919D01*
X153771675Y-45333917D01*
X153609887Y-45216371D01*
X153469784Y-45144984D01*
X153418171Y-45096237D01*
X153401105Y-45027323D01*
X153424006Y-44960121D01*
X153469787Y-44920452D01*
X153609622Y-44849202D01*
X153609624Y-44849201D01*
X153645166Y-44823377D01*
X153645166Y-44823376D01*
X153068947Y-44247157D01*
X153136993Y-44228925D01*
X153251007Y-44163099D01*
X153344099Y-44070007D01*
X153409925Y-43955993D01*
X153428158Y-43887947D01*
X154004377Y-44464166D01*
X154030200Y-44428626D01*
X154120953Y-44250512D01*
X154120956Y-44250506D01*
X154182726Y-44060397D01*
X154214000Y-43862947D01*
X154214000Y-43663053D01*
X154204458Y-43602810D01*
X154204458Y-43602809D01*
X154182726Y-43465602D01*
X154120956Y-43275493D01*
X154120953Y-43275487D01*
X154030199Y-43097373D01*
X154004377Y-43061831D01*
X153428157Y-43638051D01*
X153409925Y-43570007D01*
X153344099Y-43455993D01*
X153251007Y-43362901D01*
X153136993Y-43297075D01*
X153068947Y-43278841D01*
X153645166Y-42702622D01*
X153609624Y-42676799D01*
X153431512Y-42586046D01*
X153431506Y-42586043D01*
X153241395Y-42524273D01*
X153241399Y-42524273D01*
X153043948Y-42493000D01*
X152844052Y-42493000D01*
X152646602Y-42524273D01*
X152456493Y-42586043D01*
X152456487Y-42586046D01*
X152278376Y-42676798D01*
X152278375Y-42676799D01*
X152242832Y-42702622D01*
X152242832Y-42702623D01*
X152819051Y-43278842D01*
X152751007Y-43297075D01*
X152636993Y-43362901D01*
X152543901Y-43455993D01*
X152478075Y-43570007D01*
X152459841Y-43638052D01*
X151883622Y-43061832D01*
X151857799Y-43097375D01*
X151857798Y-43097376D01*
X151767046Y-43275487D01*
X151767043Y-43275493D01*
X151705273Y-43465602D01*
X151674000Y-43663052D01*
X151674000Y-43832906D01*
X151653998Y-43901027D01*
X151600342Y-43947520D01*
X151530068Y-43957624D01*
X151465488Y-43928130D01*
X151458905Y-43922001D01*
X148885835Y-41348931D01*
X148885833Y-41348929D01*
X148782075Y-41279600D01*
X148666785Y-41231845D01*
X148593086Y-41217185D01*
X148544396Y-41207500D01*
X148544394Y-41207500D01*
X112905998Y-41207500D01*
X112781210Y-41207500D01*
X112781207Y-41207500D01*
X112708172Y-41222028D01*
X112658819Y-41231845D01*
X112658817Y-41231845D01*
X112658816Y-41231846D01*
X112543527Y-41279601D01*
X112439775Y-41348926D01*
X112439768Y-41348931D01*
X95011931Y-58776768D01*
X95011926Y-58776775D01*
X94942601Y-58880527D01*
X94894846Y-58995816D01*
X94870500Y-59118207D01*
X94870500Y-60073101D01*
X94850498Y-60141222D01*
X94796842Y-60187715D01*
X94726568Y-60197819D01*
X94705565Y-60192934D01*
X94567124Y-60147953D01*
X94567123Y-60147952D01*
X94506195Y-60138302D01*
X94355916Y-60114500D01*
X94142084Y-60114500D01*
X93930884Y-60147951D01*
X93930878Y-60147952D01*
X93727521Y-60214026D01*
X93727515Y-60214029D01*
X93536987Y-60311108D01*
X93363993Y-60436796D01*
X93363990Y-60436798D01*
X93212798Y-60587990D01*
X93212796Y-60587993D01*
X93087100Y-60760998D01*
X93086131Y-60762580D01*
X93085606Y-60763054D01*
X93084196Y-60764996D01*
X93083787Y-60764699D01*
X93033479Y-60810206D01*
X92963437Y-60821807D01*
X92898242Y-60793697D01*
X92873515Y-60765156D01*
X92873376Y-60765258D01*
X92872194Y-60763631D01*
X92871266Y-60762560D01*
X92870460Y-60761244D01*
X92744822Y-60588320D01*
X92593679Y-60437177D01*
X92420750Y-60311536D01*
X92230292Y-60214493D01*
X92230286Y-60214490D01*
X92027004Y-60148440D01*
X91963000Y-60138302D01*
X91963000Y-61042297D01*
X91901993Y-61007075D01*
X91774826Y-60973000D01*
X91643174Y-60973000D01*
X91516007Y-61007075D01*
X91455000Y-61042297D01*
X91455000Y-60138302D01*
X91390995Y-60148440D01*
X91187713Y-60214490D01*
X91187707Y-60214493D01*
X90997249Y-60311536D01*
X90824320Y-60437177D01*
X90673177Y-60588320D01*
X90547532Y-60761255D01*
X90546724Y-60762574D01*
X90546286Y-60762969D01*
X90544624Y-60765258D01*
X90544143Y-60764908D01*
X90494075Y-60810203D01*
X90424033Y-60821807D01*
X90358836Y-60793702D01*
X90333901Y-60764924D01*
X90333804Y-60764996D01*
X90332975Y-60763855D01*
X90331859Y-60762567D01*
X90330899Y-60761001D01*
X90330894Y-60760991D01*
X90205206Y-60587996D01*
X90205203Y-60587993D01*
X90205201Y-60587990D01*
X90054009Y-60436798D01*
X90054006Y-60436796D01*
X90054004Y-60436794D01*
X89881009Y-60311106D01*
X89690483Y-60214028D01*
X89690480Y-60214027D01*
X89690478Y-60214026D01*
X89487120Y-60147952D01*
X89487123Y-60147952D01*
X89426195Y-60138302D01*
X89275916Y-60114500D01*
X89062084Y-60114500D01*
X88850884Y-60147951D01*
X88850878Y-60147952D01*
X88647521Y-60214026D01*
X88647515Y-60214029D01*
X88456987Y-60311108D01*
X88283993Y-60436796D01*
X88283990Y-60436798D01*
X88132798Y-60587990D01*
X88132796Y-60587993D01*
X88007108Y-60760987D01*
X88006434Y-60762088D01*
X88006068Y-60762418D01*
X88004196Y-60764996D01*
X88003654Y-60764602D01*
X87953787Y-60809721D01*
X87883745Y-60821328D01*
X87818547Y-60793226D01*
X87793976Y-60764870D01*
X87793804Y-60764996D01*
X87792341Y-60762982D01*
X87791566Y-60762088D01*
X87790896Y-60760996D01*
X87790894Y-60760991D01*
X87665206Y-60587996D01*
X87665203Y-60587993D01*
X87665201Y-60587990D01*
X87514009Y-60436798D01*
X87514006Y-60436796D01*
X87514004Y-60436794D01*
X87341009Y-60311106D01*
X87150483Y-60214028D01*
X87150480Y-60214027D01*
X87150478Y-60214026D01*
X86947120Y-60147952D01*
X86947123Y-60147952D01*
X86886195Y-60138302D01*
X86735916Y-60114500D01*
X86522084Y-60114500D01*
X86310884Y-60147951D01*
X86310878Y-60147952D01*
X86107521Y-60214026D01*
X86107515Y-60214029D01*
X85916987Y-60311108D01*
X85743993Y-60436796D01*
X85743990Y-60436798D01*
X85592798Y-60587990D01*
X85592796Y-60587993D01*
X85467108Y-60760987D01*
X85466434Y-60762088D01*
X85466068Y-60762418D01*
X85464196Y-60764996D01*
X85463654Y-60764602D01*
X85413787Y-60809721D01*
X85343745Y-60821328D01*
X85278547Y-60793226D01*
X85253976Y-60764870D01*
X85253804Y-60764996D01*
X85252341Y-60762982D01*
X85251566Y-60762088D01*
X85250896Y-60760996D01*
X85250894Y-60760991D01*
X85125206Y-60587996D01*
X85125203Y-60587993D01*
X85125201Y-60587990D01*
X84974009Y-60436798D01*
X84974006Y-60436796D01*
X84974004Y-60436794D01*
X84801009Y-60311106D01*
X84610483Y-60214028D01*
X84610480Y-60214027D01*
X84610478Y-60214026D01*
X84407120Y-60147952D01*
X84407123Y-60147952D01*
X84346195Y-60138302D01*
X84195916Y-60114500D01*
X83982084Y-60114500D01*
X83770884Y-60147951D01*
X83770878Y-60147952D01*
X83567521Y-60214026D01*
X83567515Y-60214029D01*
X83376987Y-60311108D01*
X83203993Y-60436796D01*
X83203990Y-60436798D01*
X83052798Y-60587990D01*
X83052796Y-60587993D01*
X82927108Y-60760987D01*
X82926434Y-60762088D01*
X82926068Y-60762418D01*
X82924196Y-60764996D01*
X82923654Y-60764602D01*
X82873787Y-60809721D01*
X82803745Y-60821328D01*
X82738547Y-60793226D01*
X82713976Y-60764870D01*
X82713804Y-60764996D01*
X82712341Y-60762982D01*
X82711566Y-60762088D01*
X82710896Y-60760996D01*
X82710894Y-60760991D01*
X82585206Y-60587996D01*
X82585203Y-60587993D01*
X82585201Y-60587990D01*
X82434009Y-60436798D01*
X82434006Y-60436796D01*
X82434004Y-60436794D01*
X82261009Y-60311106D01*
X82070483Y-60214028D01*
X82070480Y-60214027D01*
X82070478Y-60214026D01*
X81867120Y-60147952D01*
X81867123Y-60147952D01*
X81806195Y-60138302D01*
X81655916Y-60114500D01*
X81442084Y-60114500D01*
X81230884Y-60147951D01*
X81230878Y-60147952D01*
X81027521Y-60214026D01*
X81027515Y-60214029D01*
X80836987Y-60311108D01*
X80663993Y-60436796D01*
X80663990Y-60436798D01*
X80512798Y-60587990D01*
X80512796Y-60587993D01*
X80387108Y-60760987D01*
X80290029Y-60951515D01*
X80290026Y-60951521D01*
X80223952Y-61154878D01*
X80223951Y-61154883D01*
X80223951Y-61154884D01*
X80190500Y-61366084D01*
X73025000Y-61366084D01*
X73025000Y-47563070D01*
X75075500Y-47563070D01*
X75075500Y-47818930D01*
X75115526Y-48071639D01*
X75194590Y-48314975D01*
X75310748Y-48542947D01*
X75461138Y-48749942D01*
X75461140Y-48749944D01*
X75461142Y-48749947D01*
X75642052Y-48930857D01*
X75642055Y-48930859D01*
X75642058Y-48930862D01*
X75849053Y-49081252D01*
X76077025Y-49197410D01*
X76320361Y-49276474D01*
X76573070Y-49316500D01*
X76573073Y-49316500D01*
X76828927Y-49316500D01*
X76828930Y-49316500D01*
X77081639Y-49276474D01*
X77324975Y-49197410D01*
X77552947Y-49081252D01*
X77759942Y-48930862D01*
X77940862Y-48749942D01*
X78091252Y-48542947D01*
X78207410Y-48314975D01*
X78286474Y-48071639D01*
X78326500Y-47818930D01*
X78326500Y-47563070D01*
X78286474Y-47310361D01*
X78207410Y-47067025D01*
X78091252Y-46839053D01*
X77940862Y-46632058D01*
X77940859Y-46632055D01*
X77940857Y-46632052D01*
X77759947Y-46451142D01*
X77759944Y-46451140D01*
X77759942Y-46451138D01*
X77552947Y-46300748D01*
X77324975Y-46184590D01*
X77324972Y-46184589D01*
X77324970Y-46184588D01*
X77081643Y-46105527D01*
X77081641Y-46105526D01*
X77081639Y-46105526D01*
X76828930Y-46065500D01*
X76573070Y-46065500D01*
X76320361Y-46105526D01*
X76320359Y-46105526D01*
X76320356Y-46105527D01*
X76077029Y-46184588D01*
X76077023Y-46184591D01*
X75849049Y-46300750D01*
X75642055Y-46451140D01*
X75642052Y-46451142D01*
X75461142Y-46632052D01*
X75461140Y-46632055D01*
X75310750Y-46839049D01*
X75194591Y-47067023D01*
X75194588Y-47067029D01*
X75115527Y-47310356D01*
X75115526Y-47310359D01*
X75115526Y-47310361D01*
X75075500Y-47563070D01*
X73025000Y-47563070D01*
X73025000Y-39086052D01*
X137922000Y-39086052D01*
X137922000Y-39285947D01*
X137953273Y-39483397D01*
X138015043Y-39673506D01*
X138015046Y-39673512D01*
X138105799Y-39851624D01*
X138131622Y-39887166D01*
X138707841Y-39310947D01*
X138726075Y-39378993D01*
X138791901Y-39493007D01*
X138884993Y-39586099D01*
X138999007Y-39651925D01*
X139067051Y-39670157D01*
X138490831Y-40246377D01*
X138526373Y-40272199D01*
X138704487Y-40362953D01*
X138704493Y-40362956D01*
X138894604Y-40424726D01*
X138894600Y-40424726D01*
X139092052Y-40456000D01*
X139291948Y-40456000D01*
X139489397Y-40424726D01*
X139679506Y-40362956D01*
X139679512Y-40362953D01*
X139857626Y-40272200D01*
X139893166Y-40246377D01*
X139316947Y-39670158D01*
X139384993Y-39651925D01*
X139499007Y-39586099D01*
X139592099Y-39493007D01*
X139657925Y-39378993D01*
X139676158Y-39310947D01*
X140252377Y-39887166D01*
X140278201Y-39851624D01*
X140278202Y-39851622D01*
X140349452Y-39711787D01*
X140398200Y-39660171D01*
X140467115Y-39643105D01*
X140534316Y-39666005D01*
X140573984Y-39711784D01*
X140645371Y-39851887D01*
X140762917Y-40013675D01*
X140762919Y-40013677D01*
X140762921Y-40013680D01*
X140904319Y-40155078D01*
X140904322Y-40155080D01*
X140904325Y-40155083D01*
X140981195Y-40210932D01*
X141066109Y-40272627D01*
X141066113Y-40272629D01*
X141244297Y-40363419D01*
X141434484Y-40425214D01*
X141434485Y-40425214D01*
X141434490Y-40425216D01*
X141632009Y-40456500D01*
X141632012Y-40456500D01*
X141831988Y-40456500D01*
X141831991Y-40456500D01*
X142029510Y-40425216D01*
X142219703Y-40363419D01*
X142397887Y-40272629D01*
X142398478Y-40272200D01*
X142414722Y-40260397D01*
X142559675Y-40155083D01*
X142701083Y-40013675D01*
X142818629Y-39851887D01*
X142909419Y-39673703D01*
X142971216Y-39483510D01*
X143002500Y-39285991D01*
X143002500Y-39086009D01*
X150621500Y-39086009D01*
X150621500Y-39285991D01*
X150642066Y-39415839D01*
X150652785Y-39483515D01*
X150714517Y-39673506D01*
X150714581Y-39673703D01*
X150733986Y-39711787D01*
X150805372Y-39851890D01*
X150885683Y-39962428D01*
X150922917Y-40013675D01*
X150922919Y-40013677D01*
X150922921Y-40013680D01*
X151064319Y-40155078D01*
X151064322Y-40155080D01*
X151064325Y-40155083D01*
X151141195Y-40210932D01*
X151226109Y-40272627D01*
X151226113Y-40272629D01*
X151404297Y-40363419D01*
X151594484Y-40425214D01*
X151594485Y-40425214D01*
X151594490Y-40425216D01*
X151792009Y-40456500D01*
X151792012Y-40456500D01*
X151991988Y-40456500D01*
X151991991Y-40456500D01*
X152189510Y-40425216D01*
X152379703Y-40363419D01*
X152557887Y-40272629D01*
X152558478Y-40272200D01*
X152574722Y-40260397D01*
X152719675Y-40155083D01*
X152861083Y-40013675D01*
X152978629Y-39851887D01*
X153069419Y-39673703D01*
X153131216Y-39483510D01*
X153162500Y-39285991D01*
X153162500Y-39086009D01*
X153131216Y-38888490D01*
X153069419Y-38698297D01*
X152978763Y-38520376D01*
X152978627Y-38520109D01*
X152916932Y-38435195D01*
X152861083Y-38358325D01*
X152861080Y-38358322D01*
X152861078Y-38358319D01*
X152719680Y-38216921D01*
X152719677Y-38216919D01*
X152719675Y-38216917D01*
X152668428Y-38179683D01*
X152557890Y-38099372D01*
X152465464Y-38052279D01*
X152379703Y-38008581D01*
X152379700Y-38008580D01*
X152379698Y-38008579D01*
X152189513Y-37946785D01*
X152189517Y-37946785D01*
X152152743Y-37940960D01*
X151991991Y-37915500D01*
X151792009Y-37915500D01*
X151594490Y-37946784D01*
X151594484Y-37946785D01*
X151404301Y-38008579D01*
X151404295Y-38008582D01*
X151226109Y-38099372D01*
X151064322Y-38216919D01*
X151064319Y-38216921D01*
X150922921Y-38358319D01*
X150922919Y-38358322D01*
X150805372Y-38520109D01*
X150714582Y-38698295D01*
X150714579Y-38698301D01*
X150652785Y-38888484D01*
X150652784Y-38888489D01*
X150652784Y-38888490D01*
X150621500Y-39086009D01*
X143002500Y-39086009D01*
X142971216Y-38888490D01*
X142909419Y-38698297D01*
X142818763Y-38520376D01*
X142818627Y-38520109D01*
X142756932Y-38435195D01*
X142701083Y-38358325D01*
X142701080Y-38358322D01*
X142701078Y-38358319D01*
X142559680Y-38216921D01*
X142559677Y-38216919D01*
X142559675Y-38216917D01*
X142508428Y-38179683D01*
X142397890Y-38099372D01*
X142305464Y-38052279D01*
X142219703Y-38008581D01*
X142219700Y-38008580D01*
X142219698Y-38008579D01*
X142029513Y-37946785D01*
X142029517Y-37946785D01*
X141992743Y-37940960D01*
X141831991Y-37915500D01*
X141632009Y-37915500D01*
X141434490Y-37946784D01*
X141434484Y-37946785D01*
X141244301Y-38008579D01*
X141244295Y-38008582D01*
X141066109Y-38099372D01*
X140904322Y-38216919D01*
X140904319Y-38216921D01*
X140762921Y-38358319D01*
X140762919Y-38358322D01*
X140645372Y-38520110D01*
X140573986Y-38660213D01*
X140525237Y-38711828D01*
X140456322Y-38728894D01*
X140389121Y-38705993D01*
X140349452Y-38660213D01*
X140278199Y-38520373D01*
X140252377Y-38484831D01*
X139676157Y-39061051D01*
X139657925Y-38993007D01*
X139592099Y-38878993D01*
X139499007Y-38785901D01*
X139384993Y-38720075D01*
X139316947Y-38701841D01*
X139893166Y-38125622D01*
X139857624Y-38099799D01*
X139679512Y-38009046D01*
X139679506Y-38009043D01*
X139489395Y-37947273D01*
X139489399Y-37947273D01*
X139291948Y-37916000D01*
X139092052Y-37916000D01*
X138894602Y-37947273D01*
X138704493Y-38009043D01*
X138704487Y-38009046D01*
X138526376Y-38099798D01*
X138526375Y-38099799D01*
X138490832Y-38125622D01*
X138490832Y-38125623D01*
X139067051Y-38701842D01*
X138999007Y-38720075D01*
X138884993Y-38785901D01*
X138791901Y-38878993D01*
X138726075Y-38993007D01*
X138707842Y-39061051D01*
X138131623Y-38484832D01*
X138131622Y-38484832D01*
X138105799Y-38520375D01*
X138105798Y-38520376D01*
X138015046Y-38698487D01*
X138015043Y-38698493D01*
X137953273Y-38888602D01*
X137922000Y-39086052D01*
X73025000Y-39086052D01*
X73025000Y-35559000D01*
X73045002Y-35490879D01*
X73098658Y-35444386D01*
X73151000Y-35433000D01*
X162307000Y-35433000D01*
X162375121Y-35453002D01*
G37*
%TD.AperFunction*%
%TD*%
M02*
