%TF.GenerationSoftware,KiCad,Pcbnew,6.0.11+dfsg-1*%
%TF.CreationDate,2026-01-26T15:46:45-06:00*%
%TF.ProjectId,HestiaPiOneUniversal,48657374-6961-4506-994f-6e65556e6976,rev?*%
%TF.SameCoordinates,Original*%
%TF.FileFunction,Legend,Bot*%
%TF.FilePolarity,Positive*%
%FSLAX46Y46*%
G04 Gerber Fmt 4.6, Leading zero omitted, Abs format (unit mm)*
G04 Created by KiCad (PCBNEW 6.0.11+dfsg-1) date 2026-01-26 15:46:45*
%MOMM*%
%LPD*%
G01*
G04 APERTURE LIST*
%ADD10C,0.150000*%
G04 APERTURE END LIST*
D10*
X161599571Y-67596047D02*
X161647190Y-67738904D01*
X161694809Y-67786523D01*
X161790047Y-67834142D01*
X161932904Y-67834142D01*
X162028142Y-67786523D01*
X162075761Y-67738904D01*
X162123380Y-67643666D01*
X162123380Y-67262714D01*
X161123380Y-67262714D01*
X161123380Y-67596047D01*
X161171000Y-67691285D01*
X161218619Y-67738904D01*
X161313857Y-67786523D01*
X161409095Y-67786523D01*
X161504333Y-67738904D01*
X161551952Y-67691285D01*
X161599571Y-67596047D01*
X161599571Y-67262714D01*
X162123380Y-68262714D02*
X161123380Y-68262714D01*
X161837666Y-68596047D01*
X161123380Y-68929380D01*
X162123380Y-68929380D01*
X161599571Y-69405571D02*
X161599571Y-69738904D01*
X162123380Y-69881761D02*
X162123380Y-69405571D01*
X161123380Y-69405571D01*
X161123380Y-69881761D01*
X161218619Y-70262714D02*
X161171000Y-70310333D01*
X161123380Y-70405571D01*
X161123380Y-70643666D01*
X161171000Y-70738904D01*
X161218619Y-70786523D01*
X161313857Y-70834142D01*
X161409095Y-70834142D01*
X161551952Y-70786523D01*
X162123380Y-70215095D01*
X162123380Y-70834142D01*
X161551952Y-71405571D02*
X161504333Y-71310333D01*
X161456714Y-71262714D01*
X161361476Y-71215095D01*
X161313857Y-71215095D01*
X161218619Y-71262714D01*
X161171000Y-71310333D01*
X161123380Y-71405571D01*
X161123380Y-71596047D01*
X161171000Y-71691285D01*
X161218619Y-71738904D01*
X161313857Y-71786523D01*
X161361476Y-71786523D01*
X161456714Y-71738904D01*
X161504333Y-71691285D01*
X161551952Y-71596047D01*
X161551952Y-71405571D01*
X161599571Y-71310333D01*
X161647190Y-71262714D01*
X161742428Y-71215095D01*
X161932904Y-71215095D01*
X162028142Y-71262714D01*
X162075761Y-71310333D01*
X162123380Y-71405571D01*
X162123380Y-71596047D01*
X162075761Y-71691285D01*
X162028142Y-71738904D01*
X161932904Y-71786523D01*
X161742428Y-71786523D01*
X161647190Y-71738904D01*
X161599571Y-71691285D01*
X161551952Y-71596047D01*
X161123380Y-72405571D02*
X161123380Y-72500809D01*
X161171000Y-72596047D01*
X161218619Y-72643666D01*
X161313857Y-72691285D01*
X161504333Y-72738904D01*
X161742428Y-72738904D01*
X161932904Y-72691285D01*
X162028142Y-72643666D01*
X162075761Y-72596047D01*
X162123380Y-72500809D01*
X162123380Y-72405571D01*
X162075761Y-72310333D01*
X162028142Y-72262714D01*
X161932904Y-72215095D01*
X161742428Y-72167476D01*
X161504333Y-72167476D01*
X161313857Y-72215095D01*
X161218619Y-72262714D01*
X161171000Y-72310333D01*
X161123380Y-72405571D01*
X123990476Y-45412380D02*
X123990476Y-44412380D01*
X123990476Y-44888571D02*
X123419047Y-44888571D01*
X123419047Y-45412380D02*
X123419047Y-44412380D01*
X123085714Y-44412380D02*
X122752380Y-45412380D01*
X122419047Y-44412380D01*
X122133333Y-45126666D02*
X121657142Y-45126666D01*
X122228571Y-45412380D02*
X121895238Y-44412380D01*
X121561904Y-45412380D01*
X120657142Y-45317142D02*
X120704761Y-45364761D01*
X120847619Y-45412380D01*
X120942857Y-45412380D01*
X121085714Y-45364761D01*
X121180952Y-45269523D01*
X121228571Y-45174285D01*
X121276190Y-44983809D01*
X121276190Y-44840952D01*
X121228571Y-44650476D01*
X121180952Y-44555238D01*
X121085714Y-44460000D01*
X120942857Y-44412380D01*
X120847619Y-44412380D01*
X120704761Y-44460000D01*
X120657142Y-44507619D01*
X119466666Y-45412380D02*
X119466666Y-44412380D01*
X119133333Y-45126666D01*
X118800000Y-44412380D01*
X118800000Y-45412380D01*
X118180952Y-45412380D02*
X118276190Y-45364761D01*
X118323809Y-45317142D01*
X118371428Y-45221904D01*
X118371428Y-44936190D01*
X118323809Y-44840952D01*
X118276190Y-44793333D01*
X118180952Y-44745714D01*
X118038095Y-44745714D01*
X117942857Y-44793333D01*
X117895238Y-44840952D01*
X117847619Y-44936190D01*
X117847619Y-45221904D01*
X117895238Y-45317142D01*
X117942857Y-45364761D01*
X118038095Y-45412380D01*
X118180952Y-45412380D01*
X116990476Y-45412380D02*
X116990476Y-44412380D01*
X116990476Y-45364761D02*
X117085714Y-45412380D01*
X117276190Y-45412380D01*
X117371428Y-45364761D01*
X117419047Y-45317142D01*
X117466666Y-45221904D01*
X117466666Y-44936190D01*
X117419047Y-44840952D01*
X117371428Y-44793333D01*
X117276190Y-44745714D01*
X117085714Y-44745714D01*
X116990476Y-44793333D01*
X116133333Y-45364761D02*
X116228571Y-45412380D01*
X116419047Y-45412380D01*
X116514285Y-45364761D01*
X116561904Y-45269523D01*
X116561904Y-44888571D01*
X116514285Y-44793333D01*
X116419047Y-44745714D01*
X116228571Y-44745714D01*
X116133333Y-44793333D01*
X116085714Y-44888571D01*
X116085714Y-44983809D01*
X116561904Y-45079047D01*
X115514285Y-45412380D02*
X115609523Y-45364761D01*
X115657142Y-45269523D01*
X115657142Y-44412380D01*
X125252380Y-48537142D02*
X125300000Y-48584761D01*
X125442857Y-48632380D01*
X125538095Y-48632380D01*
X125680952Y-48584761D01*
X125776190Y-48489523D01*
X125823809Y-48394285D01*
X125871428Y-48203809D01*
X125871428Y-48060952D01*
X125823809Y-47870476D01*
X125776190Y-47775238D01*
X125680952Y-47680000D01*
X125538095Y-47632380D01*
X125442857Y-47632380D01*
X125300000Y-47680000D01*
X125252380Y-47727619D01*
X123776190Y-49013333D02*
X123823809Y-48965714D01*
X123919047Y-48822857D01*
X123966666Y-48727619D01*
X124014285Y-48584761D01*
X124061904Y-48346666D01*
X124061904Y-48156190D01*
X124014285Y-47918095D01*
X123966666Y-47775238D01*
X123919047Y-47680000D01*
X123823809Y-47537142D01*
X123776190Y-47489523D01*
X123061904Y-48108571D02*
X122919047Y-48156190D01*
X122871428Y-48203809D01*
X122823809Y-48299047D01*
X122823809Y-48441904D01*
X122871428Y-48537142D01*
X122919047Y-48584761D01*
X123014285Y-48632380D01*
X123395238Y-48632380D01*
X123395238Y-47632380D01*
X123061904Y-47632380D01*
X122966666Y-47680000D01*
X122919047Y-47727619D01*
X122871428Y-47822857D01*
X122871428Y-47918095D01*
X122919047Y-48013333D01*
X122966666Y-48060952D01*
X123061904Y-48108571D01*
X123395238Y-48108571D01*
X121919047Y-48632380D02*
X122395238Y-48632380D01*
X122395238Y-47632380D01*
X121680952Y-49013333D02*
X121633333Y-48965714D01*
X121538095Y-48822857D01*
X121490476Y-48727619D01*
X121442857Y-48584761D01*
X121395238Y-48346666D01*
X121395238Y-48156190D01*
X121442857Y-47918095D01*
X121490476Y-47775238D01*
X121538095Y-47680000D01*
X121633333Y-47537142D01*
X121680952Y-47489523D01*
X120919047Y-48537142D02*
X120871428Y-48584761D01*
X120919047Y-48632380D01*
X120966666Y-48584761D01*
X120919047Y-48537142D01*
X120919047Y-48632380D01*
X120919047Y-48013333D02*
X120871428Y-48060952D01*
X120919047Y-48108571D01*
X120966666Y-48060952D01*
X120919047Y-48013333D01*
X120919047Y-48108571D01*
X119109523Y-48537142D02*
X119157142Y-48584761D01*
X119300000Y-48632380D01*
X119395238Y-48632380D01*
X119538095Y-48584761D01*
X119633333Y-48489523D01*
X119680952Y-48394285D01*
X119728571Y-48203809D01*
X119728571Y-48060952D01*
X119680952Y-47870476D01*
X119633333Y-47775238D01*
X119538095Y-47680000D01*
X119395238Y-47632380D01*
X119300000Y-47632380D01*
X119157142Y-47680000D01*
X119109523Y-47727619D01*
X118538095Y-48632380D02*
X118633333Y-48584761D01*
X118680952Y-48537142D01*
X118728571Y-48441904D01*
X118728571Y-48156190D01*
X118680952Y-48060952D01*
X118633333Y-48013333D01*
X118538095Y-47965714D01*
X118395238Y-47965714D01*
X118300000Y-48013333D01*
X118252380Y-48060952D01*
X118204761Y-48156190D01*
X118204761Y-48441904D01*
X118252380Y-48537142D01*
X118300000Y-48584761D01*
X118395238Y-48632380D01*
X118538095Y-48632380D01*
X117776190Y-48632380D02*
X117776190Y-47965714D01*
X117776190Y-48060952D02*
X117728571Y-48013333D01*
X117633333Y-47965714D01*
X117490476Y-47965714D01*
X117395238Y-48013333D01*
X117347619Y-48108571D01*
X117347619Y-48632380D01*
X117347619Y-48108571D02*
X117300000Y-48013333D01*
X117204761Y-47965714D01*
X117061904Y-47965714D01*
X116966666Y-48013333D01*
X116919047Y-48108571D01*
X116919047Y-48632380D01*
X116442857Y-48632380D02*
X116442857Y-47965714D01*
X116442857Y-48060952D02*
X116395238Y-48013333D01*
X116300000Y-47965714D01*
X116157142Y-47965714D01*
X116061904Y-48013333D01*
X116014285Y-48108571D01*
X116014285Y-48632380D01*
X116014285Y-48108571D02*
X115966666Y-48013333D01*
X115871428Y-47965714D01*
X115728571Y-47965714D01*
X115633333Y-48013333D01*
X115585714Y-48108571D01*
X115585714Y-48632380D01*
X114966666Y-48632380D02*
X115061904Y-48584761D01*
X115109523Y-48537142D01*
X115157142Y-48441904D01*
X115157142Y-48156190D01*
X115109523Y-48060952D01*
X115061904Y-48013333D01*
X114966666Y-47965714D01*
X114823809Y-47965714D01*
X114728571Y-48013333D01*
X114680952Y-48060952D01*
X114633333Y-48156190D01*
X114633333Y-48441904D01*
X114680952Y-48537142D01*
X114728571Y-48584761D01*
X114823809Y-48632380D01*
X114966666Y-48632380D01*
X114204761Y-47965714D02*
X114204761Y-48632380D01*
X114204761Y-48060952D02*
X114157142Y-48013333D01*
X114061904Y-47965714D01*
X113919047Y-47965714D01*
X113823809Y-48013333D01*
X113776190Y-48108571D01*
X113776190Y-48632380D01*
X125300000Y-50242380D02*
X125633333Y-49766190D01*
X125871428Y-50242380D02*
X125871428Y-49242380D01*
X125490476Y-49242380D01*
X125395238Y-49290000D01*
X125347619Y-49337619D01*
X125300000Y-49432857D01*
X125300000Y-49575714D01*
X125347619Y-49670952D01*
X125395238Y-49718571D01*
X125490476Y-49766190D01*
X125871428Y-49766190D01*
X123823809Y-50623333D02*
X123871428Y-50575714D01*
X123966666Y-50432857D01*
X124014285Y-50337619D01*
X124061904Y-50194761D01*
X124109523Y-49956666D01*
X124109523Y-49766190D01*
X124061904Y-49528095D01*
X124014285Y-49385238D01*
X123966666Y-49290000D01*
X123871428Y-49147142D01*
X123823809Y-49099523D01*
X122871428Y-50242380D02*
X123204761Y-49766190D01*
X123442857Y-50242380D02*
X123442857Y-49242380D01*
X123061904Y-49242380D01*
X122966666Y-49290000D01*
X122919047Y-49337619D01*
X122871428Y-49432857D01*
X122871428Y-49575714D01*
X122919047Y-49670952D01*
X122966666Y-49718571D01*
X123061904Y-49766190D01*
X123442857Y-49766190D01*
X122442857Y-49718571D02*
X122109523Y-49718571D01*
X121966666Y-50242380D02*
X122442857Y-50242380D01*
X122442857Y-49242380D01*
X121966666Y-49242380D01*
X121538095Y-50242380D02*
X121538095Y-49242380D01*
X121300000Y-49242380D01*
X121157142Y-49290000D01*
X121061904Y-49385238D01*
X121014285Y-49480476D01*
X120966666Y-49670952D01*
X120966666Y-49813809D01*
X121014285Y-50004285D01*
X121061904Y-50099523D01*
X121157142Y-50194761D01*
X121300000Y-50242380D01*
X121538095Y-50242380D01*
X120633333Y-50623333D02*
X120585714Y-50575714D01*
X120490476Y-50432857D01*
X120442857Y-50337619D01*
X120395238Y-50194761D01*
X120347619Y-49956666D01*
X120347619Y-49766190D01*
X120395238Y-49528095D01*
X120442857Y-49385238D01*
X120490476Y-49290000D01*
X120585714Y-49147142D01*
X120633333Y-49099523D01*
X119871428Y-50147142D02*
X119823809Y-50194761D01*
X119871428Y-50242380D01*
X119919047Y-50194761D01*
X119871428Y-50147142D01*
X119871428Y-50242380D01*
X119871428Y-49623333D02*
X119823809Y-49670952D01*
X119871428Y-49718571D01*
X119919047Y-49670952D01*
X119871428Y-49623333D01*
X119871428Y-49718571D01*
X118680952Y-49337619D02*
X118633333Y-49290000D01*
X118538095Y-49242380D01*
X118300000Y-49242380D01*
X118204761Y-49290000D01*
X118157142Y-49337619D01*
X118109523Y-49432857D01*
X118109523Y-49528095D01*
X118157142Y-49670952D01*
X118728571Y-50242380D01*
X118109523Y-50242380D01*
X117252380Y-49575714D02*
X117252380Y-50242380D01*
X117490476Y-49194761D02*
X117728571Y-49909047D01*
X117109523Y-49909047D01*
X116871428Y-49242380D02*
X116538095Y-50242380D01*
X116204761Y-49242380D01*
X115157142Y-49956666D02*
X114680952Y-49956666D01*
X115252380Y-50242380D02*
X114919047Y-49242380D01*
X114585714Y-50242380D01*
X113680952Y-50147142D02*
X113728571Y-50194761D01*
X113871428Y-50242380D01*
X113966666Y-50242380D01*
X114109523Y-50194761D01*
X114204761Y-50099523D01*
X114252380Y-50004285D01*
X114300000Y-49813809D01*
X114300000Y-49670952D01*
X114252380Y-49480476D01*
X114204761Y-49385238D01*
X114109523Y-49290000D01*
X113966666Y-49242380D01*
X113871428Y-49242380D01*
X113728571Y-49290000D01*
X113680952Y-49337619D01*
X126895238Y-50852380D02*
X126657142Y-51852380D01*
X126466666Y-51138095D01*
X126276190Y-51852380D01*
X126038095Y-50852380D01*
X124609523Y-52233333D02*
X124657142Y-52185714D01*
X124752380Y-52042857D01*
X124800000Y-51947619D01*
X124847619Y-51804761D01*
X124895238Y-51566666D01*
X124895238Y-51376190D01*
X124847619Y-51138095D01*
X124800000Y-50995238D01*
X124752380Y-50900000D01*
X124657142Y-50757142D01*
X124609523Y-50709523D01*
X124323809Y-50852380D02*
X124085714Y-51852380D01*
X123895238Y-51138095D01*
X123704761Y-51852380D01*
X123466666Y-50852380D01*
X123085714Y-51852380D02*
X123085714Y-50852380D01*
X123085714Y-51328571D02*
X122514285Y-51328571D01*
X122514285Y-51852380D02*
X122514285Y-50852380D01*
X122038095Y-51852380D02*
X122038095Y-50852380D01*
X121704761Y-50852380D02*
X121133333Y-50852380D01*
X121419047Y-51852380D02*
X121419047Y-50852380D01*
X120800000Y-51328571D02*
X120466666Y-51328571D01*
X120323809Y-51852380D02*
X120800000Y-51852380D01*
X120800000Y-50852380D01*
X120323809Y-50852380D01*
X119990476Y-52233333D02*
X119942857Y-52185714D01*
X119847619Y-52042857D01*
X119800000Y-51947619D01*
X119752380Y-51804761D01*
X119704761Y-51566666D01*
X119704761Y-51376190D01*
X119752380Y-51138095D01*
X119800000Y-50995238D01*
X119847619Y-50900000D01*
X119942857Y-50757142D01*
X119990476Y-50709523D01*
X119228571Y-51757142D02*
X119180952Y-51804761D01*
X119228571Y-51852380D01*
X119276190Y-51804761D01*
X119228571Y-51757142D01*
X119228571Y-51852380D01*
X119228571Y-51233333D02*
X119180952Y-51280952D01*
X119228571Y-51328571D01*
X119276190Y-51280952D01*
X119228571Y-51233333D01*
X119228571Y-51328571D01*
X117990476Y-51852380D02*
X117990476Y-50852380D01*
X117990476Y-51328571D02*
X117419047Y-51328571D01*
X117419047Y-51852380D02*
X117419047Y-50852380D01*
X116561904Y-51804761D02*
X116657142Y-51852380D01*
X116847619Y-51852380D01*
X116942857Y-51804761D01*
X116990476Y-51709523D01*
X116990476Y-51328571D01*
X116942857Y-51233333D01*
X116847619Y-51185714D01*
X116657142Y-51185714D01*
X116561904Y-51233333D01*
X116514285Y-51328571D01*
X116514285Y-51423809D01*
X116990476Y-51519047D01*
X115657142Y-51852380D02*
X115657142Y-51328571D01*
X115704761Y-51233333D01*
X115800000Y-51185714D01*
X115990476Y-51185714D01*
X116085714Y-51233333D01*
X115657142Y-51804761D02*
X115752380Y-51852380D01*
X115990476Y-51852380D01*
X116085714Y-51804761D01*
X116133333Y-51709523D01*
X116133333Y-51614285D01*
X116085714Y-51519047D01*
X115990476Y-51471428D01*
X115752380Y-51471428D01*
X115657142Y-51423809D01*
X115323809Y-51185714D02*
X114942857Y-51185714D01*
X115180952Y-50852380D02*
X115180952Y-51709523D01*
X115133333Y-51804761D01*
X115038095Y-51852380D01*
X114942857Y-51852380D01*
X114609523Y-51852380D02*
X114609523Y-51185714D01*
X114609523Y-50852380D02*
X114657142Y-50900000D01*
X114609523Y-50947619D01*
X114561904Y-50900000D01*
X114609523Y-50852380D01*
X114609523Y-50947619D01*
X114133333Y-51185714D02*
X114133333Y-51852380D01*
X114133333Y-51280952D02*
X114085714Y-51233333D01*
X113990476Y-51185714D01*
X113847619Y-51185714D01*
X113752380Y-51233333D01*
X113704761Y-51328571D01*
X113704761Y-51852380D01*
X112800000Y-51185714D02*
X112800000Y-51995238D01*
X112847619Y-52090476D01*
X112895238Y-52138095D01*
X112990476Y-52185714D01*
X113133333Y-52185714D01*
X113228571Y-52138095D01*
X112800000Y-51804761D02*
X112895238Y-51852380D01*
X113085714Y-51852380D01*
X113180952Y-51804761D01*
X113228571Y-51757142D01*
X113276190Y-51661904D01*
X113276190Y-51376190D01*
X113228571Y-51280952D01*
X113180952Y-51233333D01*
X113085714Y-51185714D01*
X112895238Y-51185714D01*
X112800000Y-51233333D01*
X127061904Y-52986190D02*
X127061904Y-53462380D01*
X127395238Y-52462380D02*
X127061904Y-52986190D01*
X126728571Y-52462380D01*
X125347619Y-53843333D02*
X125395238Y-53795714D01*
X125490476Y-53652857D01*
X125538095Y-53557619D01*
X125585714Y-53414761D01*
X125633333Y-53176666D01*
X125633333Y-52986190D01*
X125585714Y-52748095D01*
X125538095Y-52605238D01*
X125490476Y-52510000D01*
X125395238Y-52367142D01*
X125347619Y-52319523D01*
X124776190Y-52986190D02*
X124776190Y-53462380D01*
X125109523Y-52462380D02*
X124776190Y-52986190D01*
X124442857Y-52462380D01*
X124109523Y-52938571D02*
X123776190Y-52938571D01*
X123633333Y-53462380D02*
X124109523Y-53462380D01*
X124109523Y-52462380D01*
X123633333Y-52462380D01*
X122728571Y-53462380D02*
X123204761Y-53462380D01*
X123204761Y-52462380D01*
X121919047Y-53462380D02*
X122395238Y-53462380D01*
X122395238Y-52462380D01*
X121395238Y-52462380D02*
X121204761Y-52462380D01*
X121109523Y-52510000D01*
X121014285Y-52605238D01*
X120966666Y-52795714D01*
X120966666Y-53129047D01*
X121014285Y-53319523D01*
X121109523Y-53414761D01*
X121204761Y-53462380D01*
X121395238Y-53462380D01*
X121490476Y-53414761D01*
X121585714Y-53319523D01*
X121633333Y-53129047D01*
X121633333Y-52795714D01*
X121585714Y-52605238D01*
X121490476Y-52510000D01*
X121395238Y-52462380D01*
X120633333Y-52462380D02*
X120395238Y-53462380D01*
X120204761Y-52748095D01*
X120014285Y-53462380D01*
X119776190Y-52462380D01*
X119490476Y-53843333D02*
X119442857Y-53795714D01*
X119347619Y-53652857D01*
X119300000Y-53557619D01*
X119252380Y-53414761D01*
X119204761Y-53176666D01*
X119204761Y-52986190D01*
X119252380Y-52748095D01*
X119300000Y-52605238D01*
X119347619Y-52510000D01*
X119442857Y-52367142D01*
X119490476Y-52319523D01*
X118728571Y-53367142D02*
X118680952Y-53414761D01*
X118728571Y-53462380D01*
X118776190Y-53414761D01*
X118728571Y-53367142D01*
X118728571Y-53462380D01*
X118728571Y-52843333D02*
X118680952Y-52890952D01*
X118728571Y-52938571D01*
X118776190Y-52890952D01*
X118728571Y-52843333D01*
X118728571Y-52938571D01*
X116919047Y-53367142D02*
X116966666Y-53414761D01*
X117109523Y-53462380D01*
X117204761Y-53462380D01*
X117347619Y-53414761D01*
X117442857Y-53319523D01*
X117490476Y-53224285D01*
X117538095Y-53033809D01*
X117538095Y-52890952D01*
X117490476Y-52700476D01*
X117442857Y-52605238D01*
X117347619Y-52510000D01*
X117204761Y-52462380D01*
X117109523Y-52462380D01*
X116966666Y-52510000D01*
X116919047Y-52557619D01*
X116347619Y-53462380D02*
X116442857Y-53414761D01*
X116490476Y-53367142D01*
X116538095Y-53271904D01*
X116538095Y-52986190D01*
X116490476Y-52890952D01*
X116442857Y-52843333D01*
X116347619Y-52795714D01*
X116204761Y-52795714D01*
X116109523Y-52843333D01*
X116061904Y-52890952D01*
X116014285Y-52986190D01*
X116014285Y-53271904D01*
X116061904Y-53367142D01*
X116109523Y-53414761D01*
X116204761Y-53462380D01*
X116347619Y-53462380D01*
X115442857Y-53462380D02*
X115538095Y-53414761D01*
X115585714Y-53367142D01*
X115633333Y-53271904D01*
X115633333Y-52986190D01*
X115585714Y-52890952D01*
X115538095Y-52843333D01*
X115442857Y-52795714D01*
X115300000Y-52795714D01*
X115204761Y-52843333D01*
X115157142Y-52890952D01*
X115109523Y-52986190D01*
X115109523Y-53271904D01*
X115157142Y-53367142D01*
X115204761Y-53414761D01*
X115300000Y-53462380D01*
X115442857Y-53462380D01*
X114538095Y-53462380D02*
X114633333Y-53414761D01*
X114680952Y-53319523D01*
X114680952Y-52462380D01*
X114157142Y-53462380D02*
X114157142Y-52795714D01*
X114157142Y-52462380D02*
X114204761Y-52510000D01*
X114157142Y-52557619D01*
X114109523Y-52510000D01*
X114157142Y-52462380D01*
X114157142Y-52557619D01*
X113680952Y-52795714D02*
X113680952Y-53462380D01*
X113680952Y-52890952D02*
X113633333Y-52843333D01*
X113538095Y-52795714D01*
X113395238Y-52795714D01*
X113300000Y-52843333D01*
X113252380Y-52938571D01*
X113252380Y-53462380D01*
X112347619Y-52795714D02*
X112347619Y-53605238D01*
X112395238Y-53700476D01*
X112442857Y-53748095D01*
X112538095Y-53795714D01*
X112680952Y-53795714D01*
X112776190Y-53748095D01*
X112347619Y-53414761D02*
X112442857Y-53462380D01*
X112633333Y-53462380D01*
X112728571Y-53414761D01*
X112776190Y-53367142D01*
X112823809Y-53271904D01*
X112823809Y-52986190D01*
X112776190Y-52890952D01*
X112728571Y-52843333D01*
X112633333Y-52795714D01*
X112442857Y-52795714D01*
X112347619Y-52843333D01*
X124966666Y-54120000D02*
X125061904Y-54072380D01*
X125204761Y-54072380D01*
X125347619Y-54120000D01*
X125442857Y-54215238D01*
X125490476Y-54310476D01*
X125538095Y-54500952D01*
X125538095Y-54643809D01*
X125490476Y-54834285D01*
X125442857Y-54929523D01*
X125347619Y-55024761D01*
X125204761Y-55072380D01*
X125109523Y-55072380D01*
X124966666Y-55024761D01*
X124919047Y-54977142D01*
X124919047Y-54643809D01*
X125109523Y-54643809D01*
X123442857Y-55453333D02*
X123490476Y-55405714D01*
X123585714Y-55262857D01*
X123633333Y-55167619D01*
X123680952Y-55024761D01*
X123728571Y-54786666D01*
X123728571Y-54596190D01*
X123680952Y-54358095D01*
X123633333Y-54215238D01*
X123585714Y-54120000D01*
X123490476Y-53977142D01*
X123442857Y-53929523D01*
X122538095Y-54120000D02*
X122633333Y-54072380D01*
X122776190Y-54072380D01*
X122919047Y-54120000D01*
X123014285Y-54215238D01*
X123061904Y-54310476D01*
X123109523Y-54500952D01*
X123109523Y-54643809D01*
X123061904Y-54834285D01*
X123014285Y-54929523D01*
X122919047Y-55024761D01*
X122776190Y-55072380D01*
X122680952Y-55072380D01*
X122538095Y-55024761D01*
X122490476Y-54977142D01*
X122490476Y-54643809D01*
X122680952Y-54643809D01*
X121490476Y-55072380D02*
X121823809Y-54596190D01*
X122061904Y-55072380D02*
X122061904Y-54072380D01*
X121680952Y-54072380D01*
X121585714Y-54120000D01*
X121538095Y-54167619D01*
X121490476Y-54262857D01*
X121490476Y-54405714D01*
X121538095Y-54500952D01*
X121585714Y-54548571D01*
X121680952Y-54596190D01*
X122061904Y-54596190D01*
X121061904Y-54548571D02*
X120728571Y-54548571D01*
X120585714Y-55072380D02*
X121061904Y-55072380D01*
X121061904Y-54072380D01*
X120585714Y-54072380D01*
X120157142Y-54548571D02*
X119823809Y-54548571D01*
X119680952Y-55072380D02*
X120157142Y-55072380D01*
X120157142Y-54072380D01*
X119680952Y-54072380D01*
X119252380Y-55072380D02*
X119252380Y-54072380D01*
X118680952Y-55072380D01*
X118680952Y-54072380D01*
X118300000Y-55453333D02*
X118252380Y-55405714D01*
X118157142Y-55262857D01*
X118109523Y-55167619D01*
X118061904Y-55024761D01*
X118014285Y-54786666D01*
X118014285Y-54596190D01*
X118061904Y-54358095D01*
X118109523Y-54215238D01*
X118157142Y-54120000D01*
X118252380Y-53977142D01*
X118300000Y-53929523D01*
X117538095Y-54977142D02*
X117490476Y-55024761D01*
X117538095Y-55072380D01*
X117585714Y-55024761D01*
X117538095Y-54977142D01*
X117538095Y-55072380D01*
X117538095Y-54453333D02*
X117490476Y-54500952D01*
X117538095Y-54548571D01*
X117585714Y-54500952D01*
X117538095Y-54453333D01*
X117538095Y-54548571D01*
X115966666Y-54548571D02*
X116300000Y-54548571D01*
X116300000Y-55072380D02*
X116300000Y-54072380D01*
X115823809Y-54072380D01*
X115014285Y-55072380D02*
X115014285Y-54548571D01*
X115061904Y-54453333D01*
X115157142Y-54405714D01*
X115347619Y-54405714D01*
X115442857Y-54453333D01*
X115014285Y-55024761D02*
X115109523Y-55072380D01*
X115347619Y-55072380D01*
X115442857Y-55024761D01*
X115490476Y-54929523D01*
X115490476Y-54834285D01*
X115442857Y-54739047D01*
X115347619Y-54691428D01*
X115109523Y-54691428D01*
X115014285Y-54643809D01*
X114538095Y-54405714D02*
X114538095Y-55072380D01*
X114538095Y-54500952D02*
X114490476Y-54453333D01*
X114395238Y-54405714D01*
X114252380Y-54405714D01*
X114157142Y-54453333D01*
X114109523Y-54548571D01*
X114109523Y-55072380D01*
X127657142Y-55682380D02*
X127419047Y-56682380D01*
X127228571Y-55968095D01*
X127038095Y-56682380D01*
X126800000Y-55682380D01*
X126466666Y-55777619D02*
X126419047Y-55730000D01*
X126323809Y-55682380D01*
X126085714Y-55682380D01*
X125990476Y-55730000D01*
X125942857Y-55777619D01*
X125895238Y-55872857D01*
X125895238Y-55968095D01*
X125942857Y-56110952D01*
X126514285Y-56682380D01*
X125895238Y-56682380D01*
X125466666Y-56587142D02*
X125419047Y-56634761D01*
X125466666Y-56682380D01*
X125514285Y-56634761D01*
X125466666Y-56587142D01*
X125466666Y-56682380D01*
X125466666Y-56063333D02*
X125419047Y-56110952D01*
X125466666Y-56158571D01*
X125514285Y-56110952D01*
X125466666Y-56063333D01*
X125466666Y-56158571D01*
X124276190Y-55777619D02*
X124228571Y-55730000D01*
X124133333Y-55682380D01*
X123895238Y-55682380D01*
X123800000Y-55730000D01*
X123752380Y-55777619D01*
X123704761Y-55872857D01*
X123704761Y-55968095D01*
X123752380Y-56110952D01*
X124323809Y-56682380D01*
X123704761Y-56682380D01*
X123276190Y-56301428D02*
X122514285Y-56301428D01*
X122085714Y-56634761D02*
X121990476Y-56682380D01*
X121800000Y-56682380D01*
X121704761Y-56634761D01*
X121657142Y-56539523D01*
X121657142Y-56491904D01*
X121704761Y-56396666D01*
X121800000Y-56349047D01*
X121942857Y-56349047D01*
X122038095Y-56301428D01*
X122085714Y-56206190D01*
X122085714Y-56158571D01*
X122038095Y-56063333D01*
X121942857Y-56015714D01*
X121800000Y-56015714D01*
X121704761Y-56063333D01*
X121371428Y-56015714D02*
X120990476Y-56015714D01*
X121228571Y-55682380D02*
X121228571Y-56539523D01*
X121180952Y-56634761D01*
X121085714Y-56682380D01*
X120990476Y-56682380D01*
X120228571Y-56682380D02*
X120228571Y-56158571D01*
X120276190Y-56063333D01*
X120371428Y-56015714D01*
X120561904Y-56015714D01*
X120657142Y-56063333D01*
X120228571Y-56634761D02*
X120323809Y-56682380D01*
X120561904Y-56682380D01*
X120657142Y-56634761D01*
X120704761Y-56539523D01*
X120704761Y-56444285D01*
X120657142Y-56349047D01*
X120561904Y-56301428D01*
X120323809Y-56301428D01*
X120228571Y-56253809D01*
X119323809Y-56015714D02*
X119323809Y-56825238D01*
X119371428Y-56920476D01*
X119419047Y-56968095D01*
X119514285Y-57015714D01*
X119657142Y-57015714D01*
X119752380Y-56968095D01*
X119323809Y-56634761D02*
X119419047Y-56682380D01*
X119609523Y-56682380D01*
X119704761Y-56634761D01*
X119752380Y-56587142D01*
X119800000Y-56491904D01*
X119800000Y-56206190D01*
X119752380Y-56110952D01*
X119704761Y-56063333D01*
X119609523Y-56015714D01*
X119419047Y-56015714D01*
X119323809Y-56063333D01*
X118466666Y-56634761D02*
X118561904Y-56682380D01*
X118752380Y-56682380D01*
X118847619Y-56634761D01*
X118895238Y-56539523D01*
X118895238Y-56158571D01*
X118847619Y-56063333D01*
X118752380Y-56015714D01*
X118561904Y-56015714D01*
X118466666Y-56063333D01*
X118419047Y-56158571D01*
X118419047Y-56253809D01*
X118895238Y-56349047D01*
X117228571Y-56682380D02*
X117228571Y-55682380D01*
X117228571Y-56158571D02*
X116657142Y-56158571D01*
X116657142Y-56682380D02*
X116657142Y-55682380D01*
X115800000Y-56634761D02*
X115895238Y-56682380D01*
X116085714Y-56682380D01*
X116180952Y-56634761D01*
X116228571Y-56539523D01*
X116228571Y-56158571D01*
X116180952Y-56063333D01*
X116085714Y-56015714D01*
X115895238Y-56015714D01*
X115800000Y-56063333D01*
X115752380Y-56158571D01*
X115752380Y-56253809D01*
X116228571Y-56349047D01*
X114895238Y-56682380D02*
X114895238Y-56158571D01*
X114942857Y-56063333D01*
X115038095Y-56015714D01*
X115228571Y-56015714D01*
X115323809Y-56063333D01*
X114895238Y-56634761D02*
X114990476Y-56682380D01*
X115228571Y-56682380D01*
X115323809Y-56634761D01*
X115371428Y-56539523D01*
X115371428Y-56444285D01*
X115323809Y-56349047D01*
X115228571Y-56301428D01*
X114990476Y-56301428D01*
X114895238Y-56253809D01*
X114561904Y-56015714D02*
X114180952Y-56015714D01*
X114419047Y-55682380D02*
X114419047Y-56539523D01*
X114371428Y-56634761D01*
X114276190Y-56682380D01*
X114180952Y-56682380D01*
X113847619Y-56682380D02*
X113847619Y-56015714D01*
X113847619Y-55682380D02*
X113895238Y-55730000D01*
X113847619Y-55777619D01*
X113800000Y-55730000D01*
X113847619Y-55682380D01*
X113847619Y-55777619D01*
X113371428Y-56015714D02*
X113371428Y-56682380D01*
X113371428Y-56110952D02*
X113323809Y-56063333D01*
X113228571Y-56015714D01*
X113085714Y-56015714D01*
X112990476Y-56063333D01*
X112942857Y-56158571D01*
X112942857Y-56682380D01*
X112038095Y-56015714D02*
X112038095Y-56825238D01*
X112085714Y-56920476D01*
X112133333Y-56968095D01*
X112228571Y-57015714D01*
X112371428Y-57015714D01*
X112466666Y-56968095D01*
X112038095Y-56634761D02*
X112133333Y-56682380D01*
X112323809Y-56682380D01*
X112419047Y-56634761D01*
X112466666Y-56587142D01*
X112514285Y-56491904D01*
X112514285Y-56206190D01*
X112466666Y-56110952D01*
X112419047Y-56063333D01*
X112323809Y-56015714D01*
X112133333Y-56015714D01*
X112038095Y-56063333D01*
X126704761Y-57768571D02*
X126371428Y-57768571D01*
X126228571Y-58292380D02*
X126704761Y-58292380D01*
X126704761Y-57292380D01*
X126228571Y-57292380D01*
X125800000Y-58197142D02*
X125752380Y-58244761D01*
X125800000Y-58292380D01*
X125847619Y-58244761D01*
X125800000Y-58197142D01*
X125800000Y-58292380D01*
X125800000Y-57673333D02*
X125752380Y-57720952D01*
X125800000Y-57768571D01*
X125847619Y-57720952D01*
X125800000Y-57673333D01*
X125800000Y-57768571D01*
X124561904Y-57768571D02*
X124228571Y-57768571D01*
X124085714Y-58292380D02*
X124561904Y-58292380D01*
X124561904Y-57292380D01*
X124085714Y-57292380D01*
X123657142Y-58292380D02*
X123657142Y-57625714D01*
X123657142Y-57720952D02*
X123609523Y-57673333D01*
X123514285Y-57625714D01*
X123371428Y-57625714D01*
X123276190Y-57673333D01*
X123228571Y-57768571D01*
X123228571Y-58292380D01*
X123228571Y-57768571D02*
X123180952Y-57673333D01*
X123085714Y-57625714D01*
X122942857Y-57625714D01*
X122847619Y-57673333D01*
X122800000Y-57768571D01*
X122800000Y-58292380D01*
X121942857Y-58244761D02*
X122038095Y-58292380D01*
X122228571Y-58292380D01*
X122323809Y-58244761D01*
X122371428Y-58149523D01*
X122371428Y-57768571D01*
X122323809Y-57673333D01*
X122228571Y-57625714D01*
X122038095Y-57625714D01*
X121942857Y-57673333D01*
X121895238Y-57768571D01*
X121895238Y-57863809D01*
X122371428Y-57959047D01*
X121466666Y-58292380D02*
X121466666Y-57625714D01*
X121466666Y-57816190D02*
X121419047Y-57720952D01*
X121371428Y-57673333D01*
X121276190Y-57625714D01*
X121180952Y-57625714D01*
X120419047Y-57625714D02*
X120419047Y-58435238D01*
X120466666Y-58530476D01*
X120514285Y-58578095D01*
X120609523Y-58625714D01*
X120752380Y-58625714D01*
X120847619Y-58578095D01*
X120419047Y-58244761D02*
X120514285Y-58292380D01*
X120704761Y-58292380D01*
X120800000Y-58244761D01*
X120847619Y-58197142D01*
X120895238Y-58101904D01*
X120895238Y-57816190D01*
X120847619Y-57720952D01*
X120800000Y-57673333D01*
X120704761Y-57625714D01*
X120514285Y-57625714D01*
X120419047Y-57673333D01*
X119561904Y-58244761D02*
X119657142Y-58292380D01*
X119847619Y-58292380D01*
X119942857Y-58244761D01*
X119990476Y-58149523D01*
X119990476Y-57768571D01*
X119942857Y-57673333D01*
X119847619Y-57625714D01*
X119657142Y-57625714D01*
X119561904Y-57673333D01*
X119514285Y-57768571D01*
X119514285Y-57863809D01*
X119990476Y-57959047D01*
X119085714Y-57625714D02*
X119085714Y-58292380D01*
X119085714Y-57720952D02*
X119038095Y-57673333D01*
X118942857Y-57625714D01*
X118800000Y-57625714D01*
X118704761Y-57673333D01*
X118657142Y-57768571D01*
X118657142Y-58292380D01*
X117752380Y-58244761D02*
X117847619Y-58292380D01*
X118038095Y-58292380D01*
X118133333Y-58244761D01*
X118180952Y-58197142D01*
X118228571Y-58101904D01*
X118228571Y-57816190D01*
X118180952Y-57720952D01*
X118133333Y-57673333D01*
X118038095Y-57625714D01*
X117847619Y-57625714D01*
X117752380Y-57673333D01*
X117419047Y-57625714D02*
X117180952Y-58292380D01*
X116942857Y-57625714D02*
X117180952Y-58292380D01*
X117276190Y-58530476D01*
X117323809Y-58578095D01*
X117419047Y-58625714D01*
X115800000Y-58292380D02*
X115800000Y-57292380D01*
X115800000Y-57768571D02*
X115228571Y-57768571D01*
X115228571Y-58292380D02*
X115228571Y-57292380D01*
X114371428Y-58244761D02*
X114466666Y-58292380D01*
X114657142Y-58292380D01*
X114752380Y-58244761D01*
X114800000Y-58149523D01*
X114800000Y-57768571D01*
X114752380Y-57673333D01*
X114657142Y-57625714D01*
X114466666Y-57625714D01*
X114371428Y-57673333D01*
X114323809Y-57768571D01*
X114323809Y-57863809D01*
X114800000Y-57959047D01*
X113466666Y-58292380D02*
X113466666Y-57768571D01*
X113514285Y-57673333D01*
X113609523Y-57625714D01*
X113800000Y-57625714D01*
X113895238Y-57673333D01*
X113466666Y-58244761D02*
X113561904Y-58292380D01*
X113800000Y-58292380D01*
X113895238Y-58244761D01*
X113942857Y-58149523D01*
X113942857Y-58054285D01*
X113895238Y-57959047D01*
X113800000Y-57911428D01*
X113561904Y-57911428D01*
X113466666Y-57863809D01*
X113133333Y-57625714D02*
X112752380Y-57625714D01*
X112990476Y-57292380D02*
X112990476Y-58149523D01*
X112942857Y-58244761D01*
X112847619Y-58292380D01*
X112752380Y-58292380D01*
X76136476Y-90384380D02*
X76612666Y-90384380D01*
X76660285Y-90860571D01*
X76612666Y-90812952D01*
X76517428Y-90765333D01*
X76279333Y-90765333D01*
X76184095Y-90812952D01*
X76136476Y-90860571D01*
X76088857Y-90955809D01*
X76088857Y-91193904D01*
X76136476Y-91289142D01*
X76184095Y-91336761D01*
X76279333Y-91384380D01*
X76517428Y-91384380D01*
X76612666Y-91336761D01*
X76660285Y-91289142D01*
X75803142Y-90384380D02*
X75469809Y-91384380D01*
X75136476Y-90384380D01*
X155160285Y-82605571D02*
X154826952Y-82605571D01*
X154684095Y-83129380D02*
X155160285Y-83129380D01*
X155160285Y-82129380D01*
X154684095Y-82129380D01*
X151303142Y-82129380D02*
X151065047Y-83129380D01*
X150874571Y-82415095D01*
X150684095Y-83129380D01*
X150446000Y-82129380D01*
X150112666Y-82224619D02*
X150065047Y-82177000D01*
X149969809Y-82129380D01*
X149731714Y-82129380D01*
X149636476Y-82177000D01*
X149588857Y-82224619D01*
X149541238Y-82319857D01*
X149541238Y-82415095D01*
X149588857Y-82557952D01*
X150160285Y-83129380D01*
X149541238Y-83129380D01*
X147826952Y-82177000D02*
X147922190Y-82129380D01*
X148065047Y-82129380D01*
X148207904Y-82177000D01*
X148303142Y-82272238D01*
X148350761Y-82367476D01*
X148398380Y-82557952D01*
X148398380Y-82700809D01*
X148350761Y-82891285D01*
X148303142Y-82986523D01*
X148207904Y-83081761D01*
X148065047Y-83129380D01*
X147969809Y-83129380D01*
X147826952Y-83081761D01*
X147779333Y-83034142D01*
X147779333Y-82700809D01*
X147969809Y-82700809D01*
X147065047Y-83510333D02*
X147112666Y-83462714D01*
X147207904Y-83319857D01*
X147255523Y-83224619D01*
X147303142Y-83081761D01*
X147350761Y-82843666D01*
X147350761Y-82653190D01*
X147303142Y-82415095D01*
X147255523Y-82272238D01*
X147207904Y-82177000D01*
X147112666Y-82034142D01*
X147065047Y-81986523D01*
X146684095Y-83129380D02*
X146684095Y-82129380D01*
X146684095Y-82605571D02*
X146112666Y-82605571D01*
X146112666Y-83129380D02*
X146112666Y-82129380D01*
X145207904Y-82462714D02*
X145207904Y-83129380D01*
X145636476Y-82462714D02*
X145636476Y-82986523D01*
X145588857Y-83081761D01*
X145493619Y-83129380D01*
X145350761Y-83129380D01*
X145255523Y-83081761D01*
X145207904Y-83034142D01*
X144731714Y-83129380D02*
X144731714Y-82462714D01*
X144731714Y-82557952D02*
X144684095Y-82510333D01*
X144588857Y-82462714D01*
X144446000Y-82462714D01*
X144350761Y-82510333D01*
X144303142Y-82605571D01*
X144303142Y-83129380D01*
X144303142Y-82605571D02*
X144255523Y-82510333D01*
X144160285Y-82462714D01*
X144017428Y-82462714D01*
X143922190Y-82510333D01*
X143874571Y-82605571D01*
X143874571Y-83129380D01*
X143493619Y-83510333D02*
X143446000Y-83462714D01*
X143350761Y-83319857D01*
X143303142Y-83224619D01*
X143255523Y-83081761D01*
X143207904Y-82843666D01*
X143207904Y-82653190D01*
X143255523Y-82415095D01*
X143303142Y-82272238D01*
X143350761Y-82177000D01*
X143446000Y-82034142D01*
X143493619Y-81986523D01*
X141017428Y-82653190D02*
X141017428Y-83129380D01*
X141350761Y-82129380D02*
X141017428Y-82653190D01*
X140684095Y-82129380D01*
X140065047Y-83510333D02*
X140112666Y-83462714D01*
X140207904Y-83319857D01*
X140255523Y-83224619D01*
X140303142Y-83081761D01*
X140350761Y-82843666D01*
X140350761Y-82653190D01*
X140303142Y-82415095D01*
X140255523Y-82272238D01*
X140207904Y-82177000D01*
X140112666Y-82034142D01*
X140065047Y-81986523D01*
X139684095Y-83129380D02*
X139684095Y-82129380D01*
X139684095Y-82605571D02*
X139112666Y-82605571D01*
X139112666Y-83129380D02*
X139112666Y-82129380D01*
X138731714Y-83510333D02*
X138684095Y-83462714D01*
X138588857Y-83319857D01*
X138541238Y-83224619D01*
X138493619Y-83081761D01*
X138446000Y-82843666D01*
X138446000Y-82653190D01*
X138493619Y-82415095D01*
X138541238Y-82272238D01*
X138588857Y-82177000D01*
X138684095Y-82034142D01*
X138731714Y-81986523D01*
X136541238Y-82129380D02*
X136303142Y-83129380D01*
X136112666Y-82415095D01*
X135922190Y-83129380D01*
X135684095Y-82129380D01*
X135017428Y-83510333D02*
X135065047Y-83462714D01*
X135160285Y-83319857D01*
X135207904Y-83224619D01*
X135255523Y-83081761D01*
X135303142Y-82843666D01*
X135303142Y-82653190D01*
X135255523Y-82415095D01*
X135207904Y-82272238D01*
X135160285Y-82177000D01*
X135065047Y-82034142D01*
X135017428Y-81986523D01*
X134731714Y-82129380D02*
X134493619Y-83129380D01*
X134303142Y-82415095D01*
X134112666Y-83129380D01*
X133874571Y-82129380D01*
X133588857Y-83510333D02*
X133541238Y-83462714D01*
X133446000Y-83319857D01*
X133398380Y-83224619D01*
X133350761Y-83081761D01*
X133303142Y-82843666D01*
X133303142Y-82653190D01*
X133350761Y-82415095D01*
X133398380Y-82272238D01*
X133446000Y-82177000D01*
X133541238Y-82034142D01*
X133588857Y-81986523D01*
X130731714Y-83129380D02*
X131065047Y-82653190D01*
X131303142Y-83129380D02*
X131303142Y-82129380D01*
X130922190Y-82129380D01*
X130826952Y-82177000D01*
X130779333Y-82224619D01*
X130731714Y-82319857D01*
X130731714Y-82462714D01*
X130779333Y-82557952D01*
X130826952Y-82605571D01*
X130922190Y-82653190D01*
X131303142Y-82653190D01*
X130017428Y-83510333D02*
X130065047Y-83462714D01*
X130160285Y-83319857D01*
X130207904Y-83224619D01*
X130255523Y-83081761D01*
X130303142Y-82843666D01*
X130303142Y-82653190D01*
X130255523Y-82415095D01*
X130207904Y-82272238D01*
X130160285Y-82177000D01*
X130065047Y-82034142D01*
X130017428Y-81986523D01*
X129160285Y-83129380D02*
X129636476Y-83129380D01*
X129636476Y-82129380D01*
X128922190Y-83510333D02*
X128874571Y-83462714D01*
X128779333Y-83319857D01*
X128731714Y-83224619D01*
X128684095Y-83081761D01*
X128636476Y-82843666D01*
X128636476Y-82653190D01*
X128684095Y-82415095D01*
X128731714Y-82272238D01*
X128779333Y-82177000D01*
X128874571Y-82034142D01*
X128922190Y-81986523D01*
X126065047Y-83034142D02*
X126112666Y-83081761D01*
X126255523Y-83129380D01*
X126350761Y-83129380D01*
X126493619Y-83081761D01*
X126588857Y-82986523D01*
X126636476Y-82891285D01*
X126684095Y-82700809D01*
X126684095Y-82557952D01*
X126636476Y-82367476D01*
X126588857Y-82272238D01*
X126493619Y-82177000D01*
X126350761Y-82129380D01*
X126255523Y-82129380D01*
X126112666Y-82177000D01*
X126065047Y-82224619D01*
X125350761Y-83510333D02*
X125398380Y-83462714D01*
X125493619Y-83319857D01*
X125541238Y-83224619D01*
X125588857Y-83081761D01*
X125636476Y-82843666D01*
X125636476Y-82653190D01*
X125588857Y-82415095D01*
X125541238Y-82272238D01*
X125493619Y-82177000D01*
X125398380Y-82034142D01*
X125350761Y-81986523D01*
X124969809Y-83129380D02*
X124969809Y-82129380D01*
X124398380Y-83129380D01*
X124398380Y-82129380D01*
X124017428Y-83510333D02*
X123969809Y-83462714D01*
X123874571Y-83319857D01*
X123826952Y-83224619D01*
X123779333Y-83081761D01*
X123731714Y-82843666D01*
X123731714Y-82653190D01*
X123779333Y-82415095D01*
X123826952Y-82272238D01*
X123874571Y-82177000D01*
X123969809Y-82034142D01*
X124017428Y-81986523D01*
X119014666Y-95162666D02*
X118538476Y-95162666D01*
X119109904Y-95448380D02*
X118776571Y-94448380D01*
X118443238Y-95448380D01*
X117538476Y-95353142D02*
X117586095Y-95400761D01*
X117728952Y-95448380D01*
X117824190Y-95448380D01*
X117967047Y-95400761D01*
X118062285Y-95305523D01*
X118109904Y-95210285D01*
X118157523Y-95019809D01*
X118157523Y-94876952D01*
X118109904Y-94686476D01*
X118062285Y-94591238D01*
X117967047Y-94496000D01*
X117824190Y-94448380D01*
X117728952Y-94448380D01*
X117586095Y-94496000D01*
X117538476Y-94543619D01*
X116395619Y-94400761D02*
X117252761Y-95686476D01*
X115586095Y-95448380D02*
X116062285Y-95448380D01*
X116062285Y-94448380D01*
X158773761Y-79609523D02*
X158821380Y-79752380D01*
X158821380Y-79990476D01*
X158773761Y-80085714D01*
X158726142Y-80133333D01*
X158630904Y-80180952D01*
X158535666Y-80180952D01*
X158440428Y-80133333D01*
X158392809Y-80085714D01*
X158345190Y-79990476D01*
X158297571Y-79800000D01*
X158249952Y-79704761D01*
X158202333Y-79657142D01*
X158107095Y-79609523D01*
X158011857Y-79609523D01*
X157916619Y-79657142D01*
X157869000Y-79704761D01*
X157821380Y-79800000D01*
X157821380Y-80038095D01*
X157869000Y-80180952D01*
X158726142Y-81180952D02*
X158773761Y-81133333D01*
X158821380Y-80990476D01*
X158821380Y-80895238D01*
X158773761Y-80752380D01*
X158678523Y-80657142D01*
X158583285Y-80609523D01*
X158392809Y-80561904D01*
X158249952Y-80561904D01*
X158059476Y-80609523D01*
X157964238Y-80657142D01*
X157869000Y-80752380D01*
X157821380Y-80895238D01*
X157821380Y-80990476D01*
X157869000Y-81133333D01*
X157916619Y-81180952D01*
X158821380Y-82085714D02*
X158821380Y-81609523D01*
X157821380Y-81609523D01*
X76707904Y-100719000D02*
X76803142Y-100671380D01*
X76946000Y-100671380D01*
X77088857Y-100719000D01*
X77184095Y-100814238D01*
X77231714Y-100909476D01*
X77279333Y-101099952D01*
X77279333Y-101242809D01*
X77231714Y-101433285D01*
X77184095Y-101528523D01*
X77088857Y-101623761D01*
X76946000Y-101671380D01*
X76850761Y-101671380D01*
X76707904Y-101623761D01*
X76660285Y-101576142D01*
X76660285Y-101242809D01*
X76850761Y-101242809D01*
X76231714Y-101671380D02*
X76231714Y-100671380D01*
X75660285Y-101671380D01*
X75660285Y-100671380D01*
X75184095Y-101671380D02*
X75184095Y-100671380D01*
X74946000Y-100671380D01*
X74803142Y-100719000D01*
X74707904Y-100814238D01*
X74660285Y-100909476D01*
X74612666Y-101099952D01*
X74612666Y-101242809D01*
X74660285Y-101433285D01*
X74707904Y-101528523D01*
X74803142Y-101623761D01*
X74946000Y-101671380D01*
X75184095Y-101671380D01*
X109723809Y-43852380D02*
X110200000Y-43852380D01*
X110200000Y-42852380D01*
X109390476Y-43852380D02*
X109390476Y-43185714D01*
X109390476Y-42852380D02*
X109438095Y-42900000D01*
X109390476Y-42947619D01*
X109342857Y-42900000D01*
X109390476Y-42852380D01*
X109390476Y-42947619D01*
X108485714Y-43804761D02*
X108580952Y-43852380D01*
X108771428Y-43852380D01*
X108866666Y-43804761D01*
X108914285Y-43757142D01*
X108961904Y-43661904D01*
X108961904Y-43376190D01*
X108914285Y-43280952D01*
X108866666Y-43233333D01*
X108771428Y-43185714D01*
X108580952Y-43185714D01*
X108485714Y-43233333D01*
X107676190Y-43804761D02*
X107771428Y-43852380D01*
X107961904Y-43852380D01*
X108057142Y-43804761D01*
X108104761Y-43709523D01*
X108104761Y-43328571D01*
X108057142Y-43233333D01*
X107961904Y-43185714D01*
X107771428Y-43185714D01*
X107676190Y-43233333D01*
X107628571Y-43328571D01*
X107628571Y-43423809D01*
X108104761Y-43519047D01*
X107200000Y-43185714D02*
X107200000Y-43852380D01*
X107200000Y-43280952D02*
X107152380Y-43233333D01*
X107057142Y-43185714D01*
X106914285Y-43185714D01*
X106819047Y-43233333D01*
X106771428Y-43328571D01*
X106771428Y-43852380D01*
X106342857Y-43804761D02*
X106247619Y-43852380D01*
X106057142Y-43852380D01*
X105961904Y-43804761D01*
X105914285Y-43709523D01*
X105914285Y-43661904D01*
X105961904Y-43566666D01*
X106057142Y-43519047D01*
X106200000Y-43519047D01*
X106295238Y-43471428D01*
X106342857Y-43376190D01*
X106342857Y-43328571D01*
X106295238Y-43233333D01*
X106200000Y-43185714D01*
X106057142Y-43185714D01*
X105961904Y-43233333D01*
X105104761Y-43804761D02*
X105200000Y-43852380D01*
X105390476Y-43852380D01*
X105485714Y-43804761D01*
X105533333Y-43709523D01*
X105533333Y-43328571D01*
X105485714Y-43233333D01*
X105390476Y-43185714D01*
X105200000Y-43185714D01*
X105104761Y-43233333D01*
X105057142Y-43328571D01*
X105057142Y-43423809D01*
X105533333Y-43519047D01*
X104628571Y-43757142D02*
X104580952Y-43804761D01*
X104628571Y-43852380D01*
X104676190Y-43804761D01*
X104628571Y-43757142D01*
X104628571Y-43852380D01*
X104628571Y-43233333D02*
X104580952Y-43280952D01*
X104628571Y-43328571D01*
X104676190Y-43280952D01*
X104628571Y-43233333D01*
X104628571Y-43328571D01*
X102819047Y-43757142D02*
X102866666Y-43804761D01*
X103009523Y-43852380D01*
X103104761Y-43852380D01*
X103247619Y-43804761D01*
X103342857Y-43709523D01*
X103390476Y-43614285D01*
X103438095Y-43423809D01*
X103438095Y-43280952D01*
X103390476Y-43090476D01*
X103342857Y-42995238D01*
X103247619Y-42900000D01*
X103104761Y-42852380D01*
X103009523Y-42852380D01*
X102866666Y-42900000D01*
X102819047Y-42947619D01*
X101819047Y-43757142D02*
X101866666Y-43804761D01*
X102009523Y-43852380D01*
X102104761Y-43852380D01*
X102247619Y-43804761D01*
X102342857Y-43709523D01*
X102390476Y-43614285D01*
X102438095Y-43423809D01*
X102438095Y-43280952D01*
X102390476Y-43090476D01*
X102342857Y-42995238D01*
X102247619Y-42900000D01*
X102104761Y-42852380D01*
X102009523Y-42852380D01*
X101866666Y-42900000D01*
X101819047Y-42947619D01*
X100295238Y-43328571D02*
X100152380Y-43376190D01*
X100104761Y-43423809D01*
X100057142Y-43519047D01*
X100057142Y-43661904D01*
X100104761Y-43757142D01*
X100152380Y-43804761D01*
X100247619Y-43852380D01*
X100628571Y-43852380D01*
X100628571Y-42852380D01*
X100295238Y-42852380D01*
X100200000Y-42900000D01*
X100152380Y-42947619D01*
X100104761Y-43042857D01*
X100104761Y-43138095D01*
X100152380Y-43233333D01*
X100200000Y-43280952D01*
X100295238Y-43328571D01*
X100628571Y-43328571D01*
X99438095Y-43376190D02*
X99438095Y-43852380D01*
X99771428Y-42852380D02*
X99438095Y-43376190D01*
X99104761Y-42852380D01*
X98771428Y-43471428D02*
X98009523Y-43471428D01*
X97580952Y-43804761D02*
X97438095Y-43852380D01*
X97200000Y-43852380D01*
X97104761Y-43804761D01*
X97057142Y-43757142D01*
X97009523Y-43661904D01*
X97009523Y-43566666D01*
X97057142Y-43471428D01*
X97104761Y-43423809D01*
X97200000Y-43376190D01*
X97390476Y-43328571D01*
X97485714Y-43280952D01*
X97533333Y-43233333D01*
X97580952Y-43138095D01*
X97580952Y-43042857D01*
X97533333Y-42947619D01*
X97485714Y-42900000D01*
X97390476Y-42852380D01*
X97152380Y-42852380D01*
X97009523Y-42900000D01*
X96628571Y-43566666D02*
X96152380Y-43566666D01*
X96723809Y-43852380D02*
X96390476Y-42852380D01*
X96057142Y-43852380D01*
X161942738Y-73239380D02*
X161323690Y-73239380D01*
X161657023Y-73620333D01*
X161514166Y-73620333D01*
X161418928Y-73667952D01*
X161371309Y-73715571D01*
X161323690Y-73810809D01*
X161323690Y-74048904D01*
X161371309Y-74144142D01*
X161418928Y-74191761D01*
X161514166Y-74239380D01*
X161799880Y-74239380D01*
X161895119Y-74191761D01*
X161942738Y-74144142D01*
X160895119Y-74144142D02*
X160847500Y-74191761D01*
X160895119Y-74239380D01*
X160942738Y-74191761D01*
X160895119Y-74144142D01*
X160895119Y-74239380D01*
X160514166Y-73239380D02*
X159895119Y-73239380D01*
X160228452Y-73620333D01*
X160085595Y-73620333D01*
X159990357Y-73667952D01*
X159942738Y-73715571D01*
X159895119Y-73810809D01*
X159895119Y-74048904D01*
X159942738Y-74144142D01*
X159990357Y-74191761D01*
X160085595Y-74239380D01*
X160371309Y-74239380D01*
X160466547Y-74191761D01*
X160514166Y-74144142D01*
X159609404Y-73239380D02*
X159276071Y-74239380D01*
X158942738Y-73239380D01*
X136817476Y-61442380D02*
X136817476Y-60442380D01*
X136817476Y-60918571D02*
X136246047Y-60918571D01*
X136246047Y-61442380D02*
X136246047Y-60442380D01*
X135388904Y-61394761D02*
X135484142Y-61442380D01*
X135674619Y-61442380D01*
X135769857Y-61394761D01*
X135817476Y-61299523D01*
X135817476Y-60918571D01*
X135769857Y-60823333D01*
X135674619Y-60775714D01*
X135484142Y-60775714D01*
X135388904Y-60823333D01*
X135341285Y-60918571D01*
X135341285Y-61013809D01*
X135817476Y-61109047D01*
X134960333Y-61394761D02*
X134865095Y-61442380D01*
X134674619Y-61442380D01*
X134579380Y-61394761D01*
X134531761Y-61299523D01*
X134531761Y-61251904D01*
X134579380Y-61156666D01*
X134674619Y-61109047D01*
X134817476Y-61109047D01*
X134912714Y-61061428D01*
X134960333Y-60966190D01*
X134960333Y-60918571D01*
X134912714Y-60823333D01*
X134817476Y-60775714D01*
X134674619Y-60775714D01*
X134579380Y-60823333D01*
X134246047Y-60775714D02*
X133865095Y-60775714D01*
X134103190Y-60442380D02*
X134103190Y-61299523D01*
X134055571Y-61394761D01*
X133960333Y-61442380D01*
X133865095Y-61442380D01*
X133531761Y-61442380D02*
X133531761Y-60775714D01*
X133531761Y-60442380D02*
X133579380Y-60490000D01*
X133531761Y-60537619D01*
X133484142Y-60490000D01*
X133531761Y-60442380D01*
X133531761Y-60537619D01*
X132627000Y-61442380D02*
X132627000Y-60918571D01*
X132674619Y-60823333D01*
X132769857Y-60775714D01*
X132960333Y-60775714D01*
X133055571Y-60823333D01*
X132627000Y-61394761D02*
X132722238Y-61442380D01*
X132960333Y-61442380D01*
X133055571Y-61394761D01*
X133103190Y-61299523D01*
X133103190Y-61204285D01*
X133055571Y-61109047D01*
X132960333Y-61061428D01*
X132722238Y-61061428D01*
X132627000Y-61013809D01*
X132150809Y-61442380D02*
X132150809Y-60442380D01*
X131769857Y-60442380D01*
X131674619Y-60490000D01*
X131627000Y-60537619D01*
X131579380Y-60632857D01*
X131579380Y-60775714D01*
X131627000Y-60870952D01*
X131674619Y-60918571D01*
X131769857Y-60966190D01*
X132150809Y-60966190D01*
X131150809Y-61442380D02*
X131150809Y-60775714D01*
X131150809Y-60442380D02*
X131198428Y-60490000D01*
X131150809Y-60537619D01*
X131103190Y-60490000D01*
X131150809Y-60442380D01*
X131150809Y-60537619D01*
X130055571Y-60442380D02*
X129484142Y-60442380D01*
X129769857Y-61442380D02*
X129769857Y-60442380D01*
X129007952Y-61442380D02*
X129103190Y-61394761D01*
X129150809Y-61347142D01*
X129198428Y-61251904D01*
X129198428Y-60966190D01*
X129150809Y-60870952D01*
X129103190Y-60823333D01*
X129007952Y-60775714D01*
X128865095Y-60775714D01*
X128769857Y-60823333D01*
X128722238Y-60870952D01*
X128674619Y-60966190D01*
X128674619Y-61251904D01*
X128722238Y-61347142D01*
X128769857Y-61394761D01*
X128865095Y-61442380D01*
X129007952Y-61442380D01*
X127817476Y-60775714D02*
X127817476Y-61442380D01*
X128246047Y-60775714D02*
X128246047Y-61299523D01*
X128198428Y-61394761D01*
X128103190Y-61442380D01*
X127960333Y-61442380D01*
X127865095Y-61394761D01*
X127817476Y-61347142D01*
X126912714Y-61394761D02*
X127007952Y-61442380D01*
X127198428Y-61442380D01*
X127293666Y-61394761D01*
X127341285Y-61347142D01*
X127388904Y-61251904D01*
X127388904Y-60966190D01*
X127341285Y-60870952D01*
X127293666Y-60823333D01*
X127198428Y-60775714D01*
X127007952Y-60775714D01*
X126912714Y-60823333D01*
X126484142Y-61442380D02*
X126484142Y-60442380D01*
X126055571Y-61442380D02*
X126055571Y-60918571D01*
X126103190Y-60823333D01*
X126198428Y-60775714D01*
X126341285Y-60775714D01*
X126436523Y-60823333D01*
X126484142Y-60870952D01*
X124627000Y-60442380D02*
X124436523Y-60442380D01*
X124341285Y-60490000D01*
X124246047Y-60585238D01*
X124198428Y-60775714D01*
X124198428Y-61109047D01*
X124246047Y-61299523D01*
X124341285Y-61394761D01*
X124436523Y-61442380D01*
X124627000Y-61442380D01*
X124722238Y-61394761D01*
X124817476Y-61299523D01*
X124865095Y-61109047D01*
X124865095Y-60775714D01*
X124817476Y-60585238D01*
X124722238Y-60490000D01*
X124627000Y-60442380D01*
X123769857Y-61442380D02*
X123769857Y-60442380D01*
X123198428Y-61442380D01*
X123198428Y-60442380D01*
X122722238Y-60918571D02*
X122388904Y-60918571D01*
X122246047Y-61442380D02*
X122722238Y-61442380D01*
X122722238Y-60442380D01*
X122246047Y-60442380D01*
X121150809Y-60775714D02*
X120912714Y-61442380D01*
X120674619Y-60775714D01*
X120341285Y-60537619D02*
X120293666Y-60490000D01*
X120198428Y-60442380D01*
X119960333Y-60442380D01*
X119865095Y-60490000D01*
X119817476Y-60537619D01*
X119769857Y-60632857D01*
X119769857Y-60728095D01*
X119817476Y-60870952D01*
X120388904Y-61442380D01*
X119769857Y-61442380D01*
X119341285Y-61347142D02*
X119293666Y-61394761D01*
X119341285Y-61442380D01*
X119388904Y-61394761D01*
X119341285Y-61347142D01*
X119341285Y-61442380D01*
X118388904Y-60442380D02*
X118865095Y-60442380D01*
X118912714Y-60918571D01*
X118865095Y-60870952D01*
X118769857Y-60823333D01*
X118531761Y-60823333D01*
X118436523Y-60870952D01*
X118388904Y-60918571D01*
X118341285Y-61013809D01*
X118341285Y-61251904D01*
X118388904Y-61347142D01*
X118436523Y-61394761D01*
X118531761Y-61442380D01*
X118769857Y-61442380D01*
X118865095Y-61394761D01*
X118912714Y-61347142D01*
X117484142Y-60775714D02*
X117484142Y-61442380D01*
X117722238Y-60394761D02*
X117960333Y-61109047D01*
X117341285Y-61109047D01*
X138007952Y-62385714D02*
X137817476Y-63052380D01*
X137627000Y-62576190D01*
X137436523Y-63052380D01*
X137246047Y-62385714D01*
X136960333Y-62385714D02*
X136769857Y-63052380D01*
X136579380Y-62576190D01*
X136388904Y-63052380D01*
X136198428Y-62385714D01*
X135912714Y-62385714D02*
X135722238Y-63052380D01*
X135531761Y-62576190D01*
X135341285Y-63052380D01*
X135150809Y-62385714D01*
X134769857Y-62957142D02*
X134722238Y-63004761D01*
X134769857Y-63052380D01*
X134817476Y-63004761D01*
X134769857Y-62957142D01*
X134769857Y-63052380D01*
X134293666Y-63052380D02*
X134293666Y-62052380D01*
X133865095Y-63052380D02*
X133865095Y-62528571D01*
X133912714Y-62433333D01*
X134007952Y-62385714D01*
X134150809Y-62385714D01*
X134246047Y-62433333D01*
X134293666Y-62480952D01*
X133007952Y-63004761D02*
X133103190Y-63052380D01*
X133293666Y-63052380D01*
X133388904Y-63004761D01*
X133436523Y-62909523D01*
X133436523Y-62528571D01*
X133388904Y-62433333D01*
X133293666Y-62385714D01*
X133103190Y-62385714D01*
X133007952Y-62433333D01*
X132960333Y-62528571D01*
X132960333Y-62623809D01*
X133436523Y-62719047D01*
X132579380Y-63004761D02*
X132484142Y-63052380D01*
X132293666Y-63052380D01*
X132198428Y-63004761D01*
X132150809Y-62909523D01*
X132150809Y-62861904D01*
X132198428Y-62766666D01*
X132293666Y-62719047D01*
X132436523Y-62719047D01*
X132531761Y-62671428D01*
X132579380Y-62576190D01*
X132579380Y-62528571D01*
X132531761Y-62433333D01*
X132436523Y-62385714D01*
X132293666Y-62385714D01*
X132198428Y-62433333D01*
X131865095Y-62385714D02*
X131484142Y-62385714D01*
X131722238Y-62052380D02*
X131722238Y-62909523D01*
X131674619Y-63004761D01*
X131579380Y-63052380D01*
X131484142Y-63052380D01*
X131150809Y-63052380D02*
X131150809Y-62385714D01*
X131150809Y-62052380D02*
X131198428Y-62100000D01*
X131150809Y-62147619D01*
X131103190Y-62100000D01*
X131150809Y-62052380D01*
X131150809Y-62147619D01*
X130246047Y-63052380D02*
X130246047Y-62528571D01*
X130293666Y-62433333D01*
X130388904Y-62385714D01*
X130579380Y-62385714D01*
X130674619Y-62433333D01*
X130246047Y-63004761D02*
X130341285Y-63052380D01*
X130579380Y-63052380D01*
X130674619Y-63004761D01*
X130722238Y-62909523D01*
X130722238Y-62814285D01*
X130674619Y-62719047D01*
X130579380Y-62671428D01*
X130341285Y-62671428D01*
X130246047Y-62623809D01*
X129769857Y-62385714D02*
X129769857Y-63385714D01*
X129769857Y-62433333D02*
X129674619Y-62385714D01*
X129484142Y-62385714D01*
X129388904Y-62433333D01*
X129341285Y-62480952D01*
X129293666Y-62576190D01*
X129293666Y-62861904D01*
X129341285Y-62957142D01*
X129388904Y-63004761D01*
X129484142Y-63052380D01*
X129674619Y-63052380D01*
X129769857Y-63004761D01*
X128865095Y-63052380D02*
X128865095Y-62385714D01*
X128865095Y-62052380D02*
X128912714Y-62100000D01*
X128865095Y-62147619D01*
X128817476Y-62100000D01*
X128865095Y-62052380D01*
X128865095Y-62147619D01*
X128388904Y-62957142D02*
X128341285Y-63004761D01*
X128388904Y-63052380D01*
X128436523Y-63004761D01*
X128388904Y-62957142D01*
X128388904Y-63052380D01*
X127484142Y-63004761D02*
X127579380Y-63052380D01*
X127769857Y-63052380D01*
X127865095Y-63004761D01*
X127912714Y-62957142D01*
X127960333Y-62861904D01*
X127960333Y-62576190D01*
X127912714Y-62480952D01*
X127865095Y-62433333D01*
X127769857Y-62385714D01*
X127579380Y-62385714D01*
X127484142Y-62433333D01*
X126912714Y-63052380D02*
X127007952Y-63004761D01*
X127055571Y-62957142D01*
X127103190Y-62861904D01*
X127103190Y-62576190D01*
X127055571Y-62480952D01*
X127007952Y-62433333D01*
X126912714Y-62385714D01*
X126769857Y-62385714D01*
X126674619Y-62433333D01*
X126627000Y-62480952D01*
X126579380Y-62576190D01*
X126579380Y-62861904D01*
X126627000Y-62957142D01*
X126674619Y-63004761D01*
X126769857Y-63052380D01*
X126912714Y-63052380D01*
X126150809Y-63052380D02*
X126150809Y-62385714D01*
X126150809Y-62480952D02*
X126103190Y-62433333D01*
X126007952Y-62385714D01*
X125865095Y-62385714D01*
X125769857Y-62433333D01*
X125722238Y-62528571D01*
X125722238Y-63052380D01*
X125722238Y-62528571D02*
X125674619Y-62433333D01*
X125579380Y-62385714D01*
X125436523Y-62385714D01*
X125341285Y-62433333D01*
X125293666Y-62528571D01*
X125293666Y-63052380D01*
X124103190Y-62004761D02*
X124960333Y-63290476D01*
X123769857Y-63052380D02*
X123769857Y-62052380D01*
X123531761Y-62052380D01*
X123388904Y-62100000D01*
X123293666Y-62195238D01*
X123246047Y-62290476D01*
X123198428Y-62480952D01*
X123198428Y-62623809D01*
X123246047Y-62814285D01*
X123293666Y-62909523D01*
X123388904Y-63004761D01*
X123531761Y-63052380D01*
X123769857Y-63052380D01*
X122627000Y-63052380D02*
X122722238Y-63004761D01*
X122769857Y-62957142D01*
X122817476Y-62861904D01*
X122817476Y-62576190D01*
X122769857Y-62480952D01*
X122722238Y-62433333D01*
X122627000Y-62385714D01*
X122484142Y-62385714D01*
X122388904Y-62433333D01*
X122341285Y-62480952D01*
X122293666Y-62576190D01*
X122293666Y-62861904D01*
X122341285Y-62957142D01*
X122388904Y-63004761D01*
X122484142Y-63052380D01*
X122627000Y-63052380D01*
X121960333Y-62385714D02*
X121769857Y-63052380D01*
X121579380Y-62576190D01*
X121388904Y-63052380D01*
X121198428Y-62385714D01*
X120817476Y-62385714D02*
X120817476Y-63052380D01*
X120817476Y-62480952D02*
X120769857Y-62433333D01*
X120674619Y-62385714D01*
X120531761Y-62385714D01*
X120436523Y-62433333D01*
X120388904Y-62528571D01*
X120388904Y-63052380D01*
X119769857Y-63052380D02*
X119865095Y-63004761D01*
X119912714Y-62909523D01*
X119912714Y-62052380D01*
X119246047Y-63052380D02*
X119341285Y-63004761D01*
X119388904Y-62957142D01*
X119436523Y-62861904D01*
X119436523Y-62576190D01*
X119388904Y-62480952D01*
X119341285Y-62433333D01*
X119246047Y-62385714D01*
X119103190Y-62385714D01*
X119007952Y-62433333D01*
X118960333Y-62480952D01*
X118912714Y-62576190D01*
X118912714Y-62861904D01*
X118960333Y-62957142D01*
X119007952Y-63004761D01*
X119103190Y-63052380D01*
X119246047Y-63052380D01*
X118055571Y-63052380D02*
X118055571Y-62528571D01*
X118103190Y-62433333D01*
X118198428Y-62385714D01*
X118388904Y-62385714D01*
X118484142Y-62433333D01*
X118055571Y-63004761D02*
X118150809Y-63052380D01*
X118388904Y-63052380D01*
X118484142Y-63004761D01*
X118531761Y-62909523D01*
X118531761Y-62814285D01*
X118484142Y-62719047D01*
X118388904Y-62671428D01*
X118150809Y-62671428D01*
X118055571Y-62623809D01*
X117150809Y-63052380D02*
X117150809Y-62052380D01*
X117150809Y-63004761D02*
X117246047Y-63052380D01*
X117436523Y-63052380D01*
X117531761Y-63004761D01*
X117579380Y-62957142D01*
X117627000Y-62861904D01*
X117627000Y-62576190D01*
X117579380Y-62480952D01*
X117531761Y-62433333D01*
X117436523Y-62385714D01*
X117246047Y-62385714D01*
X117150809Y-62433333D01*
X116722238Y-63004761D02*
X116627000Y-63052380D01*
X116436523Y-63052380D01*
X116341285Y-63004761D01*
X116293666Y-62909523D01*
X116293666Y-62861904D01*
X116341285Y-62766666D01*
X116436523Y-62719047D01*
X116579380Y-62719047D01*
X116674619Y-62671428D01*
X116722238Y-62576190D01*
X116722238Y-62528571D01*
X116674619Y-62433333D01*
X116579380Y-62385714D01*
X116436523Y-62385714D01*
X116341285Y-62433333D01*
X139603190Y-63995714D02*
X139412714Y-64662380D01*
X139222238Y-64186190D01*
X139031761Y-64662380D01*
X138841285Y-63995714D01*
X138555571Y-63995714D02*
X138365095Y-64662380D01*
X138174619Y-64186190D01*
X137984142Y-64662380D01*
X137793666Y-63995714D01*
X137507952Y-63995714D02*
X137317476Y-64662380D01*
X137127000Y-64186190D01*
X136936523Y-64662380D01*
X136746047Y-63995714D01*
X136365095Y-64567142D02*
X136317476Y-64614761D01*
X136365095Y-64662380D01*
X136412714Y-64614761D01*
X136365095Y-64567142D01*
X136365095Y-64662380D01*
X135888904Y-64662380D02*
X135888904Y-63662380D01*
X135460333Y-64662380D02*
X135460333Y-64138571D01*
X135507952Y-64043333D01*
X135603190Y-63995714D01*
X135746047Y-63995714D01*
X135841285Y-64043333D01*
X135888904Y-64090952D01*
X134603190Y-64614761D02*
X134698428Y-64662380D01*
X134888904Y-64662380D01*
X134984142Y-64614761D01*
X135031761Y-64519523D01*
X135031761Y-64138571D01*
X134984142Y-64043333D01*
X134888904Y-63995714D01*
X134698428Y-63995714D01*
X134603190Y-64043333D01*
X134555571Y-64138571D01*
X134555571Y-64233809D01*
X135031761Y-64329047D01*
X134174619Y-64614761D02*
X134079380Y-64662380D01*
X133888904Y-64662380D01*
X133793666Y-64614761D01*
X133746047Y-64519523D01*
X133746047Y-64471904D01*
X133793666Y-64376666D01*
X133888904Y-64329047D01*
X134031761Y-64329047D01*
X134127000Y-64281428D01*
X134174619Y-64186190D01*
X134174619Y-64138571D01*
X134127000Y-64043333D01*
X134031761Y-63995714D01*
X133888904Y-63995714D01*
X133793666Y-64043333D01*
X133460333Y-63995714D02*
X133079380Y-63995714D01*
X133317476Y-63662380D02*
X133317476Y-64519523D01*
X133269857Y-64614761D01*
X133174619Y-64662380D01*
X133079380Y-64662380D01*
X132746047Y-64662380D02*
X132746047Y-63995714D01*
X132746047Y-63662380D02*
X132793666Y-63710000D01*
X132746047Y-63757619D01*
X132698428Y-63710000D01*
X132746047Y-63662380D01*
X132746047Y-63757619D01*
X131841285Y-64662380D02*
X131841285Y-64138571D01*
X131888904Y-64043333D01*
X131984142Y-63995714D01*
X132174619Y-63995714D01*
X132269857Y-64043333D01*
X131841285Y-64614761D02*
X131936523Y-64662380D01*
X132174619Y-64662380D01*
X132269857Y-64614761D01*
X132317476Y-64519523D01*
X132317476Y-64424285D01*
X132269857Y-64329047D01*
X132174619Y-64281428D01*
X131936523Y-64281428D01*
X131841285Y-64233809D01*
X131365095Y-63995714D02*
X131365095Y-64995714D01*
X131365095Y-64043333D02*
X131269857Y-63995714D01*
X131079380Y-63995714D01*
X130984142Y-64043333D01*
X130936523Y-64090952D01*
X130888904Y-64186190D01*
X130888904Y-64471904D01*
X130936523Y-64567142D01*
X130984142Y-64614761D01*
X131079380Y-64662380D01*
X131269857Y-64662380D01*
X131365095Y-64614761D01*
X130460333Y-64662380D02*
X130460333Y-63995714D01*
X130460333Y-63662380D02*
X130507952Y-63710000D01*
X130460333Y-63757619D01*
X130412714Y-63710000D01*
X130460333Y-63662380D01*
X130460333Y-63757619D01*
X129984142Y-64567142D02*
X129936523Y-64614761D01*
X129984142Y-64662380D01*
X130031761Y-64614761D01*
X129984142Y-64567142D01*
X129984142Y-64662380D01*
X129079380Y-64614761D02*
X129174619Y-64662380D01*
X129365095Y-64662380D01*
X129460333Y-64614761D01*
X129507952Y-64567142D01*
X129555571Y-64471904D01*
X129555571Y-64186190D01*
X129507952Y-64090952D01*
X129460333Y-64043333D01*
X129365095Y-63995714D01*
X129174619Y-63995714D01*
X129079380Y-64043333D01*
X128507952Y-64662380D02*
X128603190Y-64614761D01*
X128650809Y-64567142D01*
X128698428Y-64471904D01*
X128698428Y-64186190D01*
X128650809Y-64090952D01*
X128603190Y-64043333D01*
X128507952Y-63995714D01*
X128365095Y-63995714D01*
X128269857Y-64043333D01*
X128222238Y-64090952D01*
X128174619Y-64186190D01*
X128174619Y-64471904D01*
X128222238Y-64567142D01*
X128269857Y-64614761D01*
X128365095Y-64662380D01*
X128507952Y-64662380D01*
X127746047Y-64662380D02*
X127746047Y-63995714D01*
X127746047Y-64090952D02*
X127698428Y-64043333D01*
X127603190Y-63995714D01*
X127460333Y-63995714D01*
X127365095Y-64043333D01*
X127317476Y-64138571D01*
X127317476Y-64662380D01*
X127317476Y-64138571D02*
X127269857Y-64043333D01*
X127174619Y-63995714D01*
X127031761Y-63995714D01*
X126936523Y-64043333D01*
X126888904Y-64138571D01*
X126888904Y-64662380D01*
X125698428Y-63614761D02*
X126555571Y-64900476D01*
X125365095Y-64662380D02*
X125365095Y-63662380D01*
X125127000Y-63662380D01*
X124984142Y-63710000D01*
X124888904Y-63805238D01*
X124841285Y-63900476D01*
X124793666Y-64090952D01*
X124793666Y-64233809D01*
X124841285Y-64424285D01*
X124888904Y-64519523D01*
X124984142Y-64614761D01*
X125127000Y-64662380D01*
X125365095Y-64662380D01*
X124222238Y-64662380D02*
X124317476Y-64614761D01*
X124365095Y-64567142D01*
X124412714Y-64471904D01*
X124412714Y-64186190D01*
X124365095Y-64090952D01*
X124317476Y-64043333D01*
X124222238Y-63995714D01*
X124079380Y-63995714D01*
X123984142Y-64043333D01*
X123936523Y-64090952D01*
X123888904Y-64186190D01*
X123888904Y-64471904D01*
X123936523Y-64567142D01*
X123984142Y-64614761D01*
X124079380Y-64662380D01*
X124222238Y-64662380D01*
X123031761Y-64614761D02*
X123127000Y-64662380D01*
X123317476Y-64662380D01*
X123412714Y-64614761D01*
X123460333Y-64567142D01*
X123507952Y-64471904D01*
X123507952Y-64186190D01*
X123460333Y-64090952D01*
X123412714Y-64043333D01*
X123317476Y-63995714D01*
X123127000Y-63995714D01*
X123031761Y-64043333D01*
X122174619Y-63995714D02*
X122174619Y-64662380D01*
X122603190Y-63995714D02*
X122603190Y-64519523D01*
X122555571Y-64614761D01*
X122460333Y-64662380D01*
X122317476Y-64662380D01*
X122222238Y-64614761D01*
X122174619Y-64567142D01*
X121698428Y-64662380D02*
X121698428Y-63995714D01*
X121698428Y-64090952D02*
X121650809Y-64043333D01*
X121555571Y-63995714D01*
X121412714Y-63995714D01*
X121317476Y-64043333D01*
X121269857Y-64138571D01*
X121269857Y-64662380D01*
X121269857Y-64138571D02*
X121222238Y-64043333D01*
X121127000Y-63995714D01*
X120984142Y-63995714D01*
X120888904Y-64043333D01*
X120841285Y-64138571D01*
X120841285Y-64662380D01*
X119984142Y-64614761D02*
X120079380Y-64662380D01*
X120269857Y-64662380D01*
X120365095Y-64614761D01*
X120412714Y-64519523D01*
X120412714Y-64138571D01*
X120365095Y-64043333D01*
X120269857Y-63995714D01*
X120079380Y-63995714D01*
X119984142Y-64043333D01*
X119936523Y-64138571D01*
X119936523Y-64233809D01*
X120412714Y-64329047D01*
X119507952Y-63995714D02*
X119507952Y-64662380D01*
X119507952Y-64090952D02*
X119460333Y-64043333D01*
X119365095Y-63995714D01*
X119222238Y-63995714D01*
X119127000Y-64043333D01*
X119079380Y-64138571D01*
X119079380Y-64662380D01*
X118746047Y-63995714D02*
X118365095Y-63995714D01*
X118603190Y-63662380D02*
X118603190Y-64519523D01*
X118555571Y-64614761D01*
X118460333Y-64662380D01*
X118365095Y-64662380D01*
X117603190Y-64662380D02*
X117603190Y-64138571D01*
X117650809Y-64043333D01*
X117746047Y-63995714D01*
X117936523Y-63995714D01*
X118031761Y-64043333D01*
X117603190Y-64614761D02*
X117698428Y-64662380D01*
X117936523Y-64662380D01*
X118031761Y-64614761D01*
X118079380Y-64519523D01*
X118079380Y-64424285D01*
X118031761Y-64329047D01*
X117936523Y-64281428D01*
X117698428Y-64281428D01*
X117603190Y-64233809D01*
X117269857Y-63995714D02*
X116888904Y-63995714D01*
X117127000Y-63662380D02*
X117127000Y-64519523D01*
X117079380Y-64614761D01*
X116984142Y-64662380D01*
X116888904Y-64662380D01*
X116555571Y-64662380D02*
X116555571Y-63995714D01*
X116555571Y-63662380D02*
X116603190Y-63710000D01*
X116555571Y-63757619D01*
X116507952Y-63710000D01*
X116555571Y-63662380D01*
X116555571Y-63757619D01*
X115936523Y-64662380D02*
X116031761Y-64614761D01*
X116079380Y-64567142D01*
X116127000Y-64471904D01*
X116127000Y-64186190D01*
X116079380Y-64090952D01*
X116031761Y-64043333D01*
X115936523Y-63995714D01*
X115793666Y-63995714D01*
X115698428Y-64043333D01*
X115650809Y-64090952D01*
X115603190Y-64186190D01*
X115603190Y-64471904D01*
X115650809Y-64567142D01*
X115698428Y-64614761D01*
X115793666Y-64662380D01*
X115936523Y-64662380D01*
X115174619Y-63995714D02*
X115174619Y-64662380D01*
X115174619Y-64090952D02*
X115127000Y-64043333D01*
X115031761Y-63995714D01*
X114888904Y-63995714D01*
X114793666Y-64043333D01*
X114746047Y-64138571D01*
X114746047Y-64662380D01*
X90866666Y-44993333D02*
X90914285Y-44945714D01*
X91009523Y-44802857D01*
X91057142Y-44707619D01*
X91104761Y-44564761D01*
X91152380Y-44326666D01*
X91152380Y-44136190D01*
X91104761Y-43898095D01*
X91057142Y-43755238D01*
X91009523Y-43660000D01*
X90914285Y-43517142D01*
X90866666Y-43469523D01*
X90485714Y-44088571D02*
X90152380Y-44088571D01*
X90009523Y-44612380D02*
X90485714Y-44612380D01*
X90485714Y-43612380D01*
X90009523Y-43612380D01*
X89580952Y-43612380D02*
X89580952Y-44421904D01*
X89533333Y-44517142D01*
X89485714Y-44564761D01*
X89390476Y-44612380D01*
X89200000Y-44612380D01*
X89104761Y-44564761D01*
X89057142Y-44517142D01*
X89009523Y-44421904D01*
X89009523Y-43612380D01*
X87771428Y-44612380D02*
X87771428Y-43612380D01*
X87438095Y-44326666D01*
X87104761Y-43612380D01*
X87104761Y-44612380D01*
X86485714Y-44612380D02*
X86580952Y-44564761D01*
X86628571Y-44517142D01*
X86676190Y-44421904D01*
X86676190Y-44136190D01*
X86628571Y-44040952D01*
X86580952Y-43993333D01*
X86485714Y-43945714D01*
X86342857Y-43945714D01*
X86247619Y-43993333D01*
X86200000Y-44040952D01*
X86152380Y-44136190D01*
X86152380Y-44421904D01*
X86200000Y-44517142D01*
X86247619Y-44564761D01*
X86342857Y-44612380D01*
X86485714Y-44612380D01*
X85295238Y-44612380D02*
X85295238Y-43612380D01*
X85295238Y-44564761D02*
X85390476Y-44612380D01*
X85580952Y-44612380D01*
X85676190Y-44564761D01*
X85723809Y-44517142D01*
X85771428Y-44421904D01*
X85771428Y-44136190D01*
X85723809Y-44040952D01*
X85676190Y-43993333D01*
X85580952Y-43945714D01*
X85390476Y-43945714D01*
X85295238Y-43993333D01*
X84438095Y-44564761D02*
X84533333Y-44612380D01*
X84723809Y-44612380D01*
X84819047Y-44564761D01*
X84866666Y-44469523D01*
X84866666Y-44088571D01*
X84819047Y-43993333D01*
X84723809Y-43945714D01*
X84533333Y-43945714D01*
X84438095Y-43993333D01*
X84390476Y-44088571D01*
X84390476Y-44183809D01*
X84866666Y-44279047D01*
X83819047Y-44612380D02*
X83914285Y-44564761D01*
X83961904Y-44469523D01*
X83961904Y-43612380D01*
X83533333Y-44993333D02*
X83485714Y-44945714D01*
X83390476Y-44802857D01*
X83342857Y-44707619D01*
X83295238Y-44564761D01*
X83247619Y-44326666D01*
X83247619Y-44136190D01*
X83295238Y-43898095D01*
X83342857Y-43755238D01*
X83390476Y-43660000D01*
X83485714Y-43517142D01*
X83533333Y-43469523D01*
X92509523Y-48213333D02*
X92557142Y-48165714D01*
X92652380Y-48022857D01*
X92700000Y-47927619D01*
X92747619Y-47784761D01*
X92795238Y-47546666D01*
X92795238Y-47356190D01*
X92747619Y-47118095D01*
X92700000Y-46975238D01*
X92652380Y-46880000D01*
X92557142Y-46737142D01*
X92509523Y-46689523D01*
X92128571Y-47832380D02*
X92128571Y-46832380D01*
X91557142Y-47832380D01*
X91557142Y-46832380D01*
X91176190Y-48213333D02*
X91128571Y-48165714D01*
X91033333Y-48022857D01*
X90985714Y-47927619D01*
X90938095Y-47784761D01*
X90890476Y-47546666D01*
X90890476Y-47356190D01*
X90938095Y-47118095D01*
X90985714Y-46975238D01*
X91033333Y-46880000D01*
X91128571Y-46737142D01*
X91176190Y-46689523D01*
X90414285Y-47737142D02*
X90366666Y-47784761D01*
X90414285Y-47832380D01*
X90461904Y-47784761D01*
X90414285Y-47737142D01*
X90414285Y-47832380D01*
X90414285Y-47213333D02*
X90366666Y-47260952D01*
X90414285Y-47308571D01*
X90461904Y-47260952D01*
X90414285Y-47213333D01*
X90414285Y-47308571D01*
X89223809Y-47546666D02*
X88747619Y-47546666D01*
X89319047Y-47832380D02*
X88985714Y-46832380D01*
X88652380Y-47832380D01*
X87747619Y-47737142D02*
X87795238Y-47784761D01*
X87938095Y-47832380D01*
X88033333Y-47832380D01*
X88176190Y-47784761D01*
X88271428Y-47689523D01*
X88319047Y-47594285D01*
X88366666Y-47403809D01*
X88366666Y-47260952D01*
X88319047Y-47070476D01*
X88271428Y-46975238D01*
X88176190Y-46880000D01*
X88033333Y-46832380D01*
X87938095Y-46832380D01*
X87795238Y-46880000D01*
X87747619Y-46927619D01*
X86557142Y-47832380D02*
X86557142Y-46832380D01*
X85985714Y-47832380D01*
X85985714Y-46832380D01*
X85128571Y-47784761D02*
X85223809Y-47832380D01*
X85414285Y-47832380D01*
X85509523Y-47784761D01*
X85557142Y-47689523D01*
X85557142Y-47308571D01*
X85509523Y-47213333D01*
X85414285Y-47165714D01*
X85223809Y-47165714D01*
X85128571Y-47213333D01*
X85080952Y-47308571D01*
X85080952Y-47403809D01*
X85557142Y-47499047D01*
X84223809Y-47165714D02*
X84223809Y-47832380D01*
X84652380Y-47165714D02*
X84652380Y-47689523D01*
X84604761Y-47784761D01*
X84509523Y-47832380D01*
X84366666Y-47832380D01*
X84271428Y-47784761D01*
X84223809Y-47737142D01*
X83890476Y-47165714D02*
X83509523Y-47165714D01*
X83747619Y-46832380D02*
X83747619Y-47689523D01*
X83700000Y-47784761D01*
X83604761Y-47832380D01*
X83509523Y-47832380D01*
X83176190Y-47832380D02*
X83176190Y-47165714D01*
X83176190Y-47356190D02*
X83128571Y-47260952D01*
X83080952Y-47213333D01*
X82985714Y-47165714D01*
X82890476Y-47165714D01*
X82128571Y-47832380D02*
X82128571Y-47308571D01*
X82176190Y-47213333D01*
X82271428Y-47165714D01*
X82461904Y-47165714D01*
X82557142Y-47213333D01*
X82128571Y-47784761D02*
X82223809Y-47832380D01*
X82461904Y-47832380D01*
X82557142Y-47784761D01*
X82604761Y-47689523D01*
X82604761Y-47594285D01*
X82557142Y-47499047D01*
X82461904Y-47451428D01*
X82223809Y-47451428D01*
X82128571Y-47403809D01*
X81509523Y-47832380D02*
X81604761Y-47784761D01*
X81652380Y-47689523D01*
X81652380Y-46832380D01*
X91128571Y-49823333D02*
X91176190Y-49775714D01*
X91271428Y-49632857D01*
X91319047Y-49537619D01*
X91366666Y-49394761D01*
X91414285Y-49156666D01*
X91414285Y-48966190D01*
X91366666Y-48728095D01*
X91319047Y-48585238D01*
X91271428Y-48490000D01*
X91176190Y-48347142D01*
X91128571Y-48299523D01*
X90271428Y-49442380D02*
X90747619Y-49442380D01*
X90747619Y-48442380D01*
X90033333Y-49823333D02*
X89985714Y-49775714D01*
X89890476Y-49632857D01*
X89842857Y-49537619D01*
X89795238Y-49394761D01*
X89747619Y-49156666D01*
X89747619Y-48966190D01*
X89795238Y-48728095D01*
X89842857Y-48585238D01*
X89890476Y-48490000D01*
X89985714Y-48347142D01*
X90033333Y-48299523D01*
X89271428Y-49347142D02*
X89223809Y-49394761D01*
X89271428Y-49442380D01*
X89319047Y-49394761D01*
X89271428Y-49347142D01*
X89271428Y-49442380D01*
X89271428Y-48823333D02*
X89223809Y-48870952D01*
X89271428Y-48918571D01*
X89319047Y-48870952D01*
X89271428Y-48823333D01*
X89271428Y-48918571D01*
X88080952Y-49156666D02*
X87604761Y-49156666D01*
X88176190Y-49442380D02*
X87842857Y-48442380D01*
X87509523Y-49442380D01*
X86604761Y-49347142D02*
X86652380Y-49394761D01*
X86795238Y-49442380D01*
X86890476Y-49442380D01*
X87033333Y-49394761D01*
X87128571Y-49299523D01*
X87176190Y-49204285D01*
X87223809Y-49013809D01*
X87223809Y-48870952D01*
X87176190Y-48680476D01*
X87128571Y-48585238D01*
X87033333Y-48490000D01*
X86890476Y-48442380D01*
X86795238Y-48442380D01*
X86652380Y-48490000D01*
X86604761Y-48537619D01*
X84938095Y-49442380D02*
X85414285Y-49442380D01*
X85414285Y-48442380D01*
X84604761Y-49442380D02*
X84604761Y-48775714D01*
X84604761Y-48442380D02*
X84652380Y-48490000D01*
X84604761Y-48537619D01*
X84557142Y-48490000D01*
X84604761Y-48442380D01*
X84604761Y-48537619D01*
X84223809Y-48775714D02*
X83985714Y-49442380D01*
X83747619Y-48775714D01*
X82985714Y-49394761D02*
X83080952Y-49442380D01*
X83271428Y-49442380D01*
X83366666Y-49394761D01*
X83414285Y-49299523D01*
X83414285Y-48918571D01*
X83366666Y-48823333D01*
X83271428Y-48775714D01*
X83080952Y-48775714D01*
X82985714Y-48823333D01*
X82938095Y-48918571D01*
X82938095Y-49013809D01*
X83414285Y-49109047D01*
X92223809Y-51433333D02*
X92271428Y-51385714D01*
X92366666Y-51242857D01*
X92414285Y-51147619D01*
X92461904Y-51004761D01*
X92509523Y-50766666D01*
X92509523Y-50576190D01*
X92461904Y-50338095D01*
X92414285Y-50195238D01*
X92366666Y-50100000D01*
X92271428Y-49957142D01*
X92223809Y-49909523D01*
X91938095Y-50052380D02*
X91700000Y-51052380D01*
X91509523Y-50338095D01*
X91319047Y-51052380D01*
X91080952Y-50052380D01*
X90795238Y-51433333D02*
X90747619Y-51385714D01*
X90652380Y-51242857D01*
X90604761Y-51147619D01*
X90557142Y-51004761D01*
X90509523Y-50766666D01*
X90509523Y-50576190D01*
X90557142Y-50338095D01*
X90604761Y-50195238D01*
X90652380Y-50100000D01*
X90747619Y-49957142D01*
X90795238Y-49909523D01*
X90033333Y-50957142D02*
X89985714Y-51004761D01*
X90033333Y-51052380D01*
X90080952Y-51004761D01*
X90033333Y-50957142D01*
X90033333Y-51052380D01*
X90033333Y-50433333D02*
X89985714Y-50480952D01*
X90033333Y-50528571D01*
X90080952Y-50480952D01*
X90033333Y-50433333D01*
X90033333Y-50528571D01*
X88795238Y-51052380D02*
X88795238Y-50052380D01*
X88795238Y-50528571D02*
X88223809Y-50528571D01*
X88223809Y-51052380D02*
X88223809Y-50052380D01*
X87604761Y-51052380D02*
X87700000Y-51004761D01*
X87747619Y-50957142D01*
X87795238Y-50861904D01*
X87795238Y-50576190D01*
X87747619Y-50480952D01*
X87700000Y-50433333D01*
X87604761Y-50385714D01*
X87461904Y-50385714D01*
X87366666Y-50433333D01*
X87319047Y-50480952D01*
X87271428Y-50576190D01*
X87271428Y-50861904D01*
X87319047Y-50957142D01*
X87366666Y-51004761D01*
X87461904Y-51052380D01*
X87604761Y-51052380D01*
X86985714Y-50385714D02*
X86604761Y-50385714D01*
X86842857Y-50052380D02*
X86842857Y-50909523D01*
X86795238Y-51004761D01*
X86700000Y-51052380D01*
X86604761Y-51052380D01*
X85604761Y-50052380D02*
X85366666Y-51052380D01*
X85176190Y-50338095D01*
X84985714Y-51052380D01*
X84747619Y-50052380D01*
X83938095Y-51052380D02*
X83938095Y-50528571D01*
X83985714Y-50433333D01*
X84080952Y-50385714D01*
X84271428Y-50385714D01*
X84366666Y-50433333D01*
X83938095Y-51004761D02*
X84033333Y-51052380D01*
X84271428Y-51052380D01*
X84366666Y-51004761D01*
X84414285Y-50909523D01*
X84414285Y-50814285D01*
X84366666Y-50719047D01*
X84271428Y-50671428D01*
X84033333Y-50671428D01*
X83938095Y-50623809D01*
X83604761Y-50385714D02*
X83223809Y-50385714D01*
X83461904Y-50052380D02*
X83461904Y-50909523D01*
X83414285Y-51004761D01*
X83319047Y-51052380D01*
X83223809Y-51052380D01*
X82509523Y-51004761D02*
X82604761Y-51052380D01*
X82795238Y-51052380D01*
X82890476Y-51004761D01*
X82938095Y-50909523D01*
X82938095Y-50528571D01*
X82890476Y-50433333D01*
X82795238Y-50385714D01*
X82604761Y-50385714D01*
X82509523Y-50433333D01*
X82461904Y-50528571D01*
X82461904Y-50623809D01*
X82938095Y-50719047D01*
X82033333Y-51052380D02*
X82033333Y-50385714D01*
X82033333Y-50576190D02*
X81985714Y-50480952D01*
X81938095Y-50433333D01*
X81842857Y-50385714D01*
X81747619Y-50385714D01*
X91319047Y-53043333D02*
X91366666Y-52995714D01*
X91461904Y-52852857D01*
X91509523Y-52757619D01*
X91557142Y-52614761D01*
X91604761Y-52376666D01*
X91604761Y-52186190D01*
X91557142Y-51948095D01*
X91509523Y-51805238D01*
X91461904Y-51710000D01*
X91366666Y-51567142D01*
X91319047Y-51519523D01*
X90938095Y-52662380D02*
X90938095Y-51662380D01*
X90938095Y-52138571D02*
X90366666Y-52138571D01*
X90366666Y-52662380D02*
X90366666Y-51662380D01*
X89985714Y-53043333D02*
X89938095Y-52995714D01*
X89842857Y-52852857D01*
X89795238Y-52757619D01*
X89747619Y-52614761D01*
X89700000Y-52376666D01*
X89700000Y-52186190D01*
X89747619Y-51948095D01*
X89795238Y-51805238D01*
X89842857Y-51710000D01*
X89938095Y-51567142D01*
X89985714Y-51519523D01*
X89223809Y-52567142D02*
X89176190Y-52614761D01*
X89223809Y-52662380D01*
X89271428Y-52614761D01*
X89223809Y-52567142D01*
X89223809Y-52662380D01*
X89223809Y-52043333D02*
X89176190Y-52090952D01*
X89223809Y-52138571D01*
X89271428Y-52090952D01*
X89223809Y-52043333D01*
X89223809Y-52138571D01*
X87985714Y-52662380D02*
X87985714Y-51662380D01*
X87985714Y-52138571D02*
X87414285Y-52138571D01*
X87414285Y-52662380D02*
X87414285Y-51662380D01*
X86557142Y-52614761D02*
X86652380Y-52662380D01*
X86842857Y-52662380D01*
X86938095Y-52614761D01*
X86985714Y-52519523D01*
X86985714Y-52138571D01*
X86938095Y-52043333D01*
X86842857Y-51995714D01*
X86652380Y-51995714D01*
X86557142Y-52043333D01*
X86509523Y-52138571D01*
X86509523Y-52233809D01*
X86985714Y-52329047D01*
X85652380Y-52662380D02*
X85652380Y-52138571D01*
X85700000Y-52043333D01*
X85795238Y-51995714D01*
X85985714Y-51995714D01*
X86080952Y-52043333D01*
X85652380Y-52614761D02*
X85747619Y-52662380D01*
X85985714Y-52662380D01*
X86080952Y-52614761D01*
X86128571Y-52519523D01*
X86128571Y-52424285D01*
X86080952Y-52329047D01*
X85985714Y-52281428D01*
X85747619Y-52281428D01*
X85652380Y-52233809D01*
X85319047Y-51995714D02*
X84938095Y-51995714D01*
X85176190Y-51662380D02*
X85176190Y-52519523D01*
X85128571Y-52614761D01*
X85033333Y-52662380D01*
X84938095Y-52662380D01*
X84604761Y-52662380D02*
X84604761Y-51995714D01*
X84604761Y-51662380D02*
X84652380Y-51710000D01*
X84604761Y-51757619D01*
X84557142Y-51710000D01*
X84604761Y-51662380D01*
X84604761Y-51757619D01*
X84128571Y-51995714D02*
X84128571Y-52662380D01*
X84128571Y-52090952D02*
X84080952Y-52043333D01*
X83985714Y-51995714D01*
X83842857Y-51995714D01*
X83747619Y-52043333D01*
X83700000Y-52138571D01*
X83700000Y-52662380D01*
X82795238Y-51995714D02*
X82795238Y-52805238D01*
X82842857Y-52900476D01*
X82890476Y-52948095D01*
X82985714Y-52995714D01*
X83128571Y-52995714D01*
X83223809Y-52948095D01*
X82795238Y-52614761D02*
X82890476Y-52662380D01*
X83080952Y-52662380D01*
X83176190Y-52614761D01*
X83223809Y-52567142D01*
X83271428Y-52471904D01*
X83271428Y-52186190D01*
X83223809Y-52090952D01*
X83176190Y-52043333D01*
X83080952Y-51995714D01*
X82890476Y-51995714D01*
X82795238Y-52043333D01*
X92842857Y-54653333D02*
X92890476Y-54605714D01*
X92985714Y-54462857D01*
X93033333Y-54367619D01*
X93080952Y-54224761D01*
X93128571Y-53986666D01*
X93128571Y-53796190D01*
X93080952Y-53558095D01*
X93033333Y-53415238D01*
X92985714Y-53320000D01*
X92890476Y-53177142D01*
X92842857Y-53129523D01*
X92461904Y-54272380D02*
X92461904Y-53272380D01*
X92461904Y-53748571D02*
X91890476Y-53748571D01*
X91890476Y-54272380D02*
X91890476Y-53272380D01*
X90985714Y-53605714D02*
X90985714Y-54272380D01*
X91414285Y-53605714D02*
X91414285Y-54129523D01*
X91366666Y-54224761D01*
X91271428Y-54272380D01*
X91128571Y-54272380D01*
X91033333Y-54224761D01*
X90985714Y-54177142D01*
X90509523Y-54272380D02*
X90509523Y-53605714D01*
X90509523Y-53700952D02*
X90461904Y-53653333D01*
X90366666Y-53605714D01*
X90223809Y-53605714D01*
X90128571Y-53653333D01*
X90080952Y-53748571D01*
X90080952Y-54272380D01*
X90080952Y-53748571D02*
X90033333Y-53653333D01*
X89938095Y-53605714D01*
X89795238Y-53605714D01*
X89700000Y-53653333D01*
X89652380Y-53748571D01*
X89652380Y-54272380D01*
X89271428Y-54653333D02*
X89223809Y-54605714D01*
X89128571Y-54462857D01*
X89080952Y-54367619D01*
X89033333Y-54224761D01*
X88985714Y-53986666D01*
X88985714Y-53796190D01*
X89033333Y-53558095D01*
X89080952Y-53415238D01*
X89128571Y-53320000D01*
X89223809Y-53177142D01*
X89271428Y-53129523D01*
X88509523Y-54177142D02*
X88461904Y-54224761D01*
X88509523Y-54272380D01*
X88557142Y-54224761D01*
X88509523Y-54177142D01*
X88509523Y-54272380D01*
X88509523Y-53653333D02*
X88461904Y-53700952D01*
X88509523Y-53748571D01*
X88557142Y-53700952D01*
X88509523Y-53653333D01*
X88509523Y-53748571D01*
X87271428Y-54272380D02*
X87271428Y-53272380D01*
X87271428Y-53748571D02*
X86700000Y-53748571D01*
X86700000Y-54272380D02*
X86700000Y-53272380D01*
X85795238Y-53605714D02*
X85795238Y-54272380D01*
X86223809Y-53605714D02*
X86223809Y-54129523D01*
X86176190Y-54224761D01*
X86080952Y-54272380D01*
X85938095Y-54272380D01*
X85842857Y-54224761D01*
X85795238Y-54177142D01*
X85319047Y-54272380D02*
X85319047Y-53605714D01*
X85319047Y-53700952D02*
X85271428Y-53653333D01*
X85176190Y-53605714D01*
X85033333Y-53605714D01*
X84938095Y-53653333D01*
X84890476Y-53748571D01*
X84890476Y-54272380D01*
X84890476Y-53748571D02*
X84842857Y-53653333D01*
X84747619Y-53605714D01*
X84604761Y-53605714D01*
X84509523Y-53653333D01*
X84461904Y-53748571D01*
X84461904Y-54272380D01*
X83985714Y-54272380D02*
X83985714Y-53605714D01*
X83985714Y-53272380D02*
X84033333Y-53320000D01*
X83985714Y-53367619D01*
X83938095Y-53320000D01*
X83985714Y-53272380D01*
X83985714Y-53367619D01*
X83080952Y-54272380D02*
X83080952Y-53272380D01*
X83080952Y-54224761D02*
X83176190Y-54272380D01*
X83366666Y-54272380D01*
X83461904Y-54224761D01*
X83509523Y-54177142D01*
X83557142Y-54081904D01*
X83557142Y-53796190D01*
X83509523Y-53700952D01*
X83461904Y-53653333D01*
X83366666Y-53605714D01*
X83176190Y-53605714D01*
X83080952Y-53653333D01*
X82604761Y-54272380D02*
X82604761Y-53605714D01*
X82604761Y-53272380D02*
X82652380Y-53320000D01*
X82604761Y-53367619D01*
X82557142Y-53320000D01*
X82604761Y-53272380D01*
X82604761Y-53367619D01*
X82271428Y-53605714D02*
X81890476Y-53605714D01*
X82128571Y-53272380D02*
X82128571Y-54129523D01*
X82080952Y-54224761D01*
X81985714Y-54272380D01*
X81890476Y-54272380D01*
X81652380Y-53605714D02*
X81414285Y-54272380D01*
X81176190Y-53605714D02*
X81414285Y-54272380D01*
X81509523Y-54510476D01*
X81557142Y-54558095D01*
X81652380Y-54605714D01*
X95057142Y-54882380D02*
X94819047Y-55882380D01*
X94628571Y-55168095D01*
X94438095Y-55882380D01*
X94200000Y-54882380D01*
X93866666Y-54977619D02*
X93819047Y-54930000D01*
X93723809Y-54882380D01*
X93485714Y-54882380D01*
X93390476Y-54930000D01*
X93342857Y-54977619D01*
X93295238Y-55072857D01*
X93295238Y-55168095D01*
X93342857Y-55310952D01*
X93914285Y-55882380D01*
X93295238Y-55882380D01*
X92866666Y-55787142D02*
X92819047Y-55834761D01*
X92866666Y-55882380D01*
X92914285Y-55834761D01*
X92866666Y-55787142D01*
X92866666Y-55882380D01*
X92866666Y-55263333D02*
X92819047Y-55310952D01*
X92866666Y-55358571D01*
X92914285Y-55310952D01*
X92866666Y-55263333D01*
X92866666Y-55358571D01*
X91676190Y-54977619D02*
X91628571Y-54930000D01*
X91533333Y-54882380D01*
X91295238Y-54882380D01*
X91200000Y-54930000D01*
X91152380Y-54977619D01*
X91104761Y-55072857D01*
X91104761Y-55168095D01*
X91152380Y-55310952D01*
X91723809Y-55882380D01*
X91104761Y-55882380D01*
X90676190Y-55501428D02*
X89914285Y-55501428D01*
X89485714Y-55834761D02*
X89390476Y-55882380D01*
X89200000Y-55882380D01*
X89104761Y-55834761D01*
X89057142Y-55739523D01*
X89057142Y-55691904D01*
X89104761Y-55596666D01*
X89200000Y-55549047D01*
X89342857Y-55549047D01*
X89438095Y-55501428D01*
X89485714Y-55406190D01*
X89485714Y-55358571D01*
X89438095Y-55263333D01*
X89342857Y-55215714D01*
X89200000Y-55215714D01*
X89104761Y-55263333D01*
X88771428Y-55215714D02*
X88390476Y-55215714D01*
X88628571Y-54882380D02*
X88628571Y-55739523D01*
X88580952Y-55834761D01*
X88485714Y-55882380D01*
X88390476Y-55882380D01*
X87628571Y-55882380D02*
X87628571Y-55358571D01*
X87676190Y-55263333D01*
X87771428Y-55215714D01*
X87961904Y-55215714D01*
X88057142Y-55263333D01*
X87628571Y-55834761D02*
X87723809Y-55882380D01*
X87961904Y-55882380D01*
X88057142Y-55834761D01*
X88104761Y-55739523D01*
X88104761Y-55644285D01*
X88057142Y-55549047D01*
X87961904Y-55501428D01*
X87723809Y-55501428D01*
X87628571Y-55453809D01*
X86723809Y-55215714D02*
X86723809Y-56025238D01*
X86771428Y-56120476D01*
X86819047Y-56168095D01*
X86914285Y-56215714D01*
X87057142Y-56215714D01*
X87152380Y-56168095D01*
X86723809Y-55834761D02*
X86819047Y-55882380D01*
X87009523Y-55882380D01*
X87104761Y-55834761D01*
X87152380Y-55787142D01*
X87200000Y-55691904D01*
X87200000Y-55406190D01*
X87152380Y-55310952D01*
X87104761Y-55263333D01*
X87009523Y-55215714D01*
X86819047Y-55215714D01*
X86723809Y-55263333D01*
X85866666Y-55834761D02*
X85961904Y-55882380D01*
X86152380Y-55882380D01*
X86247619Y-55834761D01*
X86295238Y-55739523D01*
X86295238Y-55358571D01*
X86247619Y-55263333D01*
X86152380Y-55215714D01*
X85961904Y-55215714D01*
X85866666Y-55263333D01*
X85819047Y-55358571D01*
X85819047Y-55453809D01*
X86295238Y-55549047D01*
X84628571Y-55882380D02*
X84628571Y-54882380D01*
X84628571Y-55358571D02*
X84057142Y-55358571D01*
X84057142Y-55882380D02*
X84057142Y-54882380D01*
X83200000Y-55834761D02*
X83295238Y-55882380D01*
X83485714Y-55882380D01*
X83580952Y-55834761D01*
X83628571Y-55739523D01*
X83628571Y-55358571D01*
X83580952Y-55263333D01*
X83485714Y-55215714D01*
X83295238Y-55215714D01*
X83200000Y-55263333D01*
X83152380Y-55358571D01*
X83152380Y-55453809D01*
X83628571Y-55549047D01*
X82295238Y-55882380D02*
X82295238Y-55358571D01*
X82342857Y-55263333D01*
X82438095Y-55215714D01*
X82628571Y-55215714D01*
X82723809Y-55263333D01*
X82295238Y-55834761D02*
X82390476Y-55882380D01*
X82628571Y-55882380D01*
X82723809Y-55834761D01*
X82771428Y-55739523D01*
X82771428Y-55644285D01*
X82723809Y-55549047D01*
X82628571Y-55501428D01*
X82390476Y-55501428D01*
X82295238Y-55453809D01*
X81961904Y-55215714D02*
X81580952Y-55215714D01*
X81819047Y-54882380D02*
X81819047Y-55739523D01*
X81771428Y-55834761D01*
X81676190Y-55882380D01*
X81580952Y-55882380D01*
X81247619Y-55882380D02*
X81247619Y-55215714D01*
X81247619Y-54882380D02*
X81295238Y-54930000D01*
X81247619Y-54977619D01*
X81200000Y-54930000D01*
X81247619Y-54882380D01*
X81247619Y-54977619D01*
X80771428Y-55215714D02*
X80771428Y-55882380D01*
X80771428Y-55310952D02*
X80723809Y-55263333D01*
X80628571Y-55215714D01*
X80485714Y-55215714D01*
X80390476Y-55263333D01*
X80342857Y-55358571D01*
X80342857Y-55882380D01*
X79438095Y-55215714D02*
X79438095Y-56025238D01*
X79485714Y-56120476D01*
X79533333Y-56168095D01*
X79628571Y-56215714D01*
X79771428Y-56215714D01*
X79866666Y-56168095D01*
X79438095Y-55834761D02*
X79533333Y-55882380D01*
X79723809Y-55882380D01*
X79819047Y-55834761D01*
X79866666Y-55787142D01*
X79914285Y-55691904D01*
X79914285Y-55406190D01*
X79866666Y-55310952D01*
X79819047Y-55263333D01*
X79723809Y-55215714D01*
X79533333Y-55215714D01*
X79438095Y-55263333D01*
X94104761Y-56968571D02*
X93771428Y-56968571D01*
X93628571Y-57492380D02*
X94104761Y-57492380D01*
X94104761Y-56492380D01*
X93628571Y-56492380D01*
X93200000Y-57397142D02*
X93152380Y-57444761D01*
X93200000Y-57492380D01*
X93247619Y-57444761D01*
X93200000Y-57397142D01*
X93200000Y-57492380D01*
X93200000Y-56873333D02*
X93152380Y-56920952D01*
X93200000Y-56968571D01*
X93247619Y-56920952D01*
X93200000Y-56873333D01*
X93200000Y-56968571D01*
X91961904Y-56968571D02*
X91628571Y-56968571D01*
X91485714Y-57492380D02*
X91961904Y-57492380D01*
X91961904Y-56492380D01*
X91485714Y-56492380D01*
X91057142Y-57492380D02*
X91057142Y-56825714D01*
X91057142Y-56920952D02*
X91009523Y-56873333D01*
X90914285Y-56825714D01*
X90771428Y-56825714D01*
X90676190Y-56873333D01*
X90628571Y-56968571D01*
X90628571Y-57492380D01*
X90628571Y-56968571D02*
X90580952Y-56873333D01*
X90485714Y-56825714D01*
X90342857Y-56825714D01*
X90247619Y-56873333D01*
X90200000Y-56968571D01*
X90200000Y-57492380D01*
X89342857Y-57444761D02*
X89438095Y-57492380D01*
X89628571Y-57492380D01*
X89723809Y-57444761D01*
X89771428Y-57349523D01*
X89771428Y-56968571D01*
X89723809Y-56873333D01*
X89628571Y-56825714D01*
X89438095Y-56825714D01*
X89342857Y-56873333D01*
X89295238Y-56968571D01*
X89295238Y-57063809D01*
X89771428Y-57159047D01*
X88866666Y-57492380D02*
X88866666Y-56825714D01*
X88866666Y-57016190D02*
X88819047Y-56920952D01*
X88771428Y-56873333D01*
X88676190Y-56825714D01*
X88580952Y-56825714D01*
X87819047Y-56825714D02*
X87819047Y-57635238D01*
X87866666Y-57730476D01*
X87914285Y-57778095D01*
X88009523Y-57825714D01*
X88152380Y-57825714D01*
X88247619Y-57778095D01*
X87819047Y-57444761D02*
X87914285Y-57492380D01*
X88104761Y-57492380D01*
X88200000Y-57444761D01*
X88247619Y-57397142D01*
X88295238Y-57301904D01*
X88295238Y-57016190D01*
X88247619Y-56920952D01*
X88200000Y-56873333D01*
X88104761Y-56825714D01*
X87914285Y-56825714D01*
X87819047Y-56873333D01*
X86961904Y-57444761D02*
X87057142Y-57492380D01*
X87247619Y-57492380D01*
X87342857Y-57444761D01*
X87390476Y-57349523D01*
X87390476Y-56968571D01*
X87342857Y-56873333D01*
X87247619Y-56825714D01*
X87057142Y-56825714D01*
X86961904Y-56873333D01*
X86914285Y-56968571D01*
X86914285Y-57063809D01*
X87390476Y-57159047D01*
X86485714Y-56825714D02*
X86485714Y-57492380D01*
X86485714Y-56920952D02*
X86438095Y-56873333D01*
X86342857Y-56825714D01*
X86200000Y-56825714D01*
X86104761Y-56873333D01*
X86057142Y-56968571D01*
X86057142Y-57492380D01*
X85152380Y-57444761D02*
X85247619Y-57492380D01*
X85438095Y-57492380D01*
X85533333Y-57444761D01*
X85580952Y-57397142D01*
X85628571Y-57301904D01*
X85628571Y-57016190D01*
X85580952Y-56920952D01*
X85533333Y-56873333D01*
X85438095Y-56825714D01*
X85247619Y-56825714D01*
X85152380Y-56873333D01*
X84819047Y-56825714D02*
X84580952Y-57492380D01*
X84342857Y-56825714D02*
X84580952Y-57492380D01*
X84676190Y-57730476D01*
X84723809Y-57778095D01*
X84819047Y-57825714D01*
X83200000Y-57492380D02*
X83200000Y-56492380D01*
X83200000Y-56968571D02*
X82628571Y-56968571D01*
X82628571Y-57492380D02*
X82628571Y-56492380D01*
X81771428Y-57444761D02*
X81866666Y-57492380D01*
X82057142Y-57492380D01*
X82152380Y-57444761D01*
X82200000Y-57349523D01*
X82200000Y-56968571D01*
X82152380Y-56873333D01*
X82057142Y-56825714D01*
X81866666Y-56825714D01*
X81771428Y-56873333D01*
X81723809Y-56968571D01*
X81723809Y-57063809D01*
X82200000Y-57159047D01*
X80866666Y-57492380D02*
X80866666Y-56968571D01*
X80914285Y-56873333D01*
X81009523Y-56825714D01*
X81200000Y-56825714D01*
X81295238Y-56873333D01*
X80866666Y-57444761D02*
X80961904Y-57492380D01*
X81200000Y-57492380D01*
X81295238Y-57444761D01*
X81342857Y-57349523D01*
X81342857Y-57254285D01*
X81295238Y-57159047D01*
X81200000Y-57111428D01*
X80961904Y-57111428D01*
X80866666Y-57063809D01*
X80533333Y-56825714D02*
X80152380Y-56825714D01*
X80390476Y-56492380D02*
X80390476Y-57349523D01*
X80342857Y-57444761D01*
X80247619Y-57492380D01*
X80152380Y-57492380D01*
X121411904Y-105545000D02*
X121507142Y-105497380D01*
X121650000Y-105497380D01*
X121792857Y-105545000D01*
X121888095Y-105640238D01*
X121935714Y-105735476D01*
X121983333Y-105925952D01*
X121983333Y-106068809D01*
X121935714Y-106259285D01*
X121888095Y-106354523D01*
X121792857Y-106449761D01*
X121650000Y-106497380D01*
X121554761Y-106497380D01*
X121411904Y-106449761D01*
X121364285Y-106402142D01*
X121364285Y-106068809D01*
X121554761Y-106068809D01*
X120935714Y-106497380D02*
X120935714Y-105497380D01*
X120364285Y-106497380D01*
X120364285Y-105497380D01*
X119888095Y-106497380D02*
X119888095Y-105497380D01*
X119650000Y-105497380D01*
X119507142Y-105545000D01*
X119411904Y-105640238D01*
X119364285Y-105735476D01*
X119316666Y-105925952D01*
X119316666Y-106068809D01*
X119364285Y-106259285D01*
X119411904Y-106354523D01*
X119507142Y-106449761D01*
X119650000Y-106497380D01*
X119888095Y-106497380D01*
X118300476Y-98893380D02*
X118776666Y-98893380D01*
X118824285Y-99369571D01*
X118776666Y-99321952D01*
X118681428Y-99274333D01*
X118443333Y-99274333D01*
X118348095Y-99321952D01*
X118300476Y-99369571D01*
X118252857Y-99464809D01*
X118252857Y-99702904D01*
X118300476Y-99798142D01*
X118348095Y-99845761D01*
X118443333Y-99893380D01*
X118681428Y-99893380D01*
X118776666Y-99845761D01*
X118824285Y-99798142D01*
X117967142Y-98893380D02*
X117633809Y-99893380D01*
X117300476Y-98893380D01*
X121927714Y-89193666D02*
X121451523Y-89193666D01*
X122022952Y-89479380D02*
X121689619Y-88479380D01*
X121356285Y-89479380D01*
X120451523Y-89384142D02*
X120499142Y-89431761D01*
X120642000Y-89479380D01*
X120737238Y-89479380D01*
X120880095Y-89431761D01*
X120975333Y-89336523D01*
X121022952Y-89241285D01*
X121070571Y-89050809D01*
X121070571Y-88907952D01*
X121022952Y-88717476D01*
X120975333Y-88622238D01*
X120880095Y-88527000D01*
X120737238Y-88479380D01*
X120642000Y-88479380D01*
X120499142Y-88527000D01*
X120451523Y-88574619D01*
X119308666Y-88431761D02*
X120165809Y-89717476D01*
X118975333Y-89479380D02*
X118975333Y-88479380D01*
X118403904Y-89479380D01*
X118403904Y-88479380D01*
X158900761Y-82351714D02*
X158948380Y-82494571D01*
X158948380Y-82732666D01*
X158900761Y-82827904D01*
X158853142Y-82875523D01*
X158757904Y-82923142D01*
X158662666Y-82923142D01*
X158567428Y-82875523D01*
X158519809Y-82827904D01*
X158472190Y-82732666D01*
X158424571Y-82542190D01*
X158376952Y-82446952D01*
X158329333Y-82399333D01*
X158234095Y-82351714D01*
X158138857Y-82351714D01*
X158043619Y-82399333D01*
X157996000Y-82446952D01*
X157948380Y-82542190D01*
X157948380Y-82780285D01*
X157996000Y-82923142D01*
X158948380Y-83351714D02*
X157948380Y-83351714D01*
X157948380Y-83589809D01*
X157996000Y-83732666D01*
X158091238Y-83827904D01*
X158186476Y-83875523D01*
X158376952Y-83923142D01*
X158519809Y-83923142D01*
X158710285Y-83875523D01*
X158805523Y-83827904D01*
X158900761Y-83732666D01*
X158948380Y-83589809D01*
X158948380Y-83351714D01*
X158662666Y-84304095D02*
X158662666Y-84780285D01*
X158948380Y-84208857D02*
X157948380Y-84542190D01*
X158948380Y-84875523D01*
X157869000Y-76962095D02*
X157821380Y-76866857D01*
X157821380Y-76724000D01*
X157869000Y-76581142D01*
X157964238Y-76485904D01*
X158059476Y-76438285D01*
X158249952Y-76390666D01*
X158392809Y-76390666D01*
X158583285Y-76438285D01*
X158678523Y-76485904D01*
X158773761Y-76581142D01*
X158821380Y-76724000D01*
X158821380Y-76819238D01*
X158773761Y-76962095D01*
X158726142Y-77009714D01*
X158392809Y-77009714D01*
X158392809Y-76819238D01*
X158821380Y-77438285D02*
X157821380Y-77438285D01*
X158821380Y-78009714D01*
X157821380Y-78009714D01*
X158821380Y-78485904D02*
X157821380Y-78485904D01*
X157821380Y-78724000D01*
X157869000Y-78866857D01*
X157964238Y-78962095D01*
X158059476Y-79009714D01*
X158249952Y-79057333D01*
X158392809Y-79057333D01*
X158583285Y-79009714D01*
X158678523Y-78962095D01*
X158773761Y-78866857D01*
X158821380Y-78724000D01*
X158821380Y-78485904D01*
%TO.C,G\u002A\u002A\u002A*%
G36*
X97258000Y-51627667D02*
G01*
X97215667Y-51670000D01*
X97173334Y-51627667D01*
X97215667Y-51585334D01*
X97258000Y-51627667D01*
G37*
G36*
X104927236Y-46973468D02*
G01*
X104945545Y-47155820D01*
X104958043Y-47446091D01*
X104962667Y-47809134D01*
X104962667Y-48689601D01*
X104179500Y-49155532D01*
X103918878Y-49310340D01*
X103643440Y-49473302D01*
X103451954Y-49585809D01*
X103375167Y-49629732D01*
X103367588Y-49568237D01*
X103360747Y-49368689D01*
X103356256Y-49063308D01*
X103354835Y-48685500D01*
X103355669Y-47733000D01*
X104107500Y-47330833D01*
X104325843Y-47215210D01*
X104612578Y-47067454D01*
X104819053Y-46966222D01*
X104911000Y-46928667D01*
X104927236Y-46973468D01*
G37*
G36*
X103281506Y-51774062D02*
G01*
X103354000Y-51832837D01*
X103359811Y-51857300D01*
X103438879Y-51994553D01*
X103580967Y-52180743D01*
X103613528Y-52219707D01*
X103730369Y-52377471D01*
X103744056Y-52465748D01*
X103665634Y-52530113D01*
X103583851Y-52616331D01*
X103536879Y-52797378D01*
X103523334Y-53107493D01*
X103520216Y-53259058D01*
X103479079Y-53565427D01*
X103385927Y-53742646D01*
X103216511Y-53834958D01*
X102899093Y-53854526D01*
X102709048Y-53831210D01*
X102573564Y-53768502D01*
X102523470Y-53645048D01*
X102544397Y-53497492D01*
X102692803Y-53433381D01*
X102751923Y-53421806D01*
X102842706Y-53363549D01*
X102889774Y-53224809D01*
X102913925Y-52961167D01*
X102923820Y-52734600D01*
X102908502Y-52585254D01*
X102845987Y-52526746D01*
X102717536Y-52516667D01*
X102652202Y-52514604D01*
X102533388Y-52467547D01*
X102522612Y-52326167D01*
X102569001Y-52205026D01*
X102740167Y-52108612D01*
X102859279Y-52064895D01*
X102930667Y-51918112D01*
X102975183Y-51795463D01*
X103142334Y-51754667D01*
X103281506Y-51774062D01*
G37*
G36*
X107756667Y-52432000D02*
G01*
X108518667Y-52432000D01*
X108518667Y-51585334D01*
X109111334Y-51585334D01*
X109111334Y-53871334D01*
X108518667Y-53871334D01*
X108518667Y-52940000D01*
X107756667Y-52940000D01*
X107756667Y-53871334D01*
X107164000Y-53871334D01*
X107164000Y-51585334D01*
X107756667Y-51585334D01*
X107756667Y-52432000D01*
G37*
G36*
X99360832Y-52375131D02*
G01*
X99326877Y-52539375D01*
X99268834Y-52580167D01*
X99218088Y-52585672D01*
X99163000Y-52686000D01*
X99176045Y-52744286D01*
X99268834Y-52791834D01*
X99294889Y-52792743D01*
X99355111Y-52893696D01*
X99374667Y-53151667D01*
X99369503Y-53313264D01*
X99331375Y-53482805D01*
X99247667Y-53532667D01*
X99188440Y-53547418D01*
X99120667Y-53659667D01*
X99116661Y-53717549D01*
X99084451Y-53786667D01*
X99073784Y-53744451D01*
X99075967Y-53575312D01*
X99096296Y-53321000D01*
X99144357Y-52855334D01*
X98798567Y-52855334D01*
X98609781Y-52840539D01*
X98297626Y-52714364D01*
X98093413Y-52458193D01*
X97995731Y-52070648D01*
X97986107Y-51962998D01*
X97987621Y-51770917D01*
X98041897Y-51770917D01*
X98094848Y-51872955D01*
X98195184Y-51878051D01*
X98202534Y-51874685D01*
X98253244Y-51930321D01*
X98274000Y-52100170D01*
X98309268Y-52309573D01*
X98422167Y-52483474D01*
X98484141Y-52520937D01*
X98695845Y-52585119D01*
X98916444Y-52595709D01*
X99064223Y-52544889D01*
X99085670Y-52489383D01*
X99110852Y-52300383D01*
X99120667Y-52036889D01*
X99120667Y-51585334D01*
X98786997Y-51585334D01*
X98722911Y-51586937D01*
X98511232Y-51617328D01*
X98398460Y-51674111D01*
X98352186Y-51715866D01*
X98231667Y-51670000D01*
X98158238Y-51625295D01*
X98064875Y-51665889D01*
X98041897Y-51770917D01*
X97987621Y-51770917D01*
X97987767Y-51752371D01*
X98048749Y-51619569D01*
X98191466Y-51499148D01*
X98243934Y-51464877D01*
X98518373Y-51362720D01*
X98900904Y-51331334D01*
X99374667Y-51331334D01*
X99374667Y-51966334D01*
X99374310Y-52036889D01*
X99374155Y-52067381D01*
X99360832Y-52375131D01*
G37*
G36*
X104517121Y-52097922D02*
G01*
X104845492Y-52175269D01*
X105057066Y-52344895D01*
X105132000Y-52593012D01*
X105093530Y-52788760D01*
X104923922Y-52996478D01*
X104602834Y-53175814D01*
X104596028Y-53178734D01*
X104404827Y-53291054D01*
X104373195Y-53380522D01*
X104491722Y-53431181D01*
X104751000Y-53427078D01*
X104857123Y-53415899D01*
X105039558Y-53411844D01*
X105116321Y-53458015D01*
X105132000Y-53571289D01*
X105120998Y-53692978D01*
X105075556Y-53814889D01*
X105020050Y-53836337D01*
X104831050Y-53861518D01*
X104567556Y-53871334D01*
X104407033Y-53864308D01*
X104063123Y-53778436D01*
X103850262Y-53599695D01*
X103777334Y-53334122D01*
X103777465Y-53323198D01*
X103838669Y-53119740D01*
X104025513Y-52929562D01*
X104358562Y-52731338D01*
X104536773Y-52608995D01*
X104567356Y-52513870D01*
X104457549Y-52473209D01*
X104221930Y-52510569D01*
X104076585Y-52545267D01*
X103959827Y-52527638D01*
X103898784Y-52414513D01*
X103886702Y-52366834D01*
X103918881Y-52212420D01*
X104091474Y-52123790D01*
X104414662Y-52094630D01*
X104517121Y-52097922D01*
G37*
G36*
X101611103Y-46962976D02*
G01*
X101784713Y-47049533D01*
X102050025Y-47185453D01*
X102370260Y-47352000D01*
X103097994Y-47733000D01*
X103098997Y-48695238D01*
X103100000Y-49657475D01*
X102909500Y-49534811D01*
X102881748Y-49517229D01*
X102691548Y-49401396D01*
X102416178Y-49237709D01*
X102105167Y-49055672D01*
X101491334Y-48699198D01*
X101491334Y-47806877D01*
X101495492Y-47517218D01*
X101511262Y-47212184D01*
X101536051Y-47009554D01*
X101566930Y-46942778D01*
X101611103Y-46962976D01*
G37*
G36*
X102162125Y-51476705D02*
G01*
X102305333Y-51575663D01*
X102339914Y-51716972D01*
X102240498Y-51850840D01*
X102219669Y-51863608D01*
X102014293Y-51916032D01*
X101852980Y-51844582D01*
X101787667Y-51670000D01*
X101793549Y-51579087D01*
X101859516Y-51481363D01*
X102040508Y-51458334D01*
X102162125Y-51476705D01*
G37*
G36*
X97135893Y-53621143D02*
G01*
X97215667Y-53702000D01*
X97231437Y-53731977D01*
X97225661Y-53786667D01*
X97210775Y-53782857D01*
X97131000Y-53702000D01*
X97115230Y-53672024D01*
X97121007Y-53617334D01*
X97135893Y-53621143D01*
G37*
G36*
X102338000Y-53871334D02*
G01*
X101745334Y-53871334D01*
X101745334Y-52093334D01*
X102338000Y-52093334D01*
X102338000Y-53871334D01*
G37*
G36*
X99374667Y-53744334D02*
G01*
X99332334Y-53786667D01*
X99290000Y-53744334D01*
X99332334Y-53702000D01*
X99374667Y-53744334D01*
G37*
G36*
X106962331Y-53045668D02*
G01*
X106888409Y-53360682D01*
X106744347Y-53626031D01*
X106553929Y-53782637D01*
X106346338Y-53833835D01*
X106042017Y-53862667D01*
X105739330Y-53859018D01*
X105519925Y-53819942D01*
X105438121Y-53747949D01*
X105386000Y-53574858D01*
X105386224Y-53547735D01*
X105407624Y-53440798D01*
X105497603Y-53415214D01*
X105703500Y-53452779D01*
X105735212Y-53459652D01*
X106004402Y-53479165D01*
X106214198Y-53397809D01*
X106349004Y-53276888D01*
X106331018Y-53184219D01*
X106149167Y-53128159D01*
X105804337Y-53109334D01*
X105301334Y-53109334D01*
X105301334Y-52809152D01*
X105314121Y-52688979D01*
X105809334Y-52688979D01*
X105809353Y-52689983D01*
X105884979Y-52747001D01*
X106063334Y-52770667D01*
X106163424Y-52759412D01*
X106297310Y-52685778D01*
X106321402Y-52581791D01*
X106211500Y-52492830D01*
X106197746Y-52488673D01*
X106036955Y-52501768D01*
X105879987Y-52581948D01*
X105809334Y-52688979D01*
X105314121Y-52688979D01*
X105321213Y-52622322D01*
X105463399Y-52337283D01*
X105729853Y-52156532D01*
X106105667Y-52093334D01*
X106208025Y-52097495D01*
X106564567Y-52199284D01*
X106815798Y-52432298D01*
X106873403Y-52581791D01*
X106953578Y-52789854D01*
X106962331Y-53045668D01*
G37*
G36*
X97258000Y-51881667D02*
G01*
X97215667Y-51924000D01*
X97173334Y-51881667D01*
X97215667Y-51839334D01*
X97258000Y-51881667D01*
G37*
G36*
X101403991Y-49023072D02*
G01*
X101559029Y-49101051D01*
X101794260Y-49233168D01*
X102071759Y-49396492D01*
X102353606Y-49568091D01*
X102601877Y-49725034D01*
X102778649Y-49844392D01*
X102846000Y-49903232D01*
X102820832Y-49934317D01*
X102681092Y-50042674D01*
X102446307Y-50202752D01*
X102147853Y-50392560D01*
X101963836Y-50504509D01*
X101683042Y-50668549D01*
X101474933Y-50781366D01*
X101374734Y-50823334D01*
X101315357Y-50804734D01*
X101136725Y-50718796D01*
X100883201Y-50582526D01*
X100592134Y-50417656D01*
X100300877Y-50245917D01*
X100046780Y-50089041D01*
X99867195Y-49968759D01*
X99799471Y-49906804D01*
X99836829Y-49870063D01*
X99990932Y-49766280D01*
X100229679Y-49620443D01*
X100515330Y-49454028D01*
X100810143Y-49288505D01*
X101076378Y-49145348D01*
X101276294Y-49046030D01*
X101372149Y-49012024D01*
X101403991Y-49023072D01*
G37*
G36*
X97478420Y-51697079D02*
G01*
X97474227Y-51831956D01*
X97432204Y-51893907D01*
X97389282Y-51902092D01*
X97378953Y-51755876D01*
X97394099Y-51664908D01*
X97455033Y-51663832D01*
X97478420Y-51697079D01*
G37*
G36*
X101542315Y-53626628D02*
G01*
X101427834Y-53779885D01*
X101415833Y-53786641D01*
X101148851Y-53861509D01*
X100859335Y-53841896D01*
X100631932Y-53732809D01*
X100558386Y-53669362D01*
X100478153Y-53640790D01*
X100425707Y-53732809D01*
X100347396Y-53819610D01*
X100169942Y-53871334D01*
X100078309Y-53865245D01*
X100015513Y-53824149D01*
X99982416Y-53714455D01*
X99969522Y-53502586D01*
X99967334Y-53154965D01*
X99967388Y-53138339D01*
X100562145Y-53138339D01*
X100573459Y-53283873D01*
X100661600Y-53431067D01*
X100662397Y-53431862D01*
X100807090Y-53527462D01*
X100926889Y-53476222D01*
X100942487Y-53456767D01*
X100980929Y-53321579D01*
X100966952Y-53176852D01*
X100905592Y-53109334D01*
X100855228Y-53103628D01*
X100693925Y-53057942D01*
X100622525Y-53053729D01*
X100562145Y-53138339D01*
X99967388Y-53138339D01*
X99967778Y-53018687D01*
X99977211Y-52704115D01*
X100005922Y-52501328D01*
X100063076Y-52367211D01*
X100157834Y-52258649D01*
X100196708Y-52223712D01*
X100341553Y-52135994D01*
X100533892Y-52103213D01*
X100833385Y-52112458D01*
X100891533Y-52116646D01*
X101188450Y-52148304D01*
X101344941Y-52196761D01*
X101386145Y-52276458D01*
X101337201Y-52401832D01*
X101299474Y-52454251D01*
X101158678Y-52524266D01*
X100906106Y-52528708D01*
X100742011Y-52522773D01*
X100599252Y-52551633D01*
X100560000Y-52637192D01*
X100618883Y-52736842D01*
X100818205Y-52770667D01*
X101062775Y-52805817D01*
X101326205Y-52899841D01*
X101465459Y-52987287D01*
X101554831Y-53126748D01*
X101572415Y-53321579D01*
X101576000Y-53361301D01*
X101542315Y-53626628D01*
G37*
G36*
X97415114Y-52317844D02*
G01*
X97436872Y-52469799D01*
X97454275Y-52733335D01*
X97464156Y-53066136D01*
X97464974Y-53199806D01*
X97457540Y-53499958D01*
X97438676Y-53708519D01*
X97411233Y-53786667D01*
X97385991Y-53769131D01*
X97396716Y-53659667D01*
X97405527Y-53584725D01*
X97309392Y-53532667D01*
X97278969Y-53529535D01*
X97214074Y-53472036D01*
X97181967Y-53315336D01*
X97173334Y-53024667D01*
X97181281Y-52765863D01*
X97215146Y-52583876D01*
X97279167Y-52537834D01*
X97336546Y-52522865D01*
X97372300Y-52405189D01*
X97373542Y-52325853D01*
X97406714Y-52298491D01*
X97415114Y-52317844D01*
G37*
G36*
X97258000Y-52305000D02*
G01*
X97215667Y-52347334D01*
X97173334Y-52305000D01*
X97215667Y-52262667D01*
X97258000Y-52305000D01*
G37*
G36*
X105879757Y-49439889D02*
G01*
X106146578Y-49600058D01*
X106410753Y-49765283D01*
X106585309Y-49882685D01*
X106641757Y-49933799D01*
X106605620Y-49958270D01*
X106449811Y-50054956D01*
X106201711Y-50205299D01*
X105894000Y-50389387D01*
X105696562Y-50504775D01*
X105405879Y-50666460D01*
X105186598Y-50778086D01*
X105075207Y-50820443D01*
X105069423Y-50819719D01*
X104955250Y-50769370D01*
X104741277Y-50655834D01*
X104466420Y-50501651D01*
X104169597Y-50329363D01*
X103889725Y-50161507D01*
X103665721Y-50020626D01*
X103536501Y-49929257D01*
X103537142Y-49918233D01*
X103632936Y-49836158D01*
X103856746Y-49688325D01*
X104192469Y-49484994D01*
X104624000Y-49236424D01*
X105089667Y-48973401D01*
X105879757Y-49439889D01*
G37*
%TD*%
M02*
