M48
; DRILL file {KiCad 9.0.2+dfsg-1} date 2026-04-27T13:43:49-0500
; FORMAT={-:-/ absolute / metric / decimal}
; #@! TF.CreationDate,2026-04-27T13:43:49-05:00
; #@! TF.GenerationSoftware,Kicad,Pcbnew,9.0.2+dfsg-1
; #@! TF.FileFunction,Plated,1,2,PTH
FMAT,2
METRIC
; #@! TA.AperFunction,Plated,PTH,ViaDrill
T1C0.400
; #@! TA.AperFunction,Plated,PTH,ComponentDrill
T2C1.000
; #@! TA.AperFunction,Plated,PTH,ComponentDrill
T3C1.300
; #@! TA.AperFunction,Plated,PTH,ComponentDrill
T4C1.500
%
G90
G05
T1
X80.772Y-66.802
X83.82Y-66.929
X88.9Y-66.802
X91.567Y-66.548
X94.361Y-66.802
X98.171Y-58.674
X99.314Y-66.929
X106.807Y-66.802
X109.601Y-66.802
X120.777Y-87.63
X131.445Y-83.058
X131.699Y-74.422
X136.017Y-76.924
X137.414Y-77.47
X137.668Y-58.547
X141.986Y-70.739
X149.606Y-70.104
X151.5Y-76.5
X154.432Y-83.566
X158.5Y-82.0
X159.639Y-69.723
T2
X75.962Y-88.3
X75.962Y-103.7
X81.549Y-61.473
X81.549Y-64.013
X81.571Y-69.421
X81.571Y-71.961
X84.089Y-61.473
X84.089Y-64.013
X84.111Y-69.421
X84.111Y-71.961
X86.629Y-61.473
X86.629Y-64.013
X86.651Y-69.421
X86.651Y-71.961
X89.169Y-61.473
X89.169Y-64.013
X89.191Y-69.421
X89.191Y-71.961
X91.709Y-61.473
X91.709Y-64.013
X91.731Y-69.421
X91.731Y-71.961
X94.249Y-61.473
X94.249Y-64.013
X94.271Y-69.421
X94.271Y-71.961
X96.789Y-61.473
X96.789Y-64.013
X96.811Y-69.421
X96.811Y-71.961
X99.329Y-61.473
X99.329Y-64.013
X99.351Y-69.421
X99.351Y-71.961
X101.869Y-61.473
X101.869Y-64.013
X101.891Y-69.421
X101.891Y-71.961
X104.409Y-61.473
X104.409Y-64.013
X104.431Y-69.421
X104.431Y-71.961
X105.362Y-93.5
X105.362Y-98.5
X106.949Y-61.473
X106.949Y-64.013
X106.971Y-69.421
X106.971Y-71.961
X109.489Y-61.473
X109.489Y-64.013
X109.511Y-69.421
X109.511Y-71.961
X112.029Y-61.473
X112.029Y-64.013
X112.051Y-69.421
X112.051Y-71.961
X114.591Y-69.421
X114.591Y-71.961
X117.131Y-69.421
X117.131Y-71.961
X119.671Y-69.421
X119.671Y-71.961
X122.211Y-69.421
X122.211Y-71.961
X124.751Y-69.421
X124.751Y-71.961
X127.291Y-69.421
X127.291Y-71.961
X129.831Y-69.421
X129.831Y-71.961
X139.192Y-39.186
X140.5Y-67.662
X140.5Y-73.562
X141.732Y-39.186
X141.768Y-43.763
X141.768Y-46.303
X141.768Y-56.463
X141.768Y-64.083
X143.0Y-67.662
X143.0Y-73.562
X147.356Y-43.763
X147.356Y-46.303
X147.356Y-56.463
X147.356Y-64.083
X151.892Y-39.186
X152.944Y-43.763
X152.944Y-46.303
X152.944Y-56.463
X152.944Y-64.083
X158.786Y-43.688
X158.786Y-46.228
X158.786Y-56.388
X158.786Y-64.008
X159.512Y-39.186
X160.274Y-75.809
X160.274Y-78.349
X160.274Y-80.889
X160.274Y-83.429
T3
X124.8Y-79.5
X129.8Y-79.5
X134.8Y-79.5
X139.8Y-79.5
X144.8Y-79.5
X149.8Y-79.5
X154.8Y-79.5
T4
X120.65Y-99.3
X120.65Y-103.95
X120.8Y-91.1
X120.8Y-95.0
M30
