%TF.GenerationSoftware,KiCad,Pcbnew,9.0.2+dfsg-1*%
%TF.CreationDate,2026-04-27T13:43:55-05:00*%
%TF.ProjectId,HestiaPiOneUniversal,48657374-6961-4506-994f-6e65556e6976,rev?*%
%TF.SameCoordinates,Original*%
%TF.FileFunction,Soldermask,Bot*%
%TF.FilePolarity,Negative*%
%FSLAX46Y46*%
G04 Gerber Fmt 4.6, Leading zero omitted, Abs format (unit mm)*
G04 Created by KiCad (PCBNEW 9.0.2+dfsg-1) date 2026-04-27 13:43:55*
%MOMM*%
%LPD*%
G01*
G04 APERTURE LIST*
%ADD10R,1.700000X1.700000*%
%ADD11O,1.700000X1.700000*%
%ADD12C,1.524000*%
%ADD13R,2.300000X2.300000*%
%ADD14R,2.300000X2.000000*%
%ADD15C,2.300000*%
%ADD16C,1.700000*%
%ADD17C,6.000000*%
%ADD18R,2.600000X2.600000*%
%ADD19C,2.600000*%
G04 APERTURE END LIST*
D10*
%TO.C,BME280*%
X160274000Y-83429000D03*
D11*
X160274000Y-80889000D03*
X160274000Y-78349000D03*
X160274000Y-75809000D03*
%TD*%
D12*
%TO.C,RL2*%
X147356000Y-64083000D03*
X147356000Y-56463000D03*
X147356000Y-46303000D03*
X147356000Y-43763000D03*
%TD*%
D13*
%TO.C,J6*%
X120650000Y-103950000D03*
%TD*%
D12*
%TO.C,RL4*%
X158786000Y-64008000D03*
X158786000Y-56388000D03*
X158786000Y-46228000D03*
X158786000Y-43688000D03*
%TD*%
%TO.C,RL3*%
X152944000Y-64083000D03*
X152944000Y-56463000D03*
X152944000Y-46303000D03*
X152944000Y-43763000D03*
%TD*%
%TO.C,RL5*%
X159512000Y-39186000D03*
X151892000Y-39186000D03*
X141732000Y-39186000D03*
X139192000Y-39186000D03*
%TD*%
D13*
%TO.C,J7*%
X120650000Y-99300000D03*
%TD*%
D12*
%TO.C,RL1*%
X141768000Y-64083000D03*
X141768000Y-56463000D03*
X141768000Y-46303000D03*
X141768000Y-43763000D03*
%TD*%
D14*
%TO.C,PSU-EU_100-240V_AC1*%
X105362500Y-98500000D03*
D15*
X105362500Y-93500000D03*
X75962500Y-103700000D03*
X75962500Y-88300000D03*
%TD*%
D13*
%TO.C,J5*%
X120800000Y-95000000D03*
%TD*%
%TO.C,J4*%
X120800000Y-91100000D03*
%TD*%
D16*
%TO.C,SW1*%
X140500000Y-73562000D03*
X143000000Y-73562000D03*
X140500000Y-67662000D03*
X143000000Y-67662000D03*
%TD*%
D17*
%TO.C,J0*%
X76701000Y-70691000D03*
X134701000Y-70691000D03*
X76701000Y-47691000D03*
X134701000Y-47691000D03*
D10*
X81571000Y-69421000D03*
D11*
X81571000Y-71961000D03*
X84111000Y-69421000D03*
X84111000Y-71961000D03*
X86651000Y-69421000D03*
X86651000Y-71961000D03*
X89191000Y-69421000D03*
X89191000Y-71961000D03*
X91731000Y-69421000D03*
X91731000Y-71961000D03*
X94271000Y-69421000D03*
X94271000Y-71961000D03*
X96811000Y-69421000D03*
X96811000Y-71961000D03*
X99351000Y-69421000D03*
X99351000Y-71961000D03*
X101891000Y-69421000D03*
X101891000Y-71961000D03*
X104431000Y-69421000D03*
X104431000Y-71961000D03*
X106971000Y-69421000D03*
X106971000Y-71961000D03*
X109511000Y-69421000D03*
X109511000Y-71961000D03*
X112051000Y-69421000D03*
X112051000Y-71961000D03*
X114591000Y-69421000D03*
X114591000Y-71961000D03*
X117131000Y-69421000D03*
X117131000Y-71961000D03*
X119671000Y-69421000D03*
X119671000Y-71961000D03*
X122211000Y-69421000D03*
X122211000Y-71961000D03*
X124751000Y-69421000D03*
X124751000Y-71961000D03*
X127291000Y-69421000D03*
X127291000Y-71961000D03*
X129831000Y-69421000D03*
X129831000Y-71961000D03*
%TD*%
D10*
%TO.C,J3*%
X81549000Y-64013000D03*
D11*
X81549000Y-61473000D03*
X84089000Y-64013000D03*
X84089000Y-61473000D03*
X86629000Y-64013000D03*
X86629000Y-61473000D03*
X89169000Y-64013000D03*
X89169000Y-61473000D03*
X91709000Y-64013000D03*
X91709000Y-61473000D03*
X94249000Y-64013000D03*
X94249000Y-61473000D03*
X96789000Y-64013000D03*
X96789000Y-61473000D03*
X99329000Y-64013000D03*
X99329000Y-61473000D03*
X101869000Y-64013000D03*
X101869000Y-61473000D03*
X104409000Y-64013000D03*
X104409000Y-61473000D03*
X106949000Y-64013000D03*
X106949000Y-61473000D03*
X109489000Y-64013000D03*
X109489000Y-61473000D03*
X112029000Y-64013000D03*
X112029000Y-61473000D03*
%TD*%
D18*
%TO.C,TerminalBlock1*%
X124800000Y-79500000D03*
D19*
X129800000Y-79500000D03*
X134800000Y-79500000D03*
X139800000Y-79500000D03*
X144800000Y-79500000D03*
X149800000Y-79500000D03*
X154800000Y-79500000D03*
%TD*%
M02*
