M48
; DRILL file {KiCad 6.0.11+dfsg-1} date Tue 03 Feb 2026 11:29:38 PM CST
; FORMAT={-:-/ absolute / inch / decimal}
; #@! TF.CreationDate,2026-02-03T23:29:38-06:00
; #@! TF.GenerationSoftware,Kicad,Pcbnew,6.0.11+dfsg-1
; #@! TF.FileFunction,Plated,1,2,PTH
FMAT,2
INCH
; #@! TA.AperFunction,Plated,PTH,ViaDrill
T1C0.0157
; #@! TA.AperFunction,Plated,PTH,ComponentDrill
T2C0.0394
; #@! TA.AperFunction,Plated,PTH,ComponentDrill
T3C0.0512
; #@! TA.AperFunction,Plated,PTH,ComponentDrill
T4C0.0591
%
G90
G05
T1
X3.18Y-2.63
X3.3Y-2.635
X3.5Y-2.63
X3.605Y-2.62
X3.715Y-2.63
X3.865Y-2.31
X3.91Y-2.635
X4.205Y-2.63
X4.315Y-2.63
X4.755Y-3.45
X5.175Y-3.27
X5.185Y-2.93
X5.355Y-3.0285
X5.41Y-3.05
X5.42Y-2.305
X5.59Y-2.785
X5.89Y-2.76
X6.08Y-3.29
X6.285Y-2.745
T2
X2.9906Y-3.4764
X2.9906Y-4.0827
X3.2106Y-2.4202
X3.2106Y-2.5202
X3.2115Y-2.7331
X3.2115Y-2.8331
X3.3106Y-2.4202
X3.3106Y-2.5202
X3.3115Y-2.7331
X3.3115Y-2.8331
X3.4106Y-2.4202
X3.4106Y-2.5202
X3.4115Y-2.7331
X3.4115Y-2.8331
X3.5106Y-2.4202
X3.5106Y-2.5202
X3.5115Y-2.7331
X3.5115Y-2.8331
X3.6106Y-2.4202
X3.6106Y-2.5202
X3.6115Y-2.7331
X3.6115Y-2.8331
X3.7106Y-2.4202
X3.7106Y-2.5202
X3.7115Y-2.7331
X3.7115Y-2.8331
X3.8106Y-2.4202
X3.8106Y-2.5202
X3.8115Y-2.7331
X3.8115Y-2.8331
X3.9106Y-2.4202
X3.9106Y-2.5202
X3.9115Y-2.7331
X3.9115Y-2.8331
X4.0106Y-2.4202
X4.0106Y-2.5202
X4.0115Y-2.7331
X4.0115Y-2.8331
X4.1106Y-2.4202
X4.1106Y-2.5202
X4.1115Y-2.7331
X4.1115Y-2.8331
X4.1481Y-3.6811
X4.1481Y-3.878
X4.2106Y-2.4202
X4.2106Y-2.5202
X4.2115Y-2.7331
X4.2115Y-2.8331
X4.3106Y-2.4202
X4.3106Y-2.5202
X4.3115Y-2.7331
X4.3115Y-2.8331
X4.4106Y-2.4202
X4.4106Y-2.5202
X4.4115Y-2.7331
X4.4115Y-2.8331
X4.5115Y-2.7331
X4.5115Y-2.8331
X4.6115Y-2.7331
X4.6115Y-2.8331
X4.7115Y-2.7331
X4.7115Y-2.8331
X4.8115Y-2.7331
X4.8115Y-2.8331
X4.9115Y-2.7331
X4.9115Y-2.8331
X5.0115Y-2.7331
X5.0115Y-2.8331
X5.1115Y-2.7331
X5.1115Y-2.8331
X5.48Y-1.5428
X5.5315Y-2.6639
X5.5315Y-2.8961
X5.58Y-1.5428
X5.5814Y-1.723
X5.5814Y-1.823
X5.5814Y-2.223
X5.5814Y-2.523
X5.6299Y-2.6639
X5.6299Y-2.8961
X5.8014Y-1.723
X5.8014Y-1.823
X5.8014Y-2.223
X5.8014Y-2.523
X5.98Y-1.5428
X6.0214Y-1.723
X6.0214Y-1.823
X6.0214Y-2.223
X6.0214Y-2.523
X6.2514Y-1.72
X6.2514Y-1.82
X6.2514Y-2.22
X6.2514Y-2.52
X6.28Y-1.5428
X6.31Y-2.9846
X6.31Y-3.0846
X6.31Y-3.1846
X6.31Y-3.2846
T3
X4.9134Y-3.1299
X5.1102Y-3.1299
X5.3071Y-3.1299
X5.5039Y-3.1299
X5.7008Y-3.1299
X5.8976Y-3.1299
X6.0945Y-3.1299
T4
X4.75Y-3.9094
X4.75Y-4.0925
X4.7559Y-3.5866
X4.7559Y-3.7402
T0
M30
