%TF.GenerationSoftware,KiCad,Pcbnew,9.0.2+dfsg-1*%
%TF.CreationDate,2026-04-27T13:43:53-05:00*%
%TF.ProjectId,HestiaPiOneUniversal,48657374-6961-4506-994f-6e65556e6976,rev?*%
%TF.SameCoordinates,Original*%
%TF.FileFunction,Legend,Top*%
%TF.FilePolarity,Positive*%
%FSLAX46Y46*%
G04 Gerber Fmt 4.6, Leading zero omitted, Abs format (unit mm)*
G04 Created by KiCad (PCBNEW 9.0.2+dfsg-1) date 2026-04-27 13:43:53*
%MOMM*%
%LPD*%
G01*
G04 APERTURE LIST*
%ADD10C,0.150000*%
%ADD11C,0.120000*%
%ADD12C,0.000000*%
%ADD13C,0.100000*%
G04 APERTURE END LIST*
D10*
X73100000Y-76600000D02*
X119100000Y-76600000D01*
X119100000Y-106600000D01*
X73100000Y-106600000D01*
X73100000Y-76600000D01*
X78923475Y-92402819D02*
X78923475Y-91402819D01*
X78923475Y-91402819D02*
X79304427Y-91402819D01*
X79304427Y-91402819D02*
X79399665Y-91450438D01*
X79399665Y-91450438D02*
X79447284Y-91498057D01*
X79447284Y-91498057D02*
X79494903Y-91593295D01*
X79494903Y-91593295D02*
X79494903Y-91736152D01*
X79494903Y-91736152D02*
X79447284Y-91831390D01*
X79447284Y-91831390D02*
X79399665Y-91879009D01*
X79399665Y-91879009D02*
X79304427Y-91926628D01*
X79304427Y-91926628D02*
X78923475Y-91926628D01*
X80494903Y-92307580D02*
X80447284Y-92355200D01*
X80447284Y-92355200D02*
X80304427Y-92402819D01*
X80304427Y-92402819D02*
X80209189Y-92402819D01*
X80209189Y-92402819D02*
X80066332Y-92355200D01*
X80066332Y-92355200D02*
X79971094Y-92259961D01*
X79971094Y-92259961D02*
X79923475Y-92164723D01*
X79923475Y-92164723D02*
X79875856Y-91974247D01*
X79875856Y-91974247D02*
X79875856Y-91831390D01*
X79875856Y-91831390D02*
X79923475Y-91640914D01*
X79923475Y-91640914D02*
X79971094Y-91545676D01*
X79971094Y-91545676D02*
X80066332Y-91450438D01*
X80066332Y-91450438D02*
X80209189Y-91402819D01*
X80209189Y-91402819D02*
X80304427Y-91402819D01*
X80304427Y-91402819D02*
X80447284Y-91450438D01*
X80447284Y-91450438D02*
X80494903Y-91498057D01*
X81256808Y-91879009D02*
X81399665Y-91926628D01*
X81399665Y-91926628D02*
X81447284Y-91974247D01*
X81447284Y-91974247D02*
X81494903Y-92069485D01*
X81494903Y-92069485D02*
X81494903Y-92212342D01*
X81494903Y-92212342D02*
X81447284Y-92307580D01*
X81447284Y-92307580D02*
X81399665Y-92355200D01*
X81399665Y-92355200D02*
X81304427Y-92402819D01*
X81304427Y-92402819D02*
X80923475Y-92402819D01*
X80923475Y-92402819D02*
X80923475Y-91402819D01*
X80923475Y-91402819D02*
X81256808Y-91402819D01*
X81256808Y-91402819D02*
X81352046Y-91450438D01*
X81352046Y-91450438D02*
X81399665Y-91498057D01*
X81399665Y-91498057D02*
X81447284Y-91593295D01*
X81447284Y-91593295D02*
X81447284Y-91688533D01*
X81447284Y-91688533D02*
X81399665Y-91783771D01*
X81399665Y-91783771D02*
X81352046Y-91831390D01*
X81352046Y-91831390D02*
X81256808Y-91879009D01*
X81256808Y-91879009D02*
X80923475Y-91879009D01*
X81875856Y-92355200D02*
X81971094Y-92402819D01*
X81971094Y-92402819D02*
X82161570Y-92402819D01*
X82161570Y-92402819D02*
X82256808Y-92355200D01*
X82256808Y-92355200D02*
X82304427Y-92259961D01*
X82304427Y-92259961D02*
X82304427Y-92212342D01*
X82304427Y-92212342D02*
X82256808Y-92117104D01*
X82256808Y-92117104D02*
X82161570Y-92069485D01*
X82161570Y-92069485D02*
X82018713Y-92069485D01*
X82018713Y-92069485D02*
X81923475Y-92021866D01*
X81923475Y-92021866D02*
X81875856Y-91926628D01*
X81875856Y-91926628D02*
X81875856Y-91879009D01*
X81875856Y-91879009D02*
X81923475Y-91783771D01*
X81923475Y-91783771D02*
X82018713Y-91736152D01*
X82018713Y-91736152D02*
X82161570Y-91736152D01*
X82161570Y-91736152D02*
X82256808Y-91783771D01*
X83447285Y-92355200D02*
X83542523Y-92402819D01*
X83542523Y-92402819D02*
X83732999Y-92402819D01*
X83732999Y-92402819D02*
X83828237Y-92355200D01*
X83828237Y-92355200D02*
X83875856Y-92259961D01*
X83875856Y-92259961D02*
X83875856Y-92212342D01*
X83875856Y-92212342D02*
X83828237Y-92117104D01*
X83828237Y-92117104D02*
X83732999Y-92069485D01*
X83732999Y-92069485D02*
X83590142Y-92069485D01*
X83590142Y-92069485D02*
X83494904Y-92021866D01*
X83494904Y-92021866D02*
X83447285Y-91926628D01*
X83447285Y-91926628D02*
X83447285Y-91879009D01*
X83447285Y-91879009D02*
X83494904Y-91783771D01*
X83494904Y-91783771D02*
X83590142Y-91736152D01*
X83590142Y-91736152D02*
X83732999Y-91736152D01*
X83732999Y-91736152D02*
X83828237Y-91783771D01*
X84304428Y-91736152D02*
X84304428Y-92736152D01*
X84304428Y-91783771D02*
X84399666Y-91736152D01*
X84399666Y-91736152D02*
X84590142Y-91736152D01*
X84590142Y-91736152D02*
X84685380Y-91783771D01*
X84685380Y-91783771D02*
X84732999Y-91831390D01*
X84732999Y-91831390D02*
X84780618Y-91926628D01*
X84780618Y-91926628D02*
X84780618Y-92212342D01*
X84780618Y-92212342D02*
X84732999Y-92307580D01*
X84732999Y-92307580D02*
X84685380Y-92355200D01*
X84685380Y-92355200D02*
X84590142Y-92402819D01*
X84590142Y-92402819D02*
X84399666Y-92402819D01*
X84399666Y-92402819D02*
X84304428Y-92355200D01*
X85352047Y-92402819D02*
X85256809Y-92355200D01*
X85256809Y-92355200D02*
X85209190Y-92307580D01*
X85209190Y-92307580D02*
X85161571Y-92212342D01*
X85161571Y-92212342D02*
X85161571Y-91926628D01*
X85161571Y-91926628D02*
X85209190Y-91831390D01*
X85209190Y-91831390D02*
X85256809Y-91783771D01*
X85256809Y-91783771D02*
X85352047Y-91736152D01*
X85352047Y-91736152D02*
X85494904Y-91736152D01*
X85494904Y-91736152D02*
X85590142Y-91783771D01*
X85590142Y-91783771D02*
X85637761Y-91831390D01*
X85637761Y-91831390D02*
X85685380Y-91926628D01*
X85685380Y-91926628D02*
X85685380Y-92212342D01*
X85685380Y-92212342D02*
X85637761Y-92307580D01*
X85637761Y-92307580D02*
X85590142Y-92355200D01*
X85590142Y-92355200D02*
X85494904Y-92402819D01*
X85494904Y-92402819D02*
X85352047Y-92402819D01*
X86113952Y-91736152D02*
X86113952Y-92402819D01*
X86113952Y-91831390D02*
X86161571Y-91783771D01*
X86161571Y-91783771D02*
X86256809Y-91736152D01*
X86256809Y-91736152D02*
X86399666Y-91736152D01*
X86399666Y-91736152D02*
X86494904Y-91783771D01*
X86494904Y-91783771D02*
X86542523Y-91879009D01*
X86542523Y-91879009D02*
X86542523Y-92402819D01*
X86971095Y-92355200D02*
X87066333Y-92402819D01*
X87066333Y-92402819D02*
X87256809Y-92402819D01*
X87256809Y-92402819D02*
X87352047Y-92355200D01*
X87352047Y-92355200D02*
X87399666Y-92259961D01*
X87399666Y-92259961D02*
X87399666Y-92212342D01*
X87399666Y-92212342D02*
X87352047Y-92117104D01*
X87352047Y-92117104D02*
X87256809Y-92069485D01*
X87256809Y-92069485D02*
X87113952Y-92069485D01*
X87113952Y-92069485D02*
X87018714Y-92021866D01*
X87018714Y-92021866D02*
X86971095Y-91926628D01*
X86971095Y-91926628D02*
X86971095Y-91879009D01*
X86971095Y-91879009D02*
X87018714Y-91783771D01*
X87018714Y-91783771D02*
X87113952Y-91736152D01*
X87113952Y-91736152D02*
X87256809Y-91736152D01*
X87256809Y-91736152D02*
X87352047Y-91783771D01*
X87971095Y-92402819D02*
X87875857Y-92355200D01*
X87875857Y-92355200D02*
X87828238Y-92307580D01*
X87828238Y-92307580D02*
X87780619Y-92212342D01*
X87780619Y-92212342D02*
X87780619Y-91926628D01*
X87780619Y-91926628D02*
X87828238Y-91831390D01*
X87828238Y-91831390D02*
X87875857Y-91783771D01*
X87875857Y-91783771D02*
X87971095Y-91736152D01*
X87971095Y-91736152D02*
X88113952Y-91736152D01*
X88113952Y-91736152D02*
X88209190Y-91783771D01*
X88209190Y-91783771D02*
X88256809Y-91831390D01*
X88256809Y-91831390D02*
X88304428Y-91926628D01*
X88304428Y-91926628D02*
X88304428Y-92212342D01*
X88304428Y-92212342D02*
X88256809Y-92307580D01*
X88256809Y-92307580D02*
X88209190Y-92355200D01*
X88209190Y-92355200D02*
X88113952Y-92402819D01*
X88113952Y-92402819D02*
X87971095Y-92402819D01*
X88733000Y-92402819D02*
X88733000Y-91736152D01*
X88733000Y-91926628D02*
X88780619Y-91831390D01*
X88780619Y-91831390D02*
X88828238Y-91783771D01*
X88828238Y-91783771D02*
X88923476Y-91736152D01*
X88923476Y-91736152D02*
X89018714Y-91736152D01*
X89733000Y-92355200D02*
X89637762Y-92402819D01*
X89637762Y-92402819D02*
X89447286Y-92402819D01*
X89447286Y-92402819D02*
X89352048Y-92355200D01*
X89352048Y-92355200D02*
X89304429Y-92259961D01*
X89304429Y-92259961D02*
X89304429Y-91879009D01*
X89304429Y-91879009D02*
X89352048Y-91783771D01*
X89352048Y-91783771D02*
X89447286Y-91736152D01*
X89447286Y-91736152D02*
X89637762Y-91736152D01*
X89637762Y-91736152D02*
X89733000Y-91783771D01*
X89733000Y-91783771D02*
X89780619Y-91879009D01*
X89780619Y-91879009D02*
X89780619Y-91974247D01*
X89780619Y-91974247D02*
X89304429Y-92069485D01*
X90637762Y-92402819D02*
X90637762Y-91402819D01*
X90637762Y-92355200D02*
X90542524Y-92402819D01*
X90542524Y-92402819D02*
X90352048Y-92402819D01*
X90352048Y-92402819D02*
X90256810Y-92355200D01*
X90256810Y-92355200D02*
X90209191Y-92307580D01*
X90209191Y-92307580D02*
X90161572Y-92212342D01*
X90161572Y-92212342D02*
X90161572Y-91926628D01*
X90161572Y-91926628D02*
X90209191Y-91831390D01*
X90209191Y-91831390D02*
X90256810Y-91783771D01*
X90256810Y-91783771D02*
X90352048Y-91736152D01*
X90352048Y-91736152D02*
X90542524Y-91736152D01*
X90542524Y-91736152D02*
X90637762Y-91783771D01*
X91875858Y-92402819D02*
X91875858Y-91402819D01*
X91875858Y-91783771D02*
X91971096Y-91736152D01*
X91971096Y-91736152D02*
X92161572Y-91736152D01*
X92161572Y-91736152D02*
X92256810Y-91783771D01*
X92256810Y-91783771D02*
X92304429Y-91831390D01*
X92304429Y-91831390D02*
X92352048Y-91926628D01*
X92352048Y-91926628D02*
X92352048Y-92212342D01*
X92352048Y-92212342D02*
X92304429Y-92307580D01*
X92304429Y-92307580D02*
X92256810Y-92355200D01*
X92256810Y-92355200D02*
X92161572Y-92402819D01*
X92161572Y-92402819D02*
X91971096Y-92402819D01*
X91971096Y-92402819D02*
X91875858Y-92355200D01*
X92685382Y-91736152D02*
X92923477Y-92402819D01*
X93161572Y-91736152D02*
X92923477Y-92402819D01*
X92923477Y-92402819D02*
X92828239Y-92640914D01*
X92828239Y-92640914D02*
X92780620Y-92688533D01*
X92780620Y-92688533D02*
X92685382Y-92736152D01*
X93542525Y-92307580D02*
X93590144Y-92355200D01*
X93590144Y-92355200D02*
X93542525Y-92402819D01*
X93542525Y-92402819D02*
X93494906Y-92355200D01*
X93494906Y-92355200D02*
X93542525Y-92307580D01*
X93542525Y-92307580D02*
X93542525Y-92402819D01*
X93542525Y-91783771D02*
X93590144Y-91831390D01*
X93590144Y-91831390D02*
X93542525Y-91879009D01*
X93542525Y-91879009D02*
X93494906Y-91831390D01*
X93494906Y-91831390D02*
X93542525Y-91783771D01*
X93542525Y-91783771D02*
X93542525Y-91879009D01*
X117818819Y-99504476D02*
X117818819Y-99980666D01*
X117818819Y-99980666D02*
X118295009Y-100028285D01*
X118295009Y-100028285D02*
X118247390Y-99980666D01*
X118247390Y-99980666D02*
X118199771Y-99885428D01*
X118199771Y-99885428D02*
X118199771Y-99647333D01*
X118199771Y-99647333D02*
X118247390Y-99552095D01*
X118247390Y-99552095D02*
X118295009Y-99504476D01*
X118295009Y-99504476D02*
X118390247Y-99456857D01*
X118390247Y-99456857D02*
X118628342Y-99456857D01*
X118628342Y-99456857D02*
X118723580Y-99504476D01*
X118723580Y-99504476D02*
X118771200Y-99552095D01*
X118771200Y-99552095D02*
X118818819Y-99647333D01*
X118818819Y-99647333D02*
X118818819Y-99885428D01*
X118818819Y-99885428D02*
X118771200Y-99980666D01*
X118771200Y-99980666D02*
X118723580Y-100028285D01*
X117818819Y-99171142D02*
X118818819Y-98837809D01*
X118818819Y-98837809D02*
X117818819Y-98504476D01*
X158776200Y-85034285D02*
X158823819Y-84891428D01*
X158823819Y-84891428D02*
X158823819Y-84653333D01*
X158823819Y-84653333D02*
X158776200Y-84558095D01*
X158776200Y-84558095D02*
X158728580Y-84510476D01*
X158728580Y-84510476D02*
X158633342Y-84462857D01*
X158633342Y-84462857D02*
X158538104Y-84462857D01*
X158538104Y-84462857D02*
X158442866Y-84510476D01*
X158442866Y-84510476D02*
X158395247Y-84558095D01*
X158395247Y-84558095D02*
X158347628Y-84653333D01*
X158347628Y-84653333D02*
X158300009Y-84843809D01*
X158300009Y-84843809D02*
X158252390Y-84939047D01*
X158252390Y-84939047D02*
X158204771Y-84986666D01*
X158204771Y-84986666D02*
X158109533Y-85034285D01*
X158109533Y-85034285D02*
X158014295Y-85034285D01*
X158014295Y-85034285D02*
X157919057Y-84986666D01*
X157919057Y-84986666D02*
X157871438Y-84939047D01*
X157871438Y-84939047D02*
X157823819Y-84843809D01*
X157823819Y-84843809D02*
X157823819Y-84605714D01*
X157823819Y-84605714D02*
X157871438Y-84462857D01*
X158823819Y-84034285D02*
X157823819Y-84034285D01*
X157823819Y-84034285D02*
X157823819Y-83796190D01*
X157823819Y-83796190D02*
X157871438Y-83653333D01*
X157871438Y-83653333D02*
X157966676Y-83558095D01*
X157966676Y-83558095D02*
X158061914Y-83510476D01*
X158061914Y-83510476D02*
X158252390Y-83462857D01*
X158252390Y-83462857D02*
X158395247Y-83462857D01*
X158395247Y-83462857D02*
X158585723Y-83510476D01*
X158585723Y-83510476D02*
X158680961Y-83558095D01*
X158680961Y-83558095D02*
X158776200Y-83653333D01*
X158776200Y-83653333D02*
X158823819Y-83796190D01*
X158823819Y-83796190D02*
X158823819Y-84034285D01*
X158538104Y-83081904D02*
X158538104Y-82605714D01*
X158823819Y-83177142D02*
X157823819Y-82843809D01*
X157823819Y-82843809D02*
X158823819Y-82510476D01*
X119888095Y-105547438D02*
X119792857Y-105499819D01*
X119792857Y-105499819D02*
X119650000Y-105499819D01*
X119650000Y-105499819D02*
X119507143Y-105547438D01*
X119507143Y-105547438D02*
X119411905Y-105642676D01*
X119411905Y-105642676D02*
X119364286Y-105737914D01*
X119364286Y-105737914D02*
X119316667Y-105928390D01*
X119316667Y-105928390D02*
X119316667Y-106071247D01*
X119316667Y-106071247D02*
X119364286Y-106261723D01*
X119364286Y-106261723D02*
X119411905Y-106356961D01*
X119411905Y-106356961D02*
X119507143Y-106452200D01*
X119507143Y-106452200D02*
X119650000Y-106499819D01*
X119650000Y-106499819D02*
X119745238Y-106499819D01*
X119745238Y-106499819D02*
X119888095Y-106452200D01*
X119888095Y-106452200D02*
X119935714Y-106404580D01*
X119935714Y-106404580D02*
X119935714Y-106071247D01*
X119935714Y-106071247D02*
X119745238Y-106071247D01*
X120364286Y-106499819D02*
X120364286Y-105499819D01*
X120364286Y-105499819D02*
X120935714Y-106499819D01*
X120935714Y-106499819D02*
X120935714Y-105499819D01*
X121411905Y-106499819D02*
X121411905Y-105499819D01*
X121411905Y-105499819D02*
X121650000Y-105499819D01*
X121650000Y-105499819D02*
X121792857Y-105547438D01*
X121792857Y-105547438D02*
X121888095Y-105642676D01*
X121888095Y-105642676D02*
X121935714Y-105737914D01*
X121935714Y-105737914D02*
X121983333Y-105928390D01*
X121983333Y-105928390D02*
X121983333Y-106071247D01*
X121983333Y-106071247D02*
X121935714Y-106261723D01*
X121935714Y-106261723D02*
X121888095Y-106356961D01*
X121888095Y-106356961D02*
X121792857Y-106452200D01*
X121792857Y-106452200D02*
X121650000Y-106499819D01*
X121650000Y-106499819D02*
X121411905Y-106499819D01*
X75755523Y-90386819D02*
X75279333Y-90386819D01*
X75279333Y-90386819D02*
X75231714Y-90863009D01*
X75231714Y-90863009D02*
X75279333Y-90815390D01*
X75279333Y-90815390D02*
X75374571Y-90767771D01*
X75374571Y-90767771D02*
X75612666Y-90767771D01*
X75612666Y-90767771D02*
X75707904Y-90815390D01*
X75707904Y-90815390D02*
X75755523Y-90863009D01*
X75755523Y-90863009D02*
X75803142Y-90958247D01*
X75803142Y-90958247D02*
X75803142Y-91196342D01*
X75803142Y-91196342D02*
X75755523Y-91291580D01*
X75755523Y-91291580D02*
X75707904Y-91339200D01*
X75707904Y-91339200D02*
X75612666Y-91386819D01*
X75612666Y-91386819D02*
X75374571Y-91386819D01*
X75374571Y-91386819D02*
X75279333Y-91339200D01*
X75279333Y-91339200D02*
X75231714Y-91291580D01*
X76088857Y-90386819D02*
X76422190Y-91386819D01*
X76422190Y-91386819D02*
X76755523Y-90386819D01*
X158737541Y-73114819D02*
X159356588Y-73114819D01*
X159356588Y-73114819D02*
X159023255Y-73495771D01*
X159023255Y-73495771D02*
X159166112Y-73495771D01*
X159166112Y-73495771D02*
X159261350Y-73543390D01*
X159261350Y-73543390D02*
X159308969Y-73591009D01*
X159308969Y-73591009D02*
X159356588Y-73686247D01*
X159356588Y-73686247D02*
X159356588Y-73924342D01*
X159356588Y-73924342D02*
X159308969Y-74019580D01*
X159308969Y-74019580D02*
X159261350Y-74067200D01*
X159261350Y-74067200D02*
X159166112Y-74114819D01*
X159166112Y-74114819D02*
X158880398Y-74114819D01*
X158880398Y-74114819D02*
X158785160Y-74067200D01*
X158785160Y-74067200D02*
X158737541Y-74019580D01*
X159785160Y-74019580D02*
X159832779Y-74067200D01*
X159832779Y-74067200D02*
X159785160Y-74114819D01*
X159785160Y-74114819D02*
X159737541Y-74067200D01*
X159737541Y-74067200D02*
X159785160Y-74019580D01*
X159785160Y-74019580D02*
X159785160Y-74114819D01*
X160166112Y-73114819D02*
X160785159Y-73114819D01*
X160785159Y-73114819D02*
X160451826Y-73495771D01*
X160451826Y-73495771D02*
X160594683Y-73495771D01*
X160594683Y-73495771D02*
X160689921Y-73543390D01*
X160689921Y-73543390D02*
X160737540Y-73591009D01*
X160737540Y-73591009D02*
X160785159Y-73686247D01*
X160785159Y-73686247D02*
X160785159Y-73924342D01*
X160785159Y-73924342D02*
X160737540Y-74019580D01*
X160737540Y-74019580D02*
X160689921Y-74067200D01*
X160689921Y-74067200D02*
X160594683Y-74114819D01*
X160594683Y-74114819D02*
X160308969Y-74114819D01*
X160308969Y-74114819D02*
X160213731Y-74067200D01*
X160213731Y-74067200D02*
X160166112Y-74019580D01*
X161070874Y-73114819D02*
X161404207Y-74114819D01*
X161404207Y-74114819D02*
X161737540Y-73114819D01*
X157744438Y-78485904D02*
X157696819Y-78581142D01*
X157696819Y-78581142D02*
X157696819Y-78723999D01*
X157696819Y-78723999D02*
X157744438Y-78866856D01*
X157744438Y-78866856D02*
X157839676Y-78962094D01*
X157839676Y-78962094D02*
X157934914Y-79009713D01*
X157934914Y-79009713D02*
X158125390Y-79057332D01*
X158125390Y-79057332D02*
X158268247Y-79057332D01*
X158268247Y-79057332D02*
X158458723Y-79009713D01*
X158458723Y-79009713D02*
X158553961Y-78962094D01*
X158553961Y-78962094D02*
X158649200Y-78866856D01*
X158649200Y-78866856D02*
X158696819Y-78723999D01*
X158696819Y-78723999D02*
X158696819Y-78628761D01*
X158696819Y-78628761D02*
X158649200Y-78485904D01*
X158649200Y-78485904D02*
X158601580Y-78438285D01*
X158601580Y-78438285D02*
X158268247Y-78438285D01*
X158268247Y-78438285D02*
X158268247Y-78628761D01*
X158696819Y-78009713D02*
X157696819Y-78009713D01*
X157696819Y-78009713D02*
X158696819Y-77438285D01*
X158696819Y-77438285D02*
X157696819Y-77438285D01*
X158696819Y-76962094D02*
X157696819Y-76962094D01*
X157696819Y-76962094D02*
X157696819Y-76723999D01*
X157696819Y-76723999D02*
X157744438Y-76581142D01*
X157744438Y-76581142D02*
X157839676Y-76485904D01*
X157839676Y-76485904D02*
X157934914Y-76438285D01*
X157934914Y-76438285D02*
X158125390Y-76390666D01*
X158125390Y-76390666D02*
X158268247Y-76390666D01*
X158268247Y-76390666D02*
X158458723Y-76438285D01*
X158458723Y-76438285D02*
X158553961Y-76485904D01*
X158553961Y-76485904D02*
X158649200Y-76581142D01*
X158649200Y-76581142D02*
X158696819Y-76723999D01*
X158696819Y-76723999D02*
X158696819Y-76962094D01*
X158649200Y-81962475D02*
X158696819Y-81819618D01*
X158696819Y-81819618D02*
X158696819Y-81581523D01*
X158696819Y-81581523D02*
X158649200Y-81486285D01*
X158649200Y-81486285D02*
X158601580Y-81438666D01*
X158601580Y-81438666D02*
X158506342Y-81391047D01*
X158506342Y-81391047D02*
X158411104Y-81391047D01*
X158411104Y-81391047D02*
X158315866Y-81438666D01*
X158315866Y-81438666D02*
X158268247Y-81486285D01*
X158268247Y-81486285D02*
X158220628Y-81581523D01*
X158220628Y-81581523D02*
X158173009Y-81771999D01*
X158173009Y-81771999D02*
X158125390Y-81867237D01*
X158125390Y-81867237D02*
X158077771Y-81914856D01*
X158077771Y-81914856D02*
X157982533Y-81962475D01*
X157982533Y-81962475D02*
X157887295Y-81962475D01*
X157887295Y-81962475D02*
X157792057Y-81914856D01*
X157792057Y-81914856D02*
X157744438Y-81867237D01*
X157744438Y-81867237D02*
X157696819Y-81771999D01*
X157696819Y-81771999D02*
X157696819Y-81533904D01*
X157696819Y-81533904D02*
X157744438Y-81391047D01*
X158601580Y-80391047D02*
X158649200Y-80438666D01*
X158649200Y-80438666D02*
X158696819Y-80581523D01*
X158696819Y-80581523D02*
X158696819Y-80676761D01*
X158696819Y-80676761D02*
X158649200Y-80819618D01*
X158649200Y-80819618D02*
X158553961Y-80914856D01*
X158553961Y-80914856D02*
X158458723Y-80962475D01*
X158458723Y-80962475D02*
X158268247Y-81010094D01*
X158268247Y-81010094D02*
X158125390Y-81010094D01*
X158125390Y-81010094D02*
X157934914Y-80962475D01*
X157934914Y-80962475D02*
X157839676Y-80914856D01*
X157839676Y-80914856D02*
X157744438Y-80819618D01*
X157744438Y-80819618D02*
X157696819Y-80676761D01*
X157696819Y-80676761D02*
X157696819Y-80581523D01*
X157696819Y-80581523D02*
X157744438Y-80438666D01*
X157744438Y-80438666D02*
X157792057Y-80391047D01*
X158696819Y-79486285D02*
X158696819Y-79962475D01*
X158696819Y-79962475D02*
X157696819Y-79962475D01*
X118406104Y-96916666D02*
X118406104Y-96440476D01*
X118691819Y-97011904D02*
X117691819Y-96678571D01*
X117691819Y-96678571D02*
X118691819Y-96345238D01*
X118596580Y-95440476D02*
X118644200Y-95488095D01*
X118644200Y-95488095D02*
X118691819Y-95630952D01*
X118691819Y-95630952D02*
X118691819Y-95726190D01*
X118691819Y-95726190D02*
X118644200Y-95869047D01*
X118644200Y-95869047D02*
X118548961Y-95964285D01*
X118548961Y-95964285D02*
X118453723Y-96011904D01*
X118453723Y-96011904D02*
X118263247Y-96059523D01*
X118263247Y-96059523D02*
X118120390Y-96059523D01*
X118120390Y-96059523D02*
X117929914Y-96011904D01*
X117929914Y-96011904D02*
X117834676Y-95964285D01*
X117834676Y-95964285D02*
X117739438Y-95869047D01*
X117739438Y-95869047D02*
X117691819Y-95726190D01*
X117691819Y-95726190D02*
X117691819Y-95630952D01*
X117691819Y-95630952D02*
X117739438Y-95488095D01*
X117739438Y-95488095D02*
X117787057Y-95440476D01*
X117644200Y-94297619D02*
X118929914Y-95154761D01*
X118691819Y-93488095D02*
X118691819Y-93964285D01*
X118691819Y-93964285D02*
X117691819Y-93964285D01*
X75057095Y-100848438D02*
X74961857Y-100800819D01*
X74961857Y-100800819D02*
X74819000Y-100800819D01*
X74819000Y-100800819D02*
X74676143Y-100848438D01*
X74676143Y-100848438D02*
X74580905Y-100943676D01*
X74580905Y-100943676D02*
X74533286Y-101038914D01*
X74533286Y-101038914D02*
X74485667Y-101229390D01*
X74485667Y-101229390D02*
X74485667Y-101372247D01*
X74485667Y-101372247D02*
X74533286Y-101562723D01*
X74533286Y-101562723D02*
X74580905Y-101657961D01*
X74580905Y-101657961D02*
X74676143Y-101753200D01*
X74676143Y-101753200D02*
X74819000Y-101800819D01*
X74819000Y-101800819D02*
X74914238Y-101800819D01*
X74914238Y-101800819D02*
X75057095Y-101753200D01*
X75057095Y-101753200D02*
X75104714Y-101705580D01*
X75104714Y-101705580D02*
X75104714Y-101372247D01*
X75104714Y-101372247D02*
X74914238Y-101372247D01*
X75533286Y-101800819D02*
X75533286Y-100800819D01*
X75533286Y-100800819D02*
X76104714Y-101800819D01*
X76104714Y-101800819D02*
X76104714Y-100800819D01*
X76580905Y-101800819D02*
X76580905Y-100800819D01*
X76580905Y-100800819D02*
X76819000Y-100800819D01*
X76819000Y-100800819D02*
X76961857Y-100848438D01*
X76961857Y-100848438D02*
X77057095Y-100943676D01*
X77057095Y-100943676D02*
X77104714Y-101038914D01*
X77104714Y-101038914D02*
X77152333Y-101229390D01*
X77152333Y-101229390D02*
X77152333Y-101372247D01*
X77152333Y-101372247D02*
X77104714Y-101562723D01*
X77104714Y-101562723D02*
X77057095Y-101657961D01*
X77057095Y-101657961D02*
X76961857Y-101753200D01*
X76961857Y-101753200D02*
X76819000Y-101800819D01*
X76819000Y-101800819D02*
X76580905Y-101800819D01*
X121962104Y-89415713D02*
X121962104Y-88939523D01*
X122247819Y-89510951D02*
X121247819Y-89177618D01*
X121247819Y-89177618D02*
X122247819Y-88844285D01*
X122152580Y-87939523D02*
X122200200Y-87987142D01*
X122200200Y-87987142D02*
X122247819Y-88129999D01*
X122247819Y-88129999D02*
X122247819Y-88225237D01*
X122247819Y-88225237D02*
X122200200Y-88368094D01*
X122200200Y-88368094D02*
X122104961Y-88463332D01*
X122104961Y-88463332D02*
X122009723Y-88510951D01*
X122009723Y-88510951D02*
X121819247Y-88558570D01*
X121819247Y-88558570D02*
X121676390Y-88558570D01*
X121676390Y-88558570D02*
X121485914Y-88510951D01*
X121485914Y-88510951D02*
X121390676Y-88463332D01*
X121390676Y-88463332D02*
X121295438Y-88368094D01*
X121295438Y-88368094D02*
X121247819Y-88225237D01*
X121247819Y-88225237D02*
X121247819Y-88129999D01*
X121247819Y-88129999D02*
X121295438Y-87987142D01*
X121295438Y-87987142D02*
X121343057Y-87939523D01*
X121200200Y-86796666D02*
X122485914Y-87653808D01*
X122247819Y-86463332D02*
X121247819Y-86463332D01*
X121247819Y-86463332D02*
X122247819Y-85891904D01*
X122247819Y-85891904D02*
X121247819Y-85891904D01*
X161602009Y-72357952D02*
X161649628Y-72215095D01*
X161649628Y-72215095D02*
X161697247Y-72167476D01*
X161697247Y-72167476D02*
X161792485Y-72119857D01*
X161792485Y-72119857D02*
X161935342Y-72119857D01*
X161935342Y-72119857D02*
X162030580Y-72167476D01*
X162030580Y-72167476D02*
X162078200Y-72215095D01*
X162078200Y-72215095D02*
X162125819Y-72310333D01*
X162125819Y-72310333D02*
X162125819Y-72691285D01*
X162125819Y-72691285D02*
X161125819Y-72691285D01*
X161125819Y-72691285D02*
X161125819Y-72357952D01*
X161125819Y-72357952D02*
X161173438Y-72262714D01*
X161173438Y-72262714D02*
X161221057Y-72215095D01*
X161221057Y-72215095D02*
X161316295Y-72167476D01*
X161316295Y-72167476D02*
X161411533Y-72167476D01*
X161411533Y-72167476D02*
X161506771Y-72215095D01*
X161506771Y-72215095D02*
X161554390Y-72262714D01*
X161554390Y-72262714D02*
X161602009Y-72357952D01*
X161602009Y-72357952D02*
X161602009Y-72691285D01*
X162125819Y-71691285D02*
X161125819Y-71691285D01*
X161125819Y-71691285D02*
X161840104Y-71357952D01*
X161840104Y-71357952D02*
X161125819Y-71024619D01*
X161125819Y-71024619D02*
X162125819Y-71024619D01*
X161602009Y-70548428D02*
X161602009Y-70215095D01*
X162125819Y-70072238D02*
X162125819Y-70548428D01*
X162125819Y-70548428D02*
X161125819Y-70548428D01*
X161125819Y-70548428D02*
X161125819Y-70072238D01*
X161221057Y-69691285D02*
X161173438Y-69643666D01*
X161173438Y-69643666D02*
X161125819Y-69548428D01*
X161125819Y-69548428D02*
X161125819Y-69310333D01*
X161125819Y-69310333D02*
X161173438Y-69215095D01*
X161173438Y-69215095D02*
X161221057Y-69167476D01*
X161221057Y-69167476D02*
X161316295Y-69119857D01*
X161316295Y-69119857D02*
X161411533Y-69119857D01*
X161411533Y-69119857D02*
X161554390Y-69167476D01*
X161554390Y-69167476D02*
X162125819Y-69738904D01*
X162125819Y-69738904D02*
X162125819Y-69119857D01*
X161554390Y-68548428D02*
X161506771Y-68643666D01*
X161506771Y-68643666D02*
X161459152Y-68691285D01*
X161459152Y-68691285D02*
X161363914Y-68738904D01*
X161363914Y-68738904D02*
X161316295Y-68738904D01*
X161316295Y-68738904D02*
X161221057Y-68691285D01*
X161221057Y-68691285D02*
X161173438Y-68643666D01*
X161173438Y-68643666D02*
X161125819Y-68548428D01*
X161125819Y-68548428D02*
X161125819Y-68357952D01*
X161125819Y-68357952D02*
X161173438Y-68262714D01*
X161173438Y-68262714D02*
X161221057Y-68215095D01*
X161221057Y-68215095D02*
X161316295Y-68167476D01*
X161316295Y-68167476D02*
X161363914Y-68167476D01*
X161363914Y-68167476D02*
X161459152Y-68215095D01*
X161459152Y-68215095D02*
X161506771Y-68262714D01*
X161506771Y-68262714D02*
X161554390Y-68357952D01*
X161554390Y-68357952D02*
X161554390Y-68548428D01*
X161554390Y-68548428D02*
X161602009Y-68643666D01*
X161602009Y-68643666D02*
X161649628Y-68691285D01*
X161649628Y-68691285D02*
X161744866Y-68738904D01*
X161744866Y-68738904D02*
X161935342Y-68738904D01*
X161935342Y-68738904D02*
X162030580Y-68691285D01*
X162030580Y-68691285D02*
X162078200Y-68643666D01*
X162078200Y-68643666D02*
X162125819Y-68548428D01*
X162125819Y-68548428D02*
X162125819Y-68357952D01*
X162125819Y-68357952D02*
X162078200Y-68262714D01*
X162078200Y-68262714D02*
X162030580Y-68215095D01*
X162030580Y-68215095D02*
X161935342Y-68167476D01*
X161935342Y-68167476D02*
X161744866Y-68167476D01*
X161744866Y-68167476D02*
X161649628Y-68215095D01*
X161649628Y-68215095D02*
X161602009Y-68262714D01*
X161602009Y-68262714D02*
X161554390Y-68357952D01*
X161125819Y-67548428D02*
X161125819Y-67453190D01*
X161125819Y-67453190D02*
X161173438Y-67357952D01*
X161173438Y-67357952D02*
X161221057Y-67310333D01*
X161221057Y-67310333D02*
X161316295Y-67262714D01*
X161316295Y-67262714D02*
X161506771Y-67215095D01*
X161506771Y-67215095D02*
X161744866Y-67215095D01*
X161744866Y-67215095D02*
X161935342Y-67262714D01*
X161935342Y-67262714D02*
X162030580Y-67310333D01*
X162030580Y-67310333D02*
X162078200Y-67357952D01*
X162078200Y-67357952D02*
X162125819Y-67453190D01*
X162125819Y-67453190D02*
X162125819Y-67548428D01*
X162125819Y-67548428D02*
X162078200Y-67643666D01*
X162078200Y-67643666D02*
X162030580Y-67691285D01*
X162030580Y-67691285D02*
X161935342Y-67738904D01*
X161935342Y-67738904D02*
X161744866Y-67786523D01*
X161744866Y-67786523D02*
X161506771Y-67786523D01*
X161506771Y-67786523D02*
X161316295Y-67738904D01*
X161316295Y-67738904D02*
X161221057Y-67691285D01*
X161221057Y-67691285D02*
X161173438Y-67643666D01*
X161173438Y-67643666D02*
X161125819Y-67548428D01*
X148135180Y-52768571D02*
X148611371Y-52435238D01*
X148135180Y-52197143D02*
X149135180Y-52197143D01*
X149135180Y-52197143D02*
X149135180Y-52578095D01*
X149135180Y-52578095D02*
X149087561Y-52673333D01*
X149087561Y-52673333D02*
X149039942Y-52720952D01*
X149039942Y-52720952D02*
X148944704Y-52768571D01*
X148944704Y-52768571D02*
X148801847Y-52768571D01*
X148801847Y-52768571D02*
X148706609Y-52720952D01*
X148706609Y-52720952D02*
X148658990Y-52673333D01*
X148658990Y-52673333D02*
X148611371Y-52578095D01*
X148611371Y-52578095D02*
X148611371Y-52197143D01*
X148135180Y-53673333D02*
X148135180Y-53197143D01*
X148135180Y-53197143D02*
X149135180Y-53197143D01*
X149039942Y-53959048D02*
X149087561Y-54006667D01*
X149087561Y-54006667D02*
X149135180Y-54101905D01*
X149135180Y-54101905D02*
X149135180Y-54340000D01*
X149135180Y-54340000D02*
X149087561Y-54435238D01*
X149087561Y-54435238D02*
X149039942Y-54482857D01*
X149039942Y-54482857D02*
X148944704Y-54530476D01*
X148944704Y-54530476D02*
X148849466Y-54530476D01*
X148849466Y-54530476D02*
X148706609Y-54482857D01*
X148706609Y-54482857D02*
X148135180Y-53911429D01*
X148135180Y-53911429D02*
X148135180Y-54530476D01*
X160031180Y-52676571D02*
X160507371Y-52343238D01*
X160031180Y-52105143D02*
X161031180Y-52105143D01*
X161031180Y-52105143D02*
X161031180Y-52486095D01*
X161031180Y-52486095D02*
X160983561Y-52581333D01*
X160983561Y-52581333D02*
X160935942Y-52628952D01*
X160935942Y-52628952D02*
X160840704Y-52676571D01*
X160840704Y-52676571D02*
X160697847Y-52676571D01*
X160697847Y-52676571D02*
X160602609Y-52628952D01*
X160602609Y-52628952D02*
X160554990Y-52581333D01*
X160554990Y-52581333D02*
X160507371Y-52486095D01*
X160507371Y-52486095D02*
X160507371Y-52105143D01*
X160031180Y-53581333D02*
X160031180Y-53105143D01*
X160031180Y-53105143D02*
X161031180Y-53105143D01*
X160697847Y-54343238D02*
X160031180Y-54343238D01*
X161078800Y-54105143D02*
X160364514Y-53867048D01*
X160364514Y-53867048D02*
X160364514Y-54486095D01*
X154189180Y-52751571D02*
X154665371Y-52418238D01*
X154189180Y-52180143D02*
X155189180Y-52180143D01*
X155189180Y-52180143D02*
X155189180Y-52561095D01*
X155189180Y-52561095D02*
X155141561Y-52656333D01*
X155141561Y-52656333D02*
X155093942Y-52703952D01*
X155093942Y-52703952D02*
X154998704Y-52751571D01*
X154998704Y-52751571D02*
X154855847Y-52751571D01*
X154855847Y-52751571D02*
X154760609Y-52703952D01*
X154760609Y-52703952D02*
X154712990Y-52656333D01*
X154712990Y-52656333D02*
X154665371Y-52561095D01*
X154665371Y-52561095D02*
X154665371Y-52180143D01*
X154189180Y-53656333D02*
X154189180Y-53180143D01*
X154189180Y-53180143D02*
X155189180Y-53180143D01*
X155189180Y-53894429D02*
X155189180Y-54513476D01*
X155189180Y-54513476D02*
X154808228Y-54180143D01*
X154808228Y-54180143D02*
X154808228Y-54323000D01*
X154808228Y-54323000D02*
X154760609Y-54418238D01*
X154760609Y-54418238D02*
X154712990Y-54465857D01*
X154712990Y-54465857D02*
X154617752Y-54513476D01*
X154617752Y-54513476D02*
X154379657Y-54513476D01*
X154379657Y-54513476D02*
X154284419Y-54465857D01*
X154284419Y-54465857D02*
X154236800Y-54418238D01*
X154236800Y-54418238D02*
X154189180Y-54323000D01*
X154189180Y-54323000D02*
X154189180Y-54037286D01*
X154189180Y-54037286D02*
X154236800Y-53942048D01*
X154236800Y-53942048D02*
X154284419Y-53894429D01*
X152080571Y-37840819D02*
X151747238Y-37364628D01*
X151509143Y-37840819D02*
X151509143Y-36840819D01*
X151509143Y-36840819D02*
X151890095Y-36840819D01*
X151890095Y-36840819D02*
X151985333Y-36888438D01*
X151985333Y-36888438D02*
X152032952Y-36936057D01*
X152032952Y-36936057D02*
X152080571Y-37031295D01*
X152080571Y-37031295D02*
X152080571Y-37174152D01*
X152080571Y-37174152D02*
X152032952Y-37269390D01*
X152032952Y-37269390D02*
X151985333Y-37317009D01*
X151985333Y-37317009D02*
X151890095Y-37364628D01*
X151890095Y-37364628D02*
X151509143Y-37364628D01*
X152985333Y-37840819D02*
X152509143Y-37840819D01*
X152509143Y-37840819D02*
X152509143Y-36840819D01*
X153794857Y-36840819D02*
X153318667Y-36840819D01*
X153318667Y-36840819D02*
X153271048Y-37317009D01*
X153271048Y-37317009D02*
X153318667Y-37269390D01*
X153318667Y-37269390D02*
X153413905Y-37221771D01*
X153413905Y-37221771D02*
X153652000Y-37221771D01*
X153652000Y-37221771D02*
X153747238Y-37269390D01*
X153747238Y-37269390D02*
X153794857Y-37317009D01*
X153794857Y-37317009D02*
X153842476Y-37412247D01*
X153842476Y-37412247D02*
X153842476Y-37650342D01*
X153842476Y-37650342D02*
X153794857Y-37745580D01*
X153794857Y-37745580D02*
X153747238Y-37793200D01*
X153747238Y-37793200D02*
X153652000Y-37840819D01*
X153652000Y-37840819D02*
X153413905Y-37840819D01*
X153413905Y-37840819D02*
X153318667Y-37793200D01*
X153318667Y-37793200D02*
X153271048Y-37745580D01*
X143013180Y-52751571D02*
X143489371Y-52418238D01*
X143013180Y-52180143D02*
X144013180Y-52180143D01*
X144013180Y-52180143D02*
X144013180Y-52561095D01*
X144013180Y-52561095D02*
X143965561Y-52656333D01*
X143965561Y-52656333D02*
X143917942Y-52703952D01*
X143917942Y-52703952D02*
X143822704Y-52751571D01*
X143822704Y-52751571D02*
X143679847Y-52751571D01*
X143679847Y-52751571D02*
X143584609Y-52703952D01*
X143584609Y-52703952D02*
X143536990Y-52656333D01*
X143536990Y-52656333D02*
X143489371Y-52561095D01*
X143489371Y-52561095D02*
X143489371Y-52180143D01*
X143013180Y-53656333D02*
X143013180Y-53180143D01*
X143013180Y-53180143D02*
X144013180Y-53180143D01*
X143013180Y-54513476D02*
X143013180Y-53942048D01*
X143013180Y-54227762D02*
X144013180Y-54227762D01*
X144013180Y-54227762D02*
X143870323Y-54132524D01*
X143870323Y-54132524D02*
X143775085Y-54037286D01*
X143775085Y-54037286D02*
X143727466Y-53942048D01*
X81371428Y-88954819D02*
X81371428Y-87954819D01*
X81371428Y-87954819D02*
X81752380Y-87954819D01*
X81752380Y-87954819D02*
X81847618Y-88002438D01*
X81847618Y-88002438D02*
X81895237Y-88050057D01*
X81895237Y-88050057D02*
X81942856Y-88145295D01*
X81942856Y-88145295D02*
X81942856Y-88288152D01*
X81942856Y-88288152D02*
X81895237Y-88383390D01*
X81895237Y-88383390D02*
X81847618Y-88431009D01*
X81847618Y-88431009D02*
X81752380Y-88478628D01*
X81752380Y-88478628D02*
X81371428Y-88478628D01*
X82323809Y-88907200D02*
X82466666Y-88954819D01*
X82466666Y-88954819D02*
X82704761Y-88954819D01*
X82704761Y-88954819D02*
X82799999Y-88907200D01*
X82799999Y-88907200D02*
X82847618Y-88859580D01*
X82847618Y-88859580D02*
X82895237Y-88764342D01*
X82895237Y-88764342D02*
X82895237Y-88669104D01*
X82895237Y-88669104D02*
X82847618Y-88573866D01*
X82847618Y-88573866D02*
X82799999Y-88526247D01*
X82799999Y-88526247D02*
X82704761Y-88478628D01*
X82704761Y-88478628D02*
X82514285Y-88431009D01*
X82514285Y-88431009D02*
X82419047Y-88383390D01*
X82419047Y-88383390D02*
X82371428Y-88335771D01*
X82371428Y-88335771D02*
X82323809Y-88240533D01*
X82323809Y-88240533D02*
X82323809Y-88145295D01*
X82323809Y-88145295D02*
X82371428Y-88050057D01*
X82371428Y-88050057D02*
X82419047Y-88002438D01*
X82419047Y-88002438D02*
X82514285Y-87954819D01*
X82514285Y-87954819D02*
X82752380Y-87954819D01*
X82752380Y-87954819D02*
X82895237Y-88002438D01*
X83323809Y-87954819D02*
X83323809Y-88764342D01*
X83323809Y-88764342D02*
X83371428Y-88859580D01*
X83371428Y-88859580D02*
X83419047Y-88907200D01*
X83419047Y-88907200D02*
X83514285Y-88954819D01*
X83514285Y-88954819D02*
X83704761Y-88954819D01*
X83704761Y-88954819D02*
X83799999Y-88907200D01*
X83799999Y-88907200D02*
X83847618Y-88859580D01*
X83847618Y-88859580D02*
X83895237Y-88764342D01*
X83895237Y-88764342D02*
X83895237Y-87954819D01*
X84371428Y-88573866D02*
X85133333Y-88573866D01*
X85609523Y-88431009D02*
X85942856Y-88431009D01*
X86085713Y-88954819D02*
X85609523Y-88954819D01*
X85609523Y-88954819D02*
X85609523Y-87954819D01*
X85609523Y-87954819D02*
X86085713Y-87954819D01*
X86514285Y-87954819D02*
X86514285Y-88764342D01*
X86514285Y-88764342D02*
X86561904Y-88859580D01*
X86561904Y-88859580D02*
X86609523Y-88907200D01*
X86609523Y-88907200D02*
X86704761Y-88954819D01*
X86704761Y-88954819D02*
X86895237Y-88954819D01*
X86895237Y-88954819D02*
X86990475Y-88907200D01*
X86990475Y-88907200D02*
X87038094Y-88859580D01*
X87038094Y-88859580D02*
X87085713Y-88764342D01*
X87085713Y-88764342D02*
X87085713Y-87954819D01*
X87323809Y-89050057D02*
X88085713Y-89050057D01*
X88847618Y-88954819D02*
X88276190Y-88954819D01*
X88561904Y-88954819D02*
X88561904Y-87954819D01*
X88561904Y-87954819D02*
X88466666Y-88097676D01*
X88466666Y-88097676D02*
X88371428Y-88192914D01*
X88371428Y-88192914D02*
X88276190Y-88240533D01*
X89466666Y-87954819D02*
X89561904Y-87954819D01*
X89561904Y-87954819D02*
X89657142Y-88002438D01*
X89657142Y-88002438D02*
X89704761Y-88050057D01*
X89704761Y-88050057D02*
X89752380Y-88145295D01*
X89752380Y-88145295D02*
X89799999Y-88335771D01*
X89799999Y-88335771D02*
X89799999Y-88573866D01*
X89799999Y-88573866D02*
X89752380Y-88764342D01*
X89752380Y-88764342D02*
X89704761Y-88859580D01*
X89704761Y-88859580D02*
X89657142Y-88907200D01*
X89657142Y-88907200D02*
X89561904Y-88954819D01*
X89561904Y-88954819D02*
X89466666Y-88954819D01*
X89466666Y-88954819D02*
X89371428Y-88907200D01*
X89371428Y-88907200D02*
X89323809Y-88859580D01*
X89323809Y-88859580D02*
X89276190Y-88764342D01*
X89276190Y-88764342D02*
X89228571Y-88573866D01*
X89228571Y-88573866D02*
X89228571Y-88335771D01*
X89228571Y-88335771D02*
X89276190Y-88145295D01*
X89276190Y-88145295D02*
X89323809Y-88050057D01*
X89323809Y-88050057D02*
X89371428Y-88002438D01*
X89371428Y-88002438D02*
X89466666Y-87954819D01*
X90419047Y-87954819D02*
X90514285Y-87954819D01*
X90514285Y-87954819D02*
X90609523Y-88002438D01*
X90609523Y-88002438D02*
X90657142Y-88050057D01*
X90657142Y-88050057D02*
X90704761Y-88145295D01*
X90704761Y-88145295D02*
X90752380Y-88335771D01*
X90752380Y-88335771D02*
X90752380Y-88573866D01*
X90752380Y-88573866D02*
X90704761Y-88764342D01*
X90704761Y-88764342D02*
X90657142Y-88859580D01*
X90657142Y-88859580D02*
X90609523Y-88907200D01*
X90609523Y-88907200D02*
X90514285Y-88954819D01*
X90514285Y-88954819D02*
X90419047Y-88954819D01*
X90419047Y-88954819D02*
X90323809Y-88907200D01*
X90323809Y-88907200D02*
X90276190Y-88859580D01*
X90276190Y-88859580D02*
X90228571Y-88764342D01*
X90228571Y-88764342D02*
X90180952Y-88573866D01*
X90180952Y-88573866D02*
X90180952Y-88335771D01*
X90180952Y-88335771D02*
X90228571Y-88145295D01*
X90228571Y-88145295D02*
X90276190Y-88050057D01*
X90276190Y-88050057D02*
X90323809Y-88002438D01*
X90323809Y-88002438D02*
X90419047Y-87954819D01*
X91180952Y-88573866D02*
X91942857Y-88573866D01*
X92371428Y-88050057D02*
X92419047Y-88002438D01*
X92419047Y-88002438D02*
X92514285Y-87954819D01*
X92514285Y-87954819D02*
X92752380Y-87954819D01*
X92752380Y-87954819D02*
X92847618Y-88002438D01*
X92847618Y-88002438D02*
X92895237Y-88050057D01*
X92895237Y-88050057D02*
X92942856Y-88145295D01*
X92942856Y-88145295D02*
X92942856Y-88240533D01*
X92942856Y-88240533D02*
X92895237Y-88383390D01*
X92895237Y-88383390D02*
X92323809Y-88954819D01*
X92323809Y-88954819D02*
X92942856Y-88954819D01*
X93799999Y-88288152D02*
X93799999Y-88954819D01*
X93561904Y-87907200D02*
X93323809Y-88621485D01*
X93323809Y-88621485D02*
X93942856Y-88621485D01*
X94514285Y-87954819D02*
X94609523Y-87954819D01*
X94609523Y-87954819D02*
X94704761Y-88002438D01*
X94704761Y-88002438D02*
X94752380Y-88050057D01*
X94752380Y-88050057D02*
X94799999Y-88145295D01*
X94799999Y-88145295D02*
X94847618Y-88335771D01*
X94847618Y-88335771D02*
X94847618Y-88573866D01*
X94847618Y-88573866D02*
X94799999Y-88764342D01*
X94799999Y-88764342D02*
X94752380Y-88859580D01*
X94752380Y-88859580D02*
X94704761Y-88907200D01*
X94704761Y-88907200D02*
X94609523Y-88954819D01*
X94609523Y-88954819D02*
X94514285Y-88954819D01*
X94514285Y-88954819D02*
X94419047Y-88907200D01*
X94419047Y-88907200D02*
X94371428Y-88859580D01*
X94371428Y-88859580D02*
X94323809Y-88764342D01*
X94323809Y-88764342D02*
X94276190Y-88573866D01*
X94276190Y-88573866D02*
X94276190Y-88335771D01*
X94276190Y-88335771D02*
X94323809Y-88145295D01*
X94323809Y-88145295D02*
X94371428Y-88050057D01*
X94371428Y-88050057D02*
X94419047Y-88002438D01*
X94419047Y-88002438D02*
X94514285Y-87954819D01*
X95133333Y-87954819D02*
X95466666Y-88954819D01*
X95466666Y-88954819D02*
X95799999Y-87954819D01*
X95895238Y-89050057D02*
X96657142Y-89050057D01*
X96847619Y-88669104D02*
X97323809Y-88669104D01*
X96752381Y-88954819D02*
X97085714Y-87954819D01*
X97085714Y-87954819D02*
X97419047Y-88954819D01*
X98323809Y-88859580D02*
X98276190Y-88907200D01*
X98276190Y-88907200D02*
X98133333Y-88954819D01*
X98133333Y-88954819D02*
X98038095Y-88954819D01*
X98038095Y-88954819D02*
X97895238Y-88907200D01*
X97895238Y-88907200D02*
X97800000Y-88811961D01*
X97800000Y-88811961D02*
X97752381Y-88716723D01*
X97752381Y-88716723D02*
X97704762Y-88526247D01*
X97704762Y-88526247D02*
X97704762Y-88383390D01*
X97704762Y-88383390D02*
X97752381Y-88192914D01*
X97752381Y-88192914D02*
X97800000Y-88097676D01*
X97800000Y-88097676D02*
X97895238Y-88002438D01*
X97895238Y-88002438D02*
X98038095Y-87954819D01*
X98038095Y-87954819D02*
X98133333Y-87954819D01*
X98133333Y-87954819D02*
X98276190Y-88002438D01*
X98276190Y-88002438D02*
X98323809Y-88050057D01*
X99276190Y-88954819D02*
X98704762Y-88954819D01*
X98990476Y-88954819D02*
X98990476Y-87954819D01*
X98990476Y-87954819D02*
X98895238Y-88097676D01*
X98895238Y-88097676D02*
X98800000Y-88192914D01*
X98800000Y-88192914D02*
X98704762Y-88240533D01*
X140650667Y-71019200D02*
X140793524Y-71066819D01*
X140793524Y-71066819D02*
X141031619Y-71066819D01*
X141031619Y-71066819D02*
X141126857Y-71019200D01*
X141126857Y-71019200D02*
X141174476Y-70971580D01*
X141174476Y-70971580D02*
X141222095Y-70876342D01*
X141222095Y-70876342D02*
X141222095Y-70781104D01*
X141222095Y-70781104D02*
X141174476Y-70685866D01*
X141174476Y-70685866D02*
X141126857Y-70638247D01*
X141126857Y-70638247D02*
X141031619Y-70590628D01*
X141031619Y-70590628D02*
X140841143Y-70543009D01*
X140841143Y-70543009D02*
X140745905Y-70495390D01*
X140745905Y-70495390D02*
X140698286Y-70447771D01*
X140698286Y-70447771D02*
X140650667Y-70352533D01*
X140650667Y-70352533D02*
X140650667Y-70257295D01*
X140650667Y-70257295D02*
X140698286Y-70162057D01*
X140698286Y-70162057D02*
X140745905Y-70114438D01*
X140745905Y-70114438D02*
X140841143Y-70066819D01*
X140841143Y-70066819D02*
X141079238Y-70066819D01*
X141079238Y-70066819D02*
X141222095Y-70114438D01*
X141555429Y-70066819D02*
X141793524Y-71066819D01*
X141793524Y-71066819D02*
X141984000Y-70352533D01*
X141984000Y-70352533D02*
X142174476Y-71066819D01*
X142174476Y-71066819D02*
X142412572Y-70066819D01*
X143317333Y-71066819D02*
X142745905Y-71066819D01*
X143031619Y-71066819D02*
X143031619Y-70066819D01*
X143031619Y-70066819D02*
X142936381Y-70209676D01*
X142936381Y-70209676D02*
X142841143Y-70304914D01*
X142841143Y-70304914D02*
X142745905Y-70352533D01*
X103766666Y-74954819D02*
X103766666Y-75669104D01*
X103766666Y-75669104D02*
X103719047Y-75811961D01*
X103719047Y-75811961D02*
X103623809Y-75907200D01*
X103623809Y-75907200D02*
X103480952Y-75954819D01*
X103480952Y-75954819D02*
X103385714Y-75954819D01*
X104433333Y-74954819D02*
X104528571Y-74954819D01*
X104528571Y-74954819D02*
X104623809Y-75002438D01*
X104623809Y-75002438D02*
X104671428Y-75050057D01*
X104671428Y-75050057D02*
X104719047Y-75145295D01*
X104719047Y-75145295D02*
X104766666Y-75335771D01*
X104766666Y-75335771D02*
X104766666Y-75573866D01*
X104766666Y-75573866D02*
X104719047Y-75764342D01*
X104719047Y-75764342D02*
X104671428Y-75859580D01*
X104671428Y-75859580D02*
X104623809Y-75907200D01*
X104623809Y-75907200D02*
X104528571Y-75954819D01*
X104528571Y-75954819D02*
X104433333Y-75954819D01*
X104433333Y-75954819D02*
X104338095Y-75907200D01*
X104338095Y-75907200D02*
X104290476Y-75859580D01*
X104290476Y-75859580D02*
X104242857Y-75764342D01*
X104242857Y-75764342D02*
X104195238Y-75573866D01*
X104195238Y-75573866D02*
X104195238Y-75335771D01*
X104195238Y-75335771D02*
X104242857Y-75145295D01*
X104242857Y-75145295D02*
X104290476Y-75050057D01*
X104290476Y-75050057D02*
X104338095Y-75002438D01*
X104338095Y-75002438D02*
X104433333Y-74954819D01*
X78673819Y-63076333D02*
X79388104Y-63076333D01*
X79388104Y-63076333D02*
X79530961Y-63123952D01*
X79530961Y-63123952D02*
X79626200Y-63219190D01*
X79626200Y-63219190D02*
X79673819Y-63362047D01*
X79673819Y-63362047D02*
X79673819Y-63457285D01*
X78673819Y-62695380D02*
X78673819Y-62076333D01*
X78673819Y-62076333D02*
X79054771Y-62409666D01*
X79054771Y-62409666D02*
X79054771Y-62266809D01*
X79054771Y-62266809D02*
X79102390Y-62171571D01*
X79102390Y-62171571D02*
X79150009Y-62123952D01*
X79150009Y-62123952D02*
X79245247Y-62076333D01*
X79245247Y-62076333D02*
X79483342Y-62076333D01*
X79483342Y-62076333D02*
X79578580Y-62123952D01*
X79578580Y-62123952D02*
X79626200Y-62171571D01*
X79626200Y-62171571D02*
X79673819Y-62266809D01*
X79673819Y-62266809D02*
X79673819Y-62552523D01*
X79673819Y-62552523D02*
X79626200Y-62647761D01*
X79626200Y-62647761D02*
X79578580Y-62695380D01*
X137890952Y-75781819D02*
X138462380Y-75781819D01*
X138176666Y-76781819D02*
X138176666Y-75781819D01*
X139176666Y-76734200D02*
X139081428Y-76781819D01*
X139081428Y-76781819D02*
X138890952Y-76781819D01*
X138890952Y-76781819D02*
X138795714Y-76734200D01*
X138795714Y-76734200D02*
X138748095Y-76638961D01*
X138748095Y-76638961D02*
X138748095Y-76258009D01*
X138748095Y-76258009D02*
X138795714Y-76162771D01*
X138795714Y-76162771D02*
X138890952Y-76115152D01*
X138890952Y-76115152D02*
X139081428Y-76115152D01*
X139081428Y-76115152D02*
X139176666Y-76162771D01*
X139176666Y-76162771D02*
X139224285Y-76258009D01*
X139224285Y-76258009D02*
X139224285Y-76353247D01*
X139224285Y-76353247D02*
X138748095Y-76448485D01*
X139652857Y-76781819D02*
X139652857Y-76115152D01*
X139652857Y-76305628D02*
X139700476Y-76210390D01*
X139700476Y-76210390D02*
X139748095Y-76162771D01*
X139748095Y-76162771D02*
X139843333Y-76115152D01*
X139843333Y-76115152D02*
X139938571Y-76115152D01*
X140271905Y-76781819D02*
X140271905Y-76115152D01*
X140271905Y-76210390D02*
X140319524Y-76162771D01*
X140319524Y-76162771D02*
X140414762Y-76115152D01*
X140414762Y-76115152D02*
X140557619Y-76115152D01*
X140557619Y-76115152D02*
X140652857Y-76162771D01*
X140652857Y-76162771D02*
X140700476Y-76258009D01*
X140700476Y-76258009D02*
X140700476Y-76781819D01*
X140700476Y-76258009D02*
X140748095Y-76162771D01*
X140748095Y-76162771D02*
X140843333Y-76115152D01*
X140843333Y-76115152D02*
X140986190Y-76115152D01*
X140986190Y-76115152D02*
X141081429Y-76162771D01*
X141081429Y-76162771D02*
X141129048Y-76258009D01*
X141129048Y-76258009D02*
X141129048Y-76781819D01*
X141605238Y-76781819D02*
X141605238Y-76115152D01*
X141605238Y-75781819D02*
X141557619Y-75829438D01*
X141557619Y-75829438D02*
X141605238Y-75877057D01*
X141605238Y-75877057D02*
X141652857Y-75829438D01*
X141652857Y-75829438D02*
X141605238Y-75781819D01*
X141605238Y-75781819D02*
X141605238Y-75877057D01*
X142081428Y-76115152D02*
X142081428Y-76781819D01*
X142081428Y-76210390D02*
X142129047Y-76162771D01*
X142129047Y-76162771D02*
X142224285Y-76115152D01*
X142224285Y-76115152D02*
X142367142Y-76115152D01*
X142367142Y-76115152D02*
X142462380Y-76162771D01*
X142462380Y-76162771D02*
X142509999Y-76258009D01*
X142509999Y-76258009D02*
X142509999Y-76781819D01*
X143414761Y-76781819D02*
X143414761Y-76258009D01*
X143414761Y-76258009D02*
X143367142Y-76162771D01*
X143367142Y-76162771D02*
X143271904Y-76115152D01*
X143271904Y-76115152D02*
X143081428Y-76115152D01*
X143081428Y-76115152D02*
X142986190Y-76162771D01*
X143414761Y-76734200D02*
X143319523Y-76781819D01*
X143319523Y-76781819D02*
X143081428Y-76781819D01*
X143081428Y-76781819D02*
X142986190Y-76734200D01*
X142986190Y-76734200D02*
X142938571Y-76638961D01*
X142938571Y-76638961D02*
X142938571Y-76543723D01*
X142938571Y-76543723D02*
X142986190Y-76448485D01*
X142986190Y-76448485D02*
X143081428Y-76400866D01*
X143081428Y-76400866D02*
X143319523Y-76400866D01*
X143319523Y-76400866D02*
X143414761Y-76353247D01*
X144033809Y-76781819D02*
X143938571Y-76734200D01*
X143938571Y-76734200D02*
X143890952Y-76638961D01*
X143890952Y-76638961D02*
X143890952Y-75781819D01*
X144748095Y-76258009D02*
X144890952Y-76305628D01*
X144890952Y-76305628D02*
X144938571Y-76353247D01*
X144938571Y-76353247D02*
X144986190Y-76448485D01*
X144986190Y-76448485D02*
X144986190Y-76591342D01*
X144986190Y-76591342D02*
X144938571Y-76686580D01*
X144938571Y-76686580D02*
X144890952Y-76734200D01*
X144890952Y-76734200D02*
X144795714Y-76781819D01*
X144795714Y-76781819D02*
X144414762Y-76781819D01*
X144414762Y-76781819D02*
X144414762Y-75781819D01*
X144414762Y-75781819D02*
X144748095Y-75781819D01*
X144748095Y-75781819D02*
X144843333Y-75829438D01*
X144843333Y-75829438D02*
X144890952Y-75877057D01*
X144890952Y-75877057D02*
X144938571Y-75972295D01*
X144938571Y-75972295D02*
X144938571Y-76067533D01*
X144938571Y-76067533D02*
X144890952Y-76162771D01*
X144890952Y-76162771D02*
X144843333Y-76210390D01*
X144843333Y-76210390D02*
X144748095Y-76258009D01*
X144748095Y-76258009D02*
X144414762Y-76258009D01*
X145557619Y-76781819D02*
X145462381Y-76734200D01*
X145462381Y-76734200D02*
X145414762Y-76638961D01*
X145414762Y-76638961D02*
X145414762Y-75781819D01*
X146081429Y-76781819D02*
X145986191Y-76734200D01*
X145986191Y-76734200D02*
X145938572Y-76686580D01*
X145938572Y-76686580D02*
X145890953Y-76591342D01*
X145890953Y-76591342D02*
X145890953Y-76305628D01*
X145890953Y-76305628D02*
X145938572Y-76210390D01*
X145938572Y-76210390D02*
X145986191Y-76162771D01*
X145986191Y-76162771D02*
X146081429Y-76115152D01*
X146081429Y-76115152D02*
X146224286Y-76115152D01*
X146224286Y-76115152D02*
X146319524Y-76162771D01*
X146319524Y-76162771D02*
X146367143Y-76210390D01*
X146367143Y-76210390D02*
X146414762Y-76305628D01*
X146414762Y-76305628D02*
X146414762Y-76591342D01*
X146414762Y-76591342D02*
X146367143Y-76686580D01*
X146367143Y-76686580D02*
X146319524Y-76734200D01*
X146319524Y-76734200D02*
X146224286Y-76781819D01*
X146224286Y-76781819D02*
X146081429Y-76781819D01*
X147271905Y-76734200D02*
X147176667Y-76781819D01*
X147176667Y-76781819D02*
X146986191Y-76781819D01*
X146986191Y-76781819D02*
X146890953Y-76734200D01*
X146890953Y-76734200D02*
X146843334Y-76686580D01*
X146843334Y-76686580D02*
X146795715Y-76591342D01*
X146795715Y-76591342D02*
X146795715Y-76305628D01*
X146795715Y-76305628D02*
X146843334Y-76210390D01*
X146843334Y-76210390D02*
X146890953Y-76162771D01*
X146890953Y-76162771D02*
X146986191Y-76115152D01*
X146986191Y-76115152D02*
X147176667Y-76115152D01*
X147176667Y-76115152D02*
X147271905Y-76162771D01*
X147700477Y-76781819D02*
X147700477Y-75781819D01*
X147795715Y-76400866D02*
X148081429Y-76781819D01*
X148081429Y-76115152D02*
X147700477Y-76496104D01*
X149033810Y-76781819D02*
X148462382Y-76781819D01*
X148748096Y-76781819D02*
X148748096Y-75781819D01*
X148748096Y-75781819D02*
X148652858Y-75924676D01*
X148652858Y-75924676D02*
X148557620Y-76019914D01*
X148557620Y-76019914D02*
X148462382Y-76067533D01*
D11*
%TO.C,BME280*%
X158944000Y-82159000D02*
X158944000Y-74479000D01*
X161604000Y-74479000D02*
X158944000Y-74479000D01*
X161604000Y-82159000D02*
X158944000Y-82159000D01*
X161604000Y-82159000D02*
X161604000Y-74479000D01*
X161604000Y-83429000D02*
X161604000Y-84759000D01*
X161604000Y-84759000D02*
X160274000Y-84759000D01*
%TO.C,RL2*%
X150706000Y-41223000D02*
X146156000Y-41223000D01*
X146156000Y-66663000D01*
X150706000Y-66663000D01*
X150706000Y-41223000D01*
%TO.C,J6*%
X119320000Y-102620000D02*
X119320000Y-105280000D01*
X119380000Y-102620000D02*
X119320000Y-102620000D01*
X119380000Y-102620000D02*
X119380000Y-105280000D01*
X119380000Y-105280000D02*
X119320000Y-105280000D01*
X120650000Y-102620000D02*
X121980000Y-102620000D01*
X121980000Y-102620000D02*
X121980000Y-103950000D01*
%TO.C,RL4*%
X162136000Y-41148000D02*
X157586000Y-41148000D01*
X157586000Y-66588000D01*
X162136000Y-66588000D01*
X162136000Y-41148000D01*
%TO.C,RL3*%
X156294000Y-41223000D02*
X151744000Y-41223000D01*
X151744000Y-66663000D01*
X156294000Y-66663000D01*
X156294000Y-41223000D01*
D12*
%TO.C,G\u002A\u002A\u002A*%
G36*
X86780095Y-94281743D02*
G01*
X86928695Y-94315866D01*
X87033275Y-94375900D01*
X87097704Y-94464433D01*
X87125856Y-94584052D01*
X87127855Y-94634686D01*
X87110934Y-94766793D01*
X87057816Y-94866501D01*
X86964966Y-94936214D01*
X86828851Y-94978337D01*
X86645937Y-94995275D01*
X86597162Y-94995861D01*
X86347175Y-94995861D01*
X86347175Y-94270943D01*
X86583603Y-94270943D01*
X86780095Y-94281743D01*
G37*
G36*
X86702663Y-95652585D02*
G01*
X86917859Y-95670878D01*
X87083101Y-95701387D01*
X87203546Y-95747830D01*
X87284352Y-95813921D01*
X87330676Y-95903380D01*
X87347675Y-96019921D01*
X87345183Y-96115618D01*
X87318255Y-96252247D01*
X87257059Y-96359017D01*
X87157940Y-96438014D01*
X87017244Y-96491327D01*
X86831313Y-96521044D01*
X86620929Y-96529341D01*
X86347175Y-96529341D01*
X86347175Y-95632857D01*
X86702663Y-95652585D01*
G37*
G36*
X94739491Y-96200379D02*
G01*
X94737676Y-96330393D01*
X94730995Y-96416404D01*
X94717594Y-96470092D01*
X94695620Y-96503137D01*
X94690698Y-96507717D01*
X94552675Y-96595462D01*
X94391061Y-96645664D01*
X94225737Y-96653364D01*
X94154421Y-96641396D01*
X94039593Y-96587569D01*
X93963739Y-96495974D01*
X93931678Y-96372925D01*
X93930929Y-96348696D01*
X93952330Y-96224731D01*
X94017874Y-96124987D01*
X94129572Y-96048154D01*
X94289435Y-95992925D01*
X94499474Y-95957990D01*
X94537350Y-95954244D01*
X94739491Y-95935823D01*
X94739491Y-96200379D01*
G37*
G36*
X80457151Y-94266695D02*
G01*
X80615659Y-94274544D01*
X80745218Y-94286414D01*
X80827627Y-94300486D01*
X80927077Y-94347858D01*
X81025410Y-94430317D01*
X81103736Y-94530097D01*
X81131634Y-94586425D01*
X81157404Y-94728845D01*
X81136369Y-94875400D01*
X81073678Y-95009965D01*
X80974475Y-95116413D01*
X80958931Y-95127505D01*
X80852138Y-95175989D01*
X80695423Y-95212382D01*
X80493462Y-95235946D01*
X80250927Y-95245945D01*
X80206285Y-95246242D01*
X79934441Y-95246794D01*
X79934441Y-94270943D01*
X80108700Y-94265737D01*
X80283547Y-94263536D01*
X80457151Y-94266695D01*
G37*
G36*
X101068580Y-99178078D02*
G01*
X78944650Y-99173154D01*
X79585923Y-99048994D01*
X81247074Y-98743362D01*
X82872264Y-98476859D01*
X84464881Y-98249105D01*
X86028315Y-98059717D01*
X87565956Y-97908317D01*
X89081192Y-97794522D01*
X90577414Y-97717953D01*
X91742235Y-97683651D01*
X92154369Y-97678038D01*
X92561839Y-97677924D01*
X92972438Y-97683614D01*
X93393961Y-97695416D01*
X93834204Y-97713636D01*
X94300961Y-97738580D01*
X94802027Y-97770554D01*
X95345196Y-97809867D01*
X95743223Y-97840999D01*
X95887512Y-97853122D01*
X96016041Y-97864926D01*
X96116343Y-97875195D01*
X96175952Y-97882712D01*
X96181795Y-97883759D01*
X96243967Y-97896313D01*
X96188765Y-98036362D01*
X96158047Y-98116493D01*
X96138005Y-98172990D01*
X96133563Y-98189319D01*
X96159934Y-98193560D01*
X96233002Y-98197215D01*
X96343704Y-98200037D01*
X96482978Y-98201779D01*
X96606429Y-98202228D01*
X97079294Y-98202228D01*
X97112708Y-98090702D01*
X97144578Y-98013395D01*
X97183713Y-97981522D01*
X97202209Y-97979176D01*
X97244708Y-97981410D01*
X97334499Y-97987691D01*
X97463310Y-97997385D01*
X97622868Y-98009860D01*
X97804898Y-98024482D01*
X97951209Y-98036479D01*
X98164982Y-98054055D01*
X98330261Y-98067037D01*
X98454125Y-98075446D01*
X98543653Y-98079302D01*
X98605922Y-98078626D01*
X98648012Y-98073437D01*
X98677000Y-98063757D01*
X98699965Y-98049605D01*
X98714189Y-98038668D01*
X98740107Y-98018122D01*
X98755939Y-98001554D01*
X98756307Y-97987735D01*
X98735831Y-97975434D01*
X98689135Y-97963422D01*
X98610841Y-97950470D01*
X98495570Y-97935348D01*
X98337945Y-97916827D01*
X98132587Y-97893677D01*
X98029502Y-97882131D01*
X97840364Y-97860471D01*
X97666373Y-97839671D01*
X97516327Y-97820855D01*
X97399027Y-97805144D01*
X97323271Y-97793659D01*
X97301855Y-97789382D01*
X97229423Y-97770065D01*
X97838268Y-96125060D01*
X97944901Y-95836857D01*
X98045603Y-95564501D01*
X98138737Y-95312430D01*
X98222667Y-95085083D01*
X98295756Y-94886896D01*
X98356367Y-94722308D01*
X98402865Y-94595757D01*
X98433613Y-94511680D01*
X98446974Y-94474515D01*
X98447418Y-94473084D01*
X98421186Y-94470762D01*
X98348444Y-94468800D01*
X98238441Y-94467334D01*
X98100431Y-94466502D01*
X97994650Y-94466369D01*
X97541576Y-94466624D01*
X97290643Y-95274801D01*
X97227628Y-95476246D01*
X97169443Y-95659368D01*
X97118221Y-95817683D01*
X97076095Y-95944708D01*
X97045194Y-96033959D01*
X97027652Y-96078954D01*
X97024863Y-96083108D01*
X97011050Y-96058275D01*
X96984138Y-95990421D01*
X96947905Y-95889674D01*
X96906132Y-95766162D01*
X96902674Y-95755631D01*
X96855757Y-95614137D01*
X96796423Y-95437734D01*
X96730681Y-95244144D01*
X96664536Y-95051089D01*
X96628605Y-94947068D01*
X96461880Y-94466113D01*
X96004966Y-94466113D01*
X95852415Y-94466677D01*
X95721476Y-94468238D01*
X95621371Y-94470597D01*
X95561319Y-94473558D01*
X95548053Y-94475895D01*
X95557555Y-94503120D01*
X95584832Y-94577586D01*
X95628036Y-94694335D01*
X95685321Y-94848411D01*
X95754840Y-95034857D01*
X95834747Y-95248716D01*
X95923196Y-95485031D01*
X96018340Y-95738846D01*
X96044392Y-95808281D01*
X96540731Y-97130885D01*
X96433280Y-97407781D01*
X96388889Y-97521282D01*
X96352337Y-97613053D01*
X96328003Y-97672207D01*
X96320311Y-97688708D01*
X96292073Y-97687885D01*
X96222403Y-97682035D01*
X96125282Y-97672361D01*
X96105682Y-97670275D01*
X95635828Y-97624176D01*
X95120522Y-97581543D01*
X94569997Y-97542878D01*
X93994486Y-97508682D01*
X93404220Y-97479457D01*
X92809434Y-97455704D01*
X92220358Y-97437925D01*
X91647226Y-97426622D01*
X91100269Y-97422295D01*
X91045199Y-97422265D01*
X90053544Y-97433490D01*
X89018377Y-97466340D01*
X87947317Y-97520185D01*
X86847983Y-97594397D01*
X85727993Y-97688348D01*
X84594966Y-97801409D01*
X83456521Y-97932950D01*
X82320276Y-98082344D01*
X81384277Y-98219456D01*
X81182712Y-98250903D01*
X80959005Y-98286685D01*
X80719838Y-98325656D01*
X80471894Y-98366672D01*
X80221856Y-98408585D01*
X79976405Y-98450251D01*
X79742225Y-98490523D01*
X79525999Y-98528257D01*
X79334408Y-98562305D01*
X79174135Y-98591522D01*
X79051864Y-98614763D01*
X78974276Y-98630882D01*
X78953046Y-98636303D01*
X78929520Y-98645547D01*
X78911650Y-98662549D01*
X78895814Y-98697189D01*
X78878389Y-98759347D01*
X78855750Y-98858906D01*
X78833612Y-98961997D01*
X78810678Y-99062893D01*
X78790793Y-99138624D01*
X78777462Y-99176174D01*
X78775459Y-99178078D01*
X78773849Y-99150793D01*
X78772301Y-99071320D01*
X78770831Y-98943235D01*
X78769453Y-98770113D01*
X78768180Y-98555529D01*
X78767028Y-98303060D01*
X78766009Y-98016280D01*
X78765139Y-97698764D01*
X78764431Y-97354089D01*
X78764206Y-97198495D01*
X79181642Y-97198495D01*
X79934441Y-97198495D01*
X85399205Y-97198495D01*
X86326264Y-97198083D01*
X86602023Y-97197380D01*
X86828007Y-97195388D01*
X87010195Y-97191882D01*
X87154564Y-97186635D01*
X87267091Y-97179423D01*
X87353756Y-97170019D01*
X87420535Y-97158197D01*
X87428115Y-97156460D01*
X87665899Y-97077989D01*
X87874670Y-96963849D01*
X88047192Y-96819206D01*
X88176234Y-96649226D01*
X88199951Y-96605195D01*
X88233359Y-96531329D01*
X88254420Y-96461265D01*
X88265865Y-96378527D01*
X88270426Y-96266639D01*
X88270995Y-96176721D01*
X88264133Y-95950298D01*
X88240534Y-95769489D01*
X88195673Y-95625498D01*
X88125026Y-95509531D01*
X88024071Y-95412792D01*
X87888282Y-95326487D01*
X87814134Y-95288480D01*
X87726193Y-95243929D01*
X87666363Y-95210138D01*
X87644309Y-95192705D01*
X87646707Y-95191496D01*
X87702239Y-95168663D01*
X87775039Y-95109261D01*
X87854436Y-95024980D01*
X87929761Y-94927511D01*
X87990342Y-94828545D01*
X88004337Y-94799665D01*
X88044073Y-94703451D01*
X88066062Y-94621963D01*
X88074133Y-94532447D01*
X88072115Y-94412151D01*
X88071606Y-94399918D01*
X88049478Y-94202293D01*
X87998340Y-94044380D01*
X87912808Y-93915379D01*
X87787494Y-93804492D01*
X87767755Y-93790675D01*
X87693570Y-93742195D01*
X87622166Y-93702351D01*
X87547136Y-93670205D01*
X87462069Y-93644813D01*
X87360558Y-93625235D01*
X87236194Y-93610531D01*
X87082567Y-93599758D01*
X86893268Y-93591975D01*
X86661889Y-93586241D01*
X86382020Y-93581616D01*
X86340204Y-93581025D01*
X85829372Y-93573907D01*
X88277570Y-93573907D01*
X88706873Y-95267705D01*
X88783230Y-95568924D01*
X88856221Y-95856776D01*
X88924574Y-96126253D01*
X88987019Y-96372349D01*
X89042284Y-96590056D01*
X89089099Y-96774368D01*
X89126192Y-96920279D01*
X89152292Y-97022780D01*
X89166128Y-97076865D01*
X89166939Y-97079999D01*
X89197702Y-97198495D01*
X90220075Y-97198495D01*
X90244686Y-97107881D01*
X90256950Y-97060509D01*
X90280976Y-96965739D01*
X90315078Y-96830290D01*
X90357572Y-96660880D01*
X90406771Y-96464228D01*
X90460991Y-96247053D01*
X90517137Y-96021734D01*
X90764976Y-95026201D01*
X91325736Y-97184555D01*
X91840681Y-97191902D01*
X92355627Y-97199250D01*
X92556425Y-96401964D01*
X93038878Y-96401964D01*
X93049416Y-96575424D01*
X93084998Y-96719894D01*
X93152117Y-96858971D01*
X93174849Y-96896077D01*
X93308299Y-97056693D01*
X93480125Y-97177402D01*
X93605621Y-97232367D01*
X93773774Y-97269694D01*
X93966120Y-97275693D01*
X94161578Y-97251591D01*
X94339068Y-97198617D01*
X94362852Y-97188251D01*
X94470920Y-97132421D01*
X94577146Y-97067489D01*
X94630360Y-97029310D01*
X94739491Y-96942877D01*
X94739491Y-97198495D01*
X95603816Y-97198495D01*
X95603816Y-96153987D01*
X95603665Y-95883229D01*
X95603019Y-95662160D01*
X95601591Y-95484705D01*
X95599091Y-95344791D01*
X95595233Y-95236343D01*
X95589726Y-95153287D01*
X95582283Y-95089550D01*
X95572615Y-95039057D01*
X95560435Y-94995734D01*
X95547023Y-94957686D01*
X95455352Y-94790141D01*
X95368982Y-94694132D01*
X95253112Y-94598510D01*
X95132396Y-94524715D01*
X94997817Y-94470324D01*
X94840358Y-94432916D01*
X94651003Y-94410069D01*
X94420736Y-94399362D01*
X94265506Y-94397760D01*
X94058029Y-94399493D01*
X93889654Y-94406297D01*
X93743814Y-94420004D01*
X93603943Y-94442445D01*
X93453472Y-94475455D01*
X93366329Y-94497201D01*
X93261774Y-94524026D01*
X93261774Y-94857528D01*
X93261633Y-95005418D01*
X93266768Y-95105898D01*
X93285516Y-95164549D01*
X93326212Y-95186950D01*
X93397193Y-95178681D01*
X93506795Y-95145322D01*
X93629617Y-95103738D01*
X93853027Y-95043985D01*
X94069501Y-95015056D01*
X94270225Y-95016441D01*
X94446383Y-95047633D01*
X94589162Y-95108121D01*
X94660252Y-95163266D01*
X94714607Y-95235838D01*
X94739216Y-95306571D01*
X94739491Y-95313090D01*
X94739989Y-95338645D01*
X94736708Y-95358019D01*
X94722483Y-95373024D01*
X94690146Y-95385473D01*
X94632534Y-95397181D01*
X94542481Y-95409959D01*
X94412821Y-95425621D01*
X94236389Y-95445981D01*
X94195802Y-95450667D01*
X93937909Y-95487900D01*
X93726594Y-95536028D01*
X93553207Y-95598240D01*
X93409096Y-95677731D01*
X93285613Y-95777692D01*
X93271049Y-95791934D01*
X93153950Y-95935205D01*
X93079776Y-96093707D01*
X93043927Y-96279527D01*
X93038878Y-96401964D01*
X92556425Y-96401964D01*
X92799864Y-95435371D01*
X92876678Y-95130360D01*
X92949651Y-94840584D01*
X93017610Y-94570689D01*
X93079387Y-94325325D01*
X93133812Y-94109140D01*
X93179713Y-93926782D01*
X93215921Y-93782898D01*
X93241266Y-93682139D01*
X93254577Y-93629150D01*
X93256189Y-93622700D01*
X93256785Y-93604858D01*
X93243370Y-93591969D01*
X93208439Y-93583236D01*
X93144486Y-93577863D01*
X93044006Y-93575054D01*
X92899492Y-93574014D01*
X92796042Y-93573907D01*
X92323806Y-93573907D01*
X92078032Y-94710076D01*
X92025012Y-94954190D01*
X91975223Y-95181537D01*
X91929969Y-95386294D01*
X91890558Y-95562635D01*
X91858295Y-95704736D01*
X91834487Y-95806773D01*
X91820438Y-95862920D01*
X91817539Y-95871872D01*
X91808187Y-95851343D01*
X91787633Y-95782037D01*
X91757294Y-95669493D01*
X91718587Y-95519251D01*
X91672929Y-95336849D01*
X91621738Y-95127827D01*
X91566432Y-94897723D01*
X91542863Y-94798436D01*
X91485796Y-94557166D01*
X91432325Y-94331094D01*
X91383904Y-94126377D01*
X91341989Y-93949169D01*
X91308037Y-93805624D01*
X91283503Y-93701898D01*
X91269842Y-93644145D01*
X91267909Y-93635969D01*
X91260999Y-93612716D01*
X91247571Y-93596128D01*
X91219484Y-93585260D01*
X91168597Y-93579165D01*
X91086768Y-93576896D01*
X90965858Y-93577507D01*
X90797725Y-93580052D01*
X90788309Y-93580207D01*
X90323708Y-93587848D01*
X90041121Y-94717047D01*
X89980216Y-94960094D01*
X89923193Y-95187028D01*
X89871537Y-95391985D01*
X89826733Y-95569101D01*
X89790266Y-95712511D01*
X89763622Y-95816350D01*
X89748284Y-95874755D01*
X89745380Y-95884913D01*
X89737230Y-95866947D01*
X89719351Y-95799717D01*
X89692952Y-95688637D01*
X89659240Y-95539122D01*
X89619425Y-95356586D01*
X89574715Y-95146445D01*
X89526319Y-94914113D01*
X89499540Y-94783596D01*
X89449348Y-94538360D01*
X89402257Y-94309567D01*
X89359501Y-94103112D01*
X89322314Y-93924892D01*
X89291928Y-93780805D01*
X89269576Y-93676746D01*
X89256491Y-93618613D01*
X89253867Y-93608759D01*
X89233434Y-93595199D01*
X89179960Y-93585331D01*
X89087812Y-93578758D01*
X88951357Y-93575082D01*
X88764963Y-93573908D01*
X88759225Y-93573907D01*
X88277570Y-93573907D01*
X85829372Y-93573907D01*
X85399205Y-93567913D01*
X85399205Y-97198495D01*
X79934441Y-97198495D01*
X79934441Y-95860186D01*
X80359633Y-95859325D01*
X80528696Y-95857166D01*
X80697315Y-95851841D01*
X80848657Y-95844086D01*
X80965891Y-95834639D01*
X80990817Y-95831725D01*
X81239967Y-95774974D01*
X81454568Y-95675082D01*
X81632494Y-95534110D01*
X81710354Y-95433380D01*
X82055293Y-95433380D01*
X82063640Y-95622052D01*
X82082894Y-95789137D01*
X82096395Y-95857727D01*
X82188280Y-96129382D01*
X82327912Y-96380551D01*
X82509133Y-96605028D01*
X82725786Y-96796607D01*
X82971713Y-96949082D01*
X83240759Y-97056247D01*
X83302196Y-97073065D01*
X83411090Y-97092446D01*
X83554456Y-97103391D01*
X83740433Y-97106359D01*
X83865726Y-97104716D01*
X84033924Y-97100092D01*
X84159834Y-97093099D01*
X84256930Y-97081935D01*
X84338684Y-97064796D01*
X84418568Y-97039880D01*
X84457971Y-97025472D01*
X84763746Y-96881131D01*
X85039468Y-96689822D01*
X85113288Y-96626030D01*
X85268187Y-96485728D01*
X85044908Y-96250451D01*
X84821629Y-96015173D01*
X84675885Y-96146210D01*
X84478712Y-96292534D01*
X84255276Y-96405889D01*
X84025579Y-96476268D01*
X84009994Y-96479287D01*
X83790592Y-96495292D01*
X83568819Y-96466530D01*
X83354964Y-96397664D01*
X83159314Y-96293358D01*
X82992159Y-96158278D01*
X82863787Y-95997087D01*
X82835701Y-95946945D01*
X82743191Y-95709943D01*
X82702876Y-95469420D01*
X82713948Y-95232035D01*
X82775593Y-95004448D01*
X82887001Y-94793317D01*
X82992370Y-94660813D01*
X83171354Y-94498176D01*
X83362786Y-94386992D01*
X83575433Y-94323070D01*
X83738498Y-94304363D01*
X83964537Y-94308731D01*
X84171053Y-94349786D01*
X84369675Y-94431719D01*
X84572035Y-94558721D01*
X84683763Y-94644911D01*
X84830094Y-94764098D01*
X85290398Y-94327268D01*
X85157721Y-94198321D01*
X84910156Y-93996100D01*
X84631455Y-93839553D01*
X84324220Y-93729955D01*
X84108400Y-93684169D01*
X83800943Y-93660716D01*
X83501362Y-93686895D01*
X83215126Y-93759322D01*
X82947705Y-93874616D01*
X82704570Y-94029396D01*
X82491189Y-94220278D01*
X82313033Y-94443883D01*
X82175572Y-94696826D01*
X82095814Y-94928504D01*
X82071368Y-95067540D01*
X82057865Y-95242188D01*
X82055293Y-95433380D01*
X81710354Y-95433380D01*
X81771619Y-95354119D01*
X81869817Y-95137171D01*
X81918448Y-94932238D01*
X81933490Y-94686011D01*
X81903474Y-94450163D01*
X81831796Y-94232111D01*
X81721854Y-94039271D01*
X81577042Y-93879062D01*
X81400758Y-93758899D01*
X81375502Y-93746510D01*
X81301661Y-93716220D01*
X81217609Y-93691492D01*
X81117253Y-93671806D01*
X80994498Y-93656644D01*
X80843249Y-93645490D01*
X80657414Y-93637824D01*
X80430897Y-93633128D01*
X80157603Y-93630885D01*
X80011115Y-93630531D01*
X79181642Y-93629670D01*
X79181642Y-97198495D01*
X78764206Y-97198495D01*
X78763899Y-96985829D01*
X78763558Y-96597560D01*
X78763422Y-96192857D01*
X78763421Y-96139000D01*
X78763421Y-93629670D01*
X78763421Y-93567913D01*
X78763421Y-93099923D01*
X101068580Y-93099923D01*
X101068580Y-99178078D01*
G37*
%TO.C,RL5*%
D11*
X136652000Y-35836000D02*
X162092000Y-35836000D01*
X162092000Y-40386000D01*
X136652000Y-40386000D01*
X136652000Y-35836000D01*
%TO.C,J7*%
X119320000Y-97970000D02*
X119320000Y-100630000D01*
X119380000Y-97970000D02*
X119320000Y-97970000D01*
X119380000Y-97970000D02*
X119380000Y-100630000D01*
X119380000Y-100630000D02*
X119320000Y-100630000D01*
X120650000Y-97970000D02*
X121980000Y-97970000D01*
X121980000Y-97970000D02*
X121980000Y-99300000D01*
%TO.C,RL1*%
X145118000Y-41223000D02*
X140568000Y-41223000D01*
X140568000Y-66663000D01*
X145118000Y-66663000D01*
X145118000Y-41223000D01*
%TO.C,PSU-EU_100-240V_AC1*%
X73562500Y-85900000D02*
X73562500Y-106100000D01*
X73562500Y-106100000D02*
X107762500Y-106100000D01*
X107762500Y-85900000D02*
X73562500Y-85900000D01*
X107762500Y-106100000D02*
X107762500Y-85900000D01*
X108152500Y-99500000D02*
X108152500Y-97490000D01*
%TO.C,J5*%
X119470000Y-93670000D02*
X119470000Y-96330000D01*
X119530000Y-93670000D02*
X119470000Y-93670000D01*
X119530000Y-93670000D02*
X119530000Y-96330000D01*
X119530000Y-96330000D02*
X119470000Y-96330000D01*
X120800000Y-93670000D02*
X122130000Y-93670000D01*
X122130000Y-93670000D02*
X122130000Y-95000000D01*
%TO.C,J4*%
X119470000Y-89770000D02*
X119470000Y-92430000D01*
X119530000Y-89770000D02*
X119470000Y-89770000D01*
X119530000Y-89770000D02*
X119530000Y-92430000D01*
X119530000Y-92430000D02*
X119470000Y-92430000D01*
X120800000Y-89770000D02*
X122130000Y-89770000D01*
X122130000Y-89770000D02*
X122130000Y-91100000D01*
%TO.C,SW1*%
D13*
X156190000Y-74312000D02*
X145190000Y-74312000D01*
X145190000Y-66912000D01*
X156190000Y-66912000D01*
X156190000Y-74312000D01*
D11*
%TO.C,J0*%
X73141000Y-71191000D02*
X73141000Y-47191000D01*
X79891000Y-43431000D02*
X79891000Y-44131000D01*
X79891000Y-44131000D02*
X76201000Y-44131000D01*
X80241000Y-68091000D02*
X81571000Y-68091000D01*
X80241000Y-69421000D02*
X80241000Y-68091000D01*
X80241000Y-70691000D02*
X82841000Y-70691000D01*
X80241000Y-73291000D02*
X80241000Y-70691000D01*
X80241000Y-73291000D02*
X131161000Y-73291000D01*
X82841000Y-68091000D02*
X131161000Y-68091000D01*
X82841000Y-70691000D02*
X82841000Y-68091000D01*
X91311000Y-43431000D02*
X79891000Y-43431000D01*
X91311000Y-44131000D02*
X91311000Y-43431000D01*
X110541000Y-42331000D02*
X110541000Y-44131000D01*
X110541000Y-44131000D02*
X91311000Y-44131000D01*
X118661000Y-42331000D02*
X110541000Y-42331000D01*
X118661000Y-44131000D02*
X118661000Y-42331000D01*
X123141000Y-42331000D02*
X123141000Y-44131000D01*
X123141000Y-44131000D02*
X118661000Y-44131000D01*
X131161000Y-73291000D02*
X131161000Y-68091000D01*
X131261000Y-42331000D02*
X123141000Y-42331000D01*
X131261000Y-44131000D02*
X131261000Y-42331000D01*
X135201000Y-44131000D02*
X131261000Y-44131000D01*
X135201000Y-74251000D02*
X76201000Y-74251000D01*
X138261000Y-50631000D02*
X138261000Y-47191000D01*
X138261000Y-67751000D02*
X138261000Y-71191000D01*
X138261000Y-67751000D02*
X139461000Y-67751000D01*
X139461000Y-50631000D02*
X138261000Y-50631000D01*
X139461000Y-67751000D02*
X139461000Y-50631000D01*
X73141000Y-47191000D02*
G75*
G02*
X76201000Y-44131000I3060000J0D01*
G01*
X76201000Y-74251000D02*
G75*
G02*
X73141000Y-71191000I-1J3059999D01*
G01*
X135201000Y-44131000D02*
G75*
G02*
X138261000Y-47191000I0J-3060000D01*
G01*
X138261000Y-71191000D02*
G75*
G02*
X135201000Y-74251000I-3059999J-1D01*
G01*
%TO.C,J3*%
X80219000Y-60143000D02*
X113359000Y-60143000D01*
X80219000Y-62743000D02*
X80219000Y-60143000D01*
X80219000Y-65343000D02*
X80219000Y-64013000D01*
X81549000Y-65343000D02*
X80219000Y-65343000D01*
X82819000Y-62743000D02*
X80219000Y-62743000D01*
X82819000Y-65343000D02*
X82819000Y-62743000D01*
X82819000Y-65343000D02*
X113359000Y-65343000D01*
X113359000Y-65343000D02*
X113359000Y-60143000D01*
%TO.C,TerminalBlock1*%
X122000000Y-84160000D02*
X122000000Y-84800000D01*
X122000000Y-84800000D02*
X122400000Y-84800000D01*
X122240000Y-75440000D02*
X122240000Y-84560000D01*
X122240000Y-75440000D02*
X157360000Y-75440000D01*
X122240000Y-83000000D02*
X157360000Y-83000000D01*
X122240000Y-84100000D02*
X157360000Y-84100000D01*
X122240000Y-84560000D02*
X157360000Y-84560000D01*
X123252000Y-80781000D02*
X123146000Y-80888000D01*
X123518000Y-81047000D02*
X123412000Y-81154000D01*
X126188000Y-77846000D02*
X126081000Y-77953000D01*
X126454000Y-78112000D02*
X126347000Y-78219000D01*
X128542000Y-80492000D02*
X128147000Y-80888000D01*
X128793000Y-80774000D02*
X128413000Y-81154000D01*
X131188000Y-77846000D02*
X130808000Y-78226000D01*
X131454000Y-78112000D02*
X131059000Y-78508000D01*
X133542000Y-80492000D02*
X133147000Y-80888000D01*
X133793000Y-80774000D02*
X133413000Y-81154000D01*
X136188000Y-77846000D02*
X135808000Y-78226000D01*
X136454000Y-78112000D02*
X136059000Y-78508000D01*
X138542000Y-80492000D02*
X138147000Y-80888000D01*
X138793000Y-80774000D02*
X138413000Y-81154000D01*
X141188000Y-77846000D02*
X140808000Y-78226000D01*
X141454000Y-78112000D02*
X141059000Y-78508000D01*
X143542000Y-80492000D02*
X143147000Y-80888000D01*
X143793000Y-80774000D02*
X143413000Y-81154000D01*
X146188000Y-77846000D02*
X145808000Y-78226000D01*
X146454000Y-78112000D02*
X146059000Y-78508000D01*
X148542000Y-80492000D02*
X148147000Y-80888000D01*
X148793000Y-80774000D02*
X148413000Y-81154000D01*
X151188000Y-77846000D02*
X150808000Y-78226000D01*
X151454000Y-78112000D02*
X151059000Y-78508000D01*
X153542000Y-80492000D02*
X153147000Y-80888000D01*
X153793000Y-80774000D02*
X153413000Y-81154000D01*
X156188000Y-77846000D02*
X155808000Y-78226000D01*
X156454000Y-78112000D02*
X156059000Y-78508000D01*
X157360000Y-75440000D02*
X157360000Y-84560000D01*
X126980000Y-79500000D02*
G75*
G02*
X122620000Y-79500000I-2180000J0D01*
G01*
X122620000Y-79500000D02*
G75*
G02*
X126980000Y-79500000I2180000J0D01*
G01*
X131980000Y-79500000D02*
G75*
G02*
X127620000Y-79500000I-2180000J0D01*
G01*
X127620000Y-79500000D02*
G75*
G02*
X131980000Y-79500000I2180000J0D01*
G01*
X136980000Y-79500000D02*
G75*
G02*
X132620000Y-79500000I-2180000J0D01*
G01*
X132620000Y-79500000D02*
G75*
G02*
X136980000Y-79500000I2180000J0D01*
G01*
X141980000Y-79500000D02*
G75*
G02*
X137620000Y-79500000I-2180000J0D01*
G01*
X137620000Y-79500000D02*
G75*
G02*
X141980000Y-79500000I2180000J0D01*
G01*
X146980000Y-79500000D02*
G75*
G02*
X142620000Y-79500000I-2180000J0D01*
G01*
X142620000Y-79500000D02*
G75*
G02*
X146980000Y-79500000I2180000J0D01*
G01*
X151980000Y-79500000D02*
G75*
G02*
X147620000Y-79500000I-2180000J0D01*
G01*
X147620000Y-79500000D02*
G75*
G02*
X151980000Y-79500000I2180000J0D01*
G01*
X156980000Y-79500000D02*
G75*
G02*
X152620000Y-79500000I-2180000J0D01*
G01*
X152620000Y-79500000D02*
G75*
G02*
X156980000Y-79500000I2180000J0D01*
G01*
%TD*%
M02*
