; NON-PLATED HOLES START AT T1
; THROUGH (PLATED) HOLES START AT T100
M48
INCH
T1C0.118110
T2C0.078740
T3C0.098425
T100C0.051181
T101C0.015748
T102C0.046111
T103C0.040000
T104C0.038000
T105C0.035433
%
T1
X014734Y020677
X016466Y018850
X014734Y018850
X016466Y020677
T2
X013849Y019752
X015602Y019752
X017346Y019752
X015602Y021549
X015602Y017960
T3
X005758Y024952
X028576Y024924
X005756Y015884
X028568Y015900
T100
X032349Y006203
X030569Y006195
X025845Y006195
X025845Y010978
X028206Y011785
X037073Y006203
X030569Y010978
X034711Y011793
X037073Y010986
X032349Y010986
T101
X028318Y014301
X004990Y018990
X023495Y018487
X030518Y008731
X004953Y025698
X005716Y023180
X011788Y023444
X006475Y025569
X031375Y013034
X036021Y017717
X006637Y021626
X037094Y008680
X034156Y019434
X033725Y014321
X007658Y019306
X037327Y016187
T102
X004532Y003854
X005946Y002439
X003825Y004561
X005239Y003146
T103
X010788Y007872
X012807Y025441
X018807Y024441
X016807Y024441
X022807Y025441
X015807Y025441
X013807Y025441
X008807Y024441
X007807Y024441
X024807Y024441
X011807Y024441
X014807Y025441
X011807Y025441
X021807Y024441
X010788Y009872
X019807Y024441
X008807Y025441
X017807Y025441
X023807Y025441
X007807Y025441
X016807Y025441
X012807Y024441
X018807Y025441
X024807Y025441
X020807Y024441
X013807Y024441
X010807Y024441
X020807Y025441
X010788Y011872
X009807Y025441
X014807Y024441
X015807Y024441
X022807Y024441
X010807Y025441
X023807Y024441
X017807Y024441
X009807Y024441
X021807Y025441
X019807Y025441
X010788Y005872
T104
X003335Y002671
X001921Y004085
X002628Y003378
X004042Y001964
T105
X032905Y025692
X007664Y003572
X034876Y025697
X030795Y014081
X036855Y014086
T00
M30
