G04 MADE WITH FRITZING*
G04 WWW.FRITZING.ORG*
G04 DOUBLE SIDED*
G04 HOLES PLATED*
G04 CONTOUR ON CENTER OF CONTOUR VECTOR*
%ASAXBY*%
%FSLAX23Y23*%
%MOIN*%
%OFA0B0*%
%SFA1.0B1.0*%
%ADD10C,0.008*%
%LNCONTOUR*%
G90*
G70*
G54D10*
X457Y2671D02*
X457Y2670D01*
X457Y886D01*
X456Y885D01*
X455Y885D01*
X454Y885D01*
X453Y885D01*
X452Y885D01*
X451Y885D01*
X450Y885D01*
X449Y885D01*
X448Y885D01*
X447Y885D01*
X446Y885D01*
X445Y884D01*
X444Y884D01*
X443Y884D01*
X442Y884D01*
X441Y884D01*
X440Y884D01*
X439Y884D01*
X438Y884D01*
X437Y884D01*
X436Y884D01*
X435Y884D01*
X434Y884D01*
X433Y884D01*
X432Y884D01*
X431Y884D01*
X430Y884D01*
X429Y884D01*
X428Y883D01*
X427Y883D01*
X426Y883D01*
X425Y883D01*
X424Y883D01*
X423Y883D01*
X422Y883D01*
X421Y883D01*
X420Y883D01*
X419Y883D01*
X418Y883D01*
X417Y882D01*
X416Y882D01*
X415Y882D01*
X414Y882D01*
X413Y882D01*
X412Y882D01*
X411Y882D01*
X410Y882D01*
X409Y882D01*
X408Y881D01*
X407Y881D01*
X406Y881D01*
X405Y881D01*
X404Y881D01*
X403Y881D01*
X402Y881D01*
X401Y880D01*
X400Y880D01*
X399Y880D01*
X398Y880D01*
X397Y880D01*
X396Y880D01*
X395Y880D01*
X394Y879D01*
X393Y879D01*
X392Y879D01*
X391Y879D01*
X390Y879D01*
X389Y879D01*
X388Y878D01*
X387Y878D01*
X386Y878D01*
X385Y878D01*
X384Y878D01*
X383Y877D01*
X382Y877D01*
X381Y877D01*
X380Y877D01*
X379Y877D01*
X378Y876D01*
X377Y876D01*
X376Y876D01*
X375Y876D01*
X374Y876D01*
X373Y875D01*
X372Y875D01*
X371Y875D01*
X370Y875D01*
X369Y875D01*
X368Y874D01*
X367Y874D01*
X366Y874D01*
X365Y874D01*
X364Y873D01*
X363Y873D01*
X362Y873D01*
X361Y873D01*
X360Y872D01*
X359Y872D01*
X358Y872D01*
X357Y872D01*
X356Y871D01*
X355Y871D01*
X354Y871D01*
X353Y871D01*
X352Y870D01*
X351Y870D01*
X350Y870D01*
X349Y869D01*
X348Y869D01*
X347Y869D01*
X346Y869D01*
X345Y868D01*
X344Y868D01*
X343Y868D01*
X342Y867D01*
X341Y867D01*
X340Y867D01*
X339Y867D01*
X338Y866D01*
X337Y866D01*
X336Y866D01*
X335Y865D01*
X334Y865D01*
X333Y865D01*
X332Y864D01*
X331Y864D01*
X330Y864D01*
X329Y863D01*
X328Y863D01*
X327Y863D01*
X326Y862D01*
X325Y862D01*
X324Y862D01*
X323Y861D01*
X322Y861D01*
X321Y861D01*
X320Y860D01*
X319Y860D01*
X318Y859D01*
X317Y859D01*
X316Y859D01*
X315Y858D01*
X314Y858D01*
X313Y858D01*
X312Y857D01*
X311Y857D01*
X310Y856D01*
X309Y856D01*
X308Y856D01*
X307Y855D01*
X306Y855D01*
X305Y854D01*
X304Y854D01*
X303Y853D01*
X302Y853D01*
X301Y853D01*
X300Y852D01*
X299Y852D01*
X298Y851D01*
X297Y851D01*
X296Y851D01*
X295Y850D01*
X294Y850D01*
X293Y849D01*
X292Y849D01*
X291Y848D01*
X290Y848D01*
X289Y847D01*
X288Y847D01*
X287Y846D01*
X286Y846D01*
X285Y846D01*
X284Y845D01*
X283Y845D01*
X282Y844D01*
X281Y844D01*
X280Y843D01*
X279Y843D01*
X278Y842D01*
X277Y842D01*
X276Y841D01*
X275Y841D01*
X274Y840D01*
X273Y840D01*
X272Y839D01*
X271Y839D01*
X270Y838D01*
X269Y838D01*
X268Y837D01*
X267Y836D01*
X266Y836D01*
X265Y835D01*
X264Y835D01*
X263Y834D01*
X262Y834D01*
X261Y833D01*
X260Y833D01*
X259Y832D01*
X258Y832D01*
X257Y831D01*
X256Y830D01*
X255Y830D01*
X254Y829D01*
X253Y829D01*
X252Y828D01*
X251Y827D01*
X250Y827D01*
X249Y826D01*
X248Y826D01*
X247Y825D01*
X246Y825D01*
X245Y824D01*
X244Y823D01*
X243Y823D01*
X242Y822D01*
X241Y821D01*
X240Y821D01*
X239Y820D01*
X238Y819D01*
X237Y819D01*
X236Y818D01*
X235Y818D01*
X234Y817D01*
X233Y816D01*
X232Y816D01*
X231Y815D01*
X230Y814D01*
X229Y814D01*
X228Y813D01*
X227Y812D01*
X226Y812D01*
X225Y811D01*
X224Y810D01*
X223Y809D01*
X222Y809D01*
X221Y808D01*
X220Y807D01*
X219Y807D01*
X218Y806D01*
X217Y805D01*
X216Y804D01*
X215Y804D01*
X214Y803D01*
X213Y802D01*
X212Y801D01*
X211Y801D01*
X210Y800D01*
X209Y799D01*
X208Y798D01*
X207Y798D01*
X206Y797D01*
X205Y796D01*
X204Y795D01*
X203Y794D01*
X202Y794D01*
X201Y793D01*
X200Y792D01*
X199Y791D01*
X198Y790D01*
X197Y790D01*
X196Y789D01*
X195Y788D01*
X194Y787D01*
X193Y786D01*
X192Y785D01*
X191Y784D01*
X190Y783D01*
X189Y783D01*
X188Y782D01*
X187Y781D01*
X186Y780D01*
X185Y779D01*
X184Y778D01*
X183Y777D01*
X182Y776D01*
X181Y776D01*
X180Y775D01*
X179Y774D01*
X178Y773D01*
X177Y772D01*
X176Y771D01*
X175Y770D01*
X174Y769D01*
X173Y768D01*
X172Y767D01*
X171Y766D01*
X170Y765D01*
X169Y764D01*
X168Y763D01*
X167Y762D01*
X166Y761D01*
X165Y760D01*
X164Y759D01*
X163Y758D01*
X162Y757D01*
X161Y756D01*
X160Y755D01*
X159Y754D01*
X159Y753D01*
X158Y752D01*
X157Y751D01*
X156Y750D01*
X155Y749D01*
X154Y748D01*
X153Y747D01*
X152Y746D01*
X151Y745D01*
X150Y744D01*
X150Y743D01*
X149Y742D01*
X148Y741D01*
X147Y740D01*
X146Y739D01*
X145Y738D01*
X144Y737D01*
X144Y736D01*
X143Y735D01*
X142Y734D01*
X141Y733D01*
X140Y732D01*
X140Y731D01*
X139Y730D01*
X138Y729D01*
X137Y728D01*
X136Y727D01*
X136Y726D01*
X135Y725D01*
X134Y724D01*
X133Y723D01*
X132Y722D01*
X132Y721D01*
X131Y720D01*
X130Y719D01*
X129Y718D01*
X129Y717D01*
X128Y716D01*
X127Y715D01*
X127Y714D01*
X126Y713D01*
X125Y712D01*
X124Y711D01*
X124Y710D01*
X123Y709D01*
X122Y708D01*
X122Y707D01*
X121Y706D01*
X120Y705D01*
X120Y704D01*
X119Y703D01*
X118Y702D01*
X117Y701D01*
X117Y700D01*
X116Y699D01*
X116Y698D01*
X115Y697D01*
X114Y696D01*
X114Y695D01*
X113Y694D01*
X112Y693D01*
X112Y692D01*
X111Y691D01*
X110Y690D01*
X110Y689D01*
X109Y688D01*
X109Y687D01*
X108Y686D01*
X107Y685D01*
X107Y684D01*
X106Y683D01*
X106Y682D01*
X105Y681D01*
X104Y680D01*
X104Y679D01*
X103Y678D01*
X103Y677D01*
X102Y676D01*
X102Y675D01*
X101Y674D01*
X100Y673D01*
X100Y672D01*
X99Y671D01*
X99Y670D01*
X98Y669D01*
X98Y668D01*
X97Y667D01*
X97Y666D01*
X96Y665D01*
X96Y664D01*
X95Y663D01*
X95Y662D01*
X94Y661D01*
X94Y660D01*
X93Y659D01*
X93Y658D01*
X92Y657D01*
X92Y656D01*
X91Y655D01*
X91Y654D01*
X90Y653D01*
X90Y652D01*
X89Y651D01*
X89Y650D01*
X88Y649D01*
X88Y648D01*
X87Y647D01*
X87Y646D01*
X86Y645D01*
X86Y644D01*
X85Y643D01*
X85Y642D01*
X84Y641D01*
X84Y639D01*
X83Y638D01*
X83Y637D01*
X82Y636D01*
X82Y635D01*
X81Y634D01*
X81Y633D01*
X80Y632D01*
X80Y630D01*
X79Y629D01*
X79Y628D01*
X78Y627D01*
X78Y625D01*
X77Y624D01*
X77Y623D01*
X76Y622D01*
X76Y620D01*
X75Y619D01*
X75Y617D01*
X74Y616D01*
X74Y615D01*
X73Y614D01*
X73Y612D01*
X72Y611D01*
X72Y609D01*
X71Y608D01*
X71Y606D01*
X70Y605D01*
X70Y603D01*
X69Y602D01*
X69Y600D01*
X68Y599D01*
X68Y597D01*
X67Y596D01*
X67Y594D01*
X66Y593D01*
X66Y590D01*
X65Y589D01*
X65Y587D01*
X64Y586D01*
X64Y583D01*
X63Y582D01*
X63Y580D01*
X62Y579D01*
X62Y576D01*
X61Y575D01*
X61Y572D01*
X60Y571D01*
X60Y568D01*
X59Y567D01*
X59Y563D01*
X58Y562D01*
X58Y559D01*
X57Y558D01*
X57Y554D01*
X56Y553D01*
X56Y549D01*
X55Y548D01*
X55Y543D01*
X54Y542D01*
X54Y537D01*
X53Y536D01*
X53Y530D01*
X52Y529D01*
X52Y522D01*
X51Y521D01*
X51Y513D01*
X50Y512D01*
X50Y500D01*
X49Y499D01*
X49Y446D01*
X50Y445D01*
X50Y434D01*
X51Y433D01*
X51Y424D01*
X52Y423D01*
X52Y417D01*
X53Y416D01*
X53Y410D01*
X54Y409D01*
X54Y404D01*
X55Y403D01*
X55Y398D01*
X56Y397D01*
X56Y393D01*
X57Y392D01*
X57Y388D01*
X58Y387D01*
X58Y383D01*
X59Y382D01*
X59Y379D01*
X60Y378D01*
X60Y375D01*
X61Y374D01*
X61Y371D01*
X62Y370D01*
X62Y367D01*
X63Y366D01*
X63Y363D01*
X64Y362D01*
X64Y360D01*
X65Y359D01*
X65Y356D01*
X66Y355D01*
X66Y353D01*
X67Y352D01*
X67Y350D01*
X68Y349D01*
X68Y346D01*
X69Y345D01*
X69Y343D01*
X70Y342D01*
X70Y340D01*
X71Y339D01*
X71Y338D01*
X72Y337D01*
X72Y335D01*
X73Y334D01*
X73Y332D01*
X74Y331D01*
X74Y329D01*
X75Y328D01*
X75Y327D01*
X76Y326D01*
X76Y324D01*
X77Y323D01*
X77Y321D01*
X78Y320D01*
X78Y319D01*
X79Y318D01*
X79Y316D01*
X80Y315D01*
X80Y314D01*
X81Y313D01*
X81Y312D01*
X82Y311D01*
X82Y309D01*
X83Y308D01*
X83Y307D01*
X84Y306D01*
X84Y305D01*
X85Y304D01*
X85Y303D01*
X86Y302D01*
X86Y301D01*
X87Y300D01*
X87Y298D01*
X88Y297D01*
X88Y296D01*
X89Y295D01*
X89Y294D01*
X90Y293D01*
X90Y292D01*
X91Y291D01*
X91Y290D01*
X92Y289D01*
X92Y288D01*
X93Y287D01*
X93Y286D01*
X94Y285D01*
X94Y284D01*
X95Y283D01*
X95Y282D01*
X96Y281D01*
X96Y280D01*
X97Y279D01*
X97Y278D01*
X98Y277D01*
X99Y276D01*
X99Y275D01*
X100Y274D01*
X100Y273D01*
X101Y272D01*
X101Y271D01*
X102Y270D01*
X103Y269D01*
X103Y268D01*
X104Y267D01*
X104Y266D01*
X105Y265D01*
X105Y264D01*
X106Y263D01*
X107Y262D01*
X107Y261D01*
X108Y260D01*
X108Y259D01*
X109Y258D01*
X110Y257D01*
X110Y256D01*
X111Y255D01*
X111Y254D01*
X112Y253D01*
X113Y252D01*
X113Y251D01*
X114Y250D01*
X115Y249D01*
X115Y248D01*
X116Y247D01*
X117Y246D01*
X117Y245D01*
X118Y244D01*
X119Y243D01*
X119Y242D01*
X120Y241D01*
X121Y240D01*
X121Y239D01*
X122Y238D01*
X123Y237D01*
X123Y236D01*
X124Y235D01*
X125Y234D01*
X126Y233D01*
X126Y232D01*
X127Y231D01*
X128Y230D01*
X128Y229D01*
X129Y228D01*
X130Y227D01*
X131Y226D01*
X131Y225D01*
X132Y224D01*
X133Y223D01*
X134Y222D01*
X134Y221D01*
X135Y220D01*
X136Y219D01*
X137Y218D01*
X138Y217D01*
X138Y216D01*
X139Y215D01*
X140Y214D01*
X141Y213D01*
X142Y212D01*
X142Y211D01*
X143Y210D01*
X144Y209D01*
X145Y208D01*
X146Y207D01*
X147Y206D01*
X147Y205D01*
X148Y204D01*
X149Y203D01*
X150Y202D01*
X151Y201D01*
X152Y200D01*
X153Y199D01*
X154Y198D01*
X154Y197D01*
X155Y196D01*
X156Y195D01*
X157Y194D01*
X158Y193D01*
X159Y192D01*
X160Y191D01*
X161Y190D01*
X162Y189D01*
X163Y188D01*
X164Y187D01*
X165Y186D01*
X166Y185D01*
X167Y184D01*
X168Y183D01*
X169Y182D01*
X170Y181D01*
X171Y180D01*
X172Y179D01*
X173Y178D01*
X174Y177D01*
X175Y176D01*
X176Y175D01*
X177Y174D01*
X178Y173D01*
X179Y172D01*
X180Y171D01*
X181Y170D01*
X182Y169D01*
X183Y168D01*
X184Y167D01*
X185Y166D01*
X186Y166D01*
X187Y165D01*
X188Y164D01*
X189Y163D01*
X190Y162D01*
X191Y161D01*
X192Y160D01*
X193Y160D01*
X194Y159D01*
X195Y158D01*
X196Y157D01*
X197Y156D01*
X198Y155D01*
X199Y154D01*
X200Y154D01*
X201Y153D01*
X202Y152D01*
X203Y151D01*
X204Y150D01*
X205Y150D01*
X206Y149D01*
X207Y148D01*
X208Y147D01*
X209Y147D01*
X210Y146D01*
X211Y145D01*
X212Y144D01*
X213Y143D01*
X214Y143D01*
X215Y142D01*
X216Y141D01*
X217Y140D01*
X218Y140D01*
X219Y139D01*
X220Y138D01*
X221Y138D01*
X222Y137D01*
X223Y136D01*
X224Y135D01*
X225Y135D01*
X226Y134D01*
X227Y133D01*
X228Y133D01*
X229Y132D01*
X230Y131D01*
X231Y131D01*
X232Y130D01*
X233Y129D01*
X234Y129D01*
X235Y128D01*
X236Y127D01*
X237Y127D01*
X238Y126D01*
X239Y125D01*
X240Y125D01*
X241Y124D01*
X242Y124D01*
X243Y123D01*
X244Y122D01*
X245Y122D01*
X246Y121D01*
X247Y120D01*
X248Y120D01*
X249Y119D01*
X250Y119D01*
X251Y118D01*
X252Y117D01*
X253Y117D01*
X254Y116D01*
X255Y116D01*
X256Y115D01*
X257Y115D01*
X258Y114D01*
X259Y113D01*
X260Y113D01*
X261Y112D01*
X262Y112D01*
X263Y111D01*
X264Y111D01*
X265Y110D01*
X266Y110D01*
X267Y109D01*
X268Y109D01*
X269Y108D01*
X270Y108D01*
X271Y107D01*
X272Y106D01*
X273Y106D01*
X274Y105D01*
X275Y105D01*
X276Y104D01*
X277Y104D01*
X278Y103D01*
X279Y103D01*
X280Y102D01*
X281Y102D01*
X282Y101D01*
X283Y101D01*
X284Y100D01*
X285Y100D01*
X286Y100D01*
X287Y99D01*
X288Y99D01*
X289Y98D01*
X290Y98D01*
X291Y97D01*
X292Y97D01*
X293Y96D01*
X294Y96D01*
X295Y96D01*
X296Y95D01*
X297Y95D01*
X298Y94D01*
X299Y94D01*
X300Y93D01*
X301Y93D01*
X302Y92D01*
X303Y92D01*
X304Y92D01*
X305Y91D01*
X306Y91D01*
X307Y90D01*
X308Y90D01*
X309Y90D01*
X310Y89D01*
X311Y89D01*
X312Y88D01*
X313Y88D01*
X314Y88D01*
X315Y87D01*
X316Y87D01*
X317Y87D01*
X318Y86D01*
X319Y86D01*
X320Y85D01*
X321Y85D01*
X322Y85D01*
X323Y84D01*
X324Y84D01*
X325Y84D01*
X326Y83D01*
X327Y83D01*
X328Y83D01*
X329Y82D01*
X330Y82D01*
X331Y82D01*
X332Y81D01*
X333Y81D01*
X334Y81D01*
X335Y80D01*
X336Y80D01*
X337Y80D01*
X338Y79D01*
X339Y79D01*
X340Y79D01*
X341Y78D01*
X342Y78D01*
X343Y78D01*
X344Y78D01*
X345Y77D01*
X346Y77D01*
X347Y77D01*
X348Y76D01*
X349Y76D01*
X350Y76D01*
X351Y76D01*
X352Y75D01*
X353Y75D01*
X354Y75D01*
X355Y74D01*
X356Y74D01*
X357Y74D01*
X358Y74D01*
X359Y73D01*
X360Y73D01*
X361Y73D01*
X362Y73D01*
X363Y72D01*
X364Y72D01*
X365Y72D01*
X366Y72D01*
X367Y71D01*
X368Y71D01*
X369Y71D01*
X370Y71D01*
X371Y71D01*
X372Y70D01*
X373Y70D01*
X374Y70D01*
X375Y70D01*
X376Y70D01*
X377Y69D01*
X378Y69D01*
X379Y69D01*
X380Y69D01*
X381Y69D01*
X382Y68D01*
X383Y68D01*
X384Y68D01*
X385Y68D01*
X386Y68D01*
X387Y67D01*
X388Y67D01*
X389Y67D01*
X390Y67D01*
X391Y67D01*
X392Y67D01*
X393Y66D01*
X394Y66D01*
X395Y66D01*
X396Y66D01*
X397Y66D01*
X398Y66D01*
X399Y65D01*
X400Y65D01*
X401Y65D01*
X402Y65D01*
X403Y65D01*
X404Y65D01*
X405Y65D01*
X406Y64D01*
X407Y64D01*
X408Y64D01*
X409Y64D01*
X410Y64D01*
X411Y64D01*
X412Y64D01*
X413Y64D01*
X414Y63D01*
X415Y63D01*
X416Y63D01*
X417Y63D01*
X418Y63D01*
X419Y63D01*
X420Y63D01*
X421Y63D01*
X422Y63D01*
X423Y63D01*
X424Y62D01*
X425Y62D01*
X426Y62D01*
X427Y62D01*
X428Y62D01*
X429Y62D01*
X430Y62D01*
X431Y62D01*
X432Y62D01*
X433Y62D01*
X434Y62D01*
X435Y62D01*
X436Y62D01*
X437Y62D01*
X438Y61D01*
X439Y61D01*
X440Y61D01*
X441Y61D01*
X442Y61D01*
X443Y61D01*
X444Y61D01*
X445Y61D01*
X446Y61D01*
X447Y61D01*
X448Y61D01*
X449Y61D01*
X450Y61D01*
X451Y61D01*
X452Y61D01*
X453Y61D01*
X454Y61D01*
X455Y61D01*
X456Y61D01*
X457Y61D01*
X458Y61D01*
X459Y61D01*
X460Y61D01*
X461Y61D01*
X462Y61D01*
X463Y61D01*
X464Y61D01*
X465Y61D01*
X466Y61D01*
X467Y61D01*
X468Y61D01*
X469Y61D01*
X470Y61D01*
X471Y61D01*
X472Y61D01*
X473Y61D01*
X474Y61D01*
X475Y61D01*
X476Y61D01*
X477Y61D01*
X478Y61D01*
X479Y61D01*
X480Y61D01*
X481Y61D01*
X482Y61D01*
X483Y61D01*
X484Y61D01*
X485Y62D01*
X486Y62D01*
X487Y62D01*
X488Y62D01*
X489Y62D01*
X490Y62D01*
X491Y62D01*
X492Y62D01*
X493Y62D01*
X494Y62D01*
X495Y62D01*
X496Y62D01*
X497Y62D01*
X498Y63D01*
X499Y63D01*
X500Y63D01*
X501Y63D01*
X502Y63D01*
X503Y63D01*
X504Y63D01*
X505Y63D01*
X506Y63D01*
X507Y63D01*
X508Y64D01*
X509Y64D01*
X510Y64D01*
X511Y64D01*
X512Y64D01*
X513Y64D01*
X514Y64D01*
X515Y64D01*
X516Y65D01*
X517Y65D01*
X518Y65D01*
X519Y65D01*
X520Y65D01*
X521Y65D01*
X522Y65D01*
X523Y66D01*
X524Y66D01*
X525Y66D01*
X526Y66D01*
X527Y66D01*
X528Y66D01*
X529Y67D01*
X530Y67D01*
X531Y67D01*
X532Y67D01*
X533Y67D01*
X534Y67D01*
X535Y68D01*
X536Y68D01*
X537Y68D01*
X538Y68D01*
X539Y68D01*
X540Y68D01*
X541Y69D01*
X542Y69D01*
X543Y69D01*
X544Y69D01*
X545Y69D01*
X546Y70D01*
X547Y70D01*
X548Y70D01*
X549Y70D01*
X550Y71D01*
X551Y71D01*
X552Y71D01*
X553Y71D01*
X554Y71D01*
X555Y72D01*
X556Y72D01*
X557Y72D01*
X558Y72D01*
X559Y73D01*
X560Y73D01*
X561Y73D01*
X562Y73D01*
X563Y74D01*
X564Y74D01*
X565Y74D01*
X566Y74D01*
X567Y75D01*
X568Y75D01*
X569Y75D01*
X570Y76D01*
X571Y76D01*
X572Y76D01*
X573Y76D01*
X574Y77D01*
X575Y77D01*
X576Y77D01*
X577Y78D01*
X578Y78D01*
X579Y78D01*
X580Y78D01*
X581Y79D01*
X582Y79D01*
X583Y79D01*
X584Y80D01*
X585Y80D01*
X586Y80D01*
X587Y81D01*
X588Y81D01*
X589Y81D01*
X590Y82D01*
X591Y82D01*
X592Y82D01*
X593Y83D01*
X594Y83D01*
X595Y83D01*
X596Y84D01*
X597Y84D01*
X598Y84D01*
X599Y85D01*
X600Y85D01*
X601Y85D01*
X602Y86D01*
X603Y86D01*
X604Y86D01*
X605Y87D01*
X606Y87D01*
X607Y88D01*
X608Y88D01*
X609Y88D01*
X610Y89D01*
X611Y89D01*
X612Y90D01*
X613Y90D01*
X614Y90D01*
X615Y91D01*
X616Y91D01*
X617Y92D01*
X618Y92D01*
X619Y92D01*
X620Y93D01*
X621Y93D01*
X622Y94D01*
X623Y94D01*
X624Y95D01*
X625Y95D01*
X626Y95D01*
X627Y96D01*
X628Y96D01*
X629Y97D01*
X630Y97D01*
X631Y98D01*
X632Y98D01*
X633Y99D01*
X634Y99D01*
X635Y100D01*
X636Y100D01*
X637Y100D01*
X638Y101D01*
X639Y101D01*
X640Y102D01*
X641Y102D01*
X642Y103D01*
X643Y103D01*
X644Y104D01*
X645Y104D01*
X646Y105D01*
X647Y105D01*
X648Y106D01*
X649Y106D01*
X650Y107D01*
X651Y107D01*
X652Y108D01*
X653Y108D01*
X654Y109D01*
X655Y110D01*
X656Y110D01*
X657Y111D01*
X658Y111D01*
X659Y112D01*
X660Y112D01*
X661Y113D01*
X662Y113D01*
X663Y114D01*
X664Y115D01*
X665Y115D01*
X666Y116D01*
X667Y116D01*
X668Y117D01*
X669Y117D01*
X670Y118D01*
X671Y119D01*
X672Y119D01*
X673Y120D01*
X674Y120D01*
X675Y121D01*
X676Y122D01*
X677Y122D01*
X678Y123D01*
X679Y124D01*
X680Y124D01*
X681Y125D01*
X682Y125D01*
X683Y126D01*
X684Y127D01*
X685Y127D01*
X686Y128D01*
X687Y129D01*
X688Y129D01*
X689Y130D01*
X690Y131D01*
X691Y131D01*
X692Y132D01*
X693Y133D01*
X694Y133D01*
X695Y134D01*
X696Y135D01*
X697Y136D01*
X698Y136D01*
X699Y137D01*
X700Y138D01*
X701Y138D01*
X702Y139D01*
X703Y140D01*
X704Y140D01*
X705Y141D01*
X706Y142D01*
X707Y143D01*
X708Y143D01*
X709Y144D01*
X710Y145D01*
X711Y146D01*
X712Y147D01*
X713Y147D01*
X714Y148D01*
X715Y149D01*
X716Y150D01*
X717Y150D01*
X718Y151D01*
X719Y152D01*
X720Y153D01*
X721Y154D01*
X722Y154D01*
X723Y155D01*
X724Y156D01*
X725Y157D01*
X726Y158D01*
X727Y159D01*
X728Y160D01*
X729Y160D01*
X730Y161D01*
X731Y162D01*
X732Y163D01*
X733Y164D01*
X734Y165D01*
X735Y166D01*
X736Y166D01*
X737Y167D01*
X738Y168D01*
X739Y169D01*
X740Y170D01*
X741Y171D01*
X742Y172D01*
X743Y173D01*
X744Y174D01*
X745Y175D01*
X746Y176D01*
X747Y177D01*
X748Y178D01*
X749Y179D01*
X750Y180D01*
X751Y181D01*
X752Y182D01*
X753Y183D01*
X754Y184D01*
X755Y185D01*
X756Y186D01*
X757Y187D01*
X758Y188D01*
X759Y189D01*
X760Y190D01*
X761Y191D01*
X762Y192D01*
X763Y193D01*
X764Y194D01*
X765Y195D01*
X766Y196D01*
X766Y197D01*
X767Y198D01*
X768Y199D01*
X769Y200D01*
X770Y201D01*
X771Y202D01*
X772Y203D01*
X773Y204D01*
X773Y205D01*
X774Y206D01*
X775Y207D01*
X776Y208D01*
X777Y209D01*
X778Y210D01*
X779Y211D01*
X779Y212D01*
X780Y213D01*
X781Y214D01*
X782Y215D01*
X782Y216D01*
X783Y217D01*
X784Y218D01*
X785Y219D01*
X786Y220D01*
X786Y221D01*
X787Y222D01*
X788Y223D01*
X789Y224D01*
X790Y225D01*
X790Y226D01*
X791Y227D01*
X792Y228D01*
X792Y229D01*
X793Y230D01*
X794Y231D01*
X795Y232D01*
X795Y233D01*
X796Y234D01*
X797Y235D01*
X797Y236D01*
X798Y237D01*
X799Y238D01*
X800Y239D01*
X800Y240D01*
X801Y241D01*
X802Y242D01*
X802Y243D01*
X803Y244D01*
X804Y245D01*
X804Y246D01*
X805Y247D01*
X806Y248D01*
X806Y249D01*
X807Y250D01*
X808Y251D01*
X808Y252D01*
X809Y253D01*
X809Y254D01*
X810Y255D01*
X811Y256D01*
X811Y257D01*
X812Y258D01*
X813Y259D01*
X813Y260D01*
X814Y261D01*
X814Y262D01*
X815Y263D01*
X815Y264D01*
X816Y265D01*
X817Y266D01*
X817Y267D01*
X818Y268D01*
X818Y269D01*
X819Y270D01*
X820Y271D01*
X820Y272D01*
X821Y273D01*
X821Y274D01*
X822Y275D01*
X822Y276D01*
X823Y277D01*
X823Y278D01*
X824Y279D01*
X824Y280D01*
X825Y281D01*
X825Y282D01*
X826Y283D01*
X826Y284D01*
X827Y285D01*
X828Y286D01*
X828Y287D01*
X829Y288D01*
X829Y289D01*
X830Y290D01*
X830Y291D01*
X831Y292D01*
X831Y293D01*
X832Y294D01*
X832Y296D01*
X833Y297D01*
X833Y298D01*
X834Y299D01*
X834Y300D01*
X835Y301D01*
X835Y302D01*
X836Y303D01*
X836Y304D01*
X837Y305D01*
X837Y306D01*
X838Y307D01*
X838Y309D01*
X839Y310D01*
X839Y311D01*
X840Y312D01*
X840Y314D01*
X841Y315D01*
X841Y316D01*
X842Y317D01*
X842Y319D01*
X843Y320D01*
X843Y321D01*
X844Y322D01*
X844Y323D01*
X845Y324D01*
X845Y326D01*
X846Y327D01*
X846Y329D01*
X847Y330D01*
X847Y331D01*
X848Y332D01*
X848Y334D01*
X849Y335D01*
X849Y337D01*
X850Y338D01*
X850Y340D01*
X851Y341D01*
X851Y343D01*
X852Y344D01*
X852Y346D01*
X853Y347D01*
X853Y349D01*
X854Y350D01*
X854Y352D01*
X855Y353D01*
X855Y356D01*
X856Y357D01*
X856Y359D01*
X857Y360D01*
X857Y363D01*
X858Y364D01*
X858Y366D01*
X859Y367D01*
X859Y370D01*
X860Y371D01*
X860Y374D01*
X861Y375D01*
X861Y379D01*
X862Y380D01*
X862Y383D01*
X863Y384D01*
X863Y388D01*
X864Y389D01*
X864Y393D01*
X865Y394D01*
X865Y398D01*
X866Y399D01*
X866Y404D01*
X867Y405D01*
X867Y410D01*
X868Y411D01*
X868Y417D01*
X869Y418D01*
X869Y425D01*
X870Y426D01*
X870Y434D01*
X871Y435D01*
X871Y448D01*
X872Y449D01*
X872Y467D01*
X873Y468D01*
X874Y468D01*
X875Y468D01*
X876Y468D01*
X877Y468D01*
X878Y468D01*
X879Y468D01*
X880Y468D01*
X881Y468D01*
X882Y468D01*
X883Y468D01*
X884Y468D01*
X885Y468D01*
X886Y468D01*
X887Y468D01*
X888Y468D01*
X889Y468D01*
X890Y468D01*
X891Y468D01*
X892Y468D01*
X893Y468D01*
X894Y468D01*
X895Y468D01*
X896Y468D01*
X897Y468D01*
X898Y468D01*
X899Y468D01*
X900Y468D01*
X901Y468D01*
X902Y468D01*
X903Y468D01*
X904Y468D01*
X905Y468D01*
X906Y468D01*
X907Y468D01*
X908Y468D01*
X909Y468D01*
X910Y468D01*
X911Y468D01*
X912Y468D01*
X913Y468D01*
X914Y468D01*
X915Y468D01*
X916Y468D01*
X917Y468D01*
X918Y468D01*
X919Y468D01*
X920Y468D01*
X921Y468D01*
X922Y468D01*
X923Y468D01*
X924Y468D01*
X925Y468D01*
X926Y468D01*
X927Y468D01*
X928Y468D01*
X929Y468D01*
X930Y468D01*
X931Y468D01*
X932Y468D01*
X933Y468D01*
X934Y468D01*
X935Y468D01*
X936Y468D01*
X937Y468D01*
X938Y468D01*
X939Y468D01*
X940Y468D01*
X941Y468D01*
X942Y468D01*
X943Y468D01*
X944Y468D01*
X945Y468D01*
X946Y468D01*
X947Y468D01*
X948Y468D01*
X949Y468D01*
X950Y468D01*
X951Y468D01*
X952Y468D01*
X953Y468D01*
X954Y468D01*
X955Y468D01*
X956Y468D01*
X957Y468D01*
X958Y468D01*
X959Y468D01*
X960Y468D01*
X961Y468D01*
X962Y468D01*
X963Y468D01*
X964Y468D01*
X965Y468D01*
X966Y468D01*
X967Y468D01*
X968Y468D01*
X969Y468D01*
X970Y468D01*
X971Y468D01*
X972Y468D01*
X973Y468D01*
X974Y468D01*
X975Y468D01*
X976Y468D01*
X977Y468D01*
X978Y468D01*
X979Y468D01*
X980Y468D01*
X981Y468D01*
X982Y468D01*
X983Y468D01*
X984Y468D01*
X985Y468D01*
X986Y468D01*
X987Y468D01*
X988Y468D01*
X989Y468D01*
X990Y468D01*
X991Y468D01*
X992Y468D01*
X993Y468D01*
X994Y468D01*
X995Y468D01*
X996Y468D01*
X997Y468D01*
X998Y468D01*
X999Y468D01*
X1000Y468D01*
X1001Y468D01*
X1002Y468D01*
X1003Y468D01*
X1004Y468D01*
X1005Y468D01*
X1006Y468D01*
X1007Y468D01*
X1008Y468D01*
X1009Y468D01*
X1010Y468D01*
X1011Y468D01*
X1012Y468D01*
X1013Y468D01*
X1014Y468D01*
X1015Y468D01*
X1016Y468D01*
X1017Y468D01*
X1018Y468D01*
X1019Y468D01*
X1020Y468D01*
X1021Y468D01*
X1022Y468D01*
X1023Y468D01*
X1024Y468D01*
X1025Y468D01*
X1026Y468D01*
X1027Y468D01*
X1028Y468D01*
X1029Y468D01*
X1030Y468D01*
X1031Y468D01*
X1032Y468D01*
X1033Y468D01*
X1034Y468D01*
X1035Y468D01*
X1036Y468D01*
X1037Y468D01*
X1038Y468D01*
X1039Y468D01*
X1040Y468D01*
X1041Y468D01*
X1042Y468D01*
X1043Y468D01*
X1044Y468D01*
X1045Y468D01*
X1046Y468D01*
X1047Y468D01*
X1048Y468D01*
X1049Y468D01*
X1050Y468D01*
X1051Y468D01*
X1052Y468D01*
X1053Y468D01*
X1054Y468D01*
X1055Y468D01*
X1056Y468D01*
X1057Y468D01*
X1058Y468D01*
X1059Y468D01*
X1060Y468D01*
X1061Y468D01*
X1062Y468D01*
X1063Y468D01*
X1064Y468D01*
X1065Y468D01*
X1066Y468D01*
X1067Y468D01*
X1068Y468D01*
X1069Y468D01*
X1070Y468D01*
X1071Y468D01*
X1072Y468D01*
X1073Y468D01*
X1074Y468D01*
X1075Y468D01*
X1076Y468D01*
X1077Y468D01*
X1078Y468D01*
X1079Y468D01*
X1080Y468D01*
X1081Y468D01*
X1082Y468D01*
X1083Y468D01*
X1084Y468D01*
X1085Y468D01*
X1086Y468D01*
X1087Y468D01*
X1088Y468D01*
X1089Y468D01*
X1090Y468D01*
X1091Y468D01*
X1092Y468D01*
X1093Y468D01*
X1094Y468D01*
X1095Y468D01*
X1096Y468D01*
X1097Y468D01*
X1098Y468D01*
X1099Y468D01*
X1100Y468D01*
X1101Y468D01*
X1102Y468D01*
X1103Y468D01*
X1104Y468D01*
X1105Y468D01*
X1106Y468D01*
X1107Y468D01*
X1108Y468D01*
X1109Y468D01*
X1110Y468D01*
X1111Y468D01*
X1112Y468D01*
X1113Y468D01*
X1114Y468D01*
X1115Y468D01*
X1116Y468D01*
X1117Y468D01*
X1118Y468D01*
X1119Y468D01*
X1120Y468D01*
X1121Y468D01*
X1122Y468D01*
X1123Y468D01*
X1124Y468D01*
X1125Y468D01*
X1126Y468D01*
X1127Y468D01*
X1128Y468D01*
X1129Y468D01*
X1130Y468D01*
X1131Y468D01*
X1132Y468D01*
X1133Y468D01*
X1134Y468D01*
X1135Y468D01*
X1136Y468D01*
X1137Y468D01*
X1138Y468D01*
X1139Y468D01*
X1140Y468D01*
X1141Y468D01*
X1142Y468D01*
X1143Y468D01*
X1144Y468D01*
X1145Y468D01*
X1146Y468D01*
X1147Y468D01*
X1148Y468D01*
X1149Y468D01*
X1150Y468D01*
X1151Y468D01*
X1152Y468D01*
X1153Y468D01*
X1154Y468D01*
X1155Y468D01*
X1156Y468D01*
X1157Y468D01*
X1158Y468D01*
X1159Y468D01*
X1160Y468D01*
X1161Y468D01*
X1162Y468D01*
X1163Y468D01*
X1164Y468D01*
X1165Y468D01*
X1166Y468D01*
X1167Y468D01*
X1168Y468D01*
X1169Y468D01*
X1170Y468D01*
X1171Y468D01*
X1172Y468D01*
X1173Y468D01*
X1174Y468D01*
X1175Y468D01*
X1176Y468D01*
X1177Y468D01*
X1178Y468D01*
X1179Y468D01*
X1180Y468D01*
X1181Y468D01*
X1182Y468D01*
X1183Y468D01*
X1184Y468D01*
X1185Y468D01*
X1186Y468D01*
X1187Y468D01*
X1188Y468D01*
X1189Y468D01*
X1190Y468D01*
X1191Y468D01*
X1192Y468D01*
X1193Y468D01*
X1194Y468D01*
X1195Y468D01*
X1196Y468D01*
X1197Y468D01*
X1198Y468D01*
X1199Y468D01*
X1200Y468D01*
X1201Y468D01*
X1202Y468D01*
X1203Y468D01*
X1203Y1372D01*
X1204Y1373D01*
X1205Y1373D01*
X1206Y1373D01*
X1207Y1373D01*
X1208Y1373D01*
X1209Y1373D01*
X1210Y1373D01*
X1211Y1373D01*
X1212Y1373D01*
X1213Y1373D01*
X1214Y1373D01*
X1215Y1373D01*
X1216Y1373D01*
X1217Y1373D01*
X1218Y1373D01*
X1219Y1373D01*
X1220Y1373D01*
X1221Y1373D01*
X1222Y1373D01*
X1223Y1373D01*
X1224Y1373D01*
X1225Y1373D01*
X1226Y1373D01*
X1227Y1373D01*
X1228Y1373D01*
X1229Y1373D01*
X1230Y1373D01*
X1231Y1373D01*
X1232Y1373D01*
X1233Y1373D01*
X1234Y1373D01*
X1235Y1373D01*
X1236Y1373D01*
X1237Y1373D01*
X1238Y1373D01*
X1239Y1373D01*
X1240Y1373D01*
X1241Y1373D01*
X1242Y1373D01*
X1243Y1373D01*
X1244Y1373D01*
X1245Y1373D01*
X1246Y1373D01*
X1247Y1373D01*
X1248Y1373D01*
X1249Y1373D01*
X1250Y1373D01*
X1251Y1373D01*
X1252Y1373D01*
X1253Y1373D01*
X1254Y1373D01*
X1255Y1373D01*
X1256Y1373D01*
X1257Y1373D01*
X1258Y1373D01*
X1259Y1373D01*
X1260Y1373D01*
X1261Y1373D01*
X1262Y1373D01*
X1263Y1373D01*
X1264Y1373D01*
X1265Y1373D01*
X1266Y1373D01*
X1267Y1373D01*
X1268Y1373D01*
X1269Y1373D01*
X1270Y1373D01*
X1271Y1373D01*
X1272Y1373D01*
X1273Y1373D01*
X1274Y1373D01*
X1275Y1373D01*
X1276Y1373D01*
X1277Y1373D01*
X1278Y1373D01*
X1279Y1373D01*
X1280Y1373D01*
X1281Y1373D01*
X1282Y1373D01*
X1283Y1373D01*
X1284Y1373D01*
X1285Y1373D01*
X1286Y1373D01*
X1287Y1373D01*
X1288Y1373D01*
X1289Y1373D01*
X1290Y1373D01*
X1291Y1373D01*
X1292Y1373D01*
X1293Y1373D01*
X1294Y1373D01*
X1295Y1373D01*
X1296Y1373D01*
X1297Y1373D01*
X1298Y1373D01*
X1299Y1373D01*
X1300Y1373D01*
X1301Y1373D01*
X1302Y1373D01*
X1303Y1373D01*
X1304Y1373D01*
X1305Y1373D01*
X1306Y1373D01*
X1307Y1373D01*
X1308Y1373D01*
X1309Y1373D01*
X1310Y1373D01*
X1311Y1373D01*
X1312Y1373D01*
X1313Y1373D01*
X1314Y1373D01*
X1315Y1373D01*
X1316Y1373D01*
X1317Y1373D01*
X1318Y1373D01*
X1319Y1373D01*
X1320Y1373D01*
X1321Y1373D01*
X1322Y1373D01*
X1323Y1373D01*
X1324Y1373D01*
X1325Y1373D01*
X1326Y1373D01*
X1327Y1373D01*
X1328Y1373D01*
X1329Y1373D01*
X1330Y1373D01*
X1331Y1373D01*
X1332Y1373D01*
X1333Y1373D01*
X1334Y1373D01*
X1335Y1373D01*
X1336Y1373D01*
X1337Y1373D01*
X1338Y1373D01*
X1339Y1373D01*
X1340Y1373D01*
X1341Y1373D01*
X1342Y1373D01*
X1343Y1373D01*
X1344Y1373D01*
X1345Y1373D01*
X1346Y1373D01*
X1347Y1373D01*
X1348Y1373D01*
X1349Y1373D01*
X1350Y1373D01*
X1351Y1373D01*
X1352Y1373D01*
X1353Y1373D01*
X1354Y1373D01*
X1355Y1373D01*
X1356Y1373D01*
X1357Y1373D01*
X1358Y1373D01*
X1359Y1373D01*
X1360Y1373D01*
X1361Y1373D01*
X1362Y1373D01*
X1363Y1373D01*
X1364Y1373D01*
X1365Y1373D01*
X1366Y1373D01*
X1367Y1373D01*
X1368Y1373D01*
X1369Y1373D01*
X1370Y1373D01*
X1371Y1373D01*
X1372Y1373D01*
X1373Y1373D01*
X1374Y1373D01*
X1375Y1373D01*
X1376Y1373D01*
X1377Y1373D01*
X1378Y1373D01*
X1379Y1373D01*
X1380Y1373D01*
X1381Y1373D01*
X1382Y1373D01*
X1383Y1373D01*
X1384Y1373D01*
X1385Y1373D01*
X1386Y1373D01*
X1387Y1373D01*
X1388Y1373D01*
X1389Y1373D01*
X1390Y1373D01*
X1391Y1373D01*
X1392Y1373D01*
X1393Y1373D01*
X1394Y1373D01*
X1395Y1373D01*
X1396Y1373D01*
X1397Y1373D01*
X1398Y1373D01*
X1399Y1373D01*
X1400Y1373D01*
X1401Y1373D01*
X1402Y1373D01*
X1403Y1373D01*
X1404Y1373D01*
X1405Y1373D01*
X1406Y1373D01*
X1407Y1373D01*
X1408Y1373D01*
X1409Y1373D01*
X1410Y1373D01*
X1411Y1373D01*
X1412Y1373D01*
X1413Y1373D01*
X1414Y1373D01*
X1415Y1373D01*
X1416Y1373D01*
X1417Y1373D01*
X1418Y1373D01*
X1419Y1373D01*
X1420Y1373D01*
X1421Y1373D01*
X1422Y1373D01*
X1423Y1373D01*
X1424Y1373D01*
X1425Y1373D01*
X1426Y1373D01*
X1427Y1373D01*
X1428Y1373D01*
X1429Y1373D01*
X1430Y1373D01*
X1431Y1373D01*
X1432Y1373D01*
X1433Y1373D01*
X1434Y1373D01*
X1435Y1373D01*
X1436Y1373D01*
X1437Y1373D01*
X1438Y1373D01*
X1439Y1373D01*
X1440Y1373D01*
X1441Y1373D01*
X1442Y1373D01*
X1443Y1373D01*
X1444Y1373D01*
X1445Y1373D01*
X1446Y1373D01*
X1447Y1373D01*
X1448Y1373D01*
X1449Y1373D01*
X1450Y1373D01*
X1451Y1373D01*
X1452Y1373D01*
X1453Y1373D01*
X1454Y1373D01*
X1455Y1373D01*
X1456Y1373D01*
X1457Y1373D01*
X1458Y1373D01*
X1459Y1373D01*
X1460Y1373D01*
X1461Y1373D01*
X1462Y1373D01*
X1463Y1373D01*
X1464Y1373D01*
X1465Y1373D01*
X1466Y1373D01*
X1467Y1373D01*
X1468Y1373D01*
X1469Y1373D01*
X1470Y1373D01*
X1471Y1373D01*
X1472Y1373D01*
X1473Y1373D01*
X1474Y1373D01*
X1475Y1373D01*
X1476Y1373D01*
X1477Y1373D01*
X1478Y1373D01*
X1479Y1373D01*
X1480Y1373D01*
X1481Y1373D01*
X1482Y1373D01*
X1483Y1373D01*
X1484Y1373D01*
X1485Y1373D01*
X1486Y1373D01*
X1487Y1373D01*
X1488Y1373D01*
X1489Y1373D01*
X1490Y1373D01*
X1491Y1373D01*
X1492Y1373D01*
X1493Y1373D01*
X1494Y1373D01*
X1495Y1373D01*
X1496Y1373D01*
X1497Y1373D01*
X1498Y1373D01*
X1499Y1373D01*
X1500Y1373D01*
X1501Y1373D01*
X1502Y1373D01*
X1503Y1373D01*
X1504Y1373D01*
X1505Y1373D01*
X1506Y1373D01*
X1507Y1373D01*
X1508Y1373D01*
X1509Y1373D01*
X1510Y1373D01*
X1511Y1373D01*
X1512Y1373D01*
X1513Y1373D01*
X1514Y1373D01*
X1515Y1373D01*
X1516Y1373D01*
X1517Y1373D01*
X1518Y1373D01*
X1519Y1373D01*
X1520Y1373D01*
X1521Y1373D01*
X1522Y1373D01*
X1523Y1373D01*
X1524Y1373D01*
X1525Y1373D01*
X1526Y1373D01*
X1527Y1373D01*
X1528Y1373D01*
X1529Y1373D01*
X1530Y1373D01*
X1531Y1373D01*
X1532Y1373D01*
X1533Y1373D01*
X1534Y1373D01*
X1535Y1373D01*
X1536Y1373D01*
X1537Y1373D01*
X1538Y1373D01*
X1539Y1373D01*
X1540Y1373D01*
X1541Y1373D01*
X1542Y1373D01*
X1543Y1373D01*
X1544Y1373D01*
X1545Y1373D01*
X1546Y1373D01*
X1547Y1373D01*
X1548Y1373D01*
X1549Y1373D01*
X1550Y1373D01*
X1551Y1373D01*
X1552Y1373D01*
X1553Y1373D01*
X1554Y1373D01*
X1555Y1373D01*
X1556Y1373D01*
X1557Y1373D01*
X1558Y1373D01*
X1559Y1373D01*
X1560Y1373D01*
X1561Y1373D01*
X1562Y1373D01*
X1563Y1373D01*
X1564Y1373D01*
X1565Y1373D01*
X1566Y1373D01*
X1567Y1373D01*
X1568Y1373D01*
X1569Y1373D01*
X1570Y1373D01*
X1571Y1373D01*
X1572Y1373D01*
X1573Y1373D01*
X1574Y1373D01*
X1575Y1373D01*
X1576Y1373D01*
X1577Y1373D01*
X1578Y1373D01*
X1579Y1373D01*
X1580Y1373D01*
X1581Y1373D01*
X1582Y1373D01*
X1583Y1373D01*
X1584Y1373D01*
X1585Y1373D01*
X1586Y1373D01*
X1587Y1373D01*
X1588Y1373D01*
X1589Y1373D01*
X1590Y1373D01*
X1591Y1373D01*
X1592Y1373D01*
X1593Y1373D01*
X1594Y1373D01*
X1595Y1373D01*
X1596Y1373D01*
X1597Y1373D01*
X1598Y1373D01*
X1599Y1373D01*
X1600Y1373D01*
X1601Y1373D01*
X1602Y1373D01*
X1603Y1373D01*
X1604Y1373D01*
X1605Y1373D01*
X1606Y1373D01*
X1607Y1373D01*
X1608Y1373D01*
X1609Y1373D01*
X1610Y1373D01*
X1611Y1373D01*
X1612Y1373D01*
X1613Y1373D01*
X1614Y1373D01*
X1615Y1373D01*
X1616Y1373D01*
X1617Y1373D01*
X1618Y1373D01*
X1619Y1373D01*
X1620Y1373D01*
X1621Y1373D01*
X1622Y1373D01*
X1623Y1373D01*
X1624Y1373D01*
X1625Y1373D01*
X1626Y1373D01*
X1627Y1373D01*
X1628Y1373D01*
X1629Y1373D01*
X1630Y1373D01*
X1631Y1373D01*
X1632Y1373D01*
X1633Y1373D01*
X1634Y1373D01*
X1635Y1373D01*
X1636Y1373D01*
X1637Y1373D01*
X1638Y1373D01*
X1639Y1373D01*
X1640Y1373D01*
X1641Y1373D01*
X1642Y1373D01*
X1643Y1373D01*
X1644Y1373D01*
X1645Y1373D01*
X1646Y1373D01*
X1647Y1373D01*
X1648Y1373D01*
X1649Y1373D01*
X1650Y1373D01*
X1651Y1373D01*
X1652Y1373D01*
X1653Y1373D01*
X1654Y1373D01*
X1655Y1373D01*
X1656Y1373D01*
X1657Y1373D01*
X1658Y1373D01*
X1659Y1373D01*
X1660Y1373D01*
X1661Y1373D01*
X1662Y1373D01*
X1663Y1373D01*
X1664Y1373D01*
X1665Y1373D01*
X1666Y1373D01*
X1667Y1373D01*
X1668Y1373D01*
X1669Y1373D01*
X1670Y1373D01*
X1671Y1373D01*
X1672Y1373D01*
X1673Y1373D01*
X1674Y1373D01*
X1675Y1373D01*
X1676Y1373D01*
X1677Y1373D01*
X1678Y1373D01*
X1679Y1373D01*
X1680Y1373D01*
X1681Y1373D01*
X1682Y1373D01*
X1683Y1373D01*
X1684Y1373D01*
X1685Y1373D01*
X1686Y1373D01*
X1687Y1373D01*
X1688Y1373D01*
X1689Y1373D01*
X1690Y1373D01*
X1691Y1373D01*
X1692Y1373D01*
X1693Y1373D01*
X1694Y1373D01*
X1695Y1373D01*
X1696Y1373D01*
X1697Y1373D01*
X1698Y1373D01*
X1699Y1373D01*
X1700Y1373D01*
X1701Y1373D01*
X1702Y1373D01*
X1703Y1373D01*
X1704Y1373D01*
X1705Y1373D01*
X1706Y1373D01*
X1707Y1373D01*
X1708Y1373D01*
X1709Y1373D01*
X1710Y1373D01*
X1711Y1373D01*
X1712Y1373D01*
X1713Y1373D01*
X1714Y1373D01*
X1715Y1373D01*
X1716Y1373D01*
X1717Y1373D01*
X1718Y1373D01*
X1719Y1373D01*
X1720Y1373D01*
X1721Y1373D01*
X1722Y1373D01*
X1723Y1373D01*
X1724Y1373D01*
X1725Y1373D01*
X1726Y1373D01*
X1727Y1373D01*
X1728Y1373D01*
X1729Y1373D01*
X1730Y1373D01*
X1731Y1373D01*
X1732Y1373D01*
X1733Y1373D01*
X1734Y1373D01*
X1735Y1373D01*
X1736Y1373D01*
X1737Y1373D01*
X1738Y1373D01*
X1739Y1373D01*
X1740Y1373D01*
X1741Y1373D01*
X1742Y1373D01*
X1743Y1373D01*
X1744Y1373D01*
X1745Y1373D01*
X1746Y1373D01*
X1747Y1373D01*
X1748Y1373D01*
X1749Y1373D01*
X1750Y1373D01*
X1751Y1373D01*
X1752Y1373D01*
X1753Y1373D01*
X1754Y1373D01*
X1755Y1373D01*
X1756Y1373D01*
X1757Y1373D01*
X1758Y1373D01*
X1759Y1373D01*
X1760Y1373D01*
X1761Y1373D01*
X1762Y1373D01*
X1763Y1373D01*
X1764Y1373D01*
X1765Y1373D01*
X1766Y1373D01*
X1767Y1373D01*
X1768Y1373D01*
X1769Y1373D01*
X1770Y1373D01*
X1771Y1373D01*
X1772Y1373D01*
X1773Y1373D01*
X1774Y1373D01*
X1775Y1373D01*
X1776Y1373D01*
X1777Y1373D01*
X1778Y1373D01*
X1779Y1373D01*
X1780Y1373D01*
X1781Y1373D01*
X1782Y1373D01*
X1783Y1373D01*
X1784Y1373D01*
X1785Y1373D01*
X1786Y1373D01*
X1787Y1373D01*
X1788Y1373D01*
X1789Y1373D01*
X1790Y1373D01*
X1791Y1373D01*
X1792Y1373D01*
X1793Y1373D01*
X1794Y1373D01*
X1795Y1373D01*
X1796Y1373D01*
X1797Y1373D01*
X1798Y1373D01*
X1799Y1373D01*
X1800Y1373D01*
X1801Y1373D01*
X1802Y1373D01*
X1803Y1373D01*
X1804Y1373D01*
X1805Y1373D01*
X1806Y1373D01*
X1807Y1373D01*
X1808Y1373D01*
X1809Y1373D01*
X1810Y1373D01*
X1811Y1373D01*
X1812Y1373D01*
X1813Y1373D01*
X1814Y1373D01*
X1815Y1373D01*
X1816Y1373D01*
X1817Y1373D01*
X1818Y1373D01*
X1819Y1373D01*
X1820Y1373D01*
X1821Y1373D01*
X1822Y1373D01*
X1823Y1373D01*
X1824Y1373D01*
X1825Y1373D01*
X1826Y1373D01*
X1827Y1373D01*
X1828Y1373D01*
X1829Y1373D01*
X1830Y1373D01*
X1831Y1373D01*
X1832Y1373D01*
X1833Y1373D01*
X1834Y1373D01*
X1835Y1373D01*
X1836Y1373D01*
X1837Y1373D01*
X1838Y1373D01*
X1839Y1373D01*
X1840Y1373D01*
X1841Y1373D01*
X1842Y1373D01*
X1843Y1373D01*
X1844Y1373D01*
X1845Y1373D01*
X1846Y1373D01*
X1847Y1373D01*
X1848Y1373D01*
X1849Y1373D01*
X1850Y1373D01*
X1851Y1373D01*
X1852Y1373D01*
X1853Y1373D01*
X1854Y1373D01*
X1855Y1373D01*
X1856Y1373D01*
X1857Y1373D01*
X1858Y1373D01*
X1859Y1373D01*
X1860Y1373D01*
X1861Y1373D01*
X1862Y1373D01*
X1863Y1373D01*
X1864Y1373D01*
X1865Y1373D01*
X1866Y1373D01*
X1867Y1373D01*
X1868Y1373D01*
X1869Y1373D01*
X1870Y1373D01*
X1871Y1373D01*
X1872Y1373D01*
X1873Y1373D01*
X1874Y1373D01*
X1875Y1373D01*
X1876Y1373D01*
X1877Y1373D01*
X1878Y1373D01*
X1879Y1373D01*
X1880Y1373D01*
X1881Y1373D01*
X1882Y1373D01*
X1883Y1373D01*
X1884Y1373D01*
X1885Y1373D01*
X1886Y1373D01*
X1887Y1373D01*
X1888Y1373D01*
X1889Y1373D01*
X1890Y1373D01*
X1891Y1373D01*
X1892Y1373D01*
X1893Y1373D01*
X1894Y1373D01*
X1895Y1373D01*
X1896Y1373D01*
X1897Y1373D01*
X1898Y1373D01*
X1899Y1373D01*
X1900Y1373D01*
X1901Y1373D01*
X1902Y1373D01*
X1903Y1373D01*
X1904Y1373D01*
X1905Y1373D01*
X1906Y1373D01*
X1907Y1373D01*
X1908Y1373D01*
X1909Y1373D01*
X1910Y1373D01*
X1911Y1373D01*
X1912Y1373D01*
X1913Y1373D01*
X1914Y1373D01*
X1915Y1373D01*
X1916Y1373D01*
X1917Y1373D01*
X1918Y1373D01*
X1919Y1373D01*
X1920Y1373D01*
X1921Y1373D01*
X1922Y1373D01*
X1923Y1373D01*
X1924Y1373D01*
X1925Y1373D01*
X1926Y1373D01*
X1927Y1373D01*
X1928Y1373D01*
X1929Y1373D01*
X1930Y1373D01*
X1931Y1373D01*
X1932Y1373D01*
X1933Y1373D01*
X1934Y1373D01*
X1935Y1373D01*
X1936Y1373D01*
X1937Y1373D01*
X1938Y1373D01*
X1939Y1373D01*
X1940Y1373D01*
X1941Y1373D01*
X1942Y1373D01*
X1943Y1373D01*
X1944Y1373D01*
X1945Y1373D01*
X1946Y1373D01*
X1947Y1373D01*
X1948Y1373D01*
X1949Y1373D01*
X1950Y1373D01*
X1951Y1373D01*
X1952Y1373D01*
X1953Y1373D01*
X1954Y1373D01*
X1955Y1373D01*
X1956Y1373D01*
X1957Y1373D01*
X1958Y1373D01*
X1959Y1373D01*
X1960Y1373D01*
X1961Y1373D01*
X1962Y1373D01*
X1963Y1373D01*
X1964Y1373D01*
X1965Y1373D01*
X1966Y1373D01*
X1967Y1373D01*
X1968Y1373D01*
X1969Y1373D01*
X1970Y1373D01*
X1971Y1373D01*
X1972Y1373D01*
X1973Y1373D01*
X1974Y1373D01*
X1975Y1373D01*
X1976Y1373D01*
X1977Y1373D01*
X1978Y1373D01*
X1979Y1373D01*
X1980Y1373D01*
X1981Y1373D01*
X1982Y1373D01*
X1983Y1373D01*
X1984Y1373D01*
X1985Y1373D01*
X1986Y1373D01*
X1987Y1373D01*
X1988Y1373D01*
X1989Y1373D01*
X1990Y1373D01*
X1991Y1373D01*
X1992Y1373D01*
X1993Y1373D01*
X1994Y1373D01*
X1995Y1373D01*
X1996Y1373D01*
X1997Y1373D01*
X1998Y1373D01*
X1999Y1373D01*
X2000Y1373D01*
X2001Y1373D01*
X2002Y1373D01*
X2003Y1373D01*
X2004Y1373D01*
X2005Y1373D01*
X2006Y1373D01*
X2007Y1373D01*
X2008Y1373D01*
X2009Y1373D01*
X2010Y1373D01*
X2011Y1373D01*
X2012Y1373D01*
X2013Y1373D01*
X2014Y1373D01*
X2015Y1373D01*
X2016Y1373D01*
X2017Y1373D01*
X2018Y1373D01*
X2019Y1373D01*
X2020Y1373D01*
X2021Y1373D01*
X2022Y1373D01*
X2023Y1373D01*
X2024Y1373D01*
X2025Y1373D01*
X2026Y1373D01*
X2027Y1373D01*
X2028Y1373D01*
X2029Y1373D01*
X2030Y1373D01*
X2031Y1373D01*
X2032Y1373D01*
X2033Y1373D01*
X2034Y1373D01*
X2035Y1373D01*
X2036Y1373D01*
X2037Y1373D01*
X2038Y1373D01*
X2039Y1373D01*
X2040Y1373D01*
X2041Y1373D01*
X2042Y1373D01*
X2043Y1373D01*
X2044Y1373D01*
X2045Y1373D01*
X2046Y1373D01*
X2047Y1373D01*
X2048Y1373D01*
X2049Y1373D01*
X2050Y1373D01*
X2051Y1373D01*
X2052Y1373D01*
X2053Y1373D01*
X2054Y1373D01*
X2055Y1373D01*
X2056Y1373D01*
X2057Y1373D01*
X2058Y1373D01*
X2059Y1373D01*
X2060Y1373D01*
X2061Y1373D01*
X2062Y1373D01*
X2063Y1373D01*
X2064Y1373D01*
X2065Y1373D01*
X2066Y1373D01*
X2067Y1373D01*
X2068Y1373D01*
X2069Y1373D01*
X2070Y1373D01*
X2071Y1373D01*
X2072Y1373D01*
X2073Y1373D01*
X2074Y1373D01*
X2075Y1373D01*
X2076Y1373D01*
X2077Y1373D01*
X2078Y1373D01*
X2079Y1373D01*
X2080Y1373D01*
X2081Y1373D01*
X2082Y1373D01*
X2083Y1373D01*
X2084Y1373D01*
X2085Y1373D01*
X2086Y1373D01*
X2087Y1373D01*
X2088Y1373D01*
X2089Y1373D01*
X2090Y1373D01*
X2091Y1373D01*
X2092Y1373D01*
X2093Y1373D01*
X2094Y1373D01*
X2095Y1373D01*
X2096Y1373D01*
X2097Y1373D01*
X2098Y1373D01*
X2099Y1373D01*
X2100Y1373D01*
X2101Y1373D01*
X2102Y1373D01*
X2103Y1373D01*
X2104Y1373D01*
X2105Y1373D01*
X2106Y1373D01*
X2107Y1373D01*
X2108Y1373D01*
X2109Y1373D01*
X2110Y1373D01*
X2111Y1373D01*
X2112Y1373D01*
X2113Y1373D01*
X2114Y1373D01*
X2115Y1373D01*
X2116Y1373D01*
X2117Y1373D01*
X2118Y1373D01*
X2119Y1373D01*
X2120Y1373D01*
X2121Y1373D01*
X2122Y1373D01*
X2123Y1373D01*
X2124Y1373D01*
X2125Y1373D01*
X2126Y1373D01*
X2127Y1373D01*
X2128Y1373D01*
X2129Y1373D01*
X2130Y1373D01*
X2131Y1373D01*
X2132Y1373D01*
X2133Y1373D01*
X2134Y1373D01*
X2135Y1373D01*
X2136Y1373D01*
X2137Y1373D01*
X2138Y1373D01*
X2139Y1373D01*
X2140Y1373D01*
X2141Y1373D01*
X2142Y1373D01*
X2143Y1373D01*
X2144Y1373D01*
X2145Y1373D01*
X2146Y1373D01*
X2147Y1373D01*
X2148Y1373D01*
X2149Y1373D01*
X2150Y1373D01*
X2151Y1373D01*
X2152Y1373D01*
X2153Y1373D01*
X2154Y1373D01*
X2155Y1373D01*
X2156Y1373D01*
X2157Y1373D01*
X2158Y1373D01*
X2159Y1373D01*
X2160Y1373D01*
X2161Y1373D01*
X2162Y1373D01*
X2163Y1373D01*
X2164Y1373D01*
X2165Y1373D01*
X2166Y1373D01*
X2167Y1373D01*
X2168Y1373D01*
X2169Y1373D01*
X2170Y1373D01*
X2171Y1373D01*
X2172Y1373D01*
X2173Y1373D01*
X2174Y1373D01*
X2175Y1373D01*
X2176Y1373D01*
X2177Y1373D01*
X2178Y1373D01*
X2179Y1373D01*
X2180Y1373D01*
X2181Y1373D01*
X2182Y1373D01*
X2183Y1373D01*
X2184Y1373D01*
X2185Y1373D01*
X2186Y1373D01*
X2187Y1373D01*
X2188Y1373D01*
X2189Y1373D01*
X2190Y1373D01*
X2191Y1373D01*
X2192Y1373D01*
X2193Y1373D01*
X2194Y1373D01*
X2195Y1373D01*
X2196Y1373D01*
X2197Y1373D01*
X2198Y1373D01*
X2199Y1373D01*
X2200Y1373D01*
X2201Y1373D01*
X2202Y1373D01*
X2203Y1373D01*
X2204Y1373D01*
X2205Y1373D01*
X2206Y1373D01*
X2207Y1373D01*
X2208Y1373D01*
X2209Y1373D01*
X2210Y1373D01*
X2211Y1373D01*
X2212Y1373D01*
X2213Y1373D01*
X2214Y1373D01*
X2215Y1373D01*
X2216Y1373D01*
X2217Y1373D01*
X2218Y1373D01*
X2219Y1373D01*
X2220Y1373D01*
X2221Y1373D01*
X2222Y1373D01*
X2223Y1373D01*
X2224Y1373D01*
X2225Y1373D01*
X2226Y1373D01*
X2227Y1373D01*
X2228Y1373D01*
X2229Y1373D01*
X2230Y1373D01*
X2231Y1373D01*
X2232Y1373D01*
X2233Y1373D01*
X2234Y1373D01*
X2235Y1373D01*
X2236Y1373D01*
X2237Y1373D01*
X2238Y1373D01*
X2239Y1373D01*
X2240Y1373D01*
X2241Y1373D01*
X2242Y1373D01*
X2243Y1373D01*
X2244Y1373D01*
X2245Y1373D01*
X2246Y1373D01*
X2247Y1373D01*
X2248Y1373D01*
X2249Y1373D01*
X2250Y1373D01*
X2251Y1373D01*
X2252Y1373D01*
X2253Y1373D01*
X2254Y1373D01*
X2255Y1373D01*
X2256Y1373D01*
X2257Y1373D01*
X2258Y1373D01*
X2259Y1373D01*
X2260Y1373D01*
X2261Y1373D01*
X2262Y1373D01*
X2263Y1373D01*
X2264Y1373D01*
X2265Y1373D01*
X2266Y1373D01*
X2267Y1373D01*
X2268Y1373D01*
X2269Y1373D01*
X2270Y1373D01*
X2271Y1373D01*
X2272Y1373D01*
X2273Y1373D01*
X2274Y1373D01*
X2275Y1373D01*
X2276Y1373D01*
X2277Y1373D01*
X2278Y1373D01*
X2279Y1373D01*
X2280Y1373D01*
X2281Y1373D01*
X2282Y1373D01*
X2283Y1373D01*
X2284Y1373D01*
X2285Y1373D01*
X2286Y1373D01*
X2287Y1373D01*
X2288Y1373D01*
X2289Y1373D01*
X2290Y1373D01*
X2291Y1373D01*
X2292Y1373D01*
X2293Y1373D01*
X2294Y1373D01*
X2295Y1373D01*
X2296Y1373D01*
X2297Y1373D01*
X2298Y1373D01*
X2299Y1373D01*
X2300Y1373D01*
X2301Y1373D01*
X2302Y1373D01*
X2303Y1373D01*
X2304Y1373D01*
X2305Y1373D01*
X2306Y1373D01*
X2307Y1373D01*
X2308Y1373D01*
X2309Y1373D01*
X2310Y1373D01*
X2311Y1373D01*
X2312Y1373D01*
X2313Y1373D01*
X2314Y1373D01*
X2315Y1373D01*
X2316Y1373D01*
X2317Y1373D01*
X2318Y1373D01*
X2319Y1373D01*
X2320Y1373D01*
X2321Y1373D01*
X2322Y1373D01*
X2323Y1373D01*
X2324Y1373D01*
X2325Y1373D01*
X2326Y1373D01*
X2327Y1373D01*
X2328Y1373D01*
X2329Y1373D01*
X2330Y1373D01*
X2331Y1373D01*
X2332Y1373D01*
X2333Y1373D01*
X2334Y1373D01*
X2335Y1373D01*
X2336Y1373D01*
X2337Y1373D01*
X2338Y1373D01*
X2339Y1373D01*
X2340Y1373D01*
X2341Y1373D01*
X2342Y1373D01*
X2343Y1373D01*
X2344Y1373D01*
X2345Y1373D01*
X2346Y1373D01*
X2347Y1373D01*
X2348Y1373D01*
X2349Y1373D01*
X2350Y1373D01*
X2351Y1373D01*
X2352Y1373D01*
X2353Y1373D01*
X2354Y1373D01*
X2355Y1373D01*
X2356Y1373D01*
X2357Y1373D01*
X2358Y1373D01*
X2359Y1373D01*
X2360Y1373D01*
X2361Y1373D01*
X2362Y1373D01*
X2363Y1373D01*
X2364Y1373D01*
X2365Y1373D01*
X2366Y1373D01*
X2367Y1373D01*
X2368Y1373D01*
X2369Y1373D01*
X2370Y1373D01*
X2371Y1373D01*
X2372Y1373D01*
X2373Y1373D01*
X2374Y1373D01*
X2375Y1373D01*
X2376Y1373D01*
X2377Y1373D01*
X2378Y1373D01*
X2379Y1373D01*
X2380Y1373D01*
X2381Y1373D01*
X2382Y1373D01*
X2383Y1373D01*
X2384Y1373D01*
X2385Y1373D01*
X2386Y1373D01*
X2387Y1373D01*
X2388Y1373D01*
X2389Y1373D01*
X2390Y1373D01*
X2391Y1373D01*
X2392Y1373D01*
X2393Y1373D01*
X2394Y1373D01*
X2395Y1373D01*
X2396Y1373D01*
X2397Y1373D01*
X2398Y1373D01*
X2399Y1373D01*
X2400Y1373D01*
X2401Y1373D01*
X2402Y1373D01*
X2403Y1373D01*
X2404Y1373D01*
X2405Y1373D01*
X2406Y1373D01*
X2407Y1373D01*
X2408Y1373D01*
X2409Y1373D01*
X2410Y1373D01*
X2411Y1373D01*
X2412Y1373D01*
X2413Y1373D01*
X2414Y1373D01*
X2415Y1373D01*
X2416Y1373D01*
X2417Y1373D01*
X2418Y1373D01*
X2419Y1373D01*
X2420Y1373D01*
X2421Y1373D01*
X2422Y1373D01*
X2423Y1373D01*
X2424Y1373D01*
X2425Y1373D01*
X2426Y1373D01*
X2427Y1373D01*
X2428Y1373D01*
X2429Y1373D01*
X2430Y1373D01*
X2431Y1373D01*
X2432Y1373D01*
X2433Y1373D01*
X2434Y1373D01*
X2435Y1373D01*
X2436Y1373D01*
X2437Y1373D01*
X2438Y1373D01*
X2439Y1373D01*
X2440Y1373D01*
X2441Y1373D01*
X2442Y1373D01*
X2443Y1373D01*
X2444Y1373D01*
X2445Y1373D01*
X2446Y1373D01*
X2447Y1373D01*
X2448Y1373D01*
X2449Y1373D01*
X2450Y1373D01*
X2451Y1373D01*
X2452Y1373D01*
X2453Y1373D01*
X2454Y1373D01*
X2455Y1373D01*
X2456Y1373D01*
X2457Y1373D01*
X2458Y1373D01*
X2459Y1373D01*
X2460Y1373D01*
X2461Y1373D01*
X2462Y1373D01*
X2463Y1373D01*
X2464Y1373D01*
X2465Y1373D01*
X2466Y1373D01*
X2467Y1373D01*
X2468Y1373D01*
X2469Y1373D01*
X2470Y1373D01*
X2471Y1373D01*
X2472Y1373D01*
X2473Y1373D01*
X2474Y1373D01*
X2475Y1373D01*
X2476Y1373D01*
X2477Y1373D01*
X2478Y1373D01*
X2479Y1373D01*
X2480Y1373D01*
X2481Y1373D01*
X2482Y1373D01*
X2483Y1373D01*
X2484Y1373D01*
X2485Y1373D01*
X2486Y1373D01*
X2487Y1373D01*
X2488Y1373D01*
X2489Y1373D01*
X2490Y1373D01*
X2491Y1373D01*
X2492Y1373D01*
X2493Y1373D01*
X2494Y1373D01*
X2495Y1373D01*
X2496Y1373D01*
X2497Y1373D01*
X2498Y1373D01*
X2499Y1373D01*
X2500Y1373D01*
X2501Y1373D01*
X2502Y1373D01*
X2503Y1373D01*
X2504Y1372D01*
X2504Y468D01*
X2505Y468D01*
X2506Y468D01*
X2507Y468D01*
X2508Y468D01*
X2509Y468D01*
X2510Y468D01*
X2511Y468D01*
X2512Y468D01*
X2513Y468D01*
X2514Y468D01*
X2515Y468D01*
X2516Y468D01*
X2517Y468D01*
X2518Y468D01*
X2519Y468D01*
X2520Y468D01*
X2521Y468D01*
X2522Y468D01*
X2523Y468D01*
X2524Y468D01*
X2525Y468D01*
X2526Y468D01*
X2527Y468D01*
X2528Y468D01*
X2529Y468D01*
X2530Y468D01*
X2531Y468D01*
X2532Y468D01*
X2533Y468D01*
X2534Y468D01*
X2535Y468D01*
X2536Y468D01*
X2537Y468D01*
X2538Y468D01*
X2539Y468D01*
X2540Y468D01*
X2541Y468D01*
X2542Y468D01*
X2543Y468D01*
X2544Y468D01*
X2545Y468D01*
X2546Y468D01*
X2547Y468D01*
X2548Y468D01*
X2549Y468D01*
X2550Y468D01*
X2551Y468D01*
X2552Y468D01*
X2553Y468D01*
X2554Y468D01*
X2555Y468D01*
X2556Y468D01*
X2557Y468D01*
X2558Y468D01*
X2559Y468D01*
X2560Y468D01*
X2561Y468D01*
X2562Y468D01*
X2563Y468D01*
X2564Y468D01*
X2565Y468D01*
X2566Y468D01*
X2567Y468D01*
X2568Y468D01*
X2569Y468D01*
X2570Y468D01*
X2571Y468D01*
X2572Y468D01*
X2573Y468D01*
X2574Y468D01*
X2575Y468D01*
X2576Y468D01*
X2577Y468D01*
X2578Y468D01*
X2579Y468D01*
X2580Y468D01*
X2581Y468D01*
X2582Y468D01*
X2583Y468D01*
X2584Y468D01*
X2585Y468D01*
X2586Y468D01*
X2587Y468D01*
X2588Y468D01*
X2589Y468D01*
X2590Y468D01*
X2591Y468D01*
X2592Y468D01*
X2593Y468D01*
X2594Y468D01*
X2595Y468D01*
X2596Y468D01*
X2597Y468D01*
X2598Y468D01*
X2599Y468D01*
X2600Y468D01*
X2601Y468D01*
X2602Y468D01*
X2603Y468D01*
X2604Y468D01*
X2605Y468D01*
X2606Y468D01*
X2607Y468D01*
X2608Y468D01*
X2609Y468D01*
X2610Y468D01*
X2611Y468D01*
X2612Y468D01*
X2613Y468D01*
X2614Y468D01*
X2615Y468D01*
X2616Y468D01*
X2617Y468D01*
X2618Y468D01*
X2619Y468D01*
X2620Y468D01*
X2621Y468D01*
X2622Y468D01*
X2623Y468D01*
X2624Y468D01*
X2625Y468D01*
X2626Y468D01*
X2627Y468D01*
X2628Y468D01*
X2629Y468D01*
X2630Y468D01*
X2631Y468D01*
X2632Y468D01*
X2633Y468D01*
X2634Y468D01*
X2635Y468D01*
X2636Y468D01*
X2637Y468D01*
X2638Y468D01*
X2639Y468D01*
X2640Y468D01*
X2641Y468D01*
X2642Y468D01*
X2643Y468D01*
X2644Y468D01*
X2645Y468D01*
X2646Y468D01*
X2647Y468D01*
X2648Y468D01*
X2649Y468D01*
X2650Y468D01*
X2651Y468D01*
X2652Y468D01*
X2653Y468D01*
X2654Y468D01*
X2655Y468D01*
X2656Y468D01*
X2657Y468D01*
X2658Y468D01*
X2659Y468D01*
X2660Y468D01*
X2661Y468D01*
X2662Y468D01*
X2663Y468D01*
X2664Y468D01*
X2665Y468D01*
X2666Y468D01*
X2667Y468D01*
X2668Y468D01*
X2669Y468D01*
X2670Y468D01*
X2671Y468D01*
X2672Y468D01*
X2673Y468D01*
X2674Y468D01*
X2675Y468D01*
X2676Y468D01*
X2677Y468D01*
X2678Y468D01*
X2679Y468D01*
X2680Y468D01*
X2681Y468D01*
X2682Y468D01*
X2683Y468D01*
X2684Y468D01*
X2685Y468D01*
X2686Y468D01*
X2687Y468D01*
X2688Y468D01*
X2689Y468D01*
X2690Y468D01*
X2691Y468D01*
X2692Y468D01*
X2693Y468D01*
X2694Y468D01*
X2695Y468D01*
X2696Y468D01*
X2697Y468D01*
X2698Y468D01*
X2699Y468D01*
X2700Y468D01*
X2701Y468D01*
X2702Y468D01*
X2703Y468D01*
X2704Y468D01*
X2705Y468D01*
X2706Y468D01*
X2707Y468D01*
X2708Y468D01*
X2709Y468D01*
X2710Y468D01*
X2711Y468D01*
X2712Y468D01*
X2713Y468D01*
X2714Y468D01*
X2715Y468D01*
X2716Y468D01*
X2717Y468D01*
X2718Y468D01*
X2719Y468D01*
X2720Y468D01*
X2721Y468D01*
X2722Y468D01*
X2723Y468D01*
X2724Y468D01*
X2725Y468D01*
X2726Y468D01*
X2727Y468D01*
X2728Y468D01*
X2729Y468D01*
X2730Y468D01*
X2731Y468D01*
X2732Y468D01*
X2733Y468D01*
X2734Y468D01*
X2735Y468D01*
X2736Y468D01*
X2737Y468D01*
X2738Y468D01*
X2739Y468D01*
X2740Y468D01*
X2741Y468D01*
X2742Y468D01*
X2743Y468D01*
X2744Y468D01*
X2745Y468D01*
X2746Y468D01*
X2747Y468D01*
X2748Y468D01*
X2749Y468D01*
X2750Y468D01*
X2751Y468D01*
X2752Y468D01*
X2753Y468D01*
X2754Y468D01*
X2755Y468D01*
X2756Y468D01*
X2757Y468D01*
X2758Y468D01*
X2759Y468D01*
X2760Y468D01*
X2761Y468D01*
X2762Y468D01*
X2763Y468D01*
X2764Y468D01*
X2765Y468D01*
X2766Y468D01*
X2767Y468D01*
X2768Y468D01*
X2769Y468D01*
X2770Y468D01*
X2771Y468D01*
X2772Y468D01*
X2773Y468D01*
X2774Y468D01*
X2775Y468D01*
X2776Y468D01*
X2777Y468D01*
X2778Y468D01*
X2779Y468D01*
X2780Y468D01*
X2781Y468D01*
X2782Y468D01*
X2783Y468D01*
X2784Y468D01*
X2785Y468D01*
X2786Y468D01*
X2787Y468D01*
X2788Y468D01*
X2789Y468D01*
X2790Y468D01*
X2791Y468D01*
X2792Y468D01*
X2793Y468D01*
X2794Y468D01*
X2795Y468D01*
X2796Y468D01*
X2797Y468D01*
X2798Y468D01*
X2799Y468D01*
X2800Y468D01*
X2801Y468D01*
X2802Y468D01*
X2803Y468D01*
X2804Y468D01*
X2805Y468D01*
X2806Y468D01*
X2807Y468D01*
X2808Y468D01*
X2809Y468D01*
X2810Y468D01*
X2811Y468D01*
X2812Y468D01*
X2813Y468D01*
X2814Y468D01*
X2815Y468D01*
X2816Y468D01*
X2817Y468D01*
X2818Y468D01*
X2819Y468D01*
X2820Y468D01*
X2821Y468D01*
X2822Y468D01*
X2823Y468D01*
X2824Y468D01*
X2825Y468D01*
X2826Y468D01*
X2827Y468D01*
X2828Y468D01*
X2829Y468D01*
X2830Y468D01*
X2831Y468D01*
X2832Y468D01*
X2833Y468D01*
X2834Y468D01*
X2835Y468D01*
X2836Y468D01*
X2837Y468D01*
X2838Y468D01*
X2839Y468D01*
X2840Y468D01*
X2841Y468D01*
X2842Y468D01*
X2843Y468D01*
X2844Y468D01*
X2845Y468D01*
X2846Y468D01*
X2847Y468D01*
X2848Y468D01*
X2849Y468D01*
X2850Y468D01*
X2851Y468D01*
X2852Y468D01*
X2853Y468D01*
X2854Y468D01*
X2855Y468D01*
X2856Y468D01*
X2857Y468D01*
X2858Y468D01*
X2859Y468D01*
X2860Y468D01*
X2861Y468D01*
X2862Y468D01*
X2863Y468D01*
X2864Y468D01*
X2865Y468D01*
X2866Y468D01*
X2867Y468D01*
X2868Y468D01*
X2869Y468D01*
X2870Y468D01*
X2871Y468D01*
X2872Y468D01*
X2873Y468D01*
X2874Y468D01*
X2875Y468D01*
X2876Y468D01*
X2877Y468D01*
X2878Y468D01*
X2879Y468D01*
X2880Y468D01*
X2881Y468D01*
X2882Y468D01*
X2883Y468D01*
X2884Y468D01*
X2885Y468D01*
X2886Y468D01*
X2887Y468D01*
X2888Y468D01*
X2889Y468D01*
X2890Y468D01*
X2891Y468D01*
X2892Y468D01*
X2893Y468D01*
X2894Y468D01*
X2895Y468D01*
X2896Y468D01*
X2897Y468D01*
X2898Y468D01*
X2899Y468D01*
X2900Y468D01*
X2901Y468D01*
X2902Y468D01*
X2903Y468D01*
X2904Y468D01*
X2905Y468D01*
X2906Y468D01*
X2907Y468D01*
X2908Y468D01*
X2909Y468D01*
X2910Y468D01*
X2911Y468D01*
X2912Y468D01*
X2913Y468D01*
X2914Y468D01*
X2915Y468D01*
X2916Y468D01*
X2917Y468D01*
X2918Y468D01*
X2919Y468D01*
X2920Y468D01*
X2921Y468D01*
X2922Y468D01*
X2923Y468D01*
X2924Y468D01*
X2925Y468D01*
X2926Y468D01*
X2927Y468D01*
X2928Y468D01*
X2929Y468D01*
X2930Y468D01*
X2931Y468D01*
X2932Y468D01*
X2933Y468D01*
X2934Y468D01*
X2935Y468D01*
X2936Y468D01*
X2937Y468D01*
X2938Y468D01*
X2939Y468D01*
X2940Y468D01*
X2941Y468D01*
X2942Y468D01*
X2943Y468D01*
X2944Y468D01*
X2945Y468D01*
X2946Y468D01*
X2947Y468D01*
X2948Y468D01*
X2949Y468D01*
X2950Y468D01*
X2951Y468D01*
X2952Y468D01*
X2953Y468D01*
X2954Y468D01*
X2955Y468D01*
X2956Y468D01*
X2957Y468D01*
X2958Y468D01*
X2959Y468D01*
X2960Y468D01*
X2961Y468D01*
X2962Y468D01*
X2963Y468D01*
X2964Y468D01*
X2965Y468D01*
X2966Y468D01*
X2967Y468D01*
X2968Y468D01*
X2969Y468D01*
X2970Y468D01*
X2971Y468D01*
X2972Y468D01*
X2973Y468D01*
X2974Y468D01*
X2975Y468D01*
X2976Y468D01*
X2977Y468D01*
X2978Y468D01*
X2979Y468D01*
X2980Y468D01*
X2981Y468D01*
X2982Y468D01*
X2983Y468D01*
X2984Y468D01*
X2985Y468D01*
X2986Y468D01*
X2987Y468D01*
X2988Y468D01*
X2989Y468D01*
X2990Y468D01*
X2991Y468D01*
X2992Y468D01*
X2993Y468D01*
X2994Y468D01*
X2995Y468D01*
X2996Y468D01*
X2997Y468D01*
X2998Y468D01*
X2999Y468D01*
X3000Y468D01*
X3001Y468D01*
X3002Y468D01*
X3003Y468D01*
X3004Y468D01*
X3005Y468D01*
X3006Y468D01*
X3007Y468D01*
X3008Y468D01*
X3009Y468D01*
X3010Y468D01*
X3011Y468D01*
X3012Y468D01*
X3013Y468D01*
X3014Y468D01*
X3015Y468D01*
X3016Y468D01*
X3017Y468D01*
X3018Y468D01*
X3019Y468D01*
X3020Y468D01*
X3021Y468D01*
X3022Y468D01*
X3023Y468D01*
X3024Y468D01*
X3025Y468D01*
X3026Y468D01*
X3027Y468D01*
X3028Y468D01*
X3029Y468D01*
X3030Y468D01*
X3031Y468D01*
X3032Y468D01*
X3033Y468D01*
X3034Y468D01*
X3035Y468D01*
X3036Y468D01*
X3037Y468D01*
X3038Y468D01*
X3039Y468D01*
X3040Y468D01*
X3041Y468D01*
X3042Y468D01*
X3043Y468D01*
X3044Y468D01*
X3045Y468D01*
X3046Y468D01*
X3047Y468D01*
X3048Y468D01*
X3049Y468D01*
X3050Y468D01*
X3051Y468D01*
X3052Y468D01*
X3053Y468D01*
X3054Y468D01*
X3055Y468D01*
X3056Y468D01*
X3057Y468D01*
X3058Y468D01*
X3059Y468D01*
X3060Y468D01*
X3061Y468D01*
X3062Y468D01*
X3063Y468D01*
X3064Y468D01*
X3065Y468D01*
X3066Y468D01*
X3067Y468D01*
X3068Y468D01*
X3069Y468D01*
X3070Y468D01*
X3071Y468D01*
X3072Y468D01*
X3073Y468D01*
X3074Y468D01*
X3075Y468D01*
X3076Y468D01*
X3077Y468D01*
X3078Y468D01*
X3079Y468D01*
X3080Y468D01*
X3081Y468D01*
X3082Y468D01*
X3083Y468D01*
X3084Y468D01*
X3085Y468D01*
X3086Y468D01*
X3087Y468D01*
X3088Y468D01*
X3089Y468D01*
X3090Y468D01*
X3091Y468D01*
X3092Y468D01*
X3093Y468D01*
X3094Y468D01*
X3095Y468D01*
X3096Y468D01*
X3097Y468D01*
X3098Y468D01*
X3099Y468D01*
X3100Y468D01*
X3101Y468D01*
X3102Y468D01*
X3103Y468D01*
X3104Y468D01*
X3105Y468D01*
X3106Y468D01*
X3107Y468D01*
X3108Y468D01*
X3109Y468D01*
X3110Y468D01*
X3111Y468D01*
X3112Y468D01*
X3113Y468D01*
X3114Y468D01*
X3115Y468D01*
X3116Y468D01*
X3117Y468D01*
X3118Y468D01*
X3119Y468D01*
X3120Y468D01*
X3121Y468D01*
X3122Y468D01*
X3123Y468D01*
X3124Y468D01*
X3125Y468D01*
X3126Y468D01*
X3127Y468D01*
X3128Y468D01*
X3129Y468D01*
X3130Y468D01*
X3131Y468D01*
X3132Y468D01*
X3133Y468D01*
X3134Y468D01*
X3135Y468D01*
X3136Y468D01*
X3137Y468D01*
X3138Y468D01*
X3139Y468D01*
X3140Y468D01*
X3141Y468D01*
X3142Y468D01*
X3143Y468D01*
X3144Y468D01*
X3145Y468D01*
X3146Y468D01*
X3147Y468D01*
X3148Y468D01*
X3149Y468D01*
X3150Y468D01*
X3151Y468D01*
X3152Y468D01*
X3153Y468D01*
X3154Y468D01*
X3155Y468D01*
X3156Y468D01*
X3157Y468D01*
X3158Y468D01*
X3159Y468D01*
X3160Y468D01*
X3161Y468D01*
X3162Y468D01*
X3163Y468D01*
X3164Y468D01*
X3165Y468D01*
X3166Y468D01*
X3167Y468D01*
X3168Y468D01*
X3169Y468D01*
X3170Y468D01*
X3171Y468D01*
X3172Y468D01*
X3173Y468D01*
X3174Y468D01*
X3175Y468D01*
X3176Y468D01*
X3177Y468D01*
X3178Y468D01*
X3179Y468D01*
X3180Y468D01*
X3181Y468D01*
X3182Y468D01*
X3183Y468D01*
X3184Y468D01*
X3185Y468D01*
X3186Y468D01*
X3187Y468D01*
X3188Y468D01*
X3189Y468D01*
X3190Y468D01*
X3191Y468D01*
X3192Y468D01*
X3193Y468D01*
X3194Y468D01*
X3195Y468D01*
X3196Y468D01*
X3197Y468D01*
X3198Y468D01*
X3199Y468D01*
X3200Y468D01*
X3201Y468D01*
X3202Y468D01*
X3203Y468D01*
X3204Y468D01*
X3205Y468D01*
X3206Y468D01*
X3207Y468D01*
X3208Y468D01*
X3209Y468D01*
X3210Y468D01*
X3211Y468D01*
X3212Y468D01*
X3213Y468D01*
X3214Y468D01*
X3215Y468D01*
X3216Y468D01*
X3217Y468D01*
X3218Y468D01*
X3219Y468D01*
X3220Y468D01*
X3221Y468D01*
X3222Y468D01*
X3223Y468D01*
X3224Y468D01*
X3225Y468D01*
X3226Y468D01*
X3227Y468D01*
X3228Y468D01*
X3229Y468D01*
X3230Y468D01*
X3231Y468D01*
X3232Y468D01*
X3233Y468D01*
X3234Y468D01*
X3235Y468D01*
X3236Y468D01*
X3237Y468D01*
X3238Y468D01*
X3239Y468D01*
X3240Y468D01*
X3241Y468D01*
X3242Y468D01*
X3243Y468D01*
X3244Y468D01*
X3245Y468D01*
X3246Y468D01*
X3247Y468D01*
X3248Y468D01*
X3249Y468D01*
X3250Y468D01*
X3251Y468D01*
X3252Y468D01*
X3253Y468D01*
X3254Y468D01*
X3255Y468D01*
X3256Y468D01*
X3257Y468D01*
X3258Y468D01*
X3259Y468D01*
X3260Y468D01*
X3261Y468D01*
X3262Y468D01*
X3263Y468D01*
X3264Y468D01*
X3265Y468D01*
X3266Y468D01*
X3267Y468D01*
X3268Y468D01*
X3269Y468D01*
X3270Y468D01*
X3271Y468D01*
X3272Y468D01*
X3273Y468D01*
X3274Y468D01*
X3275Y468D01*
X3276Y468D01*
X3277Y468D01*
X3278Y468D01*
X3279Y468D01*
X3280Y468D01*
X3281Y468D01*
X3282Y468D01*
X3283Y468D01*
X3284Y468D01*
X3285Y468D01*
X3286Y468D01*
X3287Y468D01*
X3288Y468D01*
X3289Y468D01*
X3290Y468D01*
X3291Y468D01*
X3292Y468D01*
X3293Y468D01*
X3294Y468D01*
X3295Y468D01*
X3296Y468D01*
X3297Y468D01*
X3298Y468D01*
X3299Y468D01*
X3300Y468D01*
X3301Y468D01*
X3302Y468D01*
X3303Y468D01*
X3304Y468D01*
X3305Y468D01*
X3306Y468D01*
X3307Y468D01*
X3308Y468D01*
X3309Y468D01*
X3310Y468D01*
X3311Y468D01*
X3312Y468D01*
X3313Y468D01*
X3314Y468D01*
X3315Y468D01*
X3316Y468D01*
X3317Y468D01*
X3318Y468D01*
X3319Y468D01*
X3320Y468D01*
X3321Y468D01*
X3322Y468D01*
X3323Y468D01*
X3324Y468D01*
X3325Y468D01*
X3326Y468D01*
X3327Y468D01*
X3328Y468D01*
X3329Y468D01*
X3330Y468D01*
X3331Y468D01*
X3332Y468D01*
X3333Y468D01*
X3334Y468D01*
X3335Y468D01*
X3336Y468D01*
X3337Y468D01*
X3338Y468D01*
X3339Y468D01*
X3340Y468D01*
X3341Y468D01*
X3342Y468D01*
X3343Y468D01*
X3344Y468D01*
X3345Y468D01*
X3346Y468D01*
X3347Y468D01*
X3348Y468D01*
X3349Y468D01*
X3350Y468D01*
X3351Y468D01*
X3352Y468D01*
X3353Y468D01*
X3354Y468D01*
X3355Y468D01*
X3356Y468D01*
X3357Y468D01*
X3358Y468D01*
X3359Y468D01*
X3360Y468D01*
X3361Y468D01*
X3362Y468D01*
X3363Y468D01*
X3364Y468D01*
X3365Y468D01*
X3366Y468D01*
X3367Y468D01*
X3368Y468D01*
X3369Y468D01*
X3370Y468D01*
X3371Y468D01*
X3372Y468D01*
X3373Y468D01*
X3374Y468D01*
X3375Y468D01*
X3376Y468D01*
X3377Y468D01*
X3378Y468D01*
X3379Y468D01*
X3380Y468D01*
X3381Y468D01*
X3382Y468D01*
X3383Y468D01*
X3384Y468D01*
X3385Y468D01*
X3386Y468D01*
X3387Y468D01*
X3388Y468D01*
X3389Y468D01*
X3390Y468D01*
X3391Y468D01*
X3392Y468D01*
X3393Y468D01*
X3394Y468D01*
X3395Y468D01*
X3396Y468D01*
X3397Y468D01*
X3398Y468D01*
X3399Y468D01*
X3400Y468D01*
X3401Y468D01*
X3402Y468D01*
X3403Y468D01*
X3404Y468D01*
X3405Y468D01*
X3406Y468D01*
X3407Y468D01*
X3408Y468D01*
X3409Y468D01*
X3410Y468D01*
X3411Y468D01*
X3412Y468D01*
X3413Y468D01*
X3414Y468D01*
X3415Y468D01*
X3416Y468D01*
X3417Y468D01*
X3418Y468D01*
X3419Y468D01*
X3420Y468D01*
X3421Y468D01*
X3422Y468D01*
X3423Y468D01*
X3424Y468D01*
X3425Y468D01*
X3426Y468D01*
X3427Y468D01*
X3428Y468D01*
X3429Y468D01*
X3430Y468D01*
X3431Y468D01*
X3432Y468D01*
X3433Y468D01*
X3434Y468D01*
X3435Y468D01*
X3436Y468D01*
X3437Y468D01*
X3438Y468D01*
X3439Y468D01*
X3440Y468D01*
X3441Y468D01*
X3442Y468D01*
X3443Y468D01*
X3444Y468D01*
X3445Y468D01*
X3446Y468D01*
X3447Y468D01*
X3448Y468D01*
X3449Y468D01*
X3450Y468D01*
X3451Y468D01*
X3452Y468D01*
X3453Y468D01*
X3454Y468D01*
X3455Y468D01*
X3456Y468D01*
X3457Y468D01*
X3458Y468D01*
X3459Y468D01*
X3460Y468D01*
X3461Y468D01*
X3462Y468D01*
X3463Y468D01*
X3464Y468D01*
X3465Y468D01*
X3466Y468D01*
X3467Y468D01*
X3468Y468D01*
X3469Y468D01*
X3470Y468D01*
X3471Y468D01*
X3472Y468D01*
X3473Y468D01*
X3474Y468D01*
X3475Y468D01*
X3476Y468D01*
X3477Y468D01*
X3478Y468D01*
X3479Y468D01*
X3480Y468D01*
X3481Y468D01*
X3482Y468D01*
X3483Y468D01*
X3484Y468D01*
X3485Y468D01*
X3486Y468D01*
X3487Y468D01*
X3488Y468D01*
X3489Y468D01*
X3490Y468D01*
X3491Y468D01*
X3492Y468D01*
X3493Y468D01*
X3494Y468D01*
X3495Y468D01*
X3496Y468D01*
X3497Y468D01*
X3498Y468D01*
X3499Y468D01*
X3500Y468D01*
X3501Y468D01*
X3502Y468D01*
X3503Y468D01*
X3504Y468D01*
X3505Y468D01*
X3506Y468D01*
X3507Y468D01*
X3508Y468D01*
X3509Y468D01*
X3510Y468D01*
X3511Y468D01*
X3512Y468D01*
X3513Y468D01*
X3514Y468D01*
X3515Y468D01*
X3516Y468D01*
X3517Y468D01*
X3518Y468D01*
X3519Y468D01*
X3520Y468D01*
X3521Y468D01*
X3522Y468D01*
X3523Y468D01*
X3524Y468D01*
X3525Y468D01*
X3526Y468D01*
X3527Y468D01*
X3528Y468D01*
X3529Y468D01*
X3530Y468D01*
X3531Y468D01*
X3532Y468D01*
X3533Y468D01*
X3534Y468D01*
X3535Y468D01*
X3536Y468D01*
X3537Y468D01*
X3538Y468D01*
X3539Y468D01*
X3540Y468D01*
X3541Y468D01*
X3542Y468D01*
X3543Y468D01*
X3544Y468D01*
X3545Y468D01*
X3546Y468D01*
X3547Y468D01*
X3548Y468D01*
X3549Y468D01*
X3550Y468D01*
X3551Y468D01*
X3552Y468D01*
X3553Y468D01*
X3554Y468D01*
X3555Y468D01*
X3556Y468D01*
X3557Y468D01*
X3558Y468D01*
X3559Y468D01*
X3560Y468D01*
X3561Y468D01*
X3562Y468D01*
X3563Y468D01*
X3564Y468D01*
X3565Y468D01*
X3566Y468D01*
X3567Y468D01*
X3568Y468D01*
X3569Y468D01*
X3570Y468D01*
X3571Y468D01*
X3572Y468D01*
X3573Y468D01*
X3574Y468D01*
X3575Y468D01*
X3576Y468D01*
X3577Y468D01*
X3578Y468D01*
X3579Y468D01*
X3580Y468D01*
X3581Y468D01*
X3582Y468D01*
X3583Y468D01*
X3584Y468D01*
X3585Y468D01*
X3586Y468D01*
X3587Y468D01*
X3588Y468D01*
X3589Y468D01*
X3590Y468D01*
X3591Y468D01*
X3592Y468D01*
X3593Y468D01*
X3594Y468D01*
X3595Y468D01*
X3596Y468D01*
X3597Y468D01*
X3598Y468D01*
X3599Y468D01*
X3600Y468D01*
X3601Y468D01*
X3602Y468D01*
X3603Y468D01*
X3604Y468D01*
X3605Y468D01*
X3606Y468D01*
X3607Y468D01*
X3608Y468D01*
X3609Y468D01*
X3610Y468D01*
X3611Y468D01*
X3612Y468D01*
X3613Y468D01*
X3614Y468D01*
X3615Y468D01*
X3616Y468D01*
X3617Y468D01*
X3618Y468D01*
X3619Y468D01*
X3620Y468D01*
X3621Y468D01*
X3622Y468D01*
X3623Y468D01*
X3624Y468D01*
X3625Y468D01*
X3626Y468D01*
X3627Y468D01*
X3628Y468D01*
X3629Y468D01*
X3630Y468D01*
X3631Y468D01*
X3632Y468D01*
X3633Y468D01*
X3634Y468D01*
X3635Y468D01*
X3636Y468D01*
X3637Y468D01*
X3638Y468D01*
X3639Y468D01*
X3640Y468D01*
X3641Y468D01*
X3642Y468D01*
X3643Y468D01*
X3644Y468D01*
X3645Y468D01*
X3646Y468D01*
X3647Y468D01*
X3648Y468D01*
X3649Y468D01*
X3650Y468D01*
X3651Y468D01*
X3652Y468D01*
X3653Y468D01*
X3654Y468D01*
X3655Y468D01*
X3656Y468D01*
X3657Y468D01*
X3658Y468D01*
X3659Y468D01*
X3660Y468D01*
X3661Y468D01*
X3662Y468D01*
X3663Y468D01*
X3664Y468D01*
X3665Y468D01*
X3666Y468D01*
X3667Y468D01*
X3668Y468D01*
X3669Y468D01*
X3670Y468D01*
X3671Y468D01*
X3672Y468D01*
X3673Y468D01*
X3674Y468D01*
X3675Y468D01*
X3676Y468D01*
X3677Y468D01*
X3678Y468D01*
X3679Y468D01*
X3680Y468D01*
X3681Y468D01*
X3682Y468D01*
X3683Y468D01*
X3684Y468D01*
X3685Y468D01*
X3686Y468D01*
X3687Y468D01*
X3688Y468D01*
X3689Y468D01*
X3690Y468D01*
X3691Y468D01*
X3692Y468D01*
X3693Y468D01*
X3694Y468D01*
X3695Y468D01*
X3696Y468D01*
X3697Y468D01*
X3698Y468D01*
X3699Y468D01*
X3700Y468D01*
X3701Y468D01*
X3702Y468D01*
X3703Y468D01*
X3704Y468D01*
X3705Y468D01*
X3706Y468D01*
X3707Y468D01*
X3708Y468D01*
X3709Y468D01*
X3710Y468D01*
X3711Y468D01*
X3712Y468D01*
X3713Y468D01*
X3714Y468D01*
X3715Y468D01*
X3716Y468D01*
X3717Y468D01*
X3718Y468D01*
X3719Y468D01*
X3720Y468D01*
X3721Y468D01*
X3722Y468D01*
X3723Y468D01*
X3724Y468D01*
X3725Y468D01*
X3726Y468D01*
X3727Y468D01*
X3728Y468D01*
X3729Y468D01*
X3730Y468D01*
X3731Y468D01*
X3732Y468D01*
X3733Y468D01*
X3734Y468D01*
X3735Y468D01*
X3736Y468D01*
X3737Y468D01*
X3738Y468D01*
X3739Y468D01*
X3740Y468D01*
X3741Y468D01*
X3742Y468D01*
X3743Y468D01*
X3744Y468D01*
X3745Y468D01*
X3746Y468D01*
X3747Y468D01*
X3748Y468D01*
X3749Y468D01*
X3750Y468D01*
X3751Y468D01*
X3752Y468D01*
X3753Y468D01*
X3754Y468D01*
X3755Y468D01*
X3756Y468D01*
X3757Y468D01*
X3758Y468D01*
X3759Y468D01*
X3760Y468D01*
X3761Y468D01*
X3762Y468D01*
X3763Y468D01*
X3764Y468D01*
X3765Y468D01*
X3766Y468D01*
X3767Y468D01*
X3768Y468D01*
X3769Y468D01*
X3770Y468D01*
X3771Y468D01*
X3772Y468D01*
X3773Y468D01*
X3774Y468D01*
X3775Y468D01*
X3776Y468D01*
X3777Y468D01*
X3778Y468D01*
X3779Y468D01*
X3780Y468D01*
X3781Y468D01*
X3782Y468D01*
X3783Y468D01*
X3784Y468D01*
X3785Y468D01*
X3786Y468D01*
X3787Y468D01*
X3788Y468D01*
X3789Y468D01*
X3790Y468D01*
X3791Y468D01*
X3792Y468D01*
X3793Y468D01*
X3794Y468D01*
X3795Y468D01*
X3796Y468D01*
X3797Y468D01*
X3798Y468D01*
X3799Y468D01*
X3800Y468D01*
X3801Y468D01*
X3802Y468D01*
X3802Y2671D01*
X3801Y2671D01*
X3800Y2671D01*
X3799Y2671D01*
X3798Y2671D01*
X3797Y2671D01*
X3796Y2671D01*
X3795Y2671D01*
X3794Y2671D01*
X3793Y2671D01*
X3792Y2671D01*
X3791Y2671D01*
X3790Y2671D01*
X3789Y2671D01*
X3788Y2671D01*
X3787Y2671D01*
X3786Y2671D01*
X3785Y2671D01*
X3784Y2671D01*
X3783Y2671D01*
X3782Y2671D01*
X3781Y2671D01*
X3780Y2671D01*
X3779Y2671D01*
X3778Y2671D01*
X3777Y2671D01*
X3776Y2671D01*
X3775Y2671D01*
X3774Y2671D01*
X3773Y2671D01*
X3772Y2671D01*
X3771Y2671D01*
X3770Y2671D01*
X3769Y2671D01*
X3768Y2671D01*
X3767Y2671D01*
X3766Y2671D01*
X3765Y2671D01*
X3764Y2671D01*
X3763Y2671D01*
X3762Y2671D01*
X3761Y2671D01*
X3760Y2671D01*
X3759Y2671D01*
X3758Y2671D01*
X3757Y2671D01*
X3756Y2671D01*
X3755Y2671D01*
X3754Y2671D01*
X3753Y2671D01*
X3752Y2671D01*
X3751Y2671D01*
X3750Y2671D01*
X3749Y2671D01*
X3748Y2671D01*
X3747Y2671D01*
X3746Y2671D01*
X3745Y2671D01*
X3744Y2671D01*
X3743Y2671D01*
X3742Y2671D01*
X3741Y2671D01*
X3740Y2671D01*
X3739Y2671D01*
X3738Y2671D01*
X3737Y2671D01*
X3736Y2671D01*
X3735Y2671D01*
X3734Y2671D01*
X3733Y2671D01*
X3732Y2671D01*
X3731Y2671D01*
X3730Y2671D01*
X3729Y2671D01*
X3728Y2671D01*
X3727Y2671D01*
X3726Y2671D01*
X3725Y2671D01*
X3724Y2671D01*
X3723Y2671D01*
X3722Y2671D01*
X3721Y2671D01*
X3720Y2671D01*
X3719Y2671D01*
X3718Y2671D01*
X3717Y2671D01*
X3716Y2671D01*
X3715Y2671D01*
X3714Y2671D01*
X3713Y2671D01*
X3712Y2671D01*
X3711Y2671D01*
X3710Y2671D01*
X3709Y2671D01*
X3708Y2671D01*
X3707Y2671D01*
X3706Y2671D01*
X3705Y2671D01*
X3704Y2671D01*
X3703Y2671D01*
X3702Y2671D01*
X3701Y2671D01*
X3700Y2671D01*
X3699Y2671D01*
X3698Y2671D01*
X3697Y2671D01*
X3696Y2671D01*
X3695Y2671D01*
X3694Y2671D01*
X3693Y2671D01*
X3692Y2671D01*
X3691Y2671D01*
X3690Y2671D01*
X3689Y2671D01*
X3688Y2671D01*
X3687Y2671D01*
X3686Y2671D01*
X3685Y2671D01*
X3684Y2671D01*
X3683Y2671D01*
X3682Y2671D01*
X3681Y2671D01*
X3680Y2671D01*
X3679Y2671D01*
X3678Y2671D01*
X3677Y2671D01*
X3676Y2671D01*
X3675Y2671D01*
X3674Y2671D01*
X3673Y2671D01*
X3672Y2671D01*
X3671Y2671D01*
X3670Y2671D01*
X3669Y2671D01*
X3668Y2671D01*
X3667Y2671D01*
X3666Y2671D01*
X3665Y2671D01*
X3664Y2671D01*
X3663Y2671D01*
X3662Y2671D01*
X3661Y2671D01*
X3660Y2671D01*
X3659Y2671D01*
X3658Y2671D01*
X3657Y2671D01*
X3656Y2671D01*
X3655Y2671D01*
X3654Y2671D01*
X3653Y2671D01*
X3652Y2671D01*
X3651Y2671D01*
X3650Y2671D01*
X3649Y2671D01*
X3648Y2671D01*
X3647Y2671D01*
X3646Y2671D01*
X3645Y2671D01*
X3644Y2671D01*
X3643Y2671D01*
X3642Y2671D01*
X3641Y2671D01*
X3640Y2671D01*
X3639Y2671D01*
X3638Y2671D01*
X3637Y2671D01*
X3636Y2671D01*
X3635Y2671D01*
X3634Y2671D01*
X3633Y2671D01*
X3632Y2671D01*
X3631Y2671D01*
X3630Y2671D01*
X3629Y2671D01*
X3628Y2671D01*
X3627Y2671D01*
X3626Y2671D01*
X3625Y2671D01*
X3624Y2671D01*
X3623Y2671D01*
X3622Y2671D01*
X3621Y2671D01*
X3620Y2671D01*
X3619Y2671D01*
X3618Y2671D01*
X3617Y2671D01*
X3616Y2671D01*
X3615Y2671D01*
X3614Y2671D01*
X3613Y2671D01*
X3612Y2671D01*
X3611Y2671D01*
X3610Y2671D01*
X3609Y2671D01*
X3608Y2671D01*
X3607Y2671D01*
X3606Y2671D01*
X3605Y2671D01*
X3604Y2671D01*
X3603Y2671D01*
X3602Y2671D01*
X3601Y2671D01*
X3600Y2671D01*
X3599Y2671D01*
X3598Y2671D01*
X3597Y2671D01*
X3596Y2671D01*
X3595Y2671D01*
X3594Y2671D01*
X3593Y2671D01*
X3592Y2671D01*
X3591Y2671D01*
X3590Y2671D01*
X3589Y2671D01*
X3588Y2671D01*
X3587Y2671D01*
X3586Y2671D01*
X3585Y2671D01*
X3584Y2671D01*
X3583Y2671D01*
X3582Y2671D01*
X3581Y2671D01*
X3580Y2671D01*
X3579Y2671D01*
X3578Y2671D01*
X3577Y2671D01*
X3576Y2671D01*
X3575Y2671D01*
X3574Y2671D01*
X3573Y2671D01*
X3572Y2671D01*
X3571Y2671D01*
X3570Y2671D01*
X3569Y2671D01*
X3568Y2671D01*
X3567Y2671D01*
X3566Y2671D01*
X3565Y2671D01*
X3564Y2671D01*
X3563Y2671D01*
X3562Y2671D01*
X3561Y2671D01*
X3560Y2671D01*
X3559Y2671D01*
X3558Y2671D01*
X3557Y2671D01*
X3556Y2671D01*
X3555Y2671D01*
X3554Y2671D01*
X3553Y2671D01*
X3552Y2671D01*
X3551Y2671D01*
X3550Y2671D01*
X3549Y2671D01*
X3548Y2671D01*
X3547Y2671D01*
X3546Y2671D01*
X3545Y2671D01*
X3544Y2671D01*
X3543Y2671D01*
X3542Y2671D01*
X3541Y2671D01*
X3540Y2671D01*
X3539Y2671D01*
X3538Y2671D01*
X3537Y2671D01*
X3536Y2671D01*
X3535Y2671D01*
X3534Y2671D01*
X3533Y2671D01*
X3532Y2671D01*
X3531Y2671D01*
X3530Y2671D01*
X3529Y2671D01*
X3528Y2671D01*
X3527Y2671D01*
X3526Y2671D01*
X3525Y2671D01*
X3524Y2671D01*
X3523Y2671D01*
X3522Y2671D01*
X3521Y2671D01*
X3520Y2671D01*
X3519Y2671D01*
X3518Y2671D01*
X3517Y2671D01*
X3516Y2671D01*
X3515Y2671D01*
X3514Y2671D01*
X3513Y2671D01*
X3512Y2671D01*
X3511Y2671D01*
X3510Y2671D01*
X3509Y2671D01*
X3508Y2671D01*
X3507Y2671D01*
X3506Y2671D01*
X3505Y2671D01*
X3504Y2671D01*
X3503Y2671D01*
X3502Y2671D01*
X3501Y2671D01*
X3500Y2671D01*
X3499Y2671D01*
X3498Y2671D01*
X3497Y2671D01*
X3496Y2671D01*
X3495Y2671D01*
X3494Y2671D01*
X3493Y2671D01*
X3492Y2671D01*
X3491Y2671D01*
X3490Y2671D01*
X3489Y2671D01*
X3488Y2671D01*
X3487Y2671D01*
X3486Y2671D01*
X3485Y2671D01*
X3484Y2671D01*
X3483Y2671D01*
X3482Y2671D01*
X3481Y2671D01*
X3480Y2671D01*
X3479Y2671D01*
X3478Y2671D01*
X3477Y2671D01*
X3476Y2671D01*
X3475Y2671D01*
X3474Y2671D01*
X3473Y2671D01*
X3472Y2671D01*
X3471Y2671D01*
X3470Y2671D01*
X3469Y2671D01*
X3468Y2671D01*
X3467Y2671D01*
X3466Y2671D01*
X3465Y2671D01*
X3464Y2671D01*
X3463Y2671D01*
X3462Y2671D01*
X3461Y2671D01*
X3460Y2671D01*
X3459Y2671D01*
X3458Y2671D01*
X3457Y2671D01*
X3456Y2671D01*
X3455Y2671D01*
X3454Y2671D01*
X3453Y2671D01*
X3452Y2671D01*
X3451Y2671D01*
X3450Y2671D01*
X3449Y2671D01*
X3448Y2671D01*
X3447Y2671D01*
X3446Y2671D01*
X3445Y2671D01*
X3444Y2671D01*
X3443Y2671D01*
X3442Y2671D01*
X3441Y2671D01*
X3440Y2671D01*
X3439Y2671D01*
X3438Y2671D01*
X3437Y2671D01*
X3436Y2671D01*
X3435Y2671D01*
X3434Y2671D01*
X3433Y2671D01*
X3432Y2671D01*
X3431Y2671D01*
X3430Y2671D01*
X3429Y2671D01*
X3428Y2671D01*
X3427Y2671D01*
X3426Y2671D01*
X3425Y2671D01*
X3424Y2671D01*
X3423Y2671D01*
X3422Y2671D01*
X3421Y2671D01*
X3420Y2671D01*
X3419Y2671D01*
X3418Y2671D01*
X3417Y2671D01*
X3416Y2671D01*
X3415Y2671D01*
X3414Y2671D01*
X3413Y2671D01*
X3412Y2671D01*
X3411Y2671D01*
X3410Y2671D01*
X3409Y2671D01*
X3408Y2671D01*
X3407Y2671D01*
X3406Y2671D01*
X3405Y2671D01*
X3404Y2671D01*
X3403Y2671D01*
X3402Y2671D01*
X3401Y2671D01*
X3400Y2671D01*
X3399Y2671D01*
X3398Y2671D01*
X3397Y2671D01*
X3396Y2671D01*
X3395Y2671D01*
X3394Y2671D01*
X3393Y2671D01*
X3392Y2671D01*
X3391Y2671D01*
X3390Y2671D01*
X3389Y2671D01*
X3388Y2671D01*
X3387Y2671D01*
X3386Y2671D01*
X3385Y2671D01*
X3384Y2671D01*
X3383Y2671D01*
X3382Y2671D01*
X3381Y2671D01*
X3380Y2671D01*
X3379Y2671D01*
X3378Y2671D01*
X3377Y2671D01*
X3376Y2671D01*
X3375Y2671D01*
X3374Y2671D01*
X3373Y2671D01*
X3372Y2671D01*
X3371Y2671D01*
X3370Y2671D01*
X3369Y2671D01*
X3368Y2671D01*
X3367Y2671D01*
X3366Y2671D01*
X3365Y2671D01*
X3364Y2671D01*
X3363Y2671D01*
X3362Y2671D01*
X3361Y2671D01*
X3360Y2671D01*
X3359Y2671D01*
X3358Y2671D01*
X3357Y2671D01*
X3356Y2671D01*
X3355Y2671D01*
X3354Y2671D01*
X3353Y2671D01*
X3352Y2671D01*
X3351Y2671D01*
X3350Y2671D01*
X3349Y2671D01*
X3348Y2671D01*
X3347Y2671D01*
X3346Y2671D01*
X3345Y2671D01*
X3344Y2671D01*
X3343Y2671D01*
X3342Y2671D01*
X3341Y2671D01*
X3340Y2671D01*
X3339Y2671D01*
X3338Y2671D01*
X3337Y2671D01*
X3336Y2671D01*
X3335Y2671D01*
X3334Y2671D01*
X3333Y2671D01*
X3332Y2671D01*
X3331Y2671D01*
X3330Y2671D01*
X3329Y2671D01*
X3328Y2671D01*
X3327Y2671D01*
X3326Y2671D01*
X3325Y2671D01*
X3324Y2671D01*
X3323Y2671D01*
X3322Y2671D01*
X3321Y2671D01*
X3320Y2671D01*
X3319Y2671D01*
X3318Y2671D01*
X3317Y2671D01*
X3316Y2671D01*
X3315Y2671D01*
X3314Y2671D01*
X3313Y2671D01*
X3312Y2671D01*
X3311Y2671D01*
X3310Y2671D01*
X3309Y2671D01*
X3308Y2671D01*
X3307Y2671D01*
X3306Y2671D01*
X3305Y2671D01*
X3304Y2671D01*
X3303Y2671D01*
X3302Y2671D01*
X3301Y2671D01*
X3300Y2671D01*
X3299Y2671D01*
X3298Y2671D01*
X3297Y2671D01*
X3296Y2671D01*
X3295Y2671D01*
X3294Y2671D01*
X3293Y2671D01*
X3292Y2671D01*
X3291Y2671D01*
X3290Y2671D01*
X3289Y2671D01*
X3288Y2671D01*
X3287Y2671D01*
X3286Y2671D01*
X3285Y2671D01*
X3284Y2671D01*
X3283Y2671D01*
X3282Y2671D01*
X3281Y2671D01*
X3280Y2671D01*
X3279Y2671D01*
X3278Y2671D01*
X3277Y2671D01*
X3276Y2671D01*
X3275Y2671D01*
X3274Y2671D01*
X3273Y2671D01*
X3272Y2671D01*
X3271Y2671D01*
X3270Y2671D01*
X3269Y2671D01*
X3268Y2671D01*
X3267Y2671D01*
X3266Y2671D01*
X3265Y2671D01*
X3264Y2671D01*
X3263Y2671D01*
X3262Y2671D01*
X3261Y2671D01*
X3260Y2671D01*
X3259Y2671D01*
X3258Y2671D01*
X3257Y2671D01*
X3256Y2671D01*
X3255Y2671D01*
X3254Y2671D01*
X3253Y2671D01*
X3252Y2671D01*
X3251Y2671D01*
X3250Y2671D01*
X3249Y2671D01*
X3248Y2671D01*
X3247Y2671D01*
X3246Y2671D01*
X3245Y2671D01*
X3244Y2671D01*
X3243Y2671D01*
X3242Y2671D01*
X3241Y2671D01*
X3240Y2671D01*
X3239Y2671D01*
X3238Y2671D01*
X3237Y2671D01*
X3236Y2671D01*
X3235Y2671D01*
X3234Y2671D01*
X3233Y2671D01*
X3232Y2671D01*
X3231Y2671D01*
X3230Y2671D01*
X3229Y2671D01*
X3228Y2671D01*
X3227Y2671D01*
X3226Y2671D01*
X3225Y2671D01*
X3224Y2671D01*
X3223Y2671D01*
X3222Y2671D01*
X3221Y2671D01*
X3220Y2671D01*
X3219Y2671D01*
X3218Y2671D01*
X3217Y2671D01*
X3216Y2671D01*
X3215Y2671D01*
X3214Y2671D01*
X3213Y2671D01*
X3212Y2671D01*
X3211Y2671D01*
X3210Y2671D01*
X3209Y2671D01*
X3208Y2671D01*
X3207Y2671D01*
X3206Y2671D01*
X3205Y2671D01*
X3204Y2671D01*
X3203Y2671D01*
X3202Y2671D01*
X3201Y2671D01*
X3200Y2671D01*
X3199Y2671D01*
X3198Y2671D01*
X3197Y2671D01*
X3196Y2671D01*
X3195Y2671D01*
X3194Y2671D01*
X3193Y2671D01*
X3192Y2671D01*
X3191Y2671D01*
X3190Y2671D01*
X3189Y2671D01*
X3188Y2671D01*
X3187Y2671D01*
X3186Y2671D01*
X3185Y2671D01*
X3184Y2671D01*
X3183Y2671D01*
X3182Y2671D01*
X3181Y2671D01*
X3180Y2671D01*
X3179Y2671D01*
X3178Y2671D01*
X3177Y2671D01*
X3176Y2671D01*
X3175Y2671D01*
X3174Y2671D01*
X3173Y2671D01*
X3172Y2671D01*
X3171Y2671D01*
X3170Y2671D01*
X3169Y2671D01*
X3168Y2671D01*
X3167Y2671D01*
X3166Y2671D01*
X3165Y2671D01*
X3164Y2671D01*
X3163Y2671D01*
X3162Y2671D01*
X3161Y2671D01*
X3160Y2671D01*
X3159Y2671D01*
X3158Y2671D01*
X3157Y2671D01*
X3156Y2671D01*
X3155Y2671D01*
X3154Y2671D01*
X3153Y2671D01*
X3152Y2671D01*
X3151Y2671D01*
X3150Y2671D01*
X3149Y2671D01*
X3148Y2671D01*
X3147Y2671D01*
X3146Y2671D01*
X3145Y2671D01*
X3144Y2671D01*
X3143Y2671D01*
X3142Y2671D01*
X3141Y2671D01*
X3140Y2671D01*
X3139Y2671D01*
X3138Y2671D01*
X3137Y2671D01*
X3136Y2671D01*
X3135Y2671D01*
X3134Y2671D01*
X3133Y2671D01*
X3132Y2671D01*
X3131Y2671D01*
X3130Y2671D01*
X3129Y2671D01*
X3128Y2671D01*
X3127Y2671D01*
X3126Y2671D01*
X3125Y2671D01*
X3124Y2671D01*
X3123Y2671D01*
X3122Y2671D01*
X3121Y2671D01*
X3120Y2671D01*
X3119Y2671D01*
X3118Y2671D01*
X3117Y2671D01*
X3116Y2671D01*
X3115Y2671D01*
X3114Y2671D01*
X3113Y2671D01*
X3112Y2671D01*
X3111Y2671D01*
X3110Y2671D01*
X3109Y2671D01*
X3108Y2671D01*
X3107Y2671D01*
X3106Y2671D01*
X3105Y2671D01*
X3104Y2671D01*
X3103Y2671D01*
X3102Y2671D01*
X3101Y2671D01*
X3100Y2671D01*
X3099Y2671D01*
X3098Y2671D01*
X3097Y2671D01*
X3096Y2671D01*
X3095Y2671D01*
X3094Y2671D01*
X3093Y2671D01*
X3092Y2671D01*
X3091Y2671D01*
X3090Y2671D01*
X3089Y2671D01*
X3088Y2671D01*
X3087Y2671D01*
X3086Y2671D01*
X3085Y2671D01*
X3084Y2671D01*
X3083Y2671D01*
X3082Y2671D01*
X3081Y2671D01*
X3080Y2671D01*
X3079Y2671D01*
X3078Y2671D01*
X3077Y2671D01*
X3076Y2671D01*
X3075Y2671D01*
X3074Y2671D01*
X3073Y2671D01*
X3072Y2671D01*
X3071Y2671D01*
X3070Y2671D01*
X3069Y2671D01*
X3068Y2671D01*
X3067Y2671D01*
X3066Y2671D01*
X3065Y2671D01*
X3064Y2671D01*
X3063Y2671D01*
X3062Y2671D01*
X3061Y2671D01*
X3060Y2671D01*
X3059Y2671D01*
X3058Y2671D01*
X3057Y2671D01*
X3056Y2671D01*
X3055Y2671D01*
X3054Y2671D01*
X3053Y2671D01*
X3052Y2671D01*
X3051Y2671D01*
X3050Y2671D01*
X3049Y2671D01*
X3048Y2671D01*
X3047Y2671D01*
X3046Y2671D01*
X3045Y2671D01*
X3044Y2671D01*
X3043Y2671D01*
X3042Y2671D01*
X3041Y2671D01*
X3040Y2671D01*
X3039Y2671D01*
X3038Y2671D01*
X3037Y2671D01*
X3036Y2671D01*
X3035Y2671D01*
X3034Y2671D01*
X3033Y2671D01*
X3032Y2671D01*
X3031Y2671D01*
X3030Y2671D01*
X3029Y2671D01*
X3028Y2671D01*
X3027Y2671D01*
X3026Y2671D01*
X3025Y2671D01*
X3024Y2671D01*
X3023Y2671D01*
X3022Y2671D01*
X3021Y2671D01*
X3020Y2671D01*
X3019Y2671D01*
X3018Y2671D01*
X3017Y2671D01*
X3016Y2671D01*
X3015Y2671D01*
X3014Y2671D01*
X3013Y2671D01*
X3012Y2671D01*
X3011Y2671D01*
X3010Y2671D01*
X3009Y2671D01*
X3008Y2671D01*
X3007Y2671D01*
X3006Y2671D01*
X3005Y2671D01*
X3004Y2671D01*
X3003Y2671D01*
X3002Y2671D01*
X3001Y2671D01*
X3000Y2671D01*
X2999Y2671D01*
X2998Y2671D01*
X2997Y2671D01*
X2996Y2671D01*
X2995Y2671D01*
X2994Y2671D01*
X2993Y2671D01*
X2992Y2671D01*
X2991Y2671D01*
X2990Y2671D01*
X2989Y2671D01*
X2988Y2671D01*
X2987Y2671D01*
X2986Y2671D01*
X2985Y2671D01*
X2984Y2671D01*
X2983Y2671D01*
X2982Y2671D01*
X2981Y2671D01*
X2980Y2671D01*
X2979Y2671D01*
X2978Y2671D01*
X2977Y2671D01*
X2976Y2671D01*
X2975Y2671D01*
X2974Y2671D01*
X2973Y2671D01*
X2972Y2671D01*
X2971Y2671D01*
X2970Y2671D01*
X2969Y2671D01*
X2968Y2671D01*
X2967Y2671D01*
X2966Y2671D01*
X2965Y2671D01*
X2964Y2671D01*
X2963Y2671D01*
X2962Y2671D01*
X2961Y2671D01*
X2960Y2671D01*
X2959Y2671D01*
X2958Y2671D01*
X2957Y2671D01*
X2956Y2671D01*
X2955Y2671D01*
X2954Y2671D01*
X2953Y2671D01*
X2952Y2671D01*
X2951Y2671D01*
X2950Y2671D01*
X2949Y2671D01*
X2948Y2671D01*
X2947Y2671D01*
X2946Y2671D01*
X2945Y2671D01*
X2944Y2671D01*
X2943Y2671D01*
X2942Y2671D01*
X2941Y2671D01*
X2940Y2671D01*
X2939Y2671D01*
X2938Y2671D01*
X2937Y2671D01*
X2936Y2671D01*
X2935Y2671D01*
X2934Y2671D01*
X2933Y2671D01*
X2932Y2671D01*
X2931Y2671D01*
X2930Y2671D01*
X2929Y2671D01*
X2928Y2671D01*
X2927Y2671D01*
X2926Y2671D01*
X2925Y2671D01*
X2924Y2671D01*
X2923Y2671D01*
X2922Y2671D01*
X2921Y2671D01*
X2920Y2671D01*
X2919Y2671D01*
X2918Y2671D01*
X2917Y2671D01*
X2916Y2671D01*
X2915Y2671D01*
X2914Y2671D01*
X2913Y2671D01*
X2912Y2671D01*
X2911Y2671D01*
X2910Y2671D01*
X2909Y2671D01*
X2908Y2671D01*
X2907Y2671D01*
X2906Y2671D01*
X2905Y2671D01*
X2904Y2671D01*
X2903Y2671D01*
X2902Y2671D01*
X2901Y2671D01*
X2900Y2671D01*
X2899Y2671D01*
X2898Y2671D01*
X2897Y2671D01*
X2896Y2671D01*
X2895Y2671D01*
X2894Y2671D01*
X2893Y2671D01*
X2892Y2671D01*
X2891Y2671D01*
X2890Y2671D01*
X2889Y2671D01*
X2888Y2671D01*
X2887Y2671D01*
X2886Y2671D01*
X2885Y2671D01*
X2884Y2671D01*
X2883Y2671D01*
X2882Y2671D01*
X2881Y2671D01*
X2880Y2671D01*
X2879Y2671D01*
X2878Y2671D01*
X2877Y2671D01*
X2876Y2671D01*
X2875Y2671D01*
X2874Y2671D01*
X2873Y2671D01*
X2872Y2671D01*
X2871Y2671D01*
X2870Y2671D01*
X2869Y2671D01*
X2868Y2671D01*
X2867Y2671D01*
X2866Y2671D01*
X2865Y2671D01*
X2864Y2671D01*
X2863Y2671D01*
X2862Y2671D01*
X2861Y2671D01*
X2860Y2671D01*
X2859Y2671D01*
X2858Y2671D01*
X2857Y2671D01*
X2856Y2671D01*
X2855Y2671D01*
X2854Y2671D01*
X2853Y2671D01*
X2852Y2671D01*
X2851Y2671D01*
X2850Y2671D01*
X2849Y2671D01*
X2848Y2671D01*
X2847Y2671D01*
X2846Y2671D01*
X2845Y2671D01*
X2844Y2671D01*
X2843Y2671D01*
X2842Y2671D01*
X2841Y2671D01*
X2840Y2671D01*
X2839Y2671D01*
X2838Y2671D01*
X2837Y2671D01*
X2836Y2671D01*
X2835Y2671D01*
X2834Y2671D01*
X2833Y2671D01*
X2832Y2671D01*
X2831Y2671D01*
X2830Y2671D01*
X2829Y2671D01*
X2828Y2671D01*
X2827Y2671D01*
X2826Y2671D01*
X2825Y2671D01*
X2824Y2671D01*
X2823Y2671D01*
X2822Y2671D01*
X2821Y2671D01*
X2820Y2671D01*
X2819Y2671D01*
X2818Y2671D01*
X2817Y2671D01*
X2816Y2671D01*
X2815Y2671D01*
X2814Y2671D01*
X2813Y2671D01*
X2812Y2671D01*
X2811Y2671D01*
X2810Y2671D01*
X2809Y2671D01*
X2808Y2671D01*
X2807Y2671D01*
X2806Y2671D01*
X2805Y2671D01*
X2804Y2671D01*
X2803Y2671D01*
X2802Y2671D01*
X2801Y2671D01*
X2800Y2671D01*
X2799Y2671D01*
X2798Y2671D01*
X2797Y2671D01*
X2796Y2671D01*
X2795Y2671D01*
X2794Y2671D01*
X2793Y2671D01*
X2792Y2671D01*
X2791Y2671D01*
X2790Y2671D01*
X2789Y2671D01*
X2788Y2671D01*
X2787Y2671D01*
X2786Y2671D01*
X2785Y2671D01*
X2784Y2671D01*
X2783Y2671D01*
X2782Y2671D01*
X2781Y2671D01*
X2780Y2671D01*
X2779Y2671D01*
X2778Y2671D01*
X2777Y2671D01*
X2776Y2671D01*
X2775Y2671D01*
X2774Y2671D01*
X2773Y2671D01*
X2772Y2671D01*
X2771Y2671D01*
X2770Y2671D01*
X2769Y2671D01*
X2768Y2671D01*
X2767Y2671D01*
X2766Y2671D01*
X2765Y2671D01*
X2764Y2671D01*
X2763Y2671D01*
X2762Y2671D01*
X2761Y2671D01*
X2760Y2671D01*
X2759Y2671D01*
X2758Y2671D01*
X2757Y2671D01*
X2756Y2671D01*
X2755Y2671D01*
X2754Y2671D01*
X2753Y2671D01*
X2752Y2671D01*
X2751Y2671D01*
X2750Y2671D01*
X2749Y2671D01*
X2748Y2671D01*
X2747Y2671D01*
X2746Y2671D01*
X2745Y2671D01*
X2744Y2671D01*
X2743Y2671D01*
X2742Y2671D01*
X2741Y2671D01*
X2740Y2671D01*
X2739Y2671D01*
X2738Y2671D01*
X2737Y2671D01*
X2736Y2671D01*
X2735Y2671D01*
X2734Y2671D01*
X2733Y2671D01*
X2732Y2671D01*
X2731Y2671D01*
X2730Y2671D01*
X2729Y2671D01*
X2728Y2671D01*
X2727Y2671D01*
X2726Y2671D01*
X2725Y2671D01*
X2724Y2671D01*
X2723Y2671D01*
X2722Y2671D01*
X2721Y2671D01*
X2720Y2671D01*
X2719Y2671D01*
X2718Y2671D01*
X2717Y2671D01*
X2716Y2671D01*
X2715Y2671D01*
X2714Y2671D01*
X2713Y2671D01*
X2712Y2671D01*
X2711Y2671D01*
X2710Y2671D01*
X2709Y2671D01*
X2708Y2671D01*
X2707Y2671D01*
X2706Y2671D01*
X2705Y2671D01*
X2704Y2671D01*
X2703Y2671D01*
X2702Y2671D01*
X2701Y2671D01*
X2700Y2671D01*
X2699Y2671D01*
X2698Y2671D01*
X2697Y2671D01*
X2696Y2671D01*
X2695Y2671D01*
X2694Y2671D01*
X2693Y2671D01*
X2692Y2671D01*
X2691Y2671D01*
X2690Y2671D01*
X2689Y2671D01*
X2688Y2671D01*
X2687Y2671D01*
X2686Y2671D01*
X2685Y2671D01*
X2684Y2671D01*
X2683Y2671D01*
X2682Y2671D01*
X2681Y2671D01*
X2680Y2671D01*
X2679Y2671D01*
X2678Y2671D01*
X2677Y2671D01*
X2676Y2671D01*
X2675Y2671D01*
X2674Y2671D01*
X2673Y2671D01*
X2672Y2671D01*
X2671Y2671D01*
X2670Y2671D01*
X2669Y2671D01*
X2668Y2671D01*
X2667Y2671D01*
X2666Y2671D01*
X2665Y2671D01*
X2664Y2671D01*
X2663Y2671D01*
X2662Y2671D01*
X2661Y2671D01*
X2660Y2671D01*
X2659Y2671D01*
X2658Y2671D01*
X2657Y2671D01*
X2656Y2671D01*
X2655Y2671D01*
X2654Y2671D01*
X2653Y2671D01*
X2652Y2671D01*
X2651Y2671D01*
X2650Y2671D01*
X2649Y2671D01*
X2648Y2671D01*
X2647Y2671D01*
X2646Y2671D01*
X2645Y2671D01*
X2644Y2671D01*
X2643Y2671D01*
X2642Y2671D01*
X2641Y2671D01*
X2640Y2671D01*
X2639Y2671D01*
X2638Y2671D01*
X2637Y2671D01*
X2636Y2671D01*
X2635Y2671D01*
X2634Y2671D01*
X2633Y2671D01*
X2632Y2671D01*
X2631Y2671D01*
X2630Y2671D01*
X2629Y2671D01*
X2628Y2671D01*
X2627Y2671D01*
X2626Y2671D01*
X2625Y2671D01*
X2624Y2671D01*
X2623Y2671D01*
X2622Y2671D01*
X2621Y2671D01*
X2620Y2671D01*
X2619Y2671D01*
X2618Y2671D01*
X2617Y2671D01*
X2616Y2671D01*
X2615Y2671D01*
X2614Y2671D01*
X2613Y2671D01*
X2612Y2671D01*
X2611Y2671D01*
X2610Y2671D01*
X2609Y2671D01*
X2608Y2671D01*
X2607Y2671D01*
X2606Y2671D01*
X2605Y2671D01*
X2604Y2671D01*
X2603Y2671D01*
X2602Y2671D01*
X2601Y2671D01*
X2600Y2671D01*
X2599Y2671D01*
X2598Y2671D01*
X2597Y2671D01*
X2596Y2671D01*
X2595Y2671D01*
X2594Y2671D01*
X2593Y2671D01*
X2592Y2671D01*
X2591Y2671D01*
X2590Y2671D01*
X2589Y2671D01*
X2588Y2671D01*
X2587Y2671D01*
X2586Y2671D01*
X2585Y2671D01*
X2584Y2671D01*
X2583Y2671D01*
X2582Y2671D01*
X2581Y2671D01*
X2580Y2671D01*
X2579Y2671D01*
X2578Y2671D01*
X2577Y2671D01*
X2576Y2671D01*
X2575Y2671D01*
X2574Y2671D01*
X2573Y2671D01*
X2572Y2671D01*
X2571Y2671D01*
X2570Y2671D01*
X2569Y2671D01*
X2568Y2671D01*
X2567Y2671D01*
X2566Y2671D01*
X2565Y2671D01*
X2564Y2671D01*
X2563Y2671D01*
X2562Y2671D01*
X2561Y2671D01*
X2560Y2671D01*
X2559Y2671D01*
X2558Y2671D01*
X2557Y2671D01*
X2556Y2671D01*
X2555Y2671D01*
X2554Y2671D01*
X2553Y2671D01*
X2552Y2671D01*
X2551Y2671D01*
X2550Y2671D01*
X2549Y2671D01*
X2548Y2671D01*
X2547Y2671D01*
X2546Y2671D01*
X2545Y2671D01*
X2544Y2671D01*
X2543Y2671D01*
X2542Y2671D01*
X2541Y2671D01*
X2540Y2671D01*
X2539Y2671D01*
X2538Y2671D01*
X2537Y2671D01*
X2536Y2671D01*
X2535Y2671D01*
X2534Y2671D01*
X2533Y2671D01*
X2532Y2671D01*
X2531Y2671D01*
X2530Y2671D01*
X2529Y2671D01*
X2528Y2671D01*
X2527Y2671D01*
X2526Y2671D01*
X2525Y2671D01*
X2524Y2671D01*
X2523Y2671D01*
X2522Y2671D01*
X2521Y2671D01*
X2520Y2671D01*
X2519Y2671D01*
X2518Y2671D01*
X2517Y2671D01*
X2516Y2671D01*
X2515Y2671D01*
X2514Y2671D01*
X2513Y2671D01*
X2512Y2671D01*
X2511Y2671D01*
X2510Y2671D01*
X2509Y2671D01*
X2508Y2671D01*
X2507Y2671D01*
X2506Y2671D01*
X2505Y2671D01*
X2504Y2671D01*
X2503Y2671D01*
X2502Y2671D01*
X2501Y2671D01*
X2500Y2671D01*
X2499Y2671D01*
X2498Y2671D01*
X2497Y2671D01*
X2496Y2671D01*
X2495Y2671D01*
X2494Y2671D01*
X2493Y2671D01*
X2492Y2671D01*
X2491Y2671D01*
X2490Y2671D01*
X2489Y2671D01*
X2488Y2671D01*
X2487Y2671D01*
X2486Y2671D01*
X2485Y2671D01*
X2484Y2671D01*
X2483Y2671D01*
X2482Y2671D01*
X2481Y2671D01*
X2480Y2671D01*
X2479Y2671D01*
X2478Y2671D01*
X2477Y2671D01*
X2476Y2671D01*
X2475Y2671D01*
X2474Y2671D01*
X2473Y2671D01*
X2472Y2671D01*
X2471Y2671D01*
X2470Y2671D01*
X2469Y2671D01*
X2468Y2671D01*
X2467Y2671D01*
X2466Y2671D01*
X2465Y2671D01*
X2464Y2671D01*
X2463Y2671D01*
X2462Y2671D01*
X2461Y2671D01*
X2460Y2671D01*
X2459Y2671D01*
X2458Y2671D01*
X2457Y2671D01*
X2456Y2671D01*
X2455Y2671D01*
X2454Y2671D01*
X2453Y2671D01*
X2452Y2671D01*
X2451Y2671D01*
X2450Y2671D01*
X2449Y2671D01*
X2448Y2671D01*
X2447Y2671D01*
X2446Y2671D01*
X2445Y2671D01*
X2444Y2671D01*
X2443Y2671D01*
X2442Y2671D01*
X2441Y2671D01*
X2440Y2671D01*
X2439Y2671D01*
X2438Y2671D01*
X2437Y2671D01*
X2436Y2671D01*
X2435Y2671D01*
X2434Y2671D01*
X2433Y2671D01*
X2432Y2671D01*
X2431Y2671D01*
X2430Y2671D01*
X2429Y2671D01*
X2428Y2671D01*
X2427Y2671D01*
X2426Y2671D01*
X2425Y2671D01*
X2424Y2671D01*
X2423Y2671D01*
X2422Y2671D01*
X2421Y2671D01*
X2420Y2671D01*
X2419Y2671D01*
X2418Y2671D01*
X2417Y2671D01*
X2416Y2671D01*
X2415Y2671D01*
X2414Y2671D01*
X2413Y2671D01*
X2412Y2671D01*
X2411Y2671D01*
X2410Y2671D01*
X2409Y2671D01*
X2408Y2671D01*
X2407Y2671D01*
X2406Y2671D01*
X2405Y2671D01*
X2404Y2671D01*
X2403Y2671D01*
X2402Y2671D01*
X2401Y2671D01*
X2400Y2671D01*
X2399Y2671D01*
X2398Y2671D01*
X2397Y2671D01*
X2396Y2671D01*
X2395Y2671D01*
X2394Y2671D01*
X2393Y2671D01*
X2392Y2671D01*
X2391Y2671D01*
X2390Y2671D01*
X2389Y2671D01*
X2388Y2671D01*
X2387Y2671D01*
X2386Y2671D01*
X2385Y2671D01*
X2384Y2671D01*
X2383Y2671D01*
X2382Y2671D01*
X2381Y2671D01*
X2380Y2671D01*
X2379Y2671D01*
X2378Y2671D01*
X2377Y2671D01*
X2376Y2671D01*
X2375Y2671D01*
X2374Y2671D01*
X2373Y2671D01*
X2372Y2671D01*
X2371Y2671D01*
X2370Y2671D01*
X2369Y2671D01*
X2368Y2671D01*
X2367Y2671D01*
X2366Y2671D01*
X2365Y2671D01*
X2364Y2671D01*
X2363Y2671D01*
X2362Y2671D01*
X2361Y2671D01*
X2360Y2671D01*
X2359Y2671D01*
X2358Y2671D01*
X2357Y2671D01*
X2356Y2671D01*
X2355Y2671D01*
X2354Y2671D01*
X2353Y2671D01*
X2352Y2671D01*
X2351Y2671D01*
X2350Y2671D01*
X2349Y2671D01*
X2348Y2671D01*
X2347Y2671D01*
X2346Y2671D01*
X2345Y2671D01*
X2344Y2671D01*
X2343Y2671D01*
X2342Y2671D01*
X2341Y2671D01*
X2340Y2671D01*
X2339Y2671D01*
X2338Y2671D01*
X2337Y2671D01*
X2336Y2671D01*
X2335Y2671D01*
X2334Y2671D01*
X2333Y2671D01*
X2332Y2671D01*
X2331Y2671D01*
X2330Y2671D01*
X2329Y2671D01*
X2328Y2671D01*
X2327Y2671D01*
X2326Y2671D01*
X2325Y2671D01*
X2324Y2671D01*
X2323Y2671D01*
X2322Y2671D01*
X2321Y2671D01*
X2320Y2671D01*
X2319Y2671D01*
X2318Y2671D01*
X2317Y2671D01*
X2316Y2671D01*
X2315Y2671D01*
X2314Y2671D01*
X2313Y2671D01*
X2312Y2671D01*
X2311Y2671D01*
X2310Y2671D01*
X2309Y2671D01*
X2308Y2671D01*
X2307Y2671D01*
X2306Y2671D01*
X2305Y2671D01*
X2304Y2671D01*
X2303Y2671D01*
X2302Y2671D01*
X2301Y2671D01*
X2300Y2671D01*
X2299Y2671D01*
X2298Y2671D01*
X2297Y2671D01*
X2296Y2671D01*
X2295Y2671D01*
X2294Y2671D01*
X2293Y2671D01*
X2292Y2671D01*
X2291Y2671D01*
X2290Y2671D01*
X2289Y2671D01*
X2288Y2671D01*
X2287Y2671D01*
X2286Y2671D01*
X2285Y2671D01*
X2284Y2671D01*
X2283Y2671D01*
X2282Y2671D01*
X2281Y2671D01*
X2280Y2671D01*
X2279Y2671D01*
X2278Y2671D01*
X2277Y2671D01*
X2276Y2671D01*
X2275Y2671D01*
X2274Y2671D01*
X2273Y2671D01*
X2272Y2671D01*
X2271Y2671D01*
X2270Y2671D01*
X2269Y2671D01*
X2268Y2671D01*
X2267Y2671D01*
X2266Y2671D01*
X2265Y2671D01*
X2264Y2671D01*
X2263Y2671D01*
X2262Y2671D01*
X2261Y2671D01*
X2260Y2671D01*
X2259Y2671D01*
X2258Y2671D01*
X2257Y2671D01*
X2256Y2671D01*
X2255Y2671D01*
X2254Y2671D01*
X2253Y2671D01*
X2252Y2671D01*
X2251Y2671D01*
X2250Y2671D01*
X2249Y2671D01*
X2248Y2671D01*
X2247Y2671D01*
X2246Y2671D01*
X2245Y2671D01*
X2244Y2671D01*
X2243Y2671D01*
X2242Y2671D01*
X2241Y2671D01*
X2240Y2671D01*
X2239Y2671D01*
X2238Y2671D01*
X2237Y2671D01*
X2236Y2671D01*
X2235Y2671D01*
X2234Y2671D01*
X2233Y2671D01*
X2232Y2671D01*
X2231Y2671D01*
X2230Y2671D01*
X2229Y2671D01*
X2228Y2671D01*
X2227Y2671D01*
X2226Y2671D01*
X2225Y2671D01*
X2224Y2671D01*
X2223Y2671D01*
X2222Y2671D01*
X2221Y2671D01*
X2220Y2671D01*
X2219Y2671D01*
X2218Y2671D01*
X2217Y2671D01*
X2216Y2671D01*
X2215Y2671D01*
X2214Y2671D01*
X2213Y2671D01*
X2212Y2671D01*
X2211Y2671D01*
X2210Y2671D01*
X2209Y2671D01*
X2208Y2671D01*
X2207Y2671D01*
X2206Y2671D01*
X2205Y2671D01*
X2204Y2671D01*
X2203Y2671D01*
X2202Y2671D01*
X2201Y2671D01*
X2200Y2671D01*
X2199Y2671D01*
X2198Y2671D01*
X2197Y2671D01*
X2196Y2671D01*
X2195Y2671D01*
X2194Y2671D01*
X2193Y2671D01*
X2192Y2671D01*
X2191Y2671D01*
X2190Y2671D01*
X2189Y2671D01*
X2188Y2671D01*
X2187Y2671D01*
X2186Y2671D01*
X2185Y2671D01*
X2184Y2671D01*
X2183Y2671D01*
X2182Y2671D01*
X2181Y2671D01*
X2180Y2671D01*
X2179Y2671D01*
X2178Y2671D01*
X2177Y2671D01*
X2176Y2671D01*
X2175Y2671D01*
X2174Y2671D01*
X2173Y2671D01*
X2172Y2671D01*
X2171Y2671D01*
X2170Y2671D01*
X2169Y2671D01*
X2168Y2671D01*
X2167Y2671D01*
X2166Y2671D01*
X2165Y2671D01*
X2164Y2671D01*
X2163Y2671D01*
X2162Y2671D01*
X2161Y2671D01*
X2160Y2671D01*
X2159Y2671D01*
X2158Y2671D01*
X2157Y2671D01*
X2156Y2671D01*
X2155Y2671D01*
X2154Y2671D01*
X2153Y2671D01*
X2152Y2671D01*
X2151Y2671D01*
X2150Y2671D01*
X2149Y2671D01*
X2148Y2671D01*
X2147Y2671D01*
X2146Y2671D01*
X2145Y2671D01*
X2144Y2671D01*
X2143Y2671D01*
X2142Y2671D01*
X2141Y2671D01*
X2140Y2671D01*
X2139Y2671D01*
X2138Y2671D01*
X2137Y2671D01*
X2136Y2671D01*
X2135Y2671D01*
X2134Y2671D01*
X2133Y2671D01*
X2132Y2671D01*
X2131Y2671D01*
X2130Y2671D01*
X2129Y2671D01*
X2128Y2671D01*
X2127Y2671D01*
X2126Y2671D01*
X2125Y2671D01*
X2124Y2671D01*
X2123Y2671D01*
X2122Y2671D01*
X2121Y2671D01*
X2120Y2671D01*
X2119Y2671D01*
X2118Y2671D01*
X2117Y2671D01*
X2116Y2671D01*
X2115Y2671D01*
X2114Y2671D01*
X2113Y2671D01*
X2112Y2671D01*
X2111Y2671D01*
X2110Y2671D01*
X2109Y2671D01*
X2108Y2671D01*
X2107Y2671D01*
X2106Y2671D01*
X2105Y2671D01*
X2104Y2671D01*
X2103Y2671D01*
X2102Y2671D01*
X2101Y2671D01*
X2100Y2671D01*
X2099Y2671D01*
X2098Y2671D01*
X2097Y2671D01*
X2096Y2671D01*
X2095Y2671D01*
X2094Y2671D01*
X2093Y2671D01*
X2092Y2671D01*
X2091Y2671D01*
X2090Y2671D01*
X2089Y2671D01*
X2088Y2671D01*
X2087Y2671D01*
X2086Y2671D01*
X2085Y2671D01*
X2084Y2671D01*
X2083Y2671D01*
X2082Y2671D01*
X2081Y2671D01*
X2080Y2671D01*
X2079Y2671D01*
X2078Y2671D01*
X2077Y2671D01*
X2076Y2671D01*
X2075Y2671D01*
X2074Y2671D01*
X2073Y2671D01*
X2072Y2671D01*
X2071Y2671D01*
X2070Y2671D01*
X2069Y2671D01*
X2068Y2671D01*
X2067Y2671D01*
X2066Y2671D01*
X2065Y2671D01*
X2064Y2671D01*
X2063Y2671D01*
X2062Y2671D01*
X2061Y2671D01*
X2060Y2671D01*
X2059Y2671D01*
X2058Y2671D01*
X2057Y2671D01*
X2056Y2671D01*
X2055Y2671D01*
X2054Y2671D01*
X2053Y2671D01*
X2052Y2671D01*
X2051Y2671D01*
X2050Y2671D01*
X2049Y2671D01*
X2048Y2671D01*
X2047Y2671D01*
X2046Y2671D01*
X2045Y2671D01*
X2044Y2671D01*
X2043Y2671D01*
X2042Y2671D01*
X2041Y2671D01*
X2040Y2671D01*
X2039Y2671D01*
X2038Y2671D01*
X2037Y2671D01*
X2036Y2671D01*
X2035Y2671D01*
X2034Y2671D01*
X2033Y2671D01*
X2032Y2671D01*
X2031Y2671D01*
X2030Y2671D01*
X2029Y2671D01*
X2028Y2671D01*
X2027Y2671D01*
X2026Y2671D01*
X2025Y2671D01*
X2024Y2671D01*
X2023Y2671D01*
X2022Y2671D01*
X2021Y2671D01*
X2020Y2671D01*
X2019Y2671D01*
X2018Y2671D01*
X2017Y2671D01*
X2016Y2671D01*
X2015Y2671D01*
X2014Y2671D01*
X2013Y2671D01*
X2012Y2671D01*
X2011Y2671D01*
X2010Y2671D01*
X2009Y2671D01*
X2008Y2671D01*
X2007Y2671D01*
X2006Y2671D01*
X2005Y2671D01*
X2004Y2671D01*
X2003Y2671D01*
X2002Y2671D01*
X2001Y2671D01*
X2000Y2671D01*
X1999Y2671D01*
X1998Y2671D01*
X1997Y2671D01*
X1996Y2671D01*
X1995Y2671D01*
X1994Y2671D01*
X1993Y2671D01*
X1992Y2671D01*
X1991Y2671D01*
X1990Y2671D01*
X1989Y2671D01*
X1988Y2671D01*
X1987Y2671D01*
X1986Y2671D01*
X1985Y2671D01*
X1984Y2671D01*
X1983Y2671D01*
X1982Y2671D01*
X1981Y2671D01*
X1980Y2671D01*
X1979Y2671D01*
X1978Y2671D01*
X1977Y2671D01*
X1976Y2671D01*
X1975Y2671D01*
X1974Y2671D01*
X1973Y2671D01*
X1972Y2671D01*
X1971Y2671D01*
X1970Y2671D01*
X1969Y2671D01*
X1968Y2671D01*
X1967Y2671D01*
X1966Y2671D01*
X1965Y2671D01*
X1964Y2671D01*
X1963Y2671D01*
X1962Y2671D01*
X1961Y2671D01*
X1960Y2671D01*
X1959Y2671D01*
X1958Y2671D01*
X1957Y2671D01*
X1956Y2671D01*
X1955Y2671D01*
X1954Y2671D01*
X1953Y2671D01*
X1952Y2671D01*
X1951Y2671D01*
X1950Y2671D01*
X1949Y2671D01*
X1948Y2671D01*
X1947Y2671D01*
X1946Y2671D01*
X1945Y2671D01*
X1944Y2671D01*
X1943Y2671D01*
X1942Y2671D01*
X1941Y2671D01*
X1940Y2671D01*
X1939Y2671D01*
X1938Y2671D01*
X1937Y2671D01*
X1936Y2671D01*
X1935Y2671D01*
X1934Y2671D01*
X1933Y2671D01*
X1932Y2671D01*
X1931Y2671D01*
X1930Y2671D01*
X1929Y2671D01*
X1928Y2671D01*
X1927Y2671D01*
X1926Y2671D01*
X1925Y2671D01*
X1924Y2671D01*
X1923Y2671D01*
X1922Y2671D01*
X1921Y2671D01*
X1920Y2671D01*
X1919Y2671D01*
X1918Y2671D01*
X1917Y2671D01*
X1916Y2671D01*
X1915Y2671D01*
X1914Y2671D01*
X1913Y2671D01*
X1912Y2671D01*
X1911Y2671D01*
X1910Y2671D01*
X1909Y2671D01*
X1908Y2671D01*
X1907Y2671D01*
X1906Y2671D01*
X1905Y2671D01*
X1904Y2671D01*
X1903Y2671D01*
X1902Y2671D01*
X1901Y2671D01*
X1900Y2671D01*
X1899Y2671D01*
X1898Y2671D01*
X1897Y2671D01*
X1896Y2671D01*
X1895Y2671D01*
X1894Y2671D01*
X1893Y2671D01*
X1892Y2671D01*
X1891Y2671D01*
X1890Y2671D01*
X1889Y2671D01*
X1888Y2671D01*
X1887Y2671D01*
X1886Y2671D01*
X1885Y2671D01*
X1884Y2671D01*
X1883Y2671D01*
X1882Y2671D01*
X1881Y2671D01*
X1880Y2671D01*
X1879Y2671D01*
X1878Y2671D01*
X1877Y2671D01*
X1876Y2671D01*
X1875Y2671D01*
X1874Y2671D01*
X1873Y2671D01*
X1872Y2671D01*
X1871Y2671D01*
X1870Y2671D01*
X1869Y2671D01*
X1868Y2671D01*
X1867Y2671D01*
X1866Y2671D01*
X1865Y2671D01*
X1864Y2671D01*
X1863Y2671D01*
X1862Y2671D01*
X1861Y2671D01*
X1860Y2671D01*
X1859Y2671D01*
X1858Y2671D01*
X1857Y2671D01*
X1856Y2671D01*
X1855Y2671D01*
X1854Y2671D01*
X1853Y2671D01*
X1852Y2671D01*
X1851Y2671D01*
X1850Y2671D01*
X1849Y2671D01*
X1848Y2671D01*
X1847Y2671D01*
X1846Y2671D01*
X1845Y2671D01*
X1844Y2671D01*
X1843Y2671D01*
X1842Y2671D01*
X1841Y2671D01*
X1840Y2671D01*
X1839Y2671D01*
X1838Y2671D01*
X1837Y2671D01*
X1836Y2671D01*
X1835Y2671D01*
X1834Y2671D01*
X1833Y2671D01*
X1832Y2671D01*
X1831Y2671D01*
X1830Y2671D01*
X1829Y2671D01*
X1828Y2671D01*
X1827Y2671D01*
X1826Y2671D01*
X1825Y2671D01*
X1824Y2671D01*
X1823Y2671D01*
X1822Y2671D01*
X1821Y2671D01*
X1820Y2671D01*
X1819Y2671D01*
X1818Y2671D01*
X1817Y2671D01*
X1816Y2671D01*
X1815Y2671D01*
X1814Y2671D01*
X1813Y2671D01*
X1812Y2671D01*
X1811Y2671D01*
X1810Y2671D01*
X1809Y2671D01*
X1808Y2671D01*
X1807Y2671D01*
X1806Y2671D01*
X1805Y2671D01*
X1804Y2671D01*
X1803Y2671D01*
X1802Y2671D01*
X1801Y2671D01*
X1800Y2671D01*
X1799Y2671D01*
X1798Y2671D01*
X1797Y2671D01*
X1796Y2671D01*
X1795Y2671D01*
X1794Y2671D01*
X1793Y2671D01*
X1792Y2671D01*
X1791Y2671D01*
X1790Y2671D01*
X1789Y2671D01*
X1788Y2671D01*
X1787Y2671D01*
X1786Y2671D01*
X1785Y2671D01*
X1784Y2671D01*
X1783Y2671D01*
X1782Y2671D01*
X1781Y2671D01*
X1780Y2671D01*
X1779Y2671D01*
X1778Y2671D01*
X1777Y2671D01*
X1776Y2671D01*
X1775Y2671D01*
X1774Y2671D01*
X1773Y2671D01*
X1772Y2671D01*
X1771Y2671D01*
X1770Y2671D01*
X1769Y2671D01*
X1768Y2671D01*
X1767Y2671D01*
X1766Y2671D01*
X1765Y2671D01*
X1764Y2671D01*
X1763Y2671D01*
X1762Y2671D01*
X1761Y2671D01*
X1760Y2671D01*
X1759Y2671D01*
X1758Y2671D01*
X1757Y2671D01*
X1756Y2671D01*
X1755Y2671D01*
X1754Y2671D01*
X1753Y2671D01*
X1752Y2671D01*
X1751Y2671D01*
X1750Y2671D01*
X1749Y2671D01*
X1748Y2671D01*
X1747Y2671D01*
X1746Y2671D01*
X1745Y2671D01*
X1744Y2671D01*
X1743Y2671D01*
X1742Y2671D01*
X1741Y2671D01*
X1740Y2671D01*
X1739Y2671D01*
X1738Y2671D01*
X1737Y2671D01*
X1736Y2671D01*
X1735Y2671D01*
X1734Y2671D01*
X1733Y2671D01*
X1732Y2671D01*
X1731Y2671D01*
X1730Y2671D01*
X1729Y2671D01*
X1728Y2671D01*
X1727Y2671D01*
X1726Y2671D01*
X1725Y2671D01*
X1724Y2671D01*
X1723Y2671D01*
X1722Y2671D01*
X1721Y2671D01*
X1720Y2671D01*
X1719Y2671D01*
X1718Y2671D01*
X1717Y2671D01*
X1716Y2671D01*
X1715Y2671D01*
X1714Y2671D01*
X1713Y2671D01*
X1712Y2671D01*
X1711Y2671D01*
X1710Y2671D01*
X1709Y2671D01*
X1708Y2671D01*
X1707Y2671D01*
X1706Y2671D01*
X1705Y2671D01*
X1704Y2671D01*
X1703Y2671D01*
X1702Y2671D01*
X1701Y2671D01*
X1700Y2671D01*
X1699Y2671D01*
X1698Y2671D01*
X1697Y2671D01*
X1696Y2671D01*
X1695Y2671D01*
X1694Y2671D01*
X1693Y2671D01*
X1692Y2671D01*
X1691Y2671D01*
X1690Y2671D01*
X1689Y2671D01*
X1688Y2671D01*
X1687Y2671D01*
X1686Y2671D01*
X1685Y2671D01*
X1684Y2671D01*
X1683Y2671D01*
X1682Y2671D01*
X1681Y2671D01*
X1680Y2671D01*
X1679Y2671D01*
X1678Y2671D01*
X1677Y2671D01*
X1676Y2671D01*
X1675Y2671D01*
X1674Y2671D01*
X1673Y2671D01*
X1672Y2671D01*
X1671Y2671D01*
X1670Y2671D01*
X1669Y2671D01*
X1668Y2671D01*
X1667Y2671D01*
X1666Y2671D01*
X1665Y2671D01*
X1664Y2671D01*
X1663Y2671D01*
X1662Y2671D01*
X1661Y2671D01*
X1660Y2671D01*
X1659Y2671D01*
X1658Y2671D01*
X1657Y2671D01*
X1656Y2671D01*
X1655Y2671D01*
X1654Y2671D01*
X1653Y2671D01*
X1652Y2671D01*
X1651Y2671D01*
X1650Y2671D01*
X1649Y2671D01*
X1648Y2671D01*
X1647Y2671D01*
X1646Y2671D01*
X1645Y2671D01*
X1644Y2671D01*
X1643Y2671D01*
X1642Y2671D01*
X1641Y2671D01*
X1640Y2671D01*
X1639Y2671D01*
X1638Y2671D01*
X1637Y2671D01*
X1636Y2671D01*
X1635Y2671D01*
X1634Y2671D01*
X1633Y2671D01*
X1632Y2671D01*
X1631Y2671D01*
X1630Y2671D01*
X1629Y2671D01*
X1628Y2671D01*
X1627Y2671D01*
X1626Y2671D01*
X1625Y2671D01*
X1624Y2671D01*
X1623Y2671D01*
X1622Y2671D01*
X1621Y2671D01*
X1620Y2671D01*
X1619Y2671D01*
X1618Y2671D01*
X1617Y2671D01*
X1616Y2671D01*
X1615Y2671D01*
X1614Y2671D01*
X1613Y2671D01*
X1612Y2671D01*
X1611Y2671D01*
X1610Y2671D01*
X1609Y2671D01*
X1608Y2671D01*
X1607Y2671D01*
X1606Y2671D01*
X1605Y2671D01*
X1604Y2671D01*
X1603Y2671D01*
X1602Y2671D01*
X1601Y2671D01*
X1600Y2671D01*
X1599Y2671D01*
X1598Y2671D01*
X1597Y2671D01*
X1596Y2671D01*
X1595Y2671D01*
X1594Y2671D01*
X1593Y2671D01*
X1592Y2671D01*
X1591Y2671D01*
X1590Y2671D01*
X1589Y2671D01*
X1588Y2671D01*
X1587Y2671D01*
X1586Y2671D01*
X1585Y2671D01*
X1584Y2671D01*
X1583Y2671D01*
X1582Y2671D01*
X1581Y2671D01*
X1580Y2671D01*
X1579Y2671D01*
X1578Y2671D01*
X1577Y2671D01*
X1576Y2671D01*
X1575Y2671D01*
X1574Y2671D01*
X1573Y2671D01*
X1572Y2671D01*
X1571Y2671D01*
X1570Y2671D01*
X1569Y2671D01*
X1568Y2671D01*
X1567Y2671D01*
X1566Y2671D01*
X1565Y2671D01*
X1564Y2671D01*
X1563Y2671D01*
X1562Y2671D01*
X1561Y2671D01*
X1560Y2671D01*
X1559Y2671D01*
X1558Y2671D01*
X1557Y2671D01*
X1556Y2671D01*
X1555Y2671D01*
X1554Y2671D01*
X1553Y2671D01*
X1552Y2671D01*
X1551Y2671D01*
X1550Y2671D01*
X1549Y2671D01*
X1548Y2671D01*
X1547Y2671D01*
X1546Y2671D01*
X1545Y2671D01*
X1544Y2671D01*
X1543Y2671D01*
X1542Y2671D01*
X1541Y2671D01*
X1540Y2671D01*
X1539Y2671D01*
X1538Y2671D01*
X1537Y2671D01*
X1536Y2671D01*
X1535Y2671D01*
X1534Y2671D01*
X1533Y2671D01*
X1532Y2671D01*
X1531Y2671D01*
X1530Y2671D01*
X1529Y2671D01*
X1528Y2671D01*
X1527Y2671D01*
X1526Y2671D01*
X1525Y2671D01*
X1524Y2671D01*
X1523Y2671D01*
X1522Y2671D01*
X1521Y2671D01*
X1520Y2671D01*
X1519Y2671D01*
X1518Y2671D01*
X1517Y2671D01*
X1516Y2671D01*
X1515Y2671D01*
X1514Y2671D01*
X1513Y2671D01*
X1512Y2671D01*
X1511Y2671D01*
X1510Y2671D01*
X1509Y2671D01*
X1508Y2671D01*
X1507Y2671D01*
X1506Y2671D01*
X1505Y2671D01*
X1504Y2671D01*
X1503Y2671D01*
X1502Y2671D01*
X1501Y2671D01*
X1500Y2671D01*
X1499Y2671D01*
X1498Y2671D01*
X1497Y2671D01*
X1496Y2671D01*
X1495Y2671D01*
X1494Y2671D01*
X1493Y2671D01*
X1492Y2671D01*
X1491Y2671D01*
X1490Y2671D01*
X1489Y2671D01*
X1488Y2671D01*
X1487Y2671D01*
X1486Y2671D01*
X1485Y2671D01*
X1484Y2671D01*
X1483Y2671D01*
X1482Y2671D01*
X1481Y2671D01*
X1480Y2671D01*
X1479Y2671D01*
X1478Y2671D01*
X1477Y2671D01*
X1476Y2671D01*
X1475Y2671D01*
X1474Y2671D01*
X1473Y2671D01*
X1472Y2671D01*
X1471Y2671D01*
X1470Y2671D01*
X1469Y2671D01*
X1468Y2671D01*
X1467Y2671D01*
X1466Y2671D01*
X1465Y2671D01*
X1464Y2671D01*
X1463Y2671D01*
X1462Y2671D01*
X1461Y2671D01*
X1460Y2671D01*
X1459Y2671D01*
X1458Y2671D01*
X1457Y2671D01*
X1456Y2671D01*
X1455Y2671D01*
X1454Y2671D01*
X1453Y2671D01*
X1452Y2671D01*
X1451Y2671D01*
X1450Y2671D01*
X1449Y2671D01*
X1448Y2671D01*
X1447Y2671D01*
X1446Y2671D01*
X1445Y2671D01*
X1444Y2671D01*
X1443Y2671D01*
X1442Y2671D01*
X1441Y2671D01*
X1440Y2671D01*
X1439Y2671D01*
X1438Y2671D01*
X1437Y2671D01*
X1436Y2671D01*
X1435Y2671D01*
X1434Y2671D01*
X1433Y2671D01*
X1432Y2671D01*
X1431Y2671D01*
X1430Y2671D01*
X1429Y2671D01*
X1428Y2671D01*
X1427Y2671D01*
X1426Y2671D01*
X1425Y2671D01*
X1424Y2671D01*
X1423Y2671D01*
X1422Y2671D01*
X1421Y2671D01*
X1420Y2671D01*
X1419Y2671D01*
X1418Y2671D01*
X1417Y2671D01*
X1416Y2671D01*
X1415Y2671D01*
X1414Y2671D01*
X1413Y2671D01*
X1412Y2671D01*
X1411Y2671D01*
X1410Y2671D01*
X1409Y2671D01*
X1408Y2671D01*
X1407Y2671D01*
X1406Y2671D01*
X1405Y2671D01*
X1404Y2671D01*
X1403Y2671D01*
X1402Y2671D01*
X1401Y2671D01*
X1400Y2671D01*
X1399Y2671D01*
X1398Y2671D01*
X1397Y2671D01*
X1396Y2671D01*
X1395Y2671D01*
X1394Y2671D01*
X1393Y2671D01*
X1392Y2671D01*
X1391Y2671D01*
X1390Y2671D01*
X1389Y2671D01*
X1388Y2671D01*
X1387Y2671D01*
X1386Y2671D01*
X1385Y2671D01*
X1384Y2671D01*
X1383Y2671D01*
X1382Y2671D01*
X1381Y2671D01*
X1380Y2671D01*
X1379Y2671D01*
X1378Y2671D01*
X1377Y2671D01*
X1376Y2671D01*
X1375Y2671D01*
X1374Y2671D01*
X1373Y2671D01*
X1372Y2671D01*
X1371Y2671D01*
X1370Y2671D01*
X1369Y2671D01*
X1368Y2671D01*
X1367Y2671D01*
X1366Y2671D01*
X1365Y2671D01*
X1364Y2671D01*
X1363Y2671D01*
X1362Y2671D01*
X1361Y2671D01*
X1360Y2671D01*
X1359Y2671D01*
X1358Y2671D01*
X1357Y2671D01*
X1356Y2671D01*
X1355Y2671D01*
X1354Y2671D01*
X1353Y2671D01*
X1352Y2671D01*
X1351Y2671D01*
X1350Y2671D01*
X1349Y2671D01*
X1348Y2671D01*
X1347Y2671D01*
X1346Y2671D01*
X1345Y2671D01*
X1344Y2671D01*
X1343Y2671D01*
X1342Y2671D01*
X1341Y2671D01*
X1340Y2671D01*
X1339Y2671D01*
X1338Y2671D01*
X1337Y2671D01*
X1336Y2671D01*
X1335Y2671D01*
X1334Y2671D01*
X1333Y2671D01*
X1332Y2671D01*
X1331Y2671D01*
X1330Y2671D01*
X1329Y2671D01*
X1328Y2671D01*
X1327Y2671D01*
X1326Y2671D01*
X1325Y2671D01*
X1324Y2671D01*
X1323Y2671D01*
X1322Y2671D01*
X1321Y2671D01*
X1320Y2671D01*
X1319Y2671D01*
X1318Y2671D01*
X1317Y2671D01*
X1316Y2671D01*
X1315Y2671D01*
X1314Y2671D01*
X1313Y2671D01*
X1312Y2671D01*
X1311Y2671D01*
X1310Y2671D01*
X1309Y2671D01*
X1308Y2671D01*
X1307Y2671D01*
X1306Y2671D01*
X1305Y2671D01*
X1304Y2671D01*
X1303Y2671D01*
X1302Y2671D01*
X1301Y2671D01*
X1300Y2671D01*
X1299Y2671D01*
X1298Y2671D01*
X1297Y2671D01*
X1296Y2671D01*
X1295Y2671D01*
X1294Y2671D01*
X1293Y2671D01*
X1292Y2671D01*
X1291Y2671D01*
X1290Y2671D01*
X1289Y2671D01*
X1288Y2671D01*
X1287Y2671D01*
X1286Y2671D01*
X1285Y2671D01*
X1284Y2671D01*
X1283Y2671D01*
X1282Y2671D01*
X1281Y2671D01*
X1280Y2671D01*
X1279Y2671D01*
X1278Y2671D01*
X1277Y2671D01*
X1276Y2671D01*
X1275Y2671D01*
X1274Y2671D01*
X1273Y2671D01*
X1272Y2671D01*
X1271Y2671D01*
X1270Y2671D01*
X1269Y2671D01*
X1268Y2671D01*
X1267Y2671D01*
X1266Y2671D01*
X1265Y2671D01*
X1264Y2671D01*
X1263Y2671D01*
X1262Y2671D01*
X1261Y2671D01*
X1260Y2671D01*
X1259Y2671D01*
X1258Y2671D01*
X1257Y2671D01*
X1256Y2671D01*
X1255Y2671D01*
X1254Y2671D01*
X1253Y2671D01*
X1252Y2671D01*
X1251Y2671D01*
X1250Y2671D01*
X1249Y2671D01*
X1248Y2671D01*
X1247Y2671D01*
X1246Y2671D01*
X1245Y2671D01*
X1244Y2671D01*
X1243Y2671D01*
X1242Y2671D01*
X1241Y2671D01*
X1240Y2671D01*
X1239Y2671D01*
X1238Y2671D01*
X1237Y2671D01*
X1236Y2671D01*
X1235Y2671D01*
X1234Y2671D01*
X1233Y2671D01*
X1232Y2671D01*
X1231Y2671D01*
X1230Y2671D01*
X1229Y2671D01*
X1228Y2671D01*
X1227Y2671D01*
X1226Y2671D01*
X1225Y2671D01*
X1224Y2671D01*
X1223Y2671D01*
X1222Y2671D01*
X1221Y2671D01*
X1220Y2671D01*
X1219Y2671D01*
X1218Y2671D01*
X1217Y2671D01*
X1216Y2671D01*
X1215Y2671D01*
X1214Y2671D01*
X1213Y2671D01*
X1212Y2671D01*
X1211Y2671D01*
X1210Y2671D01*
X1209Y2671D01*
X1208Y2671D01*
X1207Y2671D01*
X1206Y2671D01*
X1205Y2671D01*
X1204Y2671D01*
X1203Y2671D01*
X1202Y2671D01*
X1201Y2671D01*
X1200Y2671D01*
X1199Y2671D01*
X1198Y2671D01*
X1197Y2671D01*
X1196Y2671D01*
X1195Y2671D01*
X1194Y2671D01*
X1193Y2671D01*
X1192Y2671D01*
X1191Y2671D01*
X1190Y2671D01*
X1189Y2671D01*
X1188Y2671D01*
X1187Y2671D01*
X1186Y2671D01*
X1185Y2671D01*
X1184Y2671D01*
X1183Y2671D01*
X1182Y2671D01*
X1181Y2671D01*
X1180Y2671D01*
X1179Y2671D01*
X1178Y2671D01*
X1177Y2671D01*
X1176Y2671D01*
X1175Y2671D01*
X1174Y2671D01*
X1173Y2671D01*
X1172Y2671D01*
X1171Y2671D01*
X1170Y2671D01*
X1169Y2671D01*
X1168Y2671D01*
X1167Y2671D01*
X1166Y2671D01*
X1165Y2671D01*
X1164Y2671D01*
X1163Y2671D01*
X1162Y2671D01*
X1161Y2671D01*
X1160Y2671D01*
X1159Y2671D01*
X1158Y2671D01*
X1157Y2671D01*
X1156Y2671D01*
X1155Y2671D01*
X1154Y2671D01*
X1153Y2671D01*
X1152Y2671D01*
X1151Y2671D01*
X1150Y2671D01*
X1149Y2671D01*
X1148Y2671D01*
X1147Y2671D01*
X1146Y2671D01*
X1145Y2671D01*
X1144Y2671D01*
X1143Y2671D01*
X1142Y2671D01*
X1141Y2671D01*
X1140Y2671D01*
X1139Y2671D01*
X1138Y2671D01*
X1137Y2671D01*
X1136Y2671D01*
X1135Y2671D01*
X1134Y2671D01*
X1133Y2671D01*
X1132Y2671D01*
X1131Y2671D01*
X1130Y2671D01*
X1129Y2671D01*
X1128Y2671D01*
X1127Y2671D01*
X1126Y2671D01*
X1125Y2671D01*
X1124Y2671D01*
X1123Y2671D01*
X1122Y2671D01*
X1121Y2671D01*
X1120Y2671D01*
X1119Y2671D01*
X1118Y2671D01*
X1117Y2671D01*
X1116Y2671D01*
X1115Y2671D01*
X1114Y2671D01*
X1113Y2671D01*
X1112Y2671D01*
X1111Y2671D01*
X1110Y2671D01*
X1109Y2671D01*
X1108Y2671D01*
X1107Y2671D01*
X1106Y2671D01*
X1105Y2671D01*
X1104Y2671D01*
X1103Y2671D01*
X1102Y2671D01*
X1101Y2671D01*
X1100Y2671D01*
X1099Y2671D01*
X1098Y2671D01*
X1097Y2671D01*
X1096Y2671D01*
X1095Y2671D01*
X1094Y2671D01*
X1093Y2671D01*
X1092Y2671D01*
X1091Y2671D01*
X1090Y2671D01*
X1089Y2671D01*
X1088Y2671D01*
X1087Y2671D01*
X1086Y2671D01*
X1085Y2671D01*
X1084Y2671D01*
X1083Y2671D01*
X1082Y2671D01*
X1081Y2671D01*
X1080Y2671D01*
X1079Y2671D01*
X1078Y2671D01*
X1077Y2671D01*
X1076Y2671D01*
X1075Y2671D01*
X1074Y2671D01*
X1073Y2671D01*
X1072Y2671D01*
X1071Y2671D01*
X1070Y2671D01*
X1069Y2671D01*
X1068Y2671D01*
X1067Y2671D01*
X1066Y2671D01*
X1065Y2671D01*
X1064Y2671D01*
X1063Y2671D01*
X1062Y2671D01*
X1061Y2671D01*
X1060Y2671D01*
X1059Y2671D01*
X1058Y2671D01*
X1057Y2671D01*
X1056Y2671D01*
X1055Y2671D01*
X1054Y2671D01*
X1053Y2671D01*
X1052Y2671D01*
X1051Y2671D01*
X1050Y2671D01*
X1049Y2671D01*
X1048Y2671D01*
X1047Y2671D01*
X1046Y2671D01*
X1045Y2671D01*
X1044Y2671D01*
X1043Y2671D01*
X1042Y2671D01*
X1041Y2671D01*
X1040Y2671D01*
X1039Y2671D01*
X1038Y2671D01*
X1037Y2671D01*
X1036Y2671D01*
X1035Y2671D01*
X1034Y2671D01*
X1033Y2671D01*
X1032Y2671D01*
X1031Y2671D01*
X1030Y2671D01*
X1029Y2671D01*
X1028Y2671D01*
X1027Y2671D01*
X1026Y2671D01*
X1025Y2671D01*
X1024Y2671D01*
X1023Y2671D01*
X1022Y2671D01*
X1021Y2671D01*
X1020Y2671D01*
X1019Y2671D01*
X1018Y2671D01*
X1017Y2671D01*
X1016Y2671D01*
X1015Y2671D01*
X1014Y2671D01*
X1013Y2671D01*
X1012Y2671D01*
X1011Y2671D01*
X1010Y2671D01*
X1009Y2671D01*
X1008Y2671D01*
X1007Y2671D01*
X1006Y2671D01*
X1005Y2671D01*
X1004Y2671D01*
X1003Y2671D01*
X1002Y2671D01*
X1001Y2671D01*
X1000Y2671D01*
X999Y2671D01*
X998Y2671D01*
X997Y2671D01*
X996Y2671D01*
X995Y2671D01*
X994Y2671D01*
X993Y2671D01*
X992Y2671D01*
X991Y2671D01*
X990Y2671D01*
X989Y2671D01*
X988Y2671D01*
X987Y2671D01*
X986Y2671D01*
X985Y2671D01*
X984Y2671D01*
X983Y2671D01*
X982Y2671D01*
X981Y2671D01*
X980Y2671D01*
X979Y2671D01*
X978Y2671D01*
X977Y2671D01*
X976Y2671D01*
X975Y2671D01*
X974Y2671D01*
X973Y2671D01*
X972Y2671D01*
X971Y2671D01*
X970Y2671D01*
X969Y2671D01*
X968Y2671D01*
X967Y2671D01*
X966Y2671D01*
X965Y2671D01*
X964Y2671D01*
X963Y2671D01*
X962Y2671D01*
X961Y2671D01*
X960Y2671D01*
X959Y2671D01*
X958Y2671D01*
X957Y2671D01*
X956Y2671D01*
X955Y2671D01*
X954Y2671D01*
X953Y2671D01*
X952Y2671D01*
X951Y2671D01*
X950Y2671D01*
X949Y2671D01*
X948Y2671D01*
X947Y2671D01*
X946Y2671D01*
X945Y2671D01*
X944Y2671D01*
X943Y2671D01*
X942Y2671D01*
X941Y2671D01*
X940Y2671D01*
X939Y2671D01*
X938Y2671D01*
X937Y2671D01*
X936Y2671D01*
X935Y2671D01*
X934Y2671D01*
X933Y2671D01*
X932Y2671D01*
X931Y2671D01*
X930Y2671D01*
X929Y2671D01*
X928Y2671D01*
X927Y2671D01*
X926Y2671D01*
X925Y2671D01*
X924Y2671D01*
X923Y2671D01*
X922Y2671D01*
X921Y2671D01*
X920Y2671D01*
X919Y2671D01*
X918Y2671D01*
X917Y2671D01*
X916Y2671D01*
X915Y2671D01*
X914Y2671D01*
X913Y2671D01*
X912Y2671D01*
X911Y2671D01*
X910Y2671D01*
X909Y2671D01*
X908Y2671D01*
X907Y2671D01*
X906Y2671D01*
X905Y2671D01*
X904Y2671D01*
X903Y2671D01*
X902Y2671D01*
X901Y2671D01*
X900Y2671D01*
X899Y2671D01*
X898Y2671D01*
X897Y2671D01*
X896Y2671D01*
X895Y2671D01*
X894Y2671D01*
X893Y2671D01*
X892Y2671D01*
X891Y2671D01*
X890Y2671D01*
X889Y2671D01*
X888Y2671D01*
X887Y2671D01*
X886Y2671D01*
X885Y2671D01*
X884Y2671D01*
X883Y2671D01*
X882Y2671D01*
X881Y2671D01*
X880Y2671D01*
X879Y2671D01*
X878Y2671D01*
X877Y2671D01*
X876Y2671D01*
X875Y2671D01*
X874Y2671D01*
X873Y2671D01*
X872Y2671D01*
X871Y2671D01*
X870Y2671D01*
X869Y2671D01*
X868Y2671D01*
X867Y2671D01*
X866Y2671D01*
X865Y2671D01*
X864Y2671D01*
X863Y2671D01*
X862Y2671D01*
X861Y2671D01*
X860Y2671D01*
X859Y2671D01*
X858Y2671D01*
X857Y2671D01*
X856Y2671D01*
X855Y2671D01*
X854Y2671D01*
X853Y2671D01*
X852Y2671D01*
X851Y2671D01*
X850Y2671D01*
X849Y2671D01*
X848Y2671D01*
X847Y2671D01*
X846Y2671D01*
X845Y2671D01*
X844Y2671D01*
X843Y2671D01*
X842Y2671D01*
X841Y2671D01*
X840Y2671D01*
X839Y2671D01*
X838Y2671D01*
X837Y2671D01*
X836Y2671D01*
X835Y2671D01*
X834Y2671D01*
X833Y2671D01*
X832Y2671D01*
X831Y2671D01*
X830Y2671D01*
X829Y2671D01*
X828Y2671D01*
X827Y2671D01*
X826Y2671D01*
X825Y2671D01*
X824Y2671D01*
X823Y2671D01*
X822Y2671D01*
X821Y2671D01*
X820Y2671D01*
X819Y2671D01*
X818Y2671D01*
X817Y2671D01*
X816Y2671D01*
X815Y2671D01*
X814Y2671D01*
X813Y2671D01*
X812Y2671D01*
X811Y2671D01*
X810Y2671D01*
X809Y2671D01*
X808Y2671D01*
X807Y2671D01*
X806Y2671D01*
X805Y2671D01*
X804Y2671D01*
X803Y2671D01*
X802Y2671D01*
X801Y2671D01*
X800Y2671D01*
X799Y2671D01*
X798Y2671D01*
X797Y2671D01*
X796Y2671D01*
X795Y2671D01*
X794Y2671D01*
X793Y2671D01*
X792Y2671D01*
X791Y2671D01*
X790Y2671D01*
X789Y2671D01*
X788Y2671D01*
X787Y2671D01*
X786Y2671D01*
X785Y2671D01*
X784Y2671D01*
X783Y2671D01*
X782Y2671D01*
X781Y2671D01*
X780Y2671D01*
X779Y2671D01*
X778Y2671D01*
X777Y2671D01*
X776Y2671D01*
X775Y2671D01*
X774Y2671D01*
X773Y2671D01*
X772Y2671D01*
X771Y2671D01*
X770Y2671D01*
X769Y2671D01*
X768Y2671D01*
X767Y2671D01*
X766Y2671D01*
X765Y2671D01*
X764Y2671D01*
X763Y2671D01*
X762Y2671D01*
X761Y2671D01*
X760Y2671D01*
X759Y2671D01*
X758Y2671D01*
X757Y2671D01*
X756Y2671D01*
X755Y2671D01*
X754Y2671D01*
X753Y2671D01*
X752Y2671D01*
X751Y2671D01*
X750Y2671D01*
X749Y2671D01*
X748Y2671D01*
X747Y2671D01*
X746Y2671D01*
X745Y2671D01*
X744Y2671D01*
X743Y2671D01*
X742Y2671D01*
X741Y2671D01*
X740Y2671D01*
X739Y2671D01*
X738Y2671D01*
X737Y2671D01*
X736Y2671D01*
X735Y2671D01*
X734Y2671D01*
X733Y2671D01*
X732Y2671D01*
X731Y2671D01*
X730Y2671D01*
X729Y2671D01*
X728Y2671D01*
X727Y2671D01*
X726Y2671D01*
X725Y2671D01*
X724Y2671D01*
X723Y2671D01*
X722Y2671D01*
X721Y2671D01*
X720Y2671D01*
X719Y2671D01*
X718Y2671D01*
X717Y2671D01*
X716Y2671D01*
X715Y2671D01*
X714Y2671D01*
X713Y2671D01*
X712Y2671D01*
X711Y2671D01*
X710Y2671D01*
X709Y2671D01*
X708Y2671D01*
X707Y2671D01*
X706Y2671D01*
X705Y2671D01*
X704Y2671D01*
X703Y2671D01*
X702Y2671D01*
X701Y2671D01*
X700Y2671D01*
X699Y2671D01*
X698Y2671D01*
X697Y2671D01*
X696Y2671D01*
X695Y2671D01*
X694Y2671D01*
X693Y2671D01*
X692Y2671D01*
X691Y2671D01*
X690Y2671D01*
X689Y2671D01*
X688Y2671D01*
X687Y2671D01*
X686Y2671D01*
X685Y2671D01*
X684Y2671D01*
X683Y2671D01*
X682Y2671D01*
X681Y2671D01*
X680Y2671D01*
X679Y2671D01*
X678Y2671D01*
X677Y2671D01*
X676Y2671D01*
X675Y2671D01*
X674Y2671D01*
X673Y2671D01*
X672Y2671D01*
X671Y2671D01*
X670Y2671D01*
X669Y2671D01*
X668Y2671D01*
X667Y2671D01*
X666Y2671D01*
X665Y2671D01*
X664Y2671D01*
X663Y2671D01*
X662Y2671D01*
X661Y2671D01*
X660Y2671D01*
X659Y2671D01*
X658Y2671D01*
X657Y2671D01*
X656Y2671D01*
X655Y2671D01*
X654Y2671D01*
X653Y2671D01*
X652Y2671D01*
X651Y2671D01*
X650Y2671D01*
X649Y2671D01*
X648Y2671D01*
X647Y2671D01*
X646Y2671D01*
X645Y2671D01*
X644Y2671D01*
X643Y2671D01*
X642Y2671D01*
X641Y2671D01*
X640Y2671D01*
X639Y2671D01*
X638Y2671D01*
X637Y2671D01*
X636Y2671D01*
X635Y2671D01*
X634Y2671D01*
X633Y2671D01*
X632Y2671D01*
X631Y2671D01*
X630Y2671D01*
X629Y2671D01*
X628Y2671D01*
X627Y2671D01*
X626Y2671D01*
X625Y2671D01*
X624Y2671D01*
X623Y2671D01*
X622Y2671D01*
X621Y2671D01*
X620Y2671D01*
X619Y2671D01*
X618Y2671D01*
X617Y2671D01*
X616Y2671D01*
X615Y2671D01*
X614Y2671D01*
X613Y2671D01*
X612Y2671D01*
X611Y2671D01*
X610Y2671D01*
X609Y2671D01*
X608Y2671D01*
X607Y2671D01*
X606Y2671D01*
X605Y2671D01*
X604Y2671D01*
X603Y2671D01*
X602Y2671D01*
X601Y2671D01*
X600Y2671D01*
X599Y2671D01*
X598Y2671D01*
X597Y2671D01*
X596Y2671D01*
X595Y2671D01*
X594Y2671D01*
X593Y2671D01*
X592Y2671D01*
X591Y2671D01*
X590Y2671D01*
X589Y2671D01*
X588Y2671D01*
X587Y2671D01*
X586Y2671D01*
X585Y2671D01*
X584Y2671D01*
X583Y2671D01*
X582Y2671D01*
X581Y2671D01*
X580Y2671D01*
X579Y2671D01*
X578Y2671D01*
X577Y2671D01*
X576Y2671D01*
X575Y2671D01*
X574Y2671D01*
X573Y2671D01*
X572Y2671D01*
X571Y2671D01*
X570Y2671D01*
X569Y2671D01*
X568Y2671D01*
X567Y2671D01*
X566Y2671D01*
X565Y2671D01*
X564Y2671D01*
X563Y2671D01*
X562Y2671D01*
X561Y2671D01*
X560Y2671D01*
X559Y2671D01*
X558Y2671D01*
X557Y2671D01*
X556Y2671D01*
X555Y2671D01*
X554Y2671D01*
X553Y2671D01*
X552Y2671D01*
X551Y2671D01*
X550Y2671D01*
X549Y2671D01*
X548Y2671D01*
X547Y2671D01*
X546Y2671D01*
X545Y2671D01*
X544Y2671D01*
X543Y2671D01*
X542Y2671D01*
X541Y2671D01*
X540Y2671D01*
X539Y2671D01*
X538Y2671D01*
X537Y2671D01*
X536Y2671D01*
X535Y2671D01*
X534Y2671D01*
X533Y2671D01*
X532Y2671D01*
X531Y2671D01*
X530Y2671D01*
X529Y2671D01*
X528Y2671D01*
X527Y2671D01*
X526Y2671D01*
X525Y2671D01*
X524Y2671D01*
X523Y2671D01*
X522Y2671D01*
X521Y2671D01*
X520Y2671D01*
X519Y2671D01*
X518Y2671D01*
X517Y2671D01*
X516Y2671D01*
X515Y2671D01*
X514Y2671D01*
X513Y2671D01*
X512Y2671D01*
X511Y2671D01*
X510Y2671D01*
X509Y2671D01*
X508Y2671D01*
X507Y2671D01*
X506Y2671D01*
X505Y2671D01*
X504Y2671D01*
X503Y2671D01*
X502Y2671D01*
X501Y2671D01*
X500Y2671D01*
X499Y2671D01*
X498Y2671D01*
X497Y2671D01*
X496Y2671D01*
X495Y2671D01*
X494Y2671D01*
X493Y2671D01*
X492Y2671D01*
X491Y2671D01*
X490Y2671D01*
X489Y2671D01*
X488Y2671D01*
X487Y2671D01*
X486Y2671D01*
X485Y2671D01*
X484Y2671D01*
X483Y2671D01*
X482Y2671D01*
X481Y2671D01*
X480Y2671D01*
X479Y2671D01*
X478Y2671D01*
X477Y2671D01*
X476Y2671D01*
X475Y2671D01*
X474Y2671D01*
X473Y2671D01*
X472Y2671D01*
X471Y2671D01*
X470Y2671D01*
X469Y2671D01*
X468Y2671D01*
X467Y2671D01*
X466Y2671D01*
X465Y2671D01*
X464Y2671D01*
X463Y2671D01*
X462Y2671D01*
X461Y2671D01*
X460Y2671D01*
X459Y2671D01*
X458Y2671D01*
X457Y2671D01*
D02*
G04 End of contour*
M02*