M48
;DRILL file {KiCad 4.0.7} date Sunday 11 February 2018 12:25:30
;FORMAT={-:-/ absolute / inch / decimal}
FMAT,2
INCH,TZ
T1C0.030
T2C0.108
%
G90
G05
M72
T1
X7.3Y-4.2
X7.3Y-4.4
X7.3Y-4.6
X7.4Y-4.3
X7.4Y-4.5
X7.5Y-4.2
X7.5Y-4.4
X7.5Y-4.6
X7.6Y-4.3
X7.6Y-4.5
X7.7Y-4.2
X7.7Y-4.4
X7.7Y-4.6
X7.8Y-4.3
X7.8Y-4.5
X7.9Y-4.2
X7.9Y-4.4
X7.9Y-4.6
T2
X6.6583Y-3.85
X6.6583Y-3.85
X6.6583Y-4.7555
X8.9417Y-3.85
X8.9417Y-4.7555
T0
M30
