M48
;DRILL file {KiCad 4.0.7} date Monday 12 March 2018 21:09:54
;FORMAT={3:3/ absolute / metric / suppress leading zeros}
FMAT,2
METRIC,TZ
T1C0.400
T2C1.000
T3C1.100
T4C1.300
T5C1.400
T6C2.750
T7C3.000
%
G90
G05
M71
T1
X171831Y-140970
X173990Y-146050
X228600Y-132080
X232283Y-95631
X232410Y-130937
X233426Y-96774
X234569Y-97917
X234950Y-134366
X235712Y-99060
X243840Y-139446
X244983Y-102997
X244983Y-118364
X247269Y-133350
T2
X167386Y-125857
X167767Y-146177
X167767Y-148717
X167767Y-151257
X167767Y-153797
X173990Y-96520
X173990Y-99060
X176530Y-96520
X176530Y-99060
X179070Y-96520
X179070Y-99060
X181610Y-96520
X181610Y-99060
X184150Y-96520
X184150Y-99060
X186690Y-96520
X186690Y-99060
X189230Y-96520
X189230Y-99060
X191770Y-96520
X191770Y-99060
X194310Y-96520
X194310Y-99060
X196850Y-96520
X196850Y-99060
X199390Y-96520
X199390Y-99060
X201930Y-96520
X201930Y-99060
X204470Y-96520
X204470Y-99060
X207010Y-96520
X207010Y-99060
X209550Y-96520
X209550Y-99060
X212090Y-96520
X212090Y-99060
X214630Y-96520
X214630Y-99060
X217170Y-96520
X217170Y-99060
X219710Y-96520
X219710Y-99060
X222250Y-96520
X222250Y-99060
T3
X233560Y-125920
X238760Y-96520
X243760Y-96520
X248960Y-125920
T4
X220060Y-134390
X220060Y-146590
X226060Y-148590
X232060Y-134390
X232060Y-146590
X237840Y-134390
X237840Y-146590
X243840Y-148590
X249840Y-134390
X249840Y-146590
T5
X181102Y-133477
X181102Y-138557
X181102Y-143637
X181102Y-148717
T6
X169120Y-97790
X169120Y-97790
X169120Y-120790
X227120Y-97790
X227120Y-120790
T7
X185420Y-106680
X185420Y-111760
X185420Y-116840
X187960Y-109220
X187960Y-114300
X190500Y-106680
X190500Y-111760
X190500Y-116840
X193040Y-109220
X193040Y-114300
X195580Y-106680
X195580Y-111760
X195580Y-116840
X198120Y-109220
X198120Y-114300
X200660Y-106680
X200660Y-111760
X200660Y-116840
T0
M30
