G04 #@! TF.FileFunction,Legend,Bot*
%FSLAX46Y46*%
G04 Gerber Fmt 4.6, Leading zero omitted, Abs format (unit mm)*
G04 Created by KiCad (PCBNEW 4.0.7) date Sunday 11 February 2018 15:57:34*
%MOMM*%
%LPD*%
G01*
G04 APERTURE LIST*
%ADD10C,0.100000*%
%ADD11C,0.300000*%
%ADD12C,0.120000*%
%ADD13C,0.150000*%
G04 APERTURE END LIST*
D10*
D11*
X240557857Y-127912571D02*
X240557857Y-126769714D01*
X239986429Y-127341143D02*
X241129286Y-127341143D01*
X241486429Y-125341142D02*
X241486429Y-126055428D01*
X240772143Y-126126857D01*
X240843571Y-126055428D01*
X240915000Y-125912571D01*
X240915000Y-125555428D01*
X240843571Y-125412571D01*
X240772143Y-125341142D01*
X240629286Y-125269714D01*
X240272143Y-125269714D01*
X240129286Y-125341142D01*
X240057857Y-125412571D01*
X239986429Y-125555428D01*
X239986429Y-125912571D01*
X240057857Y-126055428D01*
X240129286Y-126126857D01*
X241486429Y-124841143D02*
X239986429Y-124341143D01*
X241486429Y-123841143D01*
X246511000Y-124943857D02*
X246511000Y-124229571D01*
X246082429Y-125086714D02*
X247582429Y-124586714D01*
X246082429Y-124086714D01*
X246225286Y-122729571D02*
X246153857Y-122801000D01*
X246082429Y-123015286D01*
X246082429Y-123158143D01*
X246153857Y-123372428D01*
X246296714Y-123515286D01*
X246439571Y-123586714D01*
X246725286Y-123658143D01*
X246939571Y-123658143D01*
X247225286Y-123586714D01*
X247368143Y-123515286D01*
X247511000Y-123372428D01*
X247582429Y-123158143D01*
X247582429Y-123015286D01*
X247511000Y-122801000D01*
X247439571Y-122729571D01*
X246653857Y-122086714D02*
X246653857Y-120943857D01*
X246082429Y-119515285D02*
X246082429Y-120229571D01*
X247582429Y-120229571D01*
D12*
X249230000Y-143000000D02*
X248300000Y-143000000D01*
X246070000Y-143000000D02*
X247000000Y-143000000D01*
X246070000Y-143000000D02*
X246070000Y-140840000D01*
X249230000Y-143000000D02*
X249230000Y-141540000D01*
X231450000Y-143000000D02*
X230520000Y-143000000D01*
X228290000Y-143000000D02*
X229220000Y-143000000D01*
X228290000Y-143000000D02*
X228290000Y-140840000D01*
X231450000Y-143000000D02*
X231450000Y-141540000D01*
X248250000Y-137550000D02*
X247050000Y-137550000D01*
X247050000Y-139310000D02*
X248250000Y-139310000D01*
X230470000Y-137550000D02*
X229270000Y-137550000D01*
X229270000Y-139310000D02*
X230470000Y-139310000D01*
X245750000Y-126747000D02*
X241930000Y-126747000D01*
X241930000Y-126747000D02*
X241930000Y-124967000D01*
X241930000Y-124967000D02*
X245750000Y-124967000D01*
X245750000Y-126747000D02*
X245750000Y-124967000D01*
D13*
X247745238Y-145327619D02*
X247840476Y-145280000D01*
X247935714Y-145184762D01*
X248078571Y-145041905D01*
X248173810Y-144994286D01*
X248269048Y-144994286D01*
X248221429Y-145232381D02*
X248316667Y-145184762D01*
X248411905Y-145089524D01*
X248459524Y-144899048D01*
X248459524Y-144565714D01*
X248411905Y-144375238D01*
X248316667Y-144280000D01*
X248221429Y-144232381D01*
X248030952Y-144232381D01*
X247935714Y-144280000D01*
X247840476Y-144375238D01*
X247792857Y-144565714D01*
X247792857Y-144899048D01*
X247840476Y-145089524D01*
X247935714Y-145184762D01*
X248030952Y-145232381D01*
X248221429Y-145232381D01*
X246840476Y-145232381D02*
X247411905Y-145232381D01*
X247126191Y-145232381D02*
X247126191Y-144232381D01*
X247221429Y-144375238D01*
X247316667Y-144470476D01*
X247411905Y-144518095D01*
X229965238Y-145327619D02*
X230060476Y-145280000D01*
X230155714Y-145184762D01*
X230298571Y-145041905D01*
X230393810Y-144994286D01*
X230489048Y-144994286D01*
X230441429Y-145232381D02*
X230536667Y-145184762D01*
X230631905Y-145089524D01*
X230679524Y-144899048D01*
X230679524Y-144565714D01*
X230631905Y-144375238D01*
X230536667Y-144280000D01*
X230441429Y-144232381D01*
X230250952Y-144232381D01*
X230155714Y-144280000D01*
X230060476Y-144375238D01*
X230012857Y-144565714D01*
X230012857Y-144899048D01*
X230060476Y-145089524D01*
X230155714Y-145184762D01*
X230250952Y-145232381D01*
X230441429Y-145232381D01*
X229631905Y-144327619D02*
X229584286Y-144280000D01*
X229489048Y-144232381D01*
X229250952Y-144232381D01*
X229155714Y-144280000D01*
X229108095Y-144327619D01*
X229060476Y-144422857D01*
X229060476Y-144518095D01*
X229108095Y-144660952D01*
X229679524Y-145232381D01*
X229060476Y-145232381D01*
X247816666Y-137231381D02*
X248150000Y-136755190D01*
X248388095Y-137231381D02*
X248388095Y-136231381D01*
X248007142Y-136231381D01*
X247911904Y-136279000D01*
X247864285Y-136326619D01*
X247816666Y-136421857D01*
X247816666Y-136564714D01*
X247864285Y-136659952D01*
X247911904Y-136707571D01*
X248007142Y-136755190D01*
X248388095Y-136755190D01*
X246864285Y-137231381D02*
X247435714Y-137231381D01*
X247150000Y-137231381D02*
X247150000Y-136231381D01*
X247245238Y-136374238D01*
X247340476Y-136469476D01*
X247435714Y-136517095D01*
X230036666Y-137231381D02*
X230370000Y-136755190D01*
X230608095Y-137231381D02*
X230608095Y-136231381D01*
X230227142Y-136231381D01*
X230131904Y-136279000D01*
X230084285Y-136326619D01*
X230036666Y-136421857D01*
X230036666Y-136564714D01*
X230084285Y-136659952D01*
X230131904Y-136707571D01*
X230227142Y-136755190D01*
X230608095Y-136755190D01*
X229655714Y-136326619D02*
X229608095Y-136279000D01*
X229512857Y-136231381D01*
X229274761Y-136231381D01*
X229179523Y-136279000D01*
X229131904Y-136326619D01*
X229084285Y-136421857D01*
X229084285Y-136517095D01*
X229131904Y-136659952D01*
X229703333Y-137231381D01*
X229084285Y-137231381D01*
M02*
