G04 #@! TF.FileFunction,Soldermask,Top*
%FSLAX46Y46*%
G04 Gerber Fmt 4.6, Leading zero omitted, Abs format (unit mm)*
G04 Created by KiCad (PCBNEW 4.0.7) date Monday 12 March 2018 21:09:51*
%MOMM*%
%LPD*%
G01*
G04 APERTURE LIST*
%ADD10C,0.100000*%
%ADD11R,2.900000X2.900000*%
%ADD12O,2.900000X2.900000*%
%ADD13R,2.900000X2.700000*%
%ADD14C,2.900000*%
%ADD15R,2.100000X2.100000*%
%ADD16O,2.100000X2.100000*%
%ADD17C,3.400000*%
%ADD18C,3.150000*%
%ADD19R,4.000000X2.480000*%
%ADD20O,4.000000X2.480000*%
G04 APERTURE END LIST*
D10*
D11*
X243840000Y-148590000D03*
D12*
X249840000Y-146590000D03*
X249840000Y-134390000D03*
X237840000Y-134390000D03*
X237840000Y-146590000D03*
D13*
X241690000Y-153670000D03*
X245990000Y-153670000D03*
X223910000Y-153670000D03*
X228210000Y-153670000D03*
D11*
X226060000Y-148590000D03*
D12*
X232060000Y-146590000D03*
X232060000Y-134390000D03*
X220060000Y-134390000D03*
X220060000Y-146590000D03*
D11*
X243760000Y-96520000D03*
D14*
X238760000Y-96520000D03*
X248960000Y-125920000D03*
X233560000Y-125920000D03*
D15*
X167767000Y-146177000D03*
D16*
X167767000Y-148717000D03*
X167767000Y-151257000D03*
X167767000Y-153797000D03*
D15*
X167386000Y-125857000D03*
D17*
X200660000Y-106680000D03*
X200660000Y-116840000D03*
X200660000Y-111760000D03*
X198120000Y-114300000D03*
X198120000Y-109220000D03*
X195580000Y-106680000D03*
X190500000Y-106680000D03*
X185420000Y-106680000D03*
X187960000Y-109220000D03*
X193040000Y-109220000D03*
X195580000Y-111760000D03*
X195580000Y-116840000D03*
X193040000Y-114300000D03*
X190500000Y-111760000D03*
X190500000Y-116840000D03*
X187960000Y-114300000D03*
X185420000Y-111760000D03*
D18*
X227120000Y-120790000D03*
X227120000Y-97790000D03*
X169120000Y-120790000D03*
X169120000Y-97790000D03*
D15*
X173990000Y-99060000D03*
D16*
X173990000Y-96520000D03*
X176530000Y-99060000D03*
X176530000Y-96520000D03*
X179070000Y-99060000D03*
X179070000Y-96520000D03*
X181610000Y-99060000D03*
X181610000Y-96520000D03*
X184150000Y-99060000D03*
X184150000Y-96520000D03*
X186690000Y-99060000D03*
X186690000Y-96520000D03*
X189230000Y-99060000D03*
X189230000Y-96520000D03*
X191770000Y-99060000D03*
X191770000Y-96520000D03*
X194310000Y-99060000D03*
X194310000Y-96520000D03*
X196850000Y-99060000D03*
X196850000Y-96520000D03*
X199390000Y-99060000D03*
X199390000Y-96520000D03*
X201930000Y-99060000D03*
X201930000Y-96520000D03*
X204470000Y-99060000D03*
X204470000Y-96520000D03*
X207010000Y-99060000D03*
X207010000Y-96520000D03*
X209550000Y-99060000D03*
X209550000Y-96520000D03*
X212090000Y-99060000D03*
X212090000Y-96520000D03*
X214630000Y-99060000D03*
X214630000Y-96520000D03*
X217170000Y-99060000D03*
X217170000Y-96520000D03*
X219710000Y-99060000D03*
X219710000Y-96520000D03*
X222250000Y-99060000D03*
X222250000Y-96520000D03*
D18*
X169120000Y-97790000D03*
D17*
X185420000Y-116840000D03*
D19*
X181102000Y-148717000D03*
D20*
X181102000Y-143637000D03*
X181102000Y-138557000D03*
X181102000Y-133477000D03*
M02*
