G04 #@! TF.FileFunction,Copper,L1,Top,Signal*
%FSLAX46Y46*%
G04 Gerber Fmt 4.6, Leading zero omitted, Abs format (unit mm)*
G04 Created by KiCad (PCBNEW 4.0.7) date Sunday 11 February 2018 15:57:34*
%MOMM*%
%LPD*%
G01*
G04 APERTURE LIST*
%ADD10C,0.100000*%
%ADD11C,3.000000*%
%ADD12R,1.700000X1.700000*%
%ADD13O,1.700000X1.700000*%
%ADD14R,2.500000X2.500000*%
%ADD15O,2.500000X2.500000*%
%ADD16R,2.500000X2.300000*%
%ADD17C,2.500000*%
%ADD18R,2.999740X2.999740*%
%ADD19C,2.999740*%
%ADD20C,0.600000*%
%ADD21C,1.000000*%
%ADD22C,1.500000*%
%ADD23C,0.500000*%
%ADD24C,0.250000*%
G04 APERTURE END LIST*
D10*
D11*
X200660000Y-106680000D03*
X200660000Y-116840000D03*
X200660000Y-111760000D03*
X198120000Y-114300000D03*
X198120000Y-109220000D03*
X195580000Y-106680000D03*
X190500000Y-106680000D03*
X185420000Y-106680000D03*
X187960000Y-109220000D03*
X193040000Y-109220000D03*
X195580000Y-111760000D03*
X195580000Y-116840000D03*
X193040000Y-114300000D03*
X190500000Y-111760000D03*
X190500000Y-116840000D03*
X187960000Y-114300000D03*
X185420000Y-111760000D03*
D12*
X173990000Y-99060000D03*
D13*
X173990000Y-96520000D03*
X176530000Y-99060000D03*
X176530000Y-96520000D03*
X179070000Y-99060000D03*
X179070000Y-96520000D03*
X181610000Y-99060000D03*
X181610000Y-96520000D03*
X184150000Y-99060000D03*
X184150000Y-96520000D03*
X186690000Y-99060000D03*
X186690000Y-96520000D03*
X189230000Y-99060000D03*
X189230000Y-96520000D03*
X191770000Y-99060000D03*
X191770000Y-96520000D03*
X194310000Y-99060000D03*
X194310000Y-96520000D03*
X196850000Y-99060000D03*
X196850000Y-96520000D03*
X199390000Y-99060000D03*
X199390000Y-96520000D03*
X201930000Y-99060000D03*
X201930000Y-96520000D03*
X204470000Y-99060000D03*
X204470000Y-96520000D03*
X207010000Y-99060000D03*
X207010000Y-96520000D03*
X209550000Y-99060000D03*
X209550000Y-96520000D03*
X212090000Y-99060000D03*
X212090000Y-96520000D03*
X214630000Y-99060000D03*
X214630000Y-96520000D03*
X217170000Y-99060000D03*
X217170000Y-96520000D03*
X219710000Y-99060000D03*
X219710000Y-96520000D03*
X222250000Y-99060000D03*
X222250000Y-96520000D03*
D11*
X185420000Y-116840000D03*
D14*
X243840000Y-148590000D03*
D15*
X249840000Y-146590000D03*
X249840000Y-134390000D03*
X237840000Y-134390000D03*
X237840000Y-146590000D03*
D16*
X241690000Y-153670000D03*
X245990000Y-153670000D03*
X223910000Y-153670000D03*
X228210000Y-153670000D03*
D14*
X226060000Y-148590000D03*
D15*
X232060000Y-146590000D03*
X232060000Y-134390000D03*
X220060000Y-134390000D03*
X220060000Y-146590000D03*
D14*
X243760000Y-96520000D03*
D17*
X238760000Y-96520000D03*
X248960000Y-125920000D03*
X233560000Y-125920000D03*
D12*
X167767000Y-146177000D03*
D13*
X167767000Y-148717000D03*
X167767000Y-151257000D03*
X167767000Y-153797000D03*
D12*
X167386000Y-125857000D03*
D18*
X180975000Y-148844000D03*
D19*
X180975000Y-143764000D03*
X180975000Y-138684000D03*
X180975000Y-133604000D03*
D20*
X234950000Y-134366000D03*
X171831000Y-140970000D03*
X232283000Y-95631000D03*
X233426000Y-96774000D03*
X234569000Y-97917000D03*
X235712000Y-99060000D03*
X244983000Y-102997000D03*
X244983000Y-118364000D03*
X243840000Y-139446000D03*
X173990000Y-146050000D03*
X232410000Y-130937000D03*
X247269000Y-133350000D03*
X228600000Y-132080000D03*
D21*
X173990000Y-99060000D02*
X175768000Y-100838000D01*
X192532000Y-100838000D02*
X194310000Y-99060000D01*
X175768000Y-100838000D02*
X192532000Y-100838000D01*
X234950000Y-144526000D02*
X234950000Y-134366000D01*
X237840000Y-146590000D02*
X237840000Y-149820000D01*
X237840000Y-149820000D02*
X241690000Y-153670000D01*
X220060000Y-146590000D02*
X220060000Y-149820000D01*
X220060000Y-149820000D02*
X223910000Y-153670000D01*
X230124000Y-125920000D02*
X221932000Y-125920000D01*
X172212000Y-96520000D02*
X173990000Y-96520000D01*
X171196000Y-97536000D02*
X172212000Y-96520000D01*
X171196000Y-108527998D02*
X171196000Y-97536000D01*
X184912000Y-122243998D02*
X171196000Y-108527998D01*
X218255998Y-122243998D02*
X184912000Y-122243998D01*
X221932000Y-125920000D02*
X218255998Y-122243998D01*
X237840000Y-146590000D02*
X235776000Y-144526000D01*
X235776000Y-144526000D02*
X234950000Y-144526000D01*
X234950000Y-144526000D02*
X232791000Y-144526000D01*
X222124000Y-144526000D02*
X220060000Y-146590000D01*
X232791000Y-144526000D02*
X222124000Y-144526000D01*
X233560000Y-125920000D02*
X230124000Y-125920000D01*
X230124000Y-125920000D02*
X230060000Y-125920000D01*
D22*
X247396000Y-99949000D02*
X236601000Y-99949000D01*
D23*
X167767000Y-148717000D02*
X171831000Y-144653000D01*
X171831000Y-144653000D02*
X171831000Y-140970000D01*
D22*
X248960000Y-125920000D02*
X248960000Y-101513000D01*
X235712000Y-99060000D02*
X236601000Y-99949000D01*
X234569000Y-97917000D02*
X235712000Y-99060000D01*
X233426000Y-96774000D02*
X234569000Y-97917000D01*
X232283000Y-95631000D02*
X233426000Y-96774000D01*
X248960000Y-101513000D02*
X247396000Y-99949000D01*
D21*
X249840000Y-146590000D02*
X249840000Y-149820000D01*
X249840000Y-149820000D02*
X245990000Y-153670000D01*
X232060000Y-146590000D02*
X232060000Y-149820000D01*
X232060000Y-149820000D02*
X228210000Y-153670000D01*
X244983000Y-102997000D02*
X244983000Y-118364000D01*
X243840000Y-139446000D02*
X243840000Y-148590000D01*
D24*
X168783000Y-151257000D02*
X167767000Y-151257000D01*
X173990000Y-146050000D02*
X168783000Y-151257000D01*
D23*
X166751000Y-125222000D02*
X166751000Y-103632000D01*
X185166000Y-94996000D02*
X168656000Y-94996000D01*
X168656000Y-94996000D02*
X166751000Y-96901000D01*
X166751000Y-96901000D02*
X166751000Y-103632000D01*
X185166000Y-94996000D02*
X186690000Y-96520000D01*
X166751000Y-125222000D02*
X167386000Y-125857000D01*
D24*
X245745000Y-130937000D02*
X246761000Y-129921000D01*
X232410000Y-130937000D02*
X245745000Y-130937000D01*
X193040000Y-97790000D02*
X194818000Y-97790000D01*
X193040000Y-97790000D02*
X191770000Y-96520000D01*
X196723000Y-100838000D02*
X230505000Y-100838000D01*
X195580000Y-99695000D02*
X196723000Y-100838000D01*
X195580000Y-98425000D02*
X195580000Y-99695000D01*
X194945000Y-97790000D02*
X195580000Y-98425000D01*
X194818000Y-97790000D02*
X194945000Y-97790000D01*
X234442000Y-100838000D02*
X230505000Y-100838000D01*
X235712000Y-102108000D02*
X234442000Y-100838000D01*
X246380000Y-102108000D02*
X235712000Y-102108000D01*
X246761000Y-102489000D02*
X246380000Y-102108000D01*
X246761000Y-129921000D02*
X246761000Y-102489000D01*
X247269000Y-133350000D02*
X247269000Y-102870000D01*
X247269000Y-102870000D02*
X247269000Y-102235000D01*
X247269000Y-102235000D02*
X246634000Y-101600000D01*
X246634000Y-101600000D02*
X236093000Y-101600000D01*
X236093000Y-101600000D02*
X235966000Y-101600000D01*
X235966000Y-101600000D02*
X234696000Y-100330000D01*
X234696000Y-100330000D02*
X230632000Y-100330000D01*
X213360000Y-97790000D02*
X213360000Y-99568000D01*
X212090000Y-96520000D02*
X213360000Y-97790000D01*
X214122000Y-100330000D02*
X230632000Y-100330000D01*
X213360000Y-99568000D02*
X214122000Y-100330000D01*
D21*
X249840000Y-134390000D02*
X241705000Y-134390000D01*
X239395000Y-132080000D02*
X228600000Y-132080000D01*
X241705000Y-134390000D02*
X239395000Y-132080000D01*
X181102000Y-127254000D02*
X180975000Y-127381000D01*
X228624000Y-134390000D02*
X217678000Y-123444000D01*
X217678000Y-123444000D02*
X184912000Y-123444000D01*
X184912000Y-123444000D02*
X181102000Y-127254000D01*
X232060000Y-134390000D02*
X228624000Y-134390000D01*
X180975000Y-127381000D02*
X180975000Y-133604000D01*
X232060000Y-134390000D02*
X230910000Y-134390000D01*
M02*
