M48
;DRILL file {KiCad 4.0.7} date Sunday 11 February 2018 12:25:30
;FORMAT={-:-/ absolute / inch / decimal}
FMAT,2
INCH,TZ
T1C0.016
T2C0.039
T3C0.043
T4C0.049
T5C0.051
%
G90
G05
M72
T1
X6.765Y-5.55
X6.85Y-5.75
X9.Y-5.2
X9.145Y-3.765
X9.15Y-5.155
X9.19Y-3.81
X9.235Y-3.855
X9.25Y-5.29
X9.28Y-3.9
X9.6Y-5.49
X9.645Y-4.055
X9.645Y-4.66
X9.735Y-5.25
T2
X6.59Y-4.955
X6.605Y-5.755
X6.605Y-5.855
X6.605Y-5.955
X6.605Y-6.055
X6.85Y-3.8
X6.85Y-3.9
X6.95Y-3.8
X6.95Y-3.9
X7.05Y-3.8
X7.05Y-3.9
X7.15Y-3.8
X7.15Y-3.9
X7.25Y-3.8
X7.25Y-3.9
X7.35Y-3.8
X7.35Y-3.9
X7.45Y-3.8
X7.45Y-3.9
X7.55Y-3.8
X7.55Y-3.9
X7.65Y-3.8
X7.65Y-3.9
X7.75Y-3.8
X7.75Y-3.9
X7.85Y-3.8
X7.85Y-3.9
X7.95Y-3.8
X7.95Y-3.9
X8.05Y-3.8
X8.05Y-3.9
X8.15Y-3.8
X8.15Y-3.9
X8.25Y-3.8
X8.25Y-3.9
X8.35Y-3.8
X8.35Y-3.9
X8.45Y-3.8
X8.45Y-3.9
X8.55Y-3.8
X8.55Y-3.9
X8.65Y-3.8
X8.65Y-3.9
X8.75Y-3.8
X8.75Y-3.9
T3
X9.1953Y-4.9575
X9.4Y-3.8
X9.5969Y-3.8
X9.8016Y-4.9575
T4
X7.125Y-5.26
X7.125Y-5.46
X7.125Y-5.66
X7.125Y-5.86
T5
X8.6638Y-5.2909
X8.6638Y-5.7713
X8.9Y-5.85
X9.1362Y-5.2909
X9.1362Y-5.7713
X9.3638Y-5.2909
X9.3638Y-5.7713
X9.6Y-5.85
X9.8362Y-5.2909
X9.8362Y-5.7713
T0
M30
